<svg width="16" height="16" viewBox="0 0 16 16" fill="none" xmlns="http://www.w3.org/2000/svg">
<rect width="16" height="16" rx="8" fill="#292676"/>
<path fill-rule="evenodd" clip-rule="evenodd" d="M10.3936 10.248C10.1666 10.4963 10.1666 10.8988 10.3936 11.1471C10.6206 11.3954 10.9886 11.3954 11.2156 11.1471L13.6816 8.44964C13.9086 8.20134 13.9086 7.79877 13.6816 7.55047L11.2156 4.85297C10.9886 4.60467 10.6206 4.60467 10.3936 4.85297C10.1666 5.10127 10.1666 5.50384 10.3936 5.75214L12.4486 8.00006L10.3936 10.248ZM5.45829 4.85302C5.68528 5.10132 5.68528 5.50389 5.45829 5.75219L3.40326 8.00011L5.45829 10.248C5.68528 10.4963 5.68528 10.8989 5.45829 11.1472C5.23129 11.3955 4.86327 11.3955 4.63628 11.1472L2.17024 8.44969C1.94325 8.20139 1.94325 7.79882 2.17024 7.55052L4.63628 4.85302C4.86327 4.60472 5.23129 4.60472 5.45829 4.85302ZM6.38781 9.75338C6.16082 9.50508 6.16082 9.10251 6.38781 8.85421L8.64229 6.38816C8.86929 6.13986 9.23731 6.13986 9.4643 6.38815C9.6913 6.63645 9.6913 7.03902 9.4643 7.28732L7.20983 9.75338C6.98283 10.0017 6.61481 10.0017 6.38781 9.75338Z" fill="#F7F2FE"/>
</svg>
