<svg width="25" height="24" viewBox="0 0 25 24" fill="none" xmlns="http://www.w3.org/2000/svg">
<path d="M23.7151 5.87479C24.1 5.48988 24.1 4.86317 23.7151 4.47826L19.5255 0.288684C19.1406 -0.0962279 18.5138 -0.0962279 18.1289 0.288684L16.1057 2.31192C15.8343 2.58333 15.4296 2.67709 15.0743 2.54386C11.0378 0.99929 6.35962 1.93689 3.24582 5.05069C-1.08194 9.37844 -1.08194 16.4253 3.24582 20.753C5.41216 22.9194 8.25456 24 11.0969 24C13.9393 24 16.7817 22.9194 18.9481 20.753C22.0619 17.6391 22.9995 12.9611 21.4549 8.92444C21.3167 8.56915 21.4154 8.16449 21.6869 7.89308L23.7151 5.87479ZM20.5766 5.52442L18.6569 7.44404C18.3855 7.71543 18.3214 8.13489 18.5089 8.47045C19.1109 9.55609 19.4811 10.7355 19.6094 11.9248C19.7278 13.0104 19.0419 14.0368 17.9957 14.3378C17.3788 14.5155 16.5646 14.6438 15.5086 14.6438C11.9704 14.6438 10.3568 11.7767 7.21827 11.7767C5.69343 11.7767 4.52391 12.1172 3.72942 12.4675C3.12244 12.7341 2.47107 12.2357 2.56976 11.5744C2.72273 10.5776 3.04843 9.60545 3.55671 8.70238C5.17529 5.81558 8.12626 4.28581 11.1069 4.28581C12.5379 4.28581 13.9788 4.63618 15.2865 5.36651L15.5333 5.49975C15.8689 5.68726 16.2883 5.62806 16.5646 5.35665L18.4842 3.43704C18.6767 3.24459 18.9875 3.24459 19.1801 3.43704L20.5766 4.83356C20.769 5.02108 20.769 5.33197 20.5766 5.52442Z" fill="url(#paint0_linear_786_137793)"/>
<defs>
<linearGradient id="paint0_linear_786_137793" x1="0.0101686" y1="11.986" x2="23.9978" y2="11.986" gradientUnits="userSpaceOnUse">
<stop stop-color="#8A86FF"/>
<stop offset="0.9952" stop-color="#E13CBD"/>
</linearGradient>
</defs>
</svg>
