<svg width="154" height="59" viewBox="0 0 154 59" fill="none" xmlns="http://www.w3.org/2000/svg">
<path d="M31.5637 38.3896C31.5637 46.6739 24.848 53.3897 16.5637 53.3897C8.27944 53.3897 1.56372 46.6739 1.56372 38.3896C1.56372 30.1054 8.27944 23.3896 16.5637 23.3896C24.848 23.3896 31.5637 30.1054 31.5637 38.3896Z" fill="white"/>
<path d="M17.9415 31.1551C18.1029 30.9095 18.2899 30.6815 18.4992 30.475C19.2962 29.6792 20.3765 29.2322 21.5028 29.2322C22.6291 29.2322 23.7094 29.6792 24.5064 30.475C25.3017 31.272 25.7484 32.3519 25.7484 33.4778C25.7484 34.6037 25.3017 35.6836 24.5064 36.4805C24.2952 36.6927 24.0621 36.882 23.8109 37.045C23.4653 37.2692 22.9714 37.4343 22.4068 37.5554V34.4269C22.4068 33.3913 21.5673 32.5519 20.5318 32.5519H17.4309C17.5523 31.9896 17.7177 31.4986 17.9415 31.1551Z" fill="black"/>
<path d="M20.5317 44.2286H17.4456C17.5644 44.7558 17.7235 45.2158 17.9353 45.543C18.099 45.7937 18.2882 46.0267 18.4998 46.2384C19.2968 47.0343 20.3771 47.4813 21.5034 47.4813C22.6297 47.4813 23.71 47.0343 24.507 46.2384L24.5036 46.235C25.2995 45.438 25.7465 44.3578 25.7465 43.2314C25.7465 42.1051 25.2995 41.0249 24.5036 40.2279C24.294 40.0187 24.0632 39.8317 23.815 39.6702C23.4692 39.4449 22.9737 39.2791 22.4067 39.1577V42.3536C22.4067 43.3892 21.5673 44.2286 20.5317 44.2286Z" fill="black"/>
<path d="M10.7309 42.3526V39.209C10.1407 39.3311 9.62365 39.5 9.26581 39.7323C9.01406 39.8945 8.78084 40.0838 8.57037 40.2968C7.77506 41.0937 7.32837 42.1736 7.32837 43.2995C7.32837 44.4255 7.77506 45.5054 8.57037 46.3023C9.36731 47.0976 10.4472 47.5443 11.5731 47.5443C12.699 47.5443 13.7789 47.0976 14.5759 46.3023C14.7851 46.0958 14.972 45.8678 15.1336 45.6222C15.3572 45.2794 15.5225 44.7891 15.644 44.2276H12.6059C11.5704 44.2276 10.7309 43.3881 10.7309 42.3526Z" fill="black"/>
<path d="M9.25049 37.111C9.61087 37.3457 10.1339 37.5159 10.7309 37.6385V34.4277C10.7309 33.3921 11.5704 32.5527 12.6059 32.5527H15.6208C15.5018 32.0253 15.3425 31.5652 15.1301 31.2381C14.9665 30.9875 14.7773 30.7544 14.5656 30.5427C13.7686 29.7468 12.6884 29.2998 11.5621 29.2998C10.4357 29.2998 9.35546 29.7468 8.55846 30.5427L8.57037 30.5461C7.77506 31.343 7.32837 32.4229 7.32837 33.5488C7.32837 34.6747 7.77506 35.7546 8.57037 36.5516C8.77687 36.7613 9.00484 36.9488 9.25049 37.111Z" fill="black"/>
<path d="M20.6365 36.9824H12.501V39.7949H20.6365V36.9824Z" fill="black"/>
<path d="M45.0305 34.0262H49.0089V35.7202C49.4023 35.1213 49.9329 34.6507 50.6002 34.3085C51.2675 33.9492 52.0547 33.7695 52.9615 33.7695C54.4161 33.7695 55.6052 34.2487 56.5292 35.2069C57.4704 36.148 57.9409 37.5853 57.9409 39.5189V47.3729H53.9625V40.2119C53.9625 39.3392 53.7487 38.6377 53.3208 38.1072C52.893 37.5767 52.277 37.3115 51.4728 37.3115C50.6856 37.3115 50.0784 37.5853 49.6505 38.1329C49.2226 38.6633 49.0089 39.3563 49.0089 40.2119V47.3729H45.0305V34.0262Z" fill="white"/>
<path d="M60.3447 34.0266H64.3231V47.3732H60.3447V34.0266ZM60.3447 29.1499H64.3231V32.6149H60.3447V29.1499Z" fill="white"/>
<path d="M72.3317 47.5271C71.0312 47.5271 69.9961 47.1849 69.2261 46.5005C68.4561 45.7989 68.0711 44.7209 68.0711 43.2665V37.1835H66.0947V34.0265H68.0711V30.6128H72.0494V34.0265H74.8471V37.1835H72.0494V42.6248C72.0494 43.0183 72.1777 43.352 72.4344 43.6258C72.6911 43.8825 73.0933 44.0108 73.6407 44.0108C74.0514 44.0108 74.4705 43.9423 74.8984 43.8055V46.8341C74.6589 47.0737 74.2996 47.2533 73.8204 47.3731C73.3584 47.4758 72.8623 47.5271 72.3317 47.5271Z" fill="white"/>
<path d="M76.7371 34.0266H80.7154V47.3732H76.7371V34.0266ZM76.7371 29.1499H80.7154V32.6149H76.7371V29.1499Z" fill="white"/>
<path d="M88.8526 47.6295C87.7918 47.6295 86.7736 47.3643 85.7983 46.8339C84.823 46.3034 84.0273 45.5163 83.4113 44.4725C82.7953 43.4287 82.4873 42.1711 82.4873 40.6995C82.4873 39.228 82.7953 37.9703 83.4113 36.9265C84.0273 35.8827 84.823 35.0957 85.7983 34.5652C86.7736 34.0347 87.7918 33.7695 88.8526 33.7695C89.5713 33.7695 90.213 33.8807 90.7776 34.1032C91.3595 34.3085 91.8215 34.5481 92.1636 34.8219C92.5058 35.0957 92.7198 35.3352 92.8053 35.5405H92.8823V34.0262H96.8606V47.3729H92.8823V45.8585H92.8053C92.7198 46.0639 92.5058 46.3034 92.1636 46.5772C91.8215 46.851 91.3595 47.0991 90.7776 47.3215C90.213 47.5269 89.5713 47.6295 88.8526 47.6295ZM86.4143 40.6995C86.4143 41.7262 86.7308 42.5475 87.364 43.1635C88.0141 43.7795 88.7841 44.0875 89.674 44.0875C90.598 44.0875 91.3764 43.7881 92.0096 43.1892C92.6598 42.5732 92.985 41.7433 92.985 40.6995C92.985 39.6557 92.6598 38.8344 92.0096 38.2355C91.3764 37.6195 90.598 37.3115 89.674 37.3115C88.7841 37.3115 88.0141 37.6195 87.364 38.2355C86.7308 38.8515 86.4143 39.6729 86.4143 40.6995Z" fill="white"/>
<path d="M38.5637 34.0266H42.5421V47.3732H38.5637V34.0266ZM38.5637 29.1499H42.5421V32.6149H38.5637V29.1499Z" fill="white"/>
<path d="M142.589 34.3551H144.101V36.6086C144.465 35.8987 145.019 35.3044 145.763 34.8256C146.523 34.3468 147.457 34.1074 148.564 34.1074C149.523 34.1074 150.383 34.3138 151.143 34.7265C151.92 35.1227 152.531 35.7336 152.978 36.5591C153.441 37.3845 153.672 38.4164 153.672 39.6546V47.2324H152.16V39.8279C152.16 38.4081 151.788 37.335 151.044 36.6086C150.3 35.8657 149.341 35.4942 148.168 35.4942C146.994 35.4942 146.019 35.8657 145.242 36.6086C144.481 37.3515 144.101 38.4246 144.101 39.8279V47.2324H142.589V34.3551Z" fill="white"/>
<path d="M133.228 47.5241C132.122 47.5241 131.082 47.2673 130.107 46.7539C129.133 46.2238 128.341 45.4536 127.73 44.4432C127.136 43.4328 126.839 42.2237 126.839 40.8158C126.839 39.4078 127.136 38.1987 127.73 37.1883C128.341 36.1779 129.133 35.416 130.107 34.9025C131.082 34.3724 132.122 34.1074 133.228 34.1074C134.4 34.1074 135.457 34.3973 136.398 34.977C137.339 35.5402 137.999 36.2524 138.379 37.1137H138.453V34.3559H139.964V47.2756H138.453V44.5177H138.379C137.999 45.3791 137.339 46.0996 136.398 46.6793C135.457 47.2425 134.4 47.5241 133.228 47.5241ZM128.349 40.8158C128.349 41.9586 128.589 42.9276 129.068 43.7227C129.546 44.5177 130.174 45.1223 130.95 45.5364C131.726 45.9339 132.551 46.1327 133.426 46.1327C134.301 46.1327 135.127 45.9339 135.902 45.5364C136.679 45.1223 137.306 44.5177 137.785 43.7227C138.263 42.9111 138.503 41.9421 138.503 40.8158C138.503 39.6894 138.263 38.7287 137.785 37.9336C137.306 37.122 136.679 36.5174 135.902 36.1199C135.127 35.7058 134.301 35.4988 133.426 35.4988C132.551 35.4988 131.726 35.7058 130.95 36.1199C130.174 36.5174 129.546 37.1137 129.068 37.9088C128.589 38.7038 128.349 39.6728 128.349 40.8158Z" fill="white"/>
<path d="M119.951 47.5241C118.842 47.5241 117.782 47.2591 116.771 46.729C115.777 46.199 114.97 45.4287 114.351 44.4184C113.731 43.3914 113.421 42.1988 113.421 40.8406C113.421 39.4658 113.731 38.2732 114.351 37.2628C114.97 36.2359 115.777 35.4573 116.771 34.9273C117.782 34.3807 118.842 34.1074 119.951 34.1074C121.076 34.1074 122.127 34.389 123.105 34.9522C124.084 35.4988 124.842 36.2773 125.38 37.2876L124.206 37.9585C123.782 37.18 123.195 36.5754 122.445 36.1448C121.695 35.7141 120.88 35.4988 120 35.4988C119.136 35.4988 118.312 35.7141 117.53 36.1448C116.747 36.5589 116.111 37.1717 115.622 37.9833C115.149 38.795 114.913 39.7474 114.913 40.8406C114.913 41.9338 115.149 42.8779 115.622 43.673C116.111 44.4681 116.747 45.0809 117.53 45.5116C118.312 45.9257 119.136 46.1327 120 46.1327C120.88 46.1327 121.695 45.9174 122.445 45.4867C123.195 45.0561 123.782 44.4515 124.206 43.673L125.38 44.3438C124.842 45.3542 124.084 46.141 123.105 46.7042C122.127 47.2508 121.076 47.5241 119.951 47.5241Z" fill="white"/>
<path d="M107.651 47.5241C106.471 47.5241 105.483 47.2177 104.685 46.6048C103.904 45.992 103.413 45.1555 103.214 44.0954L104.535 43.7227C104.735 44.5178 105.108 45.1306 105.657 45.5613C106.205 45.992 106.87 46.2073 107.651 46.2073C108.416 46.2073 109.072 46.0168 109.62 45.6358C110.169 45.2383 110.443 44.6586 110.443 43.8966C110.443 43.2837 110.244 42.7951 109.845 42.4307C109.446 42.0498 108.781 41.6605 107.851 41.263L106.854 40.8654C104.842 40.0538 103.837 38.8778 103.837 37.3374C103.837 36.3932 104.194 35.623 104.909 35.0267C105.624 34.4139 106.521 34.1074 107.601 34.1074C108.565 34.1074 109.388 34.3559 110.069 34.8528C110.767 35.3332 111.232 35.9874 111.465 36.8156L110.244 37.2131C109.778 36.004 108.914 35.3994 107.651 35.3994C106.986 35.3994 106.43 35.5733 105.981 35.9212C105.549 36.2524 105.333 36.7245 105.333 37.3374C105.333 37.8343 105.499 38.2732 105.831 38.6542C106.164 39.0351 106.704 39.3747 107.452 39.6729L108.324 40.0207C109.587 40.5342 110.51 41.0642 111.091 41.6108C111.673 42.1574 111.964 42.9194 111.964 43.8966C111.964 45.0727 111.54 45.9754 110.693 46.6048C109.845 47.2177 108.831 47.5241 107.651 47.5241Z" fill="white"/>
<path d="M45.2062 10.604C43.3829 15.3045 41.8097 21.6044 38.4526 25.6009C37.2224 27.0655 35.2924 26.735 33.6357 26.4451C32.1339 26.1823 30.8571 25.6818 29.5637 24.9057" stroke="#FFB1E7" stroke-width="2" stroke-linecap="round"/>
<path d="M45.6531 5.68777C46.6796 5.09053 49.5107 4.1431 47.4408 3.45312" stroke="#FFB1E7" stroke-width="2" stroke-linecap="round"/>
<path d="M50.5692 13.2857C50.8462 13.1314 55.9088 10.7865 55.4357 9.95856C54.9959 9.18886 51.8056 9.76953 51.1402 9.98338C49.166 10.618 48.3965 13.8227 48.3345 15.6196C48.1837 19.9933 53.7799 18.8106 56.3792 16.8611" stroke="#FFB1E7" stroke-width="2" stroke-linecap="round"/>
<path d="M59.5076 9.71018C59.5076 12.3918 59.5076 15.0733 59.5076 17.7549C59.5076 18.1644 59.5972 16.9156 59.8055 16.5631C61.7344 13.2989 65.1047 10.539 68.3716 8.71701C71.161 7.16142 72.6158 7.09172 72.1705 10.6537C71.9582 12.3524 71.4301 16.1117 70.2338 17.308" stroke="#FFB1E7" stroke-width="2" stroke-linecap="round"/>
<path d="M76.9382 8.81641C77.5363 12.595 77.6663 16.9524 81.8048 13.5588C82.8361 12.7131 85.6755 9.7494 87.2672 10.8028C89.2942 12.1442 88.7963 17.0412 88.1114 19.0958" stroke="#FFB1E7" stroke-width="2" stroke-linecap="round"/>
<path d="M97.9436 9.71021L95.709 20.8834" stroke="#FFB1E7" stroke-width="2" stroke-linecap="round"/>
<path d="M99.7314 1.21851C99.7314 1.80274 99.7571 1.87604 99.2844 2.11236" stroke="#FFB1E7" stroke-width="2" stroke-linecap="round"/>
<path d="M104.201 12.3918C104.251 12.3599 107.93 10.1572 107.081 10.1572C106.319 10.1572 105.43 10.0358 104.747 10.4551C103.021 11.5142 102.004 14.4907 101.966 16.4142C101.946 17.4174 101.485 19.0958 102.81 19.0958C105.12 19.0958 107.32 18.2019 109.564 18.2019" stroke="#FFB1E7" stroke-width="2" stroke-linecap="round"/>
<path d="M39.5637 49.3581C58.1107 42.9935 63.4296 41.1516 80.8054 35.2433C83.7973 34.2259 86.7951 33.2256 89.7867 32.2071C92.9357 31.135 92.0952 31.8628 93.0663 30.9774C93.6964 30.403 95.2415 30.344 96.0324 30.2124C98.5804 29.7883 101.253 28.8784 103.823 29.2847" stroke="#FFB1E7" stroke-width="3" stroke-linecap="round"/>
<path fill-rule="evenodd" clip-rule="evenodd" d="M4.19956 9.86077C4.68046 9.52422 4.80846 8.85414 4.48544 8.3641C4.16242 7.87406 3.51071 7.74963 3.02981 8.08618C2.5489 8.42272 2.42091 9.09281 2.74392 9.58285C3.06694 10.0729 3.71865 10.1973 4.19956 9.86077ZM6.62582 10.1709C7.04294 9.87899 7.15396 9.29777 6.87378 8.87272C6.59361 8.44768 6.02833 8.33975 5.61121 8.63166C5.19408 8.92358 5.08306 9.50479 5.36324 9.92984C5.64341 10.3549 6.20869 10.4628 6.62582 10.1709ZM1.6652 12.5161C1.94538 12.9412 1.83436 13.5224 1.41723 13.8143C1.00011 14.1062 0.43483 13.9983 0.154653 13.5732C-0.125523 13.1482 -0.0145041 12.567 0.402622 12.275C0.819748 11.9831 1.38502 12.0911 1.6652 12.5161ZM5.58533 21.6186C5.88854 22.1211 5.73394 22.7856 5.24 23.1027C4.74607 23.4198 4.09985 23.2694 3.79663 22.7668C3.49341 22.2643 3.64802 21.5998 4.14195 21.2827C4.63589 20.9657 5.28211 21.116 5.58533 21.6186ZM7.95039 22.2248C8.2134 22.6607 8.07929 23.237 7.65087 23.5121C7.22244 23.7871 6.66193 23.6567 6.39892 23.2208C6.13592 22.7849 6.27002 22.2086 6.69845 21.9335C7.12688 21.6585 7.68739 21.7889 7.95039 22.2248ZM2.30744 26.9418C2.73586 26.6668 2.86997 26.0905 2.60696 25.6545C2.34396 25.2186 1.78345 25.0882 1.35502 25.3633C0.926595 25.6383 0.792492 26.2146 1.0555 26.6505C1.3185 27.0864 1.87901 27.2168 2.30744 26.9418ZM17.3577 29.7067C17.8842 29.4473 18.1127 28.8045 17.868 28.271C17.6234 27.7375 16.9982 27.5152 16.4717 27.7746C15.9452 28.034 15.7167 28.6768 15.9614 29.2103C16.206 29.7439 16.8312 29.9661 17.3577 29.7067ZM19.7043 30.3929C20.161 30.1679 20.3592 29.6104 20.147 29.1476C19.9347 28.6848 19.3925 28.4921 18.9358 28.7171C18.4791 28.942 18.281 29.4996 18.4932 29.9624C18.7054 30.4251 19.2476 30.6179 19.7043 30.3929ZM14.0261 33.1896C14.4828 32.9646 14.681 32.4071 14.4688 31.9443C14.2566 31.4815 13.7143 31.2887 13.2577 31.5137C12.801 31.7387 12.6028 32.2963 12.815 32.7591C13.0272 33.2218 13.5694 33.4146 14.0261 33.1896ZM15.4821 29.4462C15.7267 29.9797 15.4982 30.6225 14.9717 30.8819C14.4452 31.1413 13.8201 30.919 13.5754 30.3855C13.3308 29.852 13.5592 29.2092 14.0858 28.9498C14.6123 28.6904 15.2374 28.9126 15.4821 29.4462ZM16.3192 30.6C16.7704 30.3261 17.4 30.2916 18.0087 30.508L19.1645 30.9188C20.1734 31.2774 20.6942 32.4132 20.3254 33.4506C20.0115 34.3336 19.1291 34.8836 18.2338 34.7752C18.0303 35.1063 17.7413 35.3622 17.4109 35.525C16.9549 35.7496 16.4202 35.797 15.9222 35.6199C14.9132 35.2613 14.3924 34.1255 14.7612 33.0881L15.1835 31.8999C15.406 31.2741 15.8296 30.7897 16.3192 30.6ZM12.6584 46.9678C13.133 46.7838 13.3792 46.2458 13.2084 45.7661C13.0376 45.2864 12.5144 45.0467 12.0398 45.2307C11.5652 45.4147 11.319 45.9527 11.4898 46.4324C11.6606 46.9121 12.1838 47.1518 12.6584 46.9678ZM19.0972 43.4872C19.268 43.9668 19.0217 44.5049 18.5471 44.6889C18.0726 44.8729 17.5494 44.6331 17.3785 44.1535C17.2077 43.6738 17.454 43.1357 17.9286 42.9517C18.4032 42.7677 18.9264 43.0075 19.0972 43.4872ZM13.7969 44.7508C14.344 44.5387 14.6279 43.9184 14.431 43.3653C14.2341 42.8123 13.6309 42.5359 13.0837 42.748C12.5366 42.9602 12.2527 43.5805 12.4496 44.1335C12.6465 44.6865 13.2497 44.9629 13.7969 44.7508ZM16.9055 42.4077C17.1024 42.9607 16.8185 43.581 16.2713 43.7931C15.7242 44.0053 15.121 43.7289 14.924 43.1759C14.7271 42.6228 15.011 42.0025 15.5582 41.7904C16.1053 41.5783 16.7085 41.8546 16.9055 42.4077ZM16.8564 44.6549C16.2693 44.3859 15.6393 44.3649 15.1659 44.598C14.6618 44.7439 14.1976 45.1891 13.9212 45.7929L13.3965 46.9392C12.9384 47.94 13.3576 49.117 14.3308 49.5629C14.8112 49.783 15.3479 49.7829 15.8217 49.5992C16.1649 49.4661 16.4751 49.2366 16.7068 48.9248C17.5888 49.1114 18.5157 48.6412 18.9056 47.7893C19.3637 46.7885 18.9446 45.6115 17.9714 45.1656L16.8564 44.6549ZM23.0987 52.9033C23.1469 53.4116 22.7775 53.8729 22.2736 53.9335C21.7697 53.9942 21.3222 53.6313 21.274 53.123C21.2258 52.6147 21.5952 52.1534 22.0991 52.0927C22.6029 52.0321 23.0505 52.395 23.0987 52.9033ZM28.5079 53.2019C29.0118 53.1413 29.3812 52.68 29.333 52.1717C29.2848 51.6633 28.8372 51.3004 28.3333 51.3611C27.8294 51.4218 27.46 51.8831 27.5082 52.3914C27.5564 52.8997 28.004 53.2626 28.5079 53.2019ZM24.8572 50.8758C24.9128 51.4618 24.4869 51.9936 23.906 52.0636C23.325 52.1335 22.809 51.7151 22.7534 51.1291C22.6979 50.543 23.1237 50.0113 23.7047 49.9413C24.2856 49.8714 24.8016 50.2897 24.8572 50.8758ZM26.5256 51.7561C27.1065 51.6862 27.5324 51.1544 27.4768 50.5683C27.4213 49.9823 26.9053 49.5639 26.3243 49.6338C25.7434 49.7038 25.3175 50.2356 25.3731 50.8216C25.4286 51.4077 25.9447 51.8261 26.5256 51.7561ZM25.2737 52.2712C25.7881 52.1625 26.3921 52.3395 26.8942 52.7466L27.8476 53.5194C28.6799 54.1942 28.7981 55.4409 28.1113 56.2985C27.5265 57.0285 26.5158 57.2545 25.7086 56.8541C25.4086 57.0992 25.0527 57.2449 24.6884 57.2887C24.1856 57.3493 23.6667 57.216 23.2559 56.883C22.4237 56.2082 22.3054 54.9615 22.9923 54.1039L23.779 53.1216C24.1934 52.6043 24.7507 52.2875 25.2737 52.2712ZM2.99469 24.5438C3.48862 24.2267 3.64323 23.5623 3.34001 23.0597C3.03679 22.5572 2.39057 22.4068 1.89664 22.7239C1.40271 23.041 1.2481 23.7054 1.55131 24.208C1.85453 24.7106 2.50075 24.8609 2.99469 24.5438ZM5.96752 23.8167C5.33814 23.6702 4.71618 23.7755 4.29856 24.0986C3.8333 24.3424 3.46688 24.8716 3.31631 25.5187L3.03042 26.7474C2.78083 27.82 3.42653 28.8902 4.46978 29.133C4.98474 29.2528 5.51096 29.1454 5.93887 28.8707C6.24892 28.6717 6.50729 28.3847 6.67227 28.0327C7.57434 28.0395 8.38945 27.3934 8.60197 26.4803C8.85157 25.4076 8.20587 24.3374 7.16261 24.0947L5.96752 23.8167ZM2.2968 9.89499C2.61981 10.385 2.49182 11.0551 2.01091 11.3917C1.53001 11.7282 0.878297 11.6038 0.55528 11.1137C0.232263 10.6237 0.360258 9.95362 0.841164 9.61707C1.32207 9.28052 1.97378 9.40495 2.2968 9.89499ZM3.29537 10.8901C3.69984 10.5506 4.31718 10.4205 4.95199 10.5418L6.15737 10.7718C7.2096 10.9727 7.89755 12.0164 7.69089 13.0983C7.51492 14.0192 6.72611 14.6974 5.82438 14.7267C5.67355 15.085 5.42679 15.3821 5.12489 15.5934C4.70821 15.885 4.18663 16.0133 3.66723 15.9141C2.615 15.7132 1.92705 14.6695 2.13371 13.5876L2.37041 12.3484C2.49507 11.6958 2.84015 11.1523 3.29537 10.8901Z" fill="#FFB1E7"/>
</svg>
