<svg width="741" height="519" viewBox="0 0 741 519" fill="none" xmlns="http://www.w3.org/2000/svg">
<path d="M245.176 209.039C242.005 196.349 249.62 183.136 262.185 179.527L484.955 115.535C497.52 111.926 510.278 119.287 513.449 131.976L551.483 284.149C554.655 296.838 547.04 310.051 534.475 313.661L311.705 377.653C299.139 381.262 286.382 373.901 283.211 361.211L245.176 209.039Z" fill="#565081"/>
<path d="M232.068 187.947C232.068 174.867 242.666 164.263 255.739 164.263H539.785C552.858 164.263 563.455 174.867 563.455 187.947V385.316C563.455 398.396 552.858 409 539.785 409H255.739C242.666 409 232.068 398.396 232.068 385.316V187.947Z" fill="#8D87B8"/>
<path d="M263.629 207.685C263.629 201.145 268.928 195.843 275.464 195.843H520.059C526.596 195.843 531.894 201.145 531.894 207.685V365.579C531.894 372.12 526.596 377.422 520.059 377.422H275.464C268.928 377.422 263.629 372.12 263.629 365.579V207.685Z" fill="#8D87B8"/>
<path d="M425.377 278.736C425.377 265.655 435.975 255.052 449.047 255.052H571.345C573.524 255.052 575.29 256.819 575.29 258.999V314.262C575.29 316.442 573.524 318.209 571.345 318.209H449.047C435.975 318.209 425.377 307.606 425.377 294.525V278.736Z" fill="#565081"/>
<path d="M464.827 286.631C464.827 293.172 459.528 298.473 452.991 298.473C446.455 298.473 441.156 293.172 441.156 286.631C441.156 280.091 446.455 274.789 452.991 274.789C459.528 274.789 464.827 280.091 464.827 286.631Z" fill="#8D87B8"/>
<path d="M322.803 187.947C322.803 231.549 287.478 266.895 243.902 266.895C200.325 266.895 165 231.549 165 187.947C165 144.346 200.325 109 243.902 109C287.478 109 322.803 144.346 322.803 187.947Z" fill="#565081"/>
<path d="M253.186 197.236C253.186 202.366 249.03 206.524 243.903 206.524V206.524C238.776 206.524 234.62 202.366 234.62 197.236L234.62 146.152C234.62 141.023 238.776 136.865 243.903 136.865V136.865C249.03 136.865 253.186 141.023 253.186 146.152L253.186 197.236Z" fill="#8D87B8"/>
<path d="M253.182 229.743C253.182 234.872 249.026 239.03 243.9 239.03C238.773 239.03 234.617 234.872 234.617 229.743C234.617 224.613 238.773 220.455 243.9 220.455C249.026 220.455 253.182 224.613 253.182 229.743Z" fill="#8D87B8"/>
</svg>
