<svg width="482" height="144" viewBox="0 0 482 144" fill="none" xmlns="http://www.w3.org/2000/svg">
<g clip-path="url(#clip0_531_36139)">
<path d="M220.117 50.4246H240.247V59.1315C242.239 56.0533 244.923 53.6348 248.299 51.8758C251.676 50.0289 255.659 49.1054 260.248 49.1054C267.607 49.1054 273.625 51.568 278.3 56.4931C283.062 61.3302 285.443 68.7179 285.443 78.656V119.024H265.313V82.2179C265.313 77.7325 264.231 74.1267 262.066 71.4003C259.901 68.6739 256.784 67.3107 252.715 67.3107C248.732 67.3107 245.659 68.7178 243.494 71.5322C241.329 74.2586 240.247 77.8205 240.247 82.2179V119.024H220.117V50.4246Z" fill="white"/>
<path d="M297.61 50.4246H317.74V119.024H297.61V50.4246ZM297.61 25.3594H317.74V43.1689H297.61V25.3594Z" fill="white"/>
<path d="M358.264 119.816C351.684 119.816 346.446 118.057 342.549 114.539C338.653 110.933 336.705 105.392 336.705 97.9166V66.6511H326.705V50.4246H336.705V32.879H356.835V50.4246H370.992V66.6511H356.835V94.6186C356.835 96.6414 357.485 98.3564 358.784 99.7635C360.082 101.083 362.117 101.742 364.888 101.742C366.966 101.742 369.087 101.391 371.251 100.687V116.254C370.039 117.485 368.221 118.409 365.797 119.024C363.459 119.552 360.948 119.816 358.264 119.816Z" fill="white"/>
<path d="M380.557 50.4246H400.687V119.024H380.557V50.4246ZM380.557 25.3594H400.687V43.1689H380.557V25.3594Z" fill="white"/>
<path d="M441.86 120.343C436.492 120.343 431.341 118.98 426.405 116.254C421.47 113.527 417.444 109.482 414.327 104.117C411.21 98.7521 409.652 92.2879 409.652 84.7244C409.652 77.1609 411.21 70.6967 414.327 65.3318C417.444 59.967 421.47 55.9214 426.405 53.195C431.341 50.4686 436.492 49.1054 441.86 49.1054C445.497 49.1054 448.744 49.6771 451.601 50.8204C454.545 51.8758 456.882 53.1071 458.614 54.5142C460.346 55.9214 461.428 57.1527 461.861 58.208H462.251V50.4246H482.381V119.024H462.251V111.241H461.861C461.428 112.296 460.346 113.527 458.614 114.935C456.882 116.342 454.545 117.617 451.601 118.76C448.744 119.816 445.497 120.343 441.86 120.343ZM429.522 84.7244C429.522 90.0013 431.124 94.2228 434.328 97.3889C437.618 100.555 441.514 102.138 446.016 102.138C450.692 102.138 454.631 100.599 457.835 97.5209C461.125 94.3547 462.77 90.0892 462.77 84.7244C462.77 79.3596 461.125 75.1381 457.835 72.0599C454.631 68.8937 450.692 67.3107 446.016 67.3107C441.514 67.3107 437.618 68.8937 434.328 72.0599C431.124 75.226 429.522 79.4475 429.522 84.7244Z" fill="white"/>
<path d="M187.395 50.4246H207.525V119.024H187.395V50.4246ZM187.395 25.3594H207.525V43.1689H187.395V25.3594Z" fill="white"/>
<path fill-rule="evenodd" clip-rule="evenodd" d="M72 144.191C111.765 144.191 144 111.956 144 72.1914C144 32.4269 111.765 0.191406 72 0.191406C32.2355 0.191406 0 32.4269 0 72.1914C0 111.956 32.2355 144.191 72 144.191ZM88.091 44.3652C82.0714 45.5423 77.666 50.7884 77.5651 57.0098V88.2513C77.666 94.439 82.0714 99.6852 88.091 100.862V113.036C81.9033 112.397 76.22 109.539 72.0163 104.864L71.5455 104.326L71.0747 104.864C66.8711 109.505 61.1541 112.397 55 113.036V100.862C61.0196 99.6852 65.425 94.439 65.5259 88.2176V56.9762C65.425 50.7884 61.0196 45.5423 55 44.3652V32.1915C61.1877 32.8305 66.8711 35.6889 71.0747 40.3634L71.5455 40.9014L72.0163 40.3634C76.22 35.7226 81.9369 32.8305 88.091 32.1915V44.3652Z" fill="white"/>
</g>
<defs>
<clipPath id="clip0_531_36139">
<rect width="482" height="144" fill="white"/>
</clipPath>
</defs>
</svg>
