<svg width="882" height="144" viewBox="0 0 882 144" fill="none" xmlns="http://www.w3.org/2000/svg">
<path fill-rule="evenodd" clip-rule="evenodd" d="M850.536 119.403C844.857 119.403 839.616 118.123 834.816 115.563C830.016 113.003 826.136 109.283 823.176 104.403C820.296 99.443 818.856 93.603 818.856 86.883C818.856 80.2431 820.296 74.483 823.176 69.603C826.056 64.723 829.857 61.003 834.576 58.443C839.296 55.883 844.336 54.603 849.696 54.603C854.816 54.603 859.656 55.803 864.216 58.203C868.776 60.523 872.456 64.043 875.256 68.763C878.136 73.403 879.576 79.043 879.576 85.683C879.576 87.443 879.536 88.763 879.456 89.643H825.816C826.216 94.523 827.576 98.723 829.896 102.243C832.296 105.763 835.376 108.443 839.136 110.283C842.896 112.043 846.976 112.923 851.376 112.923C855.376 112.923 859.096 112.203 862.536 110.763C866.056 109.323 868.936 107.243 871.176 104.523L875.016 108.483C872.216 111.923 868.656 114.603 864.336 116.523C860.016 118.443 855.416 119.403 850.536 119.403ZM872.856 83.763C872.776 79.043 871.656 75.003 869.496 71.643C867.336 68.203 864.496 65.603 860.976 63.843C857.536 62.003 853.776 61.083 849.696 61.083C845.776 61.083 842.056 61.963 838.536 63.723C835.096 65.483 832.216 68.083 829.896 71.523C827.576 74.883 826.216 78.963 825.816 83.763H872.856Z" fill="white"/>
<path fill-rule="evenodd" clip-rule="evenodd" d="M764.753 141.723C768.033 142.683 771.713 143.163 775.793 143.163C781.153 143.163 786.153 142.243 790.793 140.403C795.433 138.643 799.233 135.683 802.193 131.523C805.233 127.363 806.753 121.963 806.753 115.323V55.803H799.433V69.123H798.953C797.113 64.963 793.913 61.523 789.353 58.803C784.793 56.003 779.673 54.603 773.993 54.603C768.713 54.603 763.713 55.883 758.993 58.443C754.273 60.923 750.433 64.603 747.473 69.483C744.593 74.363 743.153 80.203 743.153 87.003C743.153 93.803 744.593 99.643 747.473 104.523C750.433 109.403 754.273 113.123 758.993 115.683C763.713 118.163 768.713 119.403 773.993 119.403C779.673 119.403 784.793 118.043 789.353 115.323C793.913 112.523 797.113 109.043 798.953 104.883H799.433V114.963C799.433 122.563 797.113 128.083 792.473 131.523C787.833 135.043 781.993 136.803 774.953 136.803C771.033 136.803 767.593 136.323 764.633 135.363C761.673 134.483 759.273 133.443 757.433 132.243V138.723C759.113 139.843 761.553 140.843 764.753 141.723ZM753.953 101.043C751.633 97.203 750.473 92.523 750.473 87.003C750.473 81.483 751.633 76.803 753.953 72.963C756.273 69.123 759.273 66.243 762.953 64.323C766.713 62.323 770.713 61.323 774.953 61.323C779.193 61.323 783.193 62.323 786.953 64.323C790.713 66.243 793.753 69.163 796.073 73.083C798.473 76.923 799.673 81.563 799.673 87.003C799.673 92.443 798.473 97.123 796.073 101.043C793.753 104.883 790.713 107.803 786.953 109.803C783.193 111.723 779.193 112.683 774.953 112.683C770.713 112.683 766.713 111.723 762.953 109.803C759.273 107.803 756.273 104.883 753.953 101.043Z" fill="white"/>
<path fill-rule="evenodd" clip-rule="evenodd" d="M723.73 118.2V104.88H723.37C721.53 109.04 718.33 112.52 713.77 115.32C709.21 118.04 704.09 119.4 698.41 119.4C693.05 119.4 688.01 118.16 683.29 115.68C678.57 113.12 674.73 109.4 671.77 104.52C668.89 99.6395 667.45 93.7995 667.45 86.9995C667.45 80.1995 668.89 74.3595 671.77 69.4795C674.73 64.5995 678.57 60.9195 683.29 58.4395C688.01 55.8795 693.05 54.5995 698.41 54.5995C704.09 54.5995 709.21 55.9995 713.77 58.7995C718.33 61.5195 721.53 64.9595 723.37 69.1195H723.73V32.9995H731.05V118.2H723.73ZM674.77 86.9995C674.77 92.5195 675.93 97.1995 678.25 101.04C680.57 104.88 683.61 107.8 687.37 109.8C691.13 111.72 695.13 112.68 699.37 112.68C703.61 112.68 707.61 111.72 711.37 109.8C715.13 107.8 718.17 104.88 720.49 101.04C722.81 97.1195 723.97 92.4395 723.97 86.9995C723.97 81.5595 722.81 76.9195 720.49 73.0795C718.17 69.1595 715.13 66.2395 711.37 64.3195C707.61 62.3195 703.61 61.3195 699.37 61.3195C695.13 61.3195 691.13 62.3195 687.37 64.3195C683.61 66.2395 680.57 69.1195 678.25 72.9595C675.93 76.7995 674.77 81.4795 674.77 86.9995Z" fill="white"/>
<path d="M655.387 55.7995H648.067V118.2H655.387V55.7995Z" fill="white"/>
<path d="M655.387 32.9995H648.067V40.0795H655.387V32.9995Z" fill="white"/>
<path d="M605.06 55.803H612.38V70.323C613.74 65.683 616.1 61.923 619.46 59.043C622.9 56.083 627.3 54.603 632.66 54.603C634.02 54.603 635.1 54.723 635.9 54.963V61.803C634.94 61.563 633.9 61.443 632.78 61.443C628.94 61.443 625.46 62.403 622.34 64.323C619.3 66.243 616.86 69.003 615.02 72.603C613.26 76.203 612.38 80.363 612.38 85.083V118.203H605.06V55.803Z" fill="white"/>
<path fill-rule="evenodd" clip-rule="evenodd" d="M536.676 69.1195V32.9995H529.356V118.2H536.676V104.88H537.036C538.876 109.04 542.076 112.52 546.636 115.32C551.196 118.04 556.316 119.4 561.996 119.4C567.356 119.4 572.396 118.16 577.116 115.68C581.836 113.12 585.636 109.4 588.516 104.52C591.476 99.6395 592.956 93.7995 592.956 86.9995C592.956 80.1995 591.476 74.3595 588.516 69.4795C585.636 64.5995 581.836 60.9195 577.116 58.4395C572.396 55.8795 567.356 54.5995 561.996 54.5995C556.316 54.5995 551.196 55.9995 546.636 58.7995C542.076 61.5195 538.876 64.9595 537.036 69.1195H536.676ZM539.916 101.04C537.596 97.1195 536.436 92.4395 536.436 86.9995C536.436 81.5595 537.596 76.9195 539.916 73.0795C542.236 69.1595 545.276 66.2395 549.036 64.3195C552.796 62.3195 556.796 61.3195 561.036 61.3195C565.276 61.3195 569.276 62.3195 573.036 64.3195C576.796 66.2395 579.836 69.1195 582.156 72.9595C584.476 76.7995 585.636 81.4795 585.636 86.9995C585.636 92.5195 584.476 97.1995 582.156 101.04C579.836 104.88 576.796 107.8 573.036 109.8C569.276 111.72 565.276 112.68 561.036 112.68C556.796 112.68 552.796 111.72 549.036 109.8C545.276 107.8 542.236 104.88 539.916 101.04Z" fill="white"/>
<path d="M219.258 49.561H239.718V58.273C241.742 55.193 244.47 52.773 247.902 51.013C251.334 49.165 255.382 48.241 260.046 48.241C267.526 48.241 273.642 50.705 278.394 55.633C283.234 60.473 285.654 67.865 285.654 77.809V118.201H265.194V81.373C265.194 76.885 264.094 73.277 261.894 70.549C259.694 67.821 256.526 66.457 252.39 66.457C248.342 66.457 245.218 67.865 243.018 70.681C240.818 73.409 239.718 76.973 239.718 81.373V118.201H219.258V49.561Z" fill="white"/>
<path d="M298.02 49.561H318.48V118.201H298.02V49.561ZM298.02 24.481H318.48V42.301H298.02V24.481Z" fill="white"/>
<path d="M359.667 118.993C352.979 118.993 347.655 117.233 343.695 113.713C339.735 110.105 337.755 104.561 337.755 97.081V65.797H327.591V49.561H337.755V32.005H358.215V49.561H372.603V65.797H358.215V93.781C358.215 95.805 358.875 97.521 360.195 98.929C361.515 100.249 363.583 100.909 366.399 100.909C368.511 100.909 370.667 100.557 372.867 99.853V115.429C371.635 116.661 369.787 117.585 367.323 118.201C364.947 118.729 362.395 118.993 359.667 118.993Z" fill="white"/>
<path d="M382.324 49.561H402.784V118.201H382.324V49.561ZM382.324 24.481H402.784V42.301H382.324V24.481Z" fill="white"/>
<path d="M444.631 119.521C439.175 119.521 433.939 118.157 428.923 115.429C423.907 112.701 419.815 108.653 416.647 103.285C413.479 97.917 411.895 91.449 411.895 83.881C411.895 76.313 413.479 69.845 416.647 64.477C419.815 59.109 423.907 55.061 428.923 52.333C433.939 49.605 439.175 48.241 444.631 48.241C448.327 48.241 451.627 48.813 454.531 49.957C457.523 51.013 459.899 52.245 461.659 53.653C463.419 55.061 464.519 56.293 464.959 57.349H465.355V49.561H485.815V118.201H465.355V110.413H464.959C464.519 111.469 463.419 112.701 461.659 114.109C459.899 115.517 457.523 116.793 454.531 117.937C451.627 118.993 448.327 119.521 444.631 119.521ZM432.091 83.881C432.091 89.161 433.719 93.385 436.975 96.553C440.319 99.721 444.279 101.305 448.855 101.305C453.607 101.305 457.611 99.765 460.867 96.685C464.211 93.517 465.883 89.249 465.883 83.881C465.883 78.513 464.211 74.289 460.867 71.209C457.611 68.041 453.607 66.457 448.855 66.457C444.279 66.457 440.319 68.041 436.975 71.209C433.719 74.377 432.091 78.601 432.091 83.881Z" fill="white"/>
<path d="M186 49.5605H206.46V118.2L186 118.201L186 49.5605ZM186 24.481L206.46 24.4805V42.3005H186L186 24.481Z" fill="white"/>
<path fill-rule="evenodd" clip-rule="evenodd" d="M72 144C111.765 144 144 111.765 144 72C144 32.2355 111.765 0 72 0C32.2355 0 0 32.2355 0 72C0 111.765 32.2355 144 72 144ZM72.0007 75.7916L109.447 93.3297V50.6396L72.0007 68.1777L34.5547 50.6396V93.3297L72.0007 75.7916Z" fill="white"/>
</svg>
