<svg width="868" height="144" viewBox="0 0 868 144" fill="none" xmlns="http://www.w3.org/2000/svg">
<g clip-path="url(#clip0_531_36169)">
<path d="M220.117 50.2395H240.247V58.9479C242.239 55.8692 244.923 53.4502 248.299 51.6909C251.676 49.8437 255.659 48.9201 260.248 48.9201C267.607 48.9201 273.625 51.3831 278.3 56.309C283.062 61.147 285.443 68.5359 285.443 78.4758V118.851H265.313V82.0383C265.313 77.5522 264.231 73.9457 262.066 71.2188C259.901 68.4919 256.784 67.1285 252.715 67.1285C248.732 67.1285 245.659 68.5359 243.494 71.3507C241.329 74.0776 240.247 77.6401 240.247 82.0383V118.851H220.117V50.2395Z" fill="white"/>
<path d="M297.61 50.2395H317.74V118.851H297.61V50.2395ZM297.61 25.17H317.74V42.9826H297.61V25.17Z" fill="white"/>
<path d="M358.264 119.643C351.684 119.643 346.446 117.883 342.549 114.365C338.653 110.758 336.705 105.217 336.705 97.7398V66.4688H326.705V50.2395H336.705V32.6908H356.835V50.2395H370.992V66.4688H356.835V94.4411C356.835 96.4643 357.485 98.1796 358.784 99.587C360.082 100.906 362.117 101.566 364.888 101.566C366.966 101.566 369.087 101.214 371.251 100.511V116.08C370.039 117.312 368.221 118.235 365.797 118.851C363.459 119.379 360.948 119.643 358.264 119.643Z" fill="white"/>
<path d="M380.557 50.2395H400.687V118.851H380.557V50.2395ZM380.557 25.17H400.687V42.9826H380.557V25.17Z" fill="white"/>
<path d="M441.86 120.17C436.492 120.17 431.341 118.807 426.405 116.08C421.47 113.353 417.444 109.307 414.327 103.941C411.21 98.5754 409.652 92.1101 409.652 84.5453C409.652 76.9804 411.21 70.5151 414.327 65.1493C417.444 59.7836 421.47 55.7373 426.405 53.0104C431.341 50.2835 436.492 48.9201 441.86 48.9201C445.497 48.9201 448.744 49.4919 451.601 50.6354C454.545 51.6909 456.882 52.9224 458.614 54.3298C460.346 55.7373 461.428 56.9687 461.861 58.0243H462.251V50.2395H482.381V118.851H462.251V111.066H461.861C461.428 112.122 460.346 113.353 458.614 114.761C456.882 116.168 454.545 117.444 451.601 118.587C448.744 119.643 445.497 120.17 441.86 120.17ZM429.522 84.5453C429.522 89.8231 431.124 94.0453 434.328 97.212C437.618 100.379 441.514 101.962 446.016 101.962C450.692 101.962 454.631 100.423 457.835 97.3439C461.125 94.1772 462.77 89.911 462.77 84.5453C462.77 79.1795 461.125 74.9572 457.835 71.8785C454.631 68.7118 450.692 67.1285 446.016 67.1285C441.514 67.1285 437.618 68.7118 434.328 71.8785C431.124 75.0452 429.522 79.2675 429.522 84.5453Z" fill="white"/>
<path d="M187.395 50.2395H207.525V118.851H187.395V50.2395ZM187.395 25.1699H207.525V42.9825H187.395V25.1699Z" fill="white"/>
<path d="M859.291 119.614C855.169 119.614 851.925 118.605 849.557 116.588C847.277 114.484 846.137 111.371 846.137 107.249V57.1346H837.324V50.4263H846.137V32.9322H854.161V50.4263H867.446V57.1346H854.161V105.539C854.161 110.099 856.441 112.379 861 112.379C863.017 112.379 865.078 111.941 867.183 111.064V117.641C865.253 118.956 862.623 119.614 859.291 119.614Z" fill="white"/>
<path d="M801.759 120.14C795.533 120.14 789.79 118.737 784.528 115.931C779.267 113.125 775.014 109.047 771.769 103.698C768.613 98.2612 767.034 91.8599 767.034 84.4939C767.034 77.2156 768.613 70.9019 771.769 65.5529C774.926 60.2038 779.092 56.1262 784.265 53.3201C789.439 50.514 794.963 49.111 800.839 49.111C806.451 49.111 811.756 50.4263 816.754 53.057C821.753 55.6001 825.786 59.4584 828.856 64.6321C832.012 69.7181 833.591 75.9003 833.591 83.1785C833.591 85.1077 833.547 86.5546 833.459 87.5192H774.663C775.102 92.8683 776.592 97.472 779.135 101.33C781.766 105.189 785.142 108.126 789.264 110.143C793.385 112.072 797.857 113.037 802.68 113.037C807.065 113.037 811.142 112.248 814.913 110.669C818.771 109.091 821.928 106.811 824.383 103.83L828.593 108.17C825.523 111.941 821.621 114.878 816.886 116.983C812.151 119.088 807.108 120.14 801.759 120.14ZM826.225 81.074C826.137 75.9003 824.91 71.4719 822.542 67.789C820.174 64.0183 817.061 61.1684 813.203 59.2392C809.432 57.2223 805.311 56.2139 800.839 56.2139C796.542 56.2139 792.464 57.1785 788.606 59.1077C784.835 61.0368 781.678 63.8868 779.135 67.6574C776.592 71.3404 775.102 75.8126 774.663 81.074H826.225Z" fill="white"/>
<path d="M733.662 120.14C727.699 120.14 722 118.737 716.563 115.931C711.214 113.125 706.873 109.047 703.541 103.698C700.209 98.2612 698.543 91.9475 698.543 84.757C698.543 77.4787 700.209 71.165 703.541 65.8159C706.873 60.3792 711.214 56.2577 716.563 53.4517C722 50.5579 727.699 49.111 733.662 49.111C739.713 49.111 745.369 50.6017 750.63 53.5832C755.892 56.477 759.969 60.5984 762.863 65.9475L756.549 69.4989C754.269 65.3775 751.113 62.1768 747.079 59.8969C743.045 57.6169 738.661 56.477 733.925 56.477C729.278 56.477 724.849 57.6169 720.64 59.8969C716.431 62.0891 713.011 65.3336 710.381 69.6304C707.838 73.9273 706.566 78.9694 706.566 84.757C706.566 90.5445 707.838 95.5428 710.381 99.7519C713.011 103.961 716.431 107.206 720.64 109.486C724.849 111.678 729.278 112.774 733.925 112.774C738.661 112.774 743.045 111.634 747.079 109.354C751.113 107.074 754.269 103.873 756.549 99.7519L762.863 103.303C759.969 108.652 755.892 112.818 750.63 115.799C745.369 118.693 739.713 120.14 733.662 120.14Z" fill="white"/>
<path d="M689.566 118.825H681.543V106.855C679.613 110.625 676.632 113.782 672.598 116.325C668.652 118.868 663.742 120.14 657.866 120.14C652.78 120.14 648.177 119.088 644.055 116.983C640.021 114.791 636.777 111.502 634.322 107.118C631.954 102.733 630.77 97.2528 630.77 90.676V50.4263H638.794V89.7553C638.794 97.2966 640.767 103.04 644.713 106.986C648.659 110.845 653.745 112.774 659.971 112.774C666.197 112.774 671.327 110.801 675.36 106.855C679.482 102.909 681.543 97.2089 681.543 89.7553V50.4263H689.566V118.825Z" fill="white"/>
<path d="M582.778 120.14C576.903 120.14 571.379 118.781 566.205 116.062C561.031 113.256 556.822 109.179 553.578 103.83C550.421 98.4804 548.842 92.0791 548.842 84.6254C548.842 77.1718 550.421 70.7704 553.578 65.4213C556.822 60.0722 561.031 56.0385 566.205 53.3201C571.379 50.514 576.903 49.111 582.778 49.111C589.004 49.111 594.617 50.6456 599.615 53.7147C604.613 56.6962 608.121 60.4668 610.138 65.0267H610.532V50.4263H618.556V118.825H610.532V104.224H610.138C608.121 108.784 604.613 112.599 599.615 115.668C594.617 118.649 589.004 120.14 582.778 120.14ZM556.866 84.6254C556.866 90.676 558.138 95.8059 560.681 100.015C563.224 104.224 566.556 107.425 570.677 109.617C574.799 111.722 579.183 112.774 583.831 112.774C588.478 112.774 592.863 111.722 596.984 109.617C601.106 107.425 604.438 104.224 606.981 100.015C609.524 95.7182 610.795 90.5883 610.795 84.6254C610.795 78.6625 609.524 73.5765 606.981 69.3674C604.438 65.0706 601.106 61.8699 596.984 59.7653C592.863 57.5731 588.478 56.477 583.831 56.477C579.183 56.477 574.799 57.5731 570.677 59.7653C566.556 61.8699 563.224 65.0267 560.681 69.2358C558.138 73.445 556.866 78.5748 556.866 84.6254Z" fill="white"/>
<path d="M518.728 41.482C518.728 34.7298 520.438 29.9507 523.858 27.1447C527.365 24.3386 531.487 22.9355 536.222 22.9355C539.993 22.9355 543.325 23.8124 546.219 25.5662V32.0115C543.676 30.6084 540.782 29.9069 537.537 29.9069C530.347 29.9069 526.752 34.116 526.752 42.5342V50.4263H546.219V57.1346H526.752V118.825H518.728V57.1346H511.23V50.4263H518.728V41.482Z" fill="white"/>
<path fill-rule="evenodd" clip-rule="evenodd" d="M0 72C0 32.2397 32.2397 0 72 0C111.76 0 144 32.2397 144 72C144 111.76 111.76 144 72 144C32.2397 144 0 111.76 0 72ZM72.0013 106.965C57.6282 106.965 45.95 95.2873 45.95 80.9141C45.95 79.0484 46.1573 77.2172 46.5374 75.4551C49.0596 63.7078 72.0013 37 72.0013 37C72.0013 37 95.0122 63.7423 97.4999 75.5242C97.8799 77.2863 98.0527 79.0829 98.0527 80.9487C98.0527 95.3218 86.3745 107 72.0013 107V106.965Z" fill="white"/>
</g>
<defs>
<clipPath id="clip0_531_36169">
<rect width="868" height="144" fill="white"/>
</clipPath>
</defs>
</svg>
