<svg width="1088" height="144" viewBox="0 0 1088 144" fill="none" xmlns="http://www.w3.org/2000/svg">
<path d="M219.707 50.1642H239.828V58.9055C241.819 55.8151 244.502 53.387 247.877 51.6211C251.252 49.7669 255.233 48.8398 259.82 48.8398C267.176 48.8398 273.191 51.3121 277.864 56.2566C282.624 61.1128 285.004 68.5297 285.004 78.507V119.035H264.882V82.083C264.882 77.5799 263.801 73.9598 261.637 71.2227C259.474 68.4855 256.358 67.1169 252.29 67.1169C248.309 67.1169 245.237 68.5297 243.074 71.3551C240.91 74.0923 239.828 77.6682 239.828 82.083V119.035H219.707V50.1642Z" fill="white"/>
<path d="M297.165 50.1642H317.286V119.035H297.165V50.1642ZM297.165 25.0001H317.286V42.8799H297.165V25.0001Z" fill="white"/>
<path d="M357.791 119.829C351.214 119.829 345.978 118.063 342.083 114.532C338.189 110.911 336.242 105.349 336.242 97.8437V66.4547H326.246V50.1642H336.242V32.5493H356.363V50.1642H370.513V66.4547H356.363V94.5326C356.363 96.5634 357.012 98.2852 358.31 99.6979C359.608 101.022 361.642 101.685 364.411 101.685C366.488 101.685 368.609 101.331 370.772 100.625V116.253C369.561 117.489 367.743 118.417 365.32 119.035C362.983 119.564 360.474 119.829 357.791 119.829Z" fill="white"/>
<path d="M380.073 50.1642H400.194V119.035H380.073V50.1642ZM380.073 25.0001H400.194V42.8799H380.073V25.0001Z" fill="white"/>
<path d="M441.349 120.359C435.983 120.359 430.834 118.99 425.901 116.253C420.968 113.516 416.943 109.455 413.828 104.069C410.712 98.6825 409.155 92.1928 409.155 84.5994C409.155 77.006 410.712 70.5163 413.828 65.1303C416.943 59.7443 420.968 55.6827 425.901 52.9455C430.834 50.2084 435.983 48.8398 441.349 48.8398C444.983 48.8398 448.229 49.4137 451.085 50.5616C454.027 51.6211 456.364 52.8572 458.095 54.27C459.825 55.6827 460.907 56.9188 461.34 57.9784H461.729V50.1642H481.85V119.035H461.729V111.22H461.34C460.907 112.28 459.825 113.516 458.095 114.929C456.364 116.342 454.027 117.622 451.085 118.77C448.229 119.829 444.983 120.359 441.349 120.359ZM429.016 84.5994C429.016 89.8971 430.617 94.1353 433.819 97.3139C437.108 100.493 441.002 102.082 445.503 102.082C450.176 102.082 454.114 100.537 457.316 97.4464C460.604 94.2677 462.249 89.9854 462.249 84.5994C462.249 79.2134 460.604 74.9752 457.316 71.8849C454.114 68.7063 450.176 67.1169 445.503 67.1169C441.002 67.1169 437.108 68.7063 433.819 71.8849C430.617 75.0635 429.016 79.3017 429.016 84.5994Z" fill="white"/>
<path d="M187 50.1642H207.121V119.035H187V50.1642ZM187 25H207.121V42.8798H187V25Z" fill="white"/>
<path d="M1017.49 51.3356H1025.42V65.8226H1025.81C1027.8 61.2981 1031.26 57.5567 1036.2 54.5984C1041.14 51.5531 1046.68 50.0305 1052.83 50.0305C1058.64 50.0305 1064.09 51.4226 1069.21 54.2069C1074.32 56.9042 1078.43 60.9066 1081.55 66.2141C1084.76 71.5216 1086.36 77.8733 1086.36 85.269C1086.36 92.6648 1084.76 99.0164 1081.55 104.324C1078.43 109.632 1074.32 113.677 1069.21 116.462C1064.09 119.159 1058.64 120.508 1052.83 120.508C1046.68 120.508 1041.14 119.028 1036.2 116.07C1031.26 113.025 1027.8 109.24 1025.81 104.716H1025.42V144H1017.49V51.3356ZM1025.16 85.269C1025.16 91.1856 1026.41 96.2757 1028.92 100.539C1031.44 104.716 1034.73 107.891 1038.8 110.067C1042.87 112.155 1047.2 113.199 1051.79 113.199C1056.38 113.199 1060.72 112.155 1064.79 110.067C1068.86 107.891 1072.15 104.716 1074.66 100.539C1077.18 96.3627 1078.43 91.2727 1078.43 85.269C1078.43 79.2654 1077.18 74.1754 1074.66 69.999C1072.15 65.8226 1068.86 62.6903 1064.79 60.602C1060.72 58.4268 1056.38 57.3392 1051.79 57.3392C1047.2 57.3392 1042.87 58.4268 1038.8 60.602C1034.73 62.6903 1031.44 65.8661 1028.92 70.1295C1026.41 74.3059 1025.16 79.3524 1025.16 85.269Z" fill="white"/>
<path d="M968.65 120.508C962.846 120.508 957.389 119.159 952.278 116.462C947.167 113.677 943.009 109.632 939.803 104.324C936.685 99.0164 935.126 92.6648 935.126 85.269C935.126 77.8733 936.685 71.5216 939.803 66.2141C943.009 60.9066 947.167 56.9042 952.278 54.2069C957.389 51.4226 962.846 50.0305 968.65 50.0305C974.801 50.0305 980.345 51.5531 985.282 54.5984C990.22 57.5567 993.685 61.2981 995.678 65.8226H996.068V51.3356H1003.99V119.202H996.068V104.716H995.678C993.685 109.24 990.22 113.025 985.282 116.07C980.345 119.028 974.801 120.508 968.65 120.508ZM943.052 85.269C943.052 91.2727 944.308 96.3627 946.82 100.539C949.332 104.716 952.624 107.891 956.696 110.067C960.767 112.155 965.099 113.199 969.69 113.199C974.281 113.199 978.612 112.155 982.684 110.067C986.755 107.891 990.047 104.716 992.559 100.539C995.071 96.2757 996.327 91.1856 996.327 85.269C996.327 79.3524 995.071 74.3059 992.559 70.1295C990.047 65.8661 986.755 62.6903 982.684 60.602C978.612 58.4268 974.281 57.3392 969.69 57.3392C965.099 57.3392 960.767 58.4268 956.696 60.602C952.624 62.6903 949.332 65.8226 946.82 69.999C944.308 74.1754 943.052 79.2654 943.052 85.269Z" fill="white"/>
<path d="M876.97 61.1241L853.711 119.202H846.304L820.576 51.3356H828.633L850.073 108.892L873.072 51.3356H880.868L903.868 108.892L925.308 51.3356H933.364L907.636 119.202H900.23L876.97 61.1241Z" fill="white"/>
<path d="M796.329 120.508C790.179 120.508 785.025 118.898 780.866 115.679C776.795 112.459 774.24 108.065 773.2 102.497L780.087 100.539C781.126 104.716 783.075 107.935 785.934 110.197C788.793 112.459 792.258 113.59 796.329 113.59C800.314 113.59 803.736 112.59 806.595 110.589C809.453 108.5 810.883 105.455 810.883 101.453C810.883 98.2333 809.843 95.6666 807.764 93.7524C805.685 91.7512 802.22 89.7065 797.369 87.6183L792.171 85.5301C781.689 81.2666 776.448 75.089 776.448 66.9972C776.448 62.0377 778.311 57.9918 782.036 54.8595C785.761 51.6401 790.439 50.0305 796.069 50.0305C801.094 50.0305 805.382 51.3356 808.933 53.9459C812.572 56.4691 814.997 59.906 816.21 64.2564L809.843 66.3446C807.418 59.993 802.913 56.8172 796.329 56.8172C792.864 56.8172 789.962 57.7307 787.623 59.5579C785.371 61.2981 784.245 63.7779 784.245 66.9972C784.245 69.6075 785.111 71.9132 786.844 73.9144C788.576 75.9156 791.392 77.6993 795.29 79.2654L799.838 81.0926C806.421 83.7899 811.229 86.5742 814.261 89.4455C817.293 92.3168 818.809 96.3192 818.809 101.453C818.809 107.63 816.6 112.372 812.182 115.679C807.764 118.898 802.48 120.508 796.329 120.508Z" fill="white"/>
<path d="M759.198 119.986C755.126 119.986 751.921 118.985 749.582 116.984C747.33 114.896 746.204 111.807 746.204 107.717V57.9918H737.498V51.3356H746.204V33.9773H754.13V51.3356H767.254V57.9918H754.13V106.021C754.13 110.545 756.383 112.807 760.887 112.807C762.88 112.807 764.915 112.372 766.994 111.502V118.028C765.089 119.333 762.49 119.986 759.198 119.986Z" fill="white"/>
<path d="M719.368 51.3356H727.295V119.202H719.368V51.3356ZM719.368 26.5381H727.295V34.2384H719.368V26.5381Z" fill="white"/>
<path d="M647.74 51.3356H655.666V63.2123C657.572 59.4709 660.474 56.3386 664.372 53.8153C668.357 51.2921 673.251 50.0305 679.055 50.0305C684.08 50.0305 688.584 51.1181 692.569 53.2933C696.641 55.3815 699.846 58.6008 702.185 62.9513C704.61 67.3017 705.823 72.7398 705.823 79.2654V119.202H697.897V80.179C697.897 72.6963 695.948 67.0407 692.049 63.2123C688.151 59.2969 683.127 57.3392 676.976 57.3392C670.826 57.3392 665.715 59.2969 661.643 63.2123C657.659 67.1277 655.666 72.7833 655.666 80.179V119.202H647.74V51.3356Z" fill="white"/>
<path d="M626.362 51.3356H634.288V119.202H626.362V51.3356ZM626.362 26.5381H634.288V34.2384H626.362V26.5381Z" fill="white"/>
<path d="M559.479 79.7875C559.479 72.8268 557.92 67.3452 554.801 63.3428C551.769 59.3404 547.221 57.3392 541.157 57.3392C535.094 57.3392 530.372 59.3839 526.994 63.4733C523.616 67.4757 521.926 72.9138 521.926 79.7875V119.202H514V51.3356H521.926V62.4292C523.659 58.8619 526.301 55.9036 529.853 53.5543C533.404 51.2051 537.822 50.0305 543.107 50.0305C548.304 50.0305 552.809 51.2921 556.62 53.8153C560.519 56.2516 563.377 59.9495 565.196 64.909C566.842 60.7325 569.614 57.2087 573.513 54.3374C577.411 51.4661 582.392 50.0305 588.456 50.0305C595.819 50.0305 601.71 52.4667 606.127 57.3392C610.632 62.1247 612.884 69.3464 612.884 79.0044V119.202H604.958V79.7875C604.958 72.8268 603.399 67.3452 600.28 63.3428C597.248 59.3404 592.7 57.3392 586.637 57.3392C580.573 57.3392 575.851 59.3839 572.473 63.4733C569.095 67.4757 567.405 72.9138 567.405 79.7875V119.202H559.479V79.7875Z" fill="white"/>
<g clip-path="url(#clip0_388_7560)">
<circle cx="72" cy="72" r="72" fill="white"/>
<path d="M40.6193 101.003C40.6193 84.9852 53.6045 72 69.6226 72H103.381C103.381 88.0181 90.3954 101.003 74.3773 101.003H40.6193Z" fill="black"/>
<path d="M40.6193 72.0004C40.6193 55.9823 53.6046 42.9971 69.6227 42.9971H103.381C103.381 59.0152 90.3954 72.0004 74.3773 72.0004H40.6193Z" fill="black"/>
</g>
<defs>
<clipPath id="clip0_388_7560">
<rect width="144" height="144" fill="white"/>
</clipPath>
</defs>
</svg>
