<svg width="782" height="144" viewBox="0 0 782 144" fill="none" xmlns="http://www.w3.org/2000/svg">
<g clip-path="url(#clip0_531_36162)">
<path d="M722.803 50.2517H730.852V62.2597C732.788 58.477 735.735 55.31 739.693 52.7589C743.74 50.2077 748.71 48.9321 754.604 48.9321C759.707 48.9321 764.281 50.0318 768.328 52.231C772.462 54.3423 775.717 57.5973 778.093 61.9958C780.556 66.3944 781.787 71.8925 781.787 78.4904V118.869H773.738V79.4141C773.738 71.8486 771.759 66.1305 767.8 62.2597C763.841 58.301 758.739 56.3217 752.493 56.3217C746.247 56.3217 741.057 58.301 736.922 62.2597C732.876 66.2184 730.852 71.9365 730.852 79.4141V118.869H722.803V50.2517Z" fill="white"/>
<path d="M674.657 120.189C668.763 120.189 663.221 118.825 658.031 116.098C652.84 113.283 648.618 109.192 645.363 103.826C642.196 98.4598 640.612 92.0379 640.612 84.5604C640.612 77.0828 642.196 70.6609 645.363 65.2947C648.618 59.9285 652.84 55.8818 658.031 53.1547C663.221 50.3397 668.763 48.9321 674.657 48.9321C680.903 48.9321 686.533 50.4716 691.548 53.5506C696.562 56.5416 700.081 60.3244 702.104 64.8989H702.5V50.2517H710.549V118.869H702.5V104.222H702.104C700.081 108.796 696.562 112.623 691.548 115.702C686.533 118.693 680.903 120.189 674.657 120.189ZM648.662 84.5604C648.662 90.6304 649.937 95.7767 652.488 99.9993C655.04 104.222 658.383 107.433 662.517 109.632C666.652 111.743 671.05 112.799 675.713 112.799C680.375 112.799 684.774 111.743 688.908 109.632C693.043 107.433 696.386 104.222 698.937 99.9993C701.488 95.6887 702.764 90.5424 702.764 84.5604C702.764 78.5783 701.488 73.476 698.937 69.2534C696.386 64.9428 693.043 61.7319 688.908 59.6206C684.774 57.4213 680.375 56.3217 675.713 56.3217C671.05 56.3217 666.652 57.4213 662.517 59.6206C658.383 61.7319 655.04 64.8989 652.488 69.1215C649.937 73.3441 648.662 78.4904 648.662 84.5604Z" fill="white"/>
<path d="M603.298 120.189C597.316 120.189 591.598 118.781 586.143 115.966C580.777 113.151 576.423 109.06 573.08 103.694C569.737 98.2398 568.065 91.9059 568.065 84.6923C568.065 77.3907 569.737 71.0568 573.08 65.6906C576.423 60.2364 580.777 56.1018 586.143 53.2867C591.598 50.3837 597.316 48.9321 603.298 48.9321C609.368 48.9321 615.042 50.4276 620.32 53.4186C625.598 56.3217 629.689 60.4563 632.592 65.8226L626.258 69.3854C623.971 65.2507 620.804 62.0398 616.757 59.7526C612.711 57.4653 608.312 56.3217 603.562 56.3217C598.899 56.3217 594.457 57.4653 590.234 59.7526C586.011 61.9518 582.581 65.2068 579.941 69.5173C577.39 73.8279 576.115 78.8862 576.115 84.6923C576.115 90.4984 577.39 95.5128 579.941 99.7354C582.581 103.958 586.011 107.213 590.234 109.5C594.457 111.699 598.899 112.799 603.562 112.799C608.312 112.799 612.711 111.655 616.757 109.368C620.804 107.081 623.971 103.87 626.258 99.7354L632.592 103.298C629.689 108.664 625.598 112.843 620.32 115.834C615.042 118.737 609.368 120.189 603.298 120.189Z" fill="white"/>
<path d="M536.838 119.374C529.995 119.374 524.26 117.765 519.633 114.548C515.103 111.33 512.26 106.938 511.103 101.372L518.766 99.4157C519.922 103.59 522.091 106.808 525.272 109.069C528.453 111.33 532.308 112.461 536.838 112.461C541.272 112.461 545.079 111.46 548.26 109.46C551.441 107.373 553.031 104.329 553.031 100.329C553.031 97.1111 551.874 94.5456 549.561 92.6323C547.248 90.6321 543.392 88.5884 537.995 86.5013L532.212 84.4141C520.549 80.1528 514.718 73.9782 514.718 65.8904C514.718 60.9334 516.79 56.8895 520.934 53.7587C525.079 50.541 530.284 48.9321 536.549 48.9321C542.139 48.9321 546.911 50.2366 550.862 52.8456C554.911 55.3676 557.609 58.8027 558.959 63.151L551.874 65.2382C549.176 58.8897 544.164 55.7155 536.838 55.7155C532.983 55.7155 529.754 56.6286 527.151 58.4549C524.645 60.1942 523.392 62.6727 523.392 65.8904C523.392 68.4994 524.356 70.804 526.284 72.8042C528.212 74.8044 531.344 76.5872 535.682 78.1526L540.742 79.9789C548.067 82.6748 553.417 85.4577 556.79 88.3275C560.164 91.1974 561.85 95.1978 561.85 100.329C561.85 106.503 559.393 111.243 554.477 114.548C549.561 117.765 543.682 119.374 536.838 119.374Z" fill="white"/>
<path d="M220.117 50.2395H240.247V58.9479C242.239 55.8692 244.923 53.4502 248.299 51.6909C251.676 49.8437 255.659 48.9201 260.248 48.9201C267.607 48.9201 273.625 51.3831 278.3 56.309C283.062 61.147 285.443 68.5359 285.443 78.4758V118.851H265.313V82.0383C265.313 77.5522 264.231 73.9457 262.066 71.2188C259.901 68.4919 256.784 67.1285 252.715 67.1285C248.732 67.1285 245.659 68.5359 243.494 71.3507C241.329 74.0776 240.247 77.6401 240.247 82.0383V118.851H220.117V50.2395Z" fill="white"/>
<path d="M297.61 50.2395H317.74V118.851H297.61V50.2395ZM297.61 25.17H317.74V42.9826H297.61V25.17Z" fill="white"/>
<path d="M358.264 119.643C351.684 119.643 346.446 117.883 342.549 114.365C338.653 110.758 336.705 105.217 336.705 97.7398V66.4688H326.705V50.2395H336.705V32.6908H356.835V50.2395H370.992V66.4688H356.835V94.4411C356.835 96.4643 357.485 98.1796 358.784 99.587C360.082 100.906 362.117 101.566 364.888 101.566C366.966 101.566 369.087 101.214 371.251 100.511V116.08C370.039 117.312 368.221 118.235 365.797 118.851C363.459 119.379 360.948 119.643 358.264 119.643Z" fill="white"/>
<path d="M380.557 50.2395H400.687V118.851H380.557V50.2395ZM380.557 25.17H400.687V42.9826H380.557V25.17Z" fill="white"/>
<path d="M441.86 120.17C436.492 120.17 431.341 118.807 426.405 116.08C421.47 113.353 417.444 109.307 414.327 103.941C411.21 98.5754 409.652 92.1101 409.652 84.5453C409.652 76.9804 411.21 70.5151 414.327 65.1493C417.444 59.7836 421.47 55.7373 426.405 53.0104C431.341 50.2835 436.492 48.9201 441.86 48.9201C445.497 48.9201 448.744 49.4919 451.601 50.6354C454.545 51.6909 456.882 52.9224 458.614 54.3298C460.346 55.7373 461.428 56.9687 461.861 58.0243H462.251V50.2395H482.381V118.851H462.251V111.066H461.861C461.428 112.122 460.346 113.353 458.614 114.761C456.882 116.168 454.545 117.444 451.601 118.587C448.744 119.643 445.497 120.17 441.86 120.17ZM429.522 84.5453C429.522 89.8231 431.124 94.0453 434.328 97.212C437.618 100.379 441.514 101.962 446.016 101.962C450.692 101.962 454.631 100.423 457.835 97.3439C461.125 94.1772 462.77 89.911 462.77 84.5453C462.77 79.1795 461.125 74.9572 457.835 71.8785C454.631 68.7119 450.692 67.1285 446.016 67.1285C441.514 67.1285 437.618 68.7119 434.328 71.8785C431.124 75.0452 429.522 79.2675 429.522 84.5453Z" fill="white"/>
<path d="M187.395 50.2395H207.525V118.851H187.395V50.2395ZM187.395 25.1699H207.525V42.9825H187.395V25.1699Z" fill="white"/>
<path fill-rule="evenodd" clip-rule="evenodd" d="M72 144C111.765 144 144 111.765 144 72C144 32.2355 111.765 0 72 0C32.2355 0 0 32.2355 0 72C0 111.765 32.2355 144 72 144ZM78.8903 36.4512C79.6839 35.2437 80.6027 34.1233 81.6314 33.1085C85.5485 29.197 90.8579 27 96.3936 27C101.929 27 107.239 29.197 111.156 33.1085C115.065 37.0253 117.26 42.3329 117.26 47.8666C117.26 53.4002 115.065 58.7079 111.156 62.6246C110.118 63.6678 108.972 64.5978 107.738 65.3991C106.039 66.5009 103.612 67.3126 100.836 67.9074V52.5313C100.836 47.4417 96.7106 43.3159 91.6211 43.3159H76.3809C76.9778 40.5526 77.7902 38.1389 78.8903 36.4512ZM91.6211 100.699H76.4529C77.0371 103.29 77.8188 105.55 78.8601 107.159C79.6645 108.391 80.5943 109.536 81.6345 110.577C85.5517 114.488 90.8611 116.685 96.3968 116.685C101.932 116.685 107.242 114.488 111.159 110.577L111.142 110.56C115.054 106.643 117.251 101.333 117.251 95.7978C117.251 90.2621 115.054 84.9527 111.142 81.0355C110.112 80.0073 108.978 79.0887 107.758 78.2945C106.058 77.1873 103.623 76.3725 100.836 75.776V91.4834C100.836 96.5729 96.7106 100.699 91.6211 100.699ZM43.4536 76.033V91.4834C43.4536 96.5729 47.5794 100.699 52.6689 100.699H67.6007C67.0034 103.459 66.1911 105.868 65.092 107.553C64.2981 108.76 63.3793 109.881 62.3509 110.896C58.4341 114.805 53.1265 117 47.5929 117C42.0592 117 36.7516 114.805 32.8348 110.896C28.9258 106.979 26.7305 101.671 26.7305 96.1376C26.7305 90.6039 28.9258 85.2963 32.8348 81.3795C33.8692 80.3325 35.0154 79.4021 36.2527 78.6051C38.0115 77.4634 40.5527 76.6332 43.4536 76.033ZM36.1775 65.7192C37.9487 66.8731 40.5192 67.7095 43.4536 68.3121V52.5313C43.4536 47.4417 47.5794 43.3159 52.6689 43.3159H67.4865C66.9018 40.7238 66.1188 38.4625 65.0753 36.8549C64.2708 35.623 63.341 34.4776 62.3008 33.437C58.3837 29.5255 53.0743 27.3285 47.5386 27.3285C42.0029 27.3285 36.6935 29.5255 32.7763 33.437L32.8348 33.4537C28.9258 37.3705 26.7305 42.6781 26.7305 48.2118C26.7305 53.7454 28.9258 59.053 32.8348 62.9698C33.8497 64.0008 34.9701 64.9223 36.1775 65.7192ZM52.1515 65.0899H92.1363V78.913H52.1515V65.0899Z" fill="white"/>
</g>
<defs>
<clipPath id="clip0_531_36162">
<rect width="782" height="144" fill="white"/>
</clipPath>
</defs>
</svg>
