<svg width="1136" height="144" viewBox="0 0 1136 144" fill="none" xmlns="http://www.w3.org/2000/svg">
<g clip-path="url(#clip0_531_36146)">
<path d="M220.117 50.3621H240.247V59.069C242.239 55.9908 244.923 53.5723 248.299 51.8133C251.676 49.9664 255.659 49.0429 260.248 49.0429C267.607 49.0429 273.625 51.5055 278.3 56.4306C283.062 61.2677 285.443 68.6554 285.443 78.5935V118.962H265.313V82.1554C265.313 77.67 264.231 74.0642 262.066 71.3378C259.901 68.6114 256.784 67.2482 252.715 67.2482C248.732 67.2482 245.659 68.6553 243.494 71.4697C241.329 74.1961 240.247 77.758 240.247 82.1554V118.962H220.117V50.3621Z" fill="white"/>
<path d="M297.61 50.3621H317.74V118.962H297.61V50.3621ZM297.61 25.2969H317.74V43.1064H297.61V25.2969Z" fill="white"/>
<path d="M358.264 119.753C351.684 119.753 346.446 117.994 342.549 114.476C338.653 110.87 336.705 105.33 336.705 97.8541V66.5886H326.705V50.3621H336.705V32.8165H356.835V50.3621H370.992V66.5886H356.835V94.5561C356.835 96.5789 357.485 98.2939 358.784 99.701C360.082 101.02 362.117 101.68 364.888 101.68C366.966 101.68 369.087 101.328 371.251 100.624V116.191C370.039 117.423 368.221 118.346 365.797 118.962C363.459 119.489 360.948 119.753 358.264 119.753Z" fill="white"/>
<path d="M380.557 50.3621H400.687V118.962H380.557V50.3621ZM380.557 25.2969H400.687V43.1064H380.557V25.2969Z" fill="white"/>
<path d="M441.86 120.281C436.492 120.281 431.341 118.918 426.405 116.191C421.47 113.465 417.444 109.419 414.327 104.054C411.21 98.6896 409.652 92.2254 409.652 84.6619C409.652 77.0984 411.21 70.6342 414.327 65.2693C417.444 59.9045 421.47 55.8589 426.405 53.1325C431.341 50.4061 436.492 49.0429 441.86 49.0429C445.497 49.0429 448.744 49.6146 451.601 50.7579C454.545 51.8133 456.882 53.0446 458.614 54.4517C460.346 55.8589 461.428 57.0902 461.861 58.1455H462.251V50.3621H482.381V118.962H462.251V111.178H461.861C461.428 112.234 460.346 113.465 458.614 114.872C456.882 116.279 454.545 117.554 451.601 118.698C448.744 119.753 445.497 120.281 441.86 120.281ZM429.522 84.6619C429.522 89.9388 431.124 94.1603 434.328 97.3264C437.618 100.493 441.514 102.076 446.016 102.076C450.692 102.076 454.631 100.537 457.835 97.4584C461.125 94.2922 462.77 90.0267 462.77 84.6619C462.77 79.2971 461.125 75.0756 457.835 71.9974C454.631 68.8312 450.692 67.2482 446.016 67.2482C441.514 67.2482 437.618 68.8312 434.328 71.9974C431.124 75.1635 429.522 79.385 429.522 84.6619Z" fill="white"/>
<path d="M187.395 50.3621H207.525V118.962H187.395V50.3621ZM187.395 25.2969H207.525V43.1064H187.395V25.2969Z" fill="white"/>
<path d="M1111.18 120.251C1104.58 120.251 1099.04 118.624 1094.57 115.37C1090.19 112.116 1087.45 107.675 1086.33 102.047L1093.73 100.068C1094.85 104.289 1096.94 107.543 1100.01 109.83C1103.09 112.116 1106.81 113.259 1111.18 113.259C1115.47 113.259 1119.14 112.248 1122.21 110.225C1125.28 108.115 1126.82 105.037 1126.82 100.991C1126.82 97.7374 1125.7 95.1431 1123.47 93.2083C1121.24 91.1856 1117.51 89.1189 1112.3 87.0083L1106.72 84.8976C1095.45 80.5884 1089.82 74.3444 1089.82 66.1656C1089.82 61.1528 1091.82 57.0635 1095.83 53.8975C1099.83 50.6436 1104.85 49.0166 1110.9 49.0166C1116.3 49.0166 1120.91 50.3358 1124.73 52.9741C1128.64 55.5244 1131.24 58.9982 1132.54 63.3954L1125.7 65.506C1123.1 59.0862 1118.26 55.8762 1111.18 55.8762C1107.46 55.8762 1104.34 56.7996 1101.83 58.6464C1099.41 60.4053 1098.2 62.9117 1098.2 66.1656C1098.2 68.8039 1099.13 71.1344 1100.99 73.1571C1102.85 75.1799 1105.88 76.9827 1110.07 78.5657L1114.95 80.4125C1122.03 83.1388 1127.19 85.953 1130.45 88.8551C1133.71 91.7572 1135.34 95.8026 1135.34 100.991C1135.34 107.235 1132.96 112.028 1128.22 115.37C1123.47 118.624 1117.79 120.251 1111.18 120.251Z" fill="white"/>
<path d="M1051.32 120.251C1045.07 120.251 1039.31 118.844 1034.03 116.029C1028.76 113.214 1024.49 109.124 1021.23 103.758C1018.07 98.3042 1016.48 91.8829 1016.48 84.494C1016.48 77.1931 1018.07 70.8598 1021.23 65.494C1024.4 60.1283 1028.58 56.038 1033.77 53.2232C1038.96 50.4084 1044.5 49.001 1050.39 49.001C1056.02 49.001 1061.35 50.3204 1066.36 52.9593C1071.37 55.5102 1075.42 59.3806 1078.5 64.5704C1081.66 69.6723 1083.25 75.8737 1083.25 83.1746C1083.25 85.1098 1083.2 86.5612 1083.12 87.5288H1024.14C1024.58 92.8945 1026.07 97.5126 1028.62 101.383C1031.26 105.253 1034.65 108.2 1038.78 110.223C1042.92 112.158 1047.4 113.126 1052.24 113.126C1056.64 113.126 1060.73 112.334 1064.51 110.751C1068.38 109.168 1071.55 106.881 1074.01 103.89L1078.23 108.244C1075.16 112.026 1071.24 114.973 1066.49 117.084C1061.74 119.195 1056.68 120.251 1051.32 120.251ZM1075.86 81.0635C1075.77 75.8737 1074.54 71.4315 1072.16 67.7371C1069.79 63.9547 1066.67 61.0959 1062.8 59.1607C1059.01 57.1376 1054.88 56.126 1050.39 56.126C1046.08 56.126 1041.99 57.0936 1038.12 59.0288C1034.34 60.9639 1031.17 63.8227 1028.62 67.6051C1026.07 71.2996 1024.58 75.7857 1024.14 81.0635H1075.86Z" fill="white"/>
<path d="M953.317 79.0843C953.317 72.0473 951.734 66.5056 948.567 62.4593C945.489 58.413 940.871 56.3899 934.713 56.3899C928.556 56.3899 923.762 58.457 920.331 62.5913C916.901 66.6376 915.185 72.1352 915.185 79.0843V118.932H907.137V50.3204H915.185V61.5357C916.945 57.9292 919.627 54.9385 923.234 52.5635C926.84 50.1885 931.327 49.001 936.692 49.001C941.97 49.001 946.544 50.2764 950.414 52.8274C954.373 55.2903 957.276 59.0288 959.123 64.0426C960.794 59.8204 963.609 56.2579 967.567 53.3551C971.526 50.4524 976.583 49.001 982.741 49.001C990.218 49.001 996.199 51.4639 1000.69 56.3899C1005.26 61.2278 1007.55 68.5288 1007.55 78.2926V118.932H999.498V79.0843C999.498 72.0473 997.914 66.5056 994.748 62.4593C991.669 58.413 987.051 56.3899 980.894 56.3899C974.736 56.3899 969.942 58.457 966.512 62.5913C963.081 66.6376 961.366 72.1352 961.366 79.0843V118.932H953.317V79.0843Z" fill="white"/>
<path d="M858.995 120.251C853.101 120.251 847.56 118.888 842.37 116.161C837.18 113.346 832.958 109.256 829.703 103.89C826.536 98.5241 824.953 92.1028 824.953 84.626C824.953 77.1491 826.536 70.7278 829.703 65.3621C832.958 59.9964 837.18 55.9501 842.37 53.2232C847.56 50.4084 853.101 49.001 858.995 49.001C865.24 49.001 870.87 50.5403 875.884 53.619C880.898 56.6098 884.416 60.3922 886.439 64.9663H886.835V50.3204H894.884V118.932H886.835V104.286H886.439C884.416 108.86 880.898 112.686 875.884 115.765C870.87 118.756 865.24 120.251 858.995 120.251ZM833.002 84.626C833.002 90.6954 834.277 95.8413 836.828 100.063C839.379 104.286 842.722 107.496 846.856 109.695C850.99 111.807 855.388 112.862 860.05 112.862C864.712 112.862 869.111 111.807 873.245 109.695C877.379 107.496 880.722 104.286 883.273 100.063C885.823 95.7533 887.099 90.6075 887.099 84.626C887.099 78.6445 885.823 73.5426 883.273 69.3204C880.722 65.0102 877.379 61.7996 873.245 59.6885C869.111 57.4894 864.712 56.3899 860.05 56.3899C855.388 56.3899 850.99 57.4894 846.856 59.6885C842.722 61.7996 839.379 64.9663 836.828 69.1885C834.277 73.4107 833.002 78.5565 833.002 84.626Z" fill="white"/>
<path d="M756.973 50.3204H765.021V62.3274C766.956 58.545 769.903 55.3783 773.862 52.8274C777.908 50.2764 782.878 49.001 788.771 49.001C793.873 49.001 798.447 50.1005 802.493 52.2996C806.628 54.4107 809.882 57.6653 812.257 62.0635C814.72 66.4616 815.952 71.9593 815.952 78.5565V118.932H807.903V79.4801C807.903 71.9153 805.924 66.1977 801.966 62.3274C798.007 58.369 792.906 56.3899 786.66 56.3899C780.415 56.3899 775.225 58.369 771.091 62.3274C767.044 66.2857 765.021 72.0033 765.021 79.4801V118.932H756.973V50.3204Z" fill="white"/>
<path d="M712.883 50.3204H720.931V66.2857C722.427 61.1838 725.022 57.0496 728.716 53.8829C732.499 50.6283 737.337 49.001 743.23 49.001C744.725 49.001 745.913 49.1329 746.793 49.3968V56.9176C745.737 56.6538 744.593 56.5218 743.362 56.5218C739.14 56.5218 735.313 57.5774 731.883 59.6885C728.54 61.7996 725.857 64.8343 723.834 68.7926C721.899 72.751 720.931 77.325 720.931 82.5149V118.932H712.883V50.3204Z" fill="white"/>
<path d="M671.974 120.251C665.729 120.251 659.967 118.844 654.689 116.029C649.411 113.214 645.145 109.124 641.891 103.758C638.724 98.3042 637.141 91.8829 637.141 84.494C637.141 77.1931 638.724 70.8598 641.891 65.494C645.057 60.1283 649.236 56.038 654.425 53.2232C659.615 50.4084 665.157 49.001 671.05 49.001C676.68 49.001 682.002 50.3204 687.016 52.9593C692.03 55.5102 696.076 59.3806 699.155 64.5704C702.321 69.6723 703.905 75.8737 703.905 83.1746C703.905 85.1098 703.861 86.5612 703.773 87.5288H644.793C645.233 92.8945 646.729 97.5126 649.28 101.383C651.918 105.253 655.305 108.2 659.439 110.223C663.573 112.158 668.06 113.126 672.898 113.126C677.296 113.126 681.386 112.334 685.168 110.751C689.039 109.168 692.205 106.881 694.668 103.89L698.891 108.244C695.812 112.026 691.898 114.973 687.148 117.084C682.398 119.195 677.34 120.251 671.974 120.251ZM696.516 81.0635C696.428 75.8737 695.196 71.4315 692.821 67.7371C690.446 63.9547 687.323 61.0959 683.453 59.1607C679.671 57.1376 675.536 56.126 671.05 56.126C666.74 56.126 662.65 57.0936 658.78 59.0288C654.997 60.9639 651.83 63.8227 649.28 67.6051C646.729 71.2996 645.233 75.7857 644.793 81.0635H696.516Z" fill="white"/>
<path d="M606.578 120.243C599.97 120.243 594.432 118.616 589.964 115.362C585.589 112.108 582.843 107.667 581.727 102.039L589.126 100.06C590.243 104.281 592.337 107.535 595.409 109.822C598.48 112.108 602.203 113.252 606.578 113.252C610.86 113.252 614.536 112.24 617.608 110.218C620.679 108.107 622.215 105.029 622.215 100.984C622.215 97.7296 621.098 95.1352 618.864 93.2005C616.63 91.1778 612.907 89.1111 607.695 87.0005L602.11 84.8898C590.848 80.5806 585.217 74.3366 585.217 66.1578C585.217 61.145 587.218 57.0556 591.22 53.8897C595.223 50.6358 600.249 49.0088 606.299 49.0088C611.697 49.0088 616.305 50.3279 620.121 52.9663C624.03 55.5166 626.636 58.9904 627.939 63.3876L621.098 65.4982C618.492 59.0783 613.652 55.8684 606.578 55.8684C602.855 55.8684 599.737 56.7918 597.224 58.6386C594.804 60.3975 593.594 62.9039 593.594 66.1578C593.594 68.7961 594.525 71.1266 596.386 73.1493C598.248 75.172 601.273 76.9749 605.461 78.5579L610.348 80.4047C617.422 83.1309 622.587 85.9451 625.845 88.8473C629.103 91.7494 630.732 95.7948 630.732 100.984C630.732 107.228 628.358 112.02 623.611 115.362C618.864 118.616 613.187 120.243 606.578 120.243Z" fill="white"/>
<path d="M573.796 118.931H565.747V106.924C563.812 110.707 560.821 113.874 556.775 116.424C552.816 118.975 547.89 120.251 541.997 120.251C536.895 120.251 532.277 119.195 528.143 117.084C524.096 114.885 520.842 111.587 518.379 107.188C516.004 102.79 514.816 97.2925 514.816 90.6953V50.3203H522.865V89.7717C522.865 97.3365 524.844 103.098 528.803 107.056C532.761 110.927 537.863 112.862 544.108 112.862C550.353 112.862 555.499 110.883 559.546 106.924C563.68 102.966 565.747 97.2485 565.747 89.7717V50.3203H573.796V118.931Z" fill="white"/>
<path fill-rule="evenodd" clip-rule="evenodd" d="M72 144C111.765 144 144 111.765 144 72C144 32.2355 111.765 0 72 0C32.2355 0 0 32.2355 0 72C0 111.765 32.2355 144 72 144ZM71.982 82.8258L98.6402 101.97V47H45.3599V102L71.982 82.8258Z" fill="white"/>
</g>
<defs>
<clipPath id="clip0_531_36146">
<rect width="1136" height="144" fill="white"/>
</clipPath>
</defs>
</svg>
