<svg width="259" height="73" viewBox="0 0 259 73" fill="none" xmlns="http://www.w3.org/2000/svg">
<path d="M66.1452 13.2725C65.4196 10.525 63.0869 7.77748 58.8878 4.71898C55.5183 2.2825 51.9414 0.882812 49.0903 0.882812C48.52 0.882812 48.0016 0.934694 47.4832 1.03831C46.1873 1.29759 45.0469 2.23061 44.3211 3.6303C43.4398 5.28911 43.2326 7.51836 43.8027 8.86616C44.0101 9.28079 44.2692 9.79919 44.5804 10.2659C41.8329 11.9247 40.2777 12.3912 40.0703 12.4431C47.2241 14.8277 53.1856 19.8044 56.918 26.2843L56.9699 25.6623C57.1254 23.8997 57.6438 21.9816 58.3694 19.9599C59.0952 20.1673 59.821 20.2709 60.5466 20.2709C62.4647 20.2709 64.1235 19.4932 65.1603 18.0937C66.1971 16.694 66.6119 14.8795 66.1452 13.2725Z" fill="#5E12A0"/>
<path d="M58.684 18.4553C63.4014 19.7513 65.3193 16.1226 64.6973 13.6861C64.0753 11.2496 61.8462 8.76122 58.01 5.96184C54.174 3.16246 50.2861 2.02205 47.7979 2.54045C45.3095 3.05885 44.5838 6.84313 45.2059 8.29471C45.465 8.86484 46.0353 9.69439 46.8128 10.6274C45.8279 11.3013 44.8949 11.8197 44.1172 12.2864C48.8864 14.4117 53.0336 17.7295 56.1438 21.8767C56.5067 20.477 57.0251 19.2329 57.4917 18.1443C57.8545 18.2479 58.2693 18.3516 58.684 18.4553Z" fill="url(#paint0_radial_217_41387)"/>
<path d="M31.6752 69.3096C47.6792 69.3096 60.6531 56.3354 60.6531 40.3311C60.6531 24.3266 47.6792 11.3525 31.6752 11.3525C15.6711 11.3525 2.69727 24.3266 2.69727 40.3311C2.69727 56.3354 15.6711 69.3096 31.6752 69.3096Z" fill="url(#paint1_radial_217_41387)"/>
<path opacity="0.6" d="M62.3072 11.3526C58.3675 7.20544 55.0498 6.11676 51.0582 5.23547C47.9479 4.50968 48.7773 2.74725 52.5615 3.11C50.7471 2.48798 49.0365 2.33247 47.7924 2.5916C45.3041 3.10999 44.5783 6.89443 45.2004 8.34585C45.4596 8.91613 46.0298 9.74554 46.8074 10.6787C45.4078 11.6117 44.2155 12.2858 43.2305 12.8042C43.6971 13.0114 44.2673 13.2707 44.9412 13.6336C46.7037 14.5666 48.6218 16.1218 48.6218 16.1218C45.7188 13.6336 46.3408 12.493 50.3325 9.69366C51.5766 8.81252 53.8575 8.91614 55.9829 10.0048C58.1083 11.0933 60.5966 13.841 60.5966 13.841L58.212 18.4028C58.3675 18.4547 58.523 18.5066 58.6785 18.5583C60.1818 18.9731 61.3741 18.8693 62.3072 18.5066C63.3959 17.8325 66.247 15.4998 62.3072 11.3526Z" fill="#A98698"/>
<path d="M51.0134 7.72521C52.0502 8.13999 53.398 8.86562 55.057 9.9543C57.0268 11.2504 58.7375 12.7018 59.8262 13.8424C58.0117 16.227 56.8194 19.4929 56.0938 21.7738C56.4565 22.2922 56.8713 22.8106 57.2342 23.329C57.5971 22.0329 58.2191 20.1149 59.0485 18.1969C59.2559 18.2487 59.515 18.2487 59.7743 18.2487C60.3963 18.2487 61.1221 18.145 61.6924 17.6785C62.107 17.3674 62.5735 16.7972 62.5218 15.7604C62.5218 14.7754 61.7441 13.5314 60.1372 12.0279C58.9966 10.9392 57.4416 9.74691 55.8864 8.65838C51.4282 5.7035 48.3178 4.8741 46.9183 6.27363C45.9851 7.20681 46.0889 8.34722 46.3999 9.17678C44.7409 10.2653 43.3414 11.043 42.4082 11.5614C43.0304 11.7688 43.6005 12.0279 44.2227 12.2872C45.8815 11.354 48.2661 9.85068 51.0134 7.72521ZM60.8111 15.0865C60.9666 15.3457 61.0185 15.6048 61.0185 15.7604C61.0185 16.227 60.8628 16.3825 60.7592 16.4861C60.5518 16.6416 60.1372 16.7454 59.7743 16.7454C60.0853 16.1751 60.4482 15.6049 60.8111 15.0865ZM48.0068 7.36231C48.1623 7.20681 48.5771 7.10319 49.251 7.20681C48.7326 7.62159 48.2142 7.98448 47.6958 8.34722C47.6439 7.98448 47.6958 7.67332 48.0068 7.36231Z" fill="#5E12A0"/>
<path d="M31.673 9.64258C14.7217 9.64258 0.984375 23.3802 0.984375 40.3318C0.984375 57.2834 14.7217 71.021 31.673 71.021C48.6245 71.021 62.3618 57.2834 62.3618 40.3318C62.3099 23.3802 48.5726 9.64258 31.673 9.64258ZM31.673 69.2584C15.6549 69.2584 2.69507 56.2985 2.69507 40.2799C2.69507 24.2615 15.6549 11.3014 31.673 11.3014C47.6913 11.3014 60.6511 24.2615 60.6511 40.2799C60.5992 56.2985 47.6394 69.2584 31.673 69.2584Z" fill="#5E12A0"/>
<path opacity="0.6" d="M31.6752 69.3096C47.6792 69.3096 60.6531 56.3354 60.6531 40.3311C60.6531 24.3266 47.6792 11.3525 31.6752 11.3525C15.6711 11.3525 2.69727 24.3266 2.69727 40.3311C2.69727 56.3354 15.6711 69.3096 31.6752 69.3096Z" fill="url(#paint2_linear_217_41387)"/>
<path opacity="0.6" d="M31.4655 65.7351C15.6546 63.195 4.92396 48.317 7.51594 32.5058C8.65636 25.5075 12.1814 19.5458 17.158 15.2432C9.90054 19.4422 4.50933 26.7515 3.05776 35.6681C0.517654 51.4793 11.2483 66.3573 27.0074 68.8974C35.82 70.349 44.3216 67.6015 50.5941 62.2101C45.0473 65.476 38.3082 66.8757 31.4655 65.7351Z" fill="#A98698"/>
<path opacity="0.6" d="M36.2868 11.7159C28.9775 10.5236 21.8756 12.1825 16.0696 15.8631C15.9658 15.9668 15.8622 16.0704 15.8622 16.0704C18.0913 14.7226 21.3572 13.5303 21.3572 13.5303C12.9592 18.4033 10.3672 23.9502 10.3672 23.9502C13.6331 17.6256 23.2234 13.1674 30.7399 12.8564C38.2566 12.5453 43.1813 14.7744 49.1945 19.5956C55.2079 24.4684 58.8367 34.4217 58.4738 42.3013C58.1628 50.1811 54.0156 56.5573 54.0156 56.5573C56.8667 52.8767 58.5774 50.1811 59.6661 47.4336C59.8735 46.6042 60.0807 45.7746 60.1845 44.8933C62.7763 29.134 52.0975 14.3079 36.2868 11.7159Z" fill="url(#paint3_linear_217_41387)"/>
<path d="M59.1965 40.0215C59.1965 55.2107 46.8589 67.5484 31.67 67.5484C16.4813 67.5484 4.0918 55.2107 4.0918 40.0215H59.1965Z" fill="url(#paint4_linear_217_41387)"/>
<g opacity="0.6">
<path opacity="0.6" d="M57.0415 40.0215C57.0415 54.8478 45.3259 66.9783 30.6035 67.5484C30.9664 67.5484 31.3293 67.5484 31.6922 67.5484C46.8811 67.5484 59.2187 55.2107 59.2187 40.0215H57.0415Z" fill="url(#paint5_linear_217_41387)"/>
</g>
<g opacity="0.7">
<path d="M7.98947 40.0176H4.10156C4.10156 55.2068 16.4392 67.5445 31.6281 67.5445C32.302 67.5445 32.924 67.5445 33.546 67.4928C19.2903 66.5077 7.98947 54.5846 7.98947 40.0176Z" fill="url(#paint6_linear_217_41387)"/>
</g>
<path d="M59.1446 40.3323C59.1446 37.17 53.6498 35.3557 46.3405 34.7336C41.0529 34.3189 35.7134 34.8373 29.5964 36.7035C24.309 38.2587 19.5398 37.9995 16.0665 37.5848C8.3426 36.7035 4.0918 36.5998 4.0918 40.3323C4.0918 45.7237 15.0816 52.4628 31.5664 50.13C39.9125 48.9377 44.215 46.5012 49.1397 44.8424C54.4792 43.0279 59.1446 43.1317 59.1446 40.3323Z" fill="url(#paint7_linear_217_41387)"/>
<path d="M40.6928 27.2169C43.2695 27.2169 45.3583 25.1281 45.3583 22.5513C45.3583 19.9745 43.2695 17.8857 40.6928 17.8857C38.1161 17.8857 36.0273 19.9745 36.0273 22.5513C36.0273 25.1281 38.1161 27.2169 40.6928 27.2169Z" fill="white"/>
<path d="M48.3155 30.6888C49.4034 30.6888 50.2855 29.8069 50.2855 28.719C50.2855 27.6309 49.4034 26.749 48.3155 26.749C47.2276 26.749 46.3457 27.6309 46.3457 28.719C46.3457 29.8069 47.2276 30.6888 48.3155 30.6888Z" fill="white"/>
<g opacity="0.6">
<path d="M55.3692 18.8683C55.3173 18.8683 55.2656 18.8683 55.2656 18.8683C54.9544 18.8165 54.7472 18.5054 54.7989 18.1426C55.2656 15.758 57.2354 13.477 57.339 13.3734C57.5464 13.1141 57.9612 13.1141 58.1686 13.3215C58.4277 13.5289 58.4277 13.9436 58.2203 14.1509C58.1686 14.2028 56.3541 16.3282 55.9395 18.4018C55.8876 18.661 55.6283 18.8683 55.3692 18.8683Z" fill="url(#paint8_linear_217_41387)"/>
</g>
<path d="M49.0913 0.933176C51.9943 0.933176 55.5712 2.33286 58.889 4.7692C63.0879 7.82785 65.4206 10.5235 66.1464 13.3228C66.5611 14.9299 66.1983 16.7442 65.1615 18.092C64.0728 19.4917 62.4658 20.2694 60.5478 20.2694C59.8739 20.2694 59.1481 20.1656 58.3706 19.9584C57.9039 21.1507 57.5412 22.343 57.2819 23.4834C60.4441 28.3045 62.3103 34.1106 62.3103 40.3314C62.3103 57.283 48.573 71.0206 31.6216 71.0206C14.6703 71.0206 0.984908 57.283 0.984908 40.3314C0.984908 23.3798 14.7222 9.64216 31.6735 9.64216C35.4059 9.64216 38.9828 10.3161 42.3004 11.5603C42.9226 11.2492 43.7001 10.8345 44.5814 10.3161C44.2704 9.84955 43.9594 9.38304 43.8039 8.91653C43.2336 7.51684 43.441 5.33948 44.3222 3.68067C45.0479 2.33287 46.1366 1.39969 47.4844 1.08868C47.9509 0.984909 48.5212 0.933176 49.0913 0.933176ZM49.0913 0C48.4693 0 47.8473 0.0518864 47.277 0.20739C45.7218 0.570284 44.374 1.60708 43.4927 3.26589C42.5078 5.18397 42.2487 7.67235 42.9226 9.27927C43.0262 9.48666 43.13 9.74593 43.2855 10.0051C42.9226 10.2124 42.5597 10.4198 42.1968 10.5753C38.7754 9.38304 35.2504 8.76087 31.6216 8.76087C27.3708 8.76087 23.2238 9.59043 19.3359 11.2492C15.5516 12.8563 12.1821 15.1371 9.27912 18.0403C6.37612 20.9433 4.09529 24.313 2.48822 28.0972C0.829405 31.9851 0 36.1323 0 40.3833C0 44.6341 0.829405 48.7813 2.48822 52.6693C4.09529 56.4536 6.37612 59.8231 9.27912 62.7263C12.1821 65.6292 15.5516 67.9102 19.3359 69.5172C23.2238 71.1761 27.3708 72.0055 31.6216 72.0055C35.8724 72.0055 40.0196 71.1761 43.9075 69.5172C47.6918 67.9102 51.0613 65.6292 53.9643 62.7263C56.8673 59.8231 59.1481 56.4536 60.7552 52.6693C62.414 48.7813 63.2434 44.6341 63.2434 40.3833C63.2434 34.318 61.5327 28.4601 58.2668 23.3798C58.4224 22.6021 58.6816 21.8246 58.9407 21.0469C59.4591 21.1507 60.0294 21.2024 60.5478 21.2024C62.725 21.2024 64.6431 20.3213 65.8872 18.6623C67.0795 17.1071 67.5461 14.9299 67.0277 13.1154C66.1982 10.1088 63.8137 7.25757 59.4074 4.0953C55.9341 1.45158 52.1498 0 49.0913 0Z" fill="white"/>
<path opacity="0.2" d="M29.7543 61.8962C30.5559 61.8962 31.2057 61.2463 31.2057 60.4446C31.2057 59.643 30.5559 58.9932 29.7543 58.9932C28.9526 58.9932 28.3027 59.643 28.3027 60.4446C28.3027 61.2463 28.9526 61.8962 29.7543 61.8962Z" fill="white"/>
<g opacity="0.4">
<path opacity="0.6" d="M28.9281 61.4276C28.3578 60.8573 28.3578 59.9243 28.9281 59.354C29.0317 59.2504 29.1355 59.1985 29.2391 59.0947C29.0317 59.1466 28.8762 59.2502 28.7207 59.4059C28.1504 59.976 28.1504 60.9092 28.7207 61.4795C29.1872 61.946 29.913 62.0496 30.4833 61.7386C29.9649 61.946 29.3427 61.8424 28.9281 61.4276Z" fill="url(#paint9_linear_217_41387)"/>
</g>
<path opacity="0.3" d="M30.27 60.0304C30.4418 60.0304 30.581 59.8911 30.581 59.7194C30.581 59.5476 30.4418 59.4082 30.27 59.4082C30.0982 59.4082 29.959 59.5476 29.959 59.7194C29.959 59.8911 30.0982 60.0304 30.27 60.0304Z" fill="white"/>
<path opacity="0.2" d="M37.3246 61.1715C38.1262 61.1715 38.776 60.5217 38.776 59.7201C38.776 58.9184 38.1262 58.2686 37.3246 58.2686C36.5229 58.2686 35.873 58.9184 35.873 59.7201C35.873 60.5217 36.5229 61.1715 37.3246 61.1715Z" fill="white"/>
<g opacity="0.4">
<path opacity="0.6" d="M36.4983 60.6512C35.928 60.0809 35.928 59.1478 36.4983 58.5776C36.6019 58.4739 36.7057 58.422 36.8093 58.3184C36.6019 58.3702 36.4464 58.4739 36.2909 58.6294C35.7207 59.1997 35.7207 60.1328 36.2909 60.703C36.7574 61.1696 37.4832 61.2732 38.0535 60.9622C37.5351 61.2214 36.9131 61.1177 36.4983 60.6512Z" fill="url(#paint10_linear_217_41387)"/>
</g>
<path opacity="0.3" d="M37.8423 59.3056C38.014 59.3056 38.1533 59.1664 38.1533 58.9946C38.1533 58.8228 38.014 58.6836 37.8423 58.6836C37.6705 58.6836 37.5312 58.8228 37.5312 58.9946C37.5312 59.1664 37.6705 59.3056 37.8423 59.3056Z" fill="white"/>
<path opacity="0.2" d="M33.5887 64.5406C34.1898 64.5406 34.6772 64.0533 34.6772 63.452C34.6772 62.8508 34.1898 62.3633 33.5887 62.3633C32.9874 62.3633 32.5 62.8508 32.5 63.452C32.5 64.0533 32.9874 64.5406 33.5887 64.5406Z" fill="white"/>
<g opacity="0.4">
<path opacity="0.6" d="M32.9782 64.1794C32.5636 63.7647 32.5636 63.039 32.9782 62.6242C33.0301 62.5724 33.1337 62.5206 33.1856 62.4688C33.0301 62.5206 32.9265 62.6243 32.8227 62.7279C32.4081 63.1427 32.4081 63.8684 32.8227 64.2831C33.1856 64.646 33.704 64.6978 34.1705 64.4386C33.7559 64.5423 33.2892 64.4905 32.9782 64.1794Z" fill="url(#paint11_linear_217_41387)"/>
</g>
<path opacity="0.3" d="M33.9554 63.0896C34.0699 63.0896 34.1627 62.9968 34.1627 62.8822C34.1627 62.7676 34.0699 62.6748 33.9554 62.6748C33.8409 62.6748 33.748 62.7676 33.748 62.8822C33.748 62.9968 33.8409 63.0896 33.9554 63.0896Z" fill="white"/>
<path opacity="0.2" d="M40.284 63.7631C40.8852 63.7631 41.3725 63.2758 41.3725 62.6746C41.3725 62.0733 40.8852 61.5859 40.284 61.5859C39.6827 61.5859 39.1953 62.0733 39.1953 62.6746C39.1953 63.2758 39.6827 63.7631 40.284 63.7631Z" fill="white"/>
<g opacity="0.4">
<path opacity="0.6" d="M39.6559 63.3933C39.2413 62.9785 39.2413 62.2528 39.6559 61.8381C39.7078 61.7862 39.8114 61.7344 39.8633 61.6826C39.7078 61.7344 39.6042 61.8381 39.5004 61.9417C39.0858 62.3565 39.0858 63.0822 39.5004 63.4969C39.8633 63.8598 40.3817 63.9117 40.8482 63.6524C40.4336 63.7562 39.9671 63.7043 39.6559 63.3933Z" fill="url(#paint12_linear_217_41387)"/>
</g>
<path opacity="0.3" d="M40.6468 62.3101C40.7613 62.3101 40.8541 62.2173 40.8541 62.1029C40.8541 61.9883 40.7613 61.8955 40.6468 61.8955C40.5323 61.8955 40.4395 61.9883 40.4395 62.1029C40.4395 62.2173 40.5323 62.3101 40.6468 62.3101Z" fill="white"/>
<path opacity="0.2" d="M23.5858 61.3786C24.9028 61.3786 25.9704 60.311 25.9704 58.994C25.9704 57.6771 24.9028 56.6094 23.5858 56.6094C22.2689 56.6094 21.2012 57.6771 21.2012 58.994C21.2012 60.311 22.2689 61.3786 23.5858 61.3786Z" fill="white"/>
<g opacity="0.4">
<path opacity="0.6" d="M22.2394 60.548C21.3062 59.6148 21.3062 58.1115 22.2394 57.1783C22.3949 57.0228 22.5504 56.9192 22.7578 56.8154C22.4468 56.9192 22.1875 57.1264 21.9284 57.3338C20.9952 58.267 20.9952 59.7703 21.9284 60.7035C22.7059 61.481 23.8982 61.6365 24.8314 61.0664C23.9501 61.4293 22.9133 61.2219 22.2394 60.548Z" fill="url(#paint13_linear_217_41387)"/>
</g>
<path opacity="0.3" d="M24.4168 58.32C24.7032 58.32 24.9352 58.0878 24.9352 57.8016C24.9352 57.5152 24.7032 57.2832 24.4168 57.2832C24.1306 57.2832 23.8984 57.5152 23.8984 57.8016C23.8984 58.0878 24.1306 58.32 24.4168 58.32Z" fill="white"/>
<path opacity="0.2" d="M44.8924 55.5231C46.2093 55.5231 47.277 54.4556 47.277 53.1385C47.277 51.8214 46.2093 50.7539 44.8924 50.7539C43.5753 50.7539 42.5078 51.8214 42.5078 53.1385C42.5078 54.4556 43.5753 55.5231 44.8924 55.5231Z" fill="white"/>
<g opacity="0.4">
<path opacity="0.6" d="M43.4912 54.6915C42.5582 53.7584 42.5582 52.2551 43.4912 51.3219C43.6469 51.1664 43.8024 51.0628 44.0096 50.959C43.6986 51.0628 43.4395 51.27 43.1802 51.4774C42.2472 52.4106 42.2472 53.9139 43.1802 54.847C43.9579 55.6246 45.1502 55.7801 46.0832 55.2099C45.2019 55.5728 44.217 55.3654 43.4912 54.6915Z" fill="url(#paint14_linear_217_41387)"/>
</g>
<path opacity="0.3" d="M45.7196 52.4614C46.0058 52.4614 46.238 52.2294 46.238 51.9432C46.238 51.6568 46.0058 51.4248 45.7196 51.4248C45.4332 51.4248 45.2012 51.6568 45.2012 51.9432C45.2012 52.2294 45.4332 52.4614 45.7196 52.4614Z" fill="white"/>
<g opacity="0.5">
<path d="M81.4082 65.7828V54.1464H85.34C86.2529 54.1464 86.9991 54.3112 87.5787 54.6407C88.162 54.9665 88.5938 55.4078 88.8741 55.9646C89.1544 56.5214 89.2946 57.1426 89.2946 57.8282C89.2946 58.5138 89.1544 59.1369 88.8741 59.6975C88.5976 60.2581 88.1696 60.7051 87.59 61.0384C87.0105 61.368 86.2681 61.5328 85.3627 61.5328H82.5446V60.2828H85.3173C85.9423 60.2828 86.4442 60.1748 86.823 59.9589C87.2018 59.743 87.4764 59.4513 87.6468 59.0839C87.8211 58.7127 87.9082 58.2941 87.9082 57.8282C87.9082 57.3623 87.8211 56.9456 87.6468 56.5782C87.4764 56.2108 87.1999 55.9229 86.8173 55.7146C86.4347 55.5025 85.9271 55.3964 85.2946 55.3964H82.8173V65.7828H81.4082Z" fill="#FCFCFD"/>
<path d="M95.8343 65.9646C95.0465 65.9646 94.3552 65.7771 93.7605 65.4021C93.1696 65.0271 92.7074 64.5025 92.3741 63.8282C92.0446 63.154 91.8798 62.3661 91.8798 61.4646C91.8798 60.5555 92.0446 59.7619 92.3741 59.0839C92.7074 58.4059 93.1696 57.8794 93.7605 57.5044C94.3552 57.1294 95.0465 56.9419 95.8343 56.9419C96.6222 56.9419 97.3116 57.1294 97.9025 57.5044C98.4972 57.8794 98.9593 58.4059 99.2889 59.0839C99.6222 59.7619 99.7889 60.5555 99.7889 61.4646C99.7889 62.3661 99.6222 63.154 99.2889 63.8282C98.9593 64.5025 98.4972 65.0271 97.9025 65.4021C97.3116 65.7771 96.6222 65.9646 95.8343 65.9646ZM95.8343 64.76C96.4328 64.76 96.9252 64.6066 97.3116 64.2998C97.698 63.993 97.984 63.5896 98.1696 63.0896C98.3552 62.5896 98.448 62.0479 98.448 61.4646C98.448 60.8812 98.3552 60.3377 98.1696 59.8339C97.984 59.3301 97.698 58.9229 97.3116 58.6123C96.9252 58.3017 96.4328 58.1464 95.8343 58.1464C95.2359 58.1464 94.7434 58.3017 94.3571 58.6123C93.9707 58.9229 93.6847 59.3301 93.4991 59.8339C93.3135 60.3377 93.2207 60.8812 93.2207 61.4646C93.2207 62.0479 93.3135 62.5896 93.4991 63.0896C93.6847 63.5896 93.9707 63.993 94.3571 64.2998C94.7434 64.6066 95.2359 64.76 95.8343 64.76Z" fill="#FCFCFD"/>
<path d="M104.516 65.7828L101.857 57.0555H103.266L105.153 63.7373H105.243L107.107 57.0555H108.539L110.38 63.7146H110.471L112.357 57.0555H113.766L111.107 65.7828H109.789L107.88 59.0782H107.743L105.834 65.7828H104.516Z" fill="#FCFCFD"/>
<path d="M119.901 65.9646C119.06 65.9646 118.335 65.779 117.725 65.4078C117.119 65.0328 116.651 64.51 116.322 63.8396C115.996 63.1653 115.833 62.3812 115.833 61.4873C115.833 60.5934 115.996 59.8055 116.322 59.1237C116.651 58.4381 117.109 57.904 117.697 57.5214C118.287 57.135 118.977 56.9419 119.765 56.9419C120.219 56.9419 120.668 57.0176 121.111 57.1691C121.555 57.3206 121.958 57.5669 122.322 57.9078C122.685 58.2449 122.975 58.6919 123.191 59.2487C123.407 59.8055 123.515 60.4911 123.515 61.3055V61.8737H116.787V60.7146H122.151C122.151 60.2222 122.053 59.7828 121.856 59.3964C121.662 59.01 121.386 58.7051 121.026 58.4816C120.67 58.2581 120.25 58.1464 119.765 58.1464C119.231 58.1464 118.769 58.279 118.378 58.5441C117.992 58.8055 117.695 59.1464 117.486 59.5668C117.278 59.9873 117.174 60.4381 117.174 60.9191V61.6919C117.174 62.3509 117.287 62.9097 117.515 63.368C117.746 63.8225 118.066 64.1691 118.475 64.4078C118.884 64.6426 119.359 64.76 119.901 64.76C120.253 64.76 120.572 64.7108 120.856 64.6123C121.144 64.51 121.392 64.3585 121.6 64.1578C121.808 63.9532 121.969 63.6994 122.083 63.3964L123.378 63.76C123.242 64.1994 123.013 64.5858 122.691 64.9191C122.369 65.2487 121.971 65.5062 121.498 65.6918C121.024 65.8737 120.492 65.9646 119.901 65.9646Z" fill="#FCFCFD"/>
<path d="M126.555 65.7828V57.0555H127.85V58.3737H127.941C128.1 57.9419 128.388 57.5915 128.805 57.3225C129.221 57.0536 129.691 56.9191 130.214 56.9191C130.312 56.9191 130.435 56.921 130.583 56.9248C130.731 56.9286 130.842 56.9343 130.918 56.9419V58.3055C130.873 58.2941 130.769 58.2771 130.606 58.2543C130.447 58.2278 130.278 58.2146 130.1 58.2146C129.676 58.2146 129.297 58.3036 128.964 58.4816C128.634 58.6559 128.373 58.8983 128.18 59.2089C127.99 59.5157 127.895 59.8661 127.895 60.26V65.7828H126.555Z" fill="#FCFCFD"/>
<path d="M136.901 65.9646C136.06 65.9646 135.335 65.779 134.725 65.4078C134.119 65.0328 133.651 64.51 133.322 63.8396C132.996 63.1653 132.833 62.3812 132.833 61.4873C132.833 60.5934 132.996 59.8055 133.322 59.1237C133.651 58.4381 134.109 57.904 134.697 57.5214C135.287 57.135 135.977 56.9419 136.765 56.9419C137.219 56.9419 137.668 57.0176 138.111 57.1691C138.555 57.3206 138.958 57.5669 139.322 57.9078C139.685 58.2449 139.975 58.6919 140.191 59.2487C140.407 59.8055 140.515 60.4911 140.515 61.3055V61.8737H133.787V60.7146H139.151C139.151 60.2222 139.053 59.7828 138.856 59.3964C138.662 59.01 138.386 58.7051 138.026 58.4816C137.67 58.2581 137.25 58.1464 136.765 58.1464C136.231 58.1464 135.769 58.279 135.378 58.5441C134.992 58.8055 134.695 59.1464 134.486 59.5668C134.278 59.9873 134.174 60.4381 134.174 60.9191V61.6919C134.174 62.3509 134.287 62.9097 134.515 63.368C134.746 63.8225 135.066 64.1691 135.475 64.4078C135.884 64.6426 136.359 64.76 136.901 64.76C137.253 64.76 137.572 64.7108 137.856 64.6123C138.144 64.51 138.392 64.3585 138.6 64.1578C138.808 63.9532 138.969 63.6994 139.083 63.3964L140.378 63.76C140.242 64.1994 140.013 64.5858 139.691 64.9191C139.369 65.2487 138.971 65.5062 138.498 65.6918C138.024 65.8737 137.492 65.9646 136.901 65.9646Z" fill="#FCFCFD"/>
<path d="M146.85 65.9646C146.123 65.9646 145.481 65.7809 144.924 65.4134C144.367 65.0422 143.931 64.5195 143.617 63.8453C143.303 63.1672 143.145 62.3661 143.145 61.4419C143.145 60.5252 143.303 59.7297 143.617 59.0555C143.931 58.3812 144.369 57.8604 144.93 57.493C145.49 57.1256 146.138 56.9419 146.873 56.9419C147.441 56.9419 147.89 57.0365 148.219 57.2259C148.553 57.4115 148.806 57.6237 148.981 57.8623C149.159 58.0972 149.297 58.2903 149.395 58.4418H149.509V54.1464H150.85V65.7828H149.555V64.4419H149.395C149.297 64.6009 149.157 64.8017 148.975 65.0441C148.793 65.2828 148.534 65.4968 148.197 65.6862C147.859 65.8718 147.411 65.9646 146.85 65.9646ZM147.032 64.76C147.57 64.76 148.024 64.6199 148.395 64.3396C148.767 64.0555 149.049 63.6634 149.242 63.1634C149.435 62.6597 149.532 62.0782 149.532 61.4191C149.532 60.7676 149.437 60.1975 149.248 59.7089C149.058 59.2165 148.778 58.8339 148.407 58.5612C148.036 58.2847 147.577 58.1464 147.032 58.1464C146.464 58.1464 145.99 58.2922 145.611 58.5839C145.236 58.8718 144.954 59.2638 144.765 59.76C144.579 60.2525 144.486 60.8055 144.486 61.4191C144.486 62.0403 144.581 62.6047 144.77 63.1123C144.964 63.6161 145.248 64.0176 145.623 64.3169C146.001 64.6123 146.471 64.76 147.032 64.76Z" fill="#FCFCFD"/>
<path d="M160.174 65.7828V54.1464H161.515V58.4418H161.628C161.727 58.2903 161.863 58.0972 162.037 57.8623C162.215 57.6237 162.469 57.4115 162.799 57.2259C163.132 57.0365 163.583 56.9419 164.151 56.9419C164.886 56.9419 165.534 57.1256 166.094 57.493C166.655 57.8604 167.092 58.3812 167.407 59.0555C167.721 59.7297 167.878 60.5252 167.878 61.4419C167.878 62.3661 167.721 63.1672 167.407 63.8453C167.092 64.5195 166.657 65.0422 166.1 65.4134C165.543 65.7809 164.901 65.9646 164.174 65.9646C163.613 65.9646 163.164 65.8718 162.827 65.6862C162.49 65.4968 162.231 65.2828 162.049 65.0441C161.867 64.8017 161.727 64.6009 161.628 64.4419H161.469V65.7828H160.174ZM161.492 61.4191C161.492 62.0782 161.589 62.6597 161.782 63.1634C161.975 63.6634 162.257 64.0555 162.628 64.3396C163 64.6199 163.454 64.76 163.992 64.76C164.553 64.76 165.02 64.6123 165.395 64.3169C165.774 64.0176 166.058 63.6161 166.248 63.1123C166.441 62.6047 166.537 62.0403 166.537 61.4191C166.537 60.8055 166.443 60.2525 166.253 59.76C166.068 59.2638 165.786 58.8718 165.407 58.5839C165.032 58.2922 164.56 58.1464 163.992 58.1464C163.447 58.1464 162.988 58.2847 162.617 58.5612C162.246 58.8339 161.965 59.2165 161.776 59.7089C161.587 60.1975 161.492 60.7676 161.492 61.4191Z" fill="#FCFCFD"/>
<path d="M171.481 69.0555C171.253 69.0555 171.051 69.0365 170.873 68.9987C170.695 68.9646 170.572 68.9305 170.503 68.8964L170.844 67.7146C171.17 67.7979 171.458 67.8282 171.708 67.8055C171.958 67.7828 172.18 67.671 172.373 67.4703C172.57 67.2733 172.75 66.9532 172.912 66.51L173.162 65.8282L169.935 57.0555H171.39L173.799 64.01H173.89L176.299 57.0555H177.753L174.049 67.0555C173.882 67.5062 173.676 67.8794 173.43 68.1748C173.183 68.474 172.897 68.6956 172.572 68.8396C172.25 68.9835 171.886 69.0555 171.481 69.0555Z" fill="#FCFCFD"/>
<path d="M195.569 57.7828H194.16C194.076 57.3775 193.93 57.0214 193.722 56.7146C193.518 56.4078 193.268 56.1502 192.972 55.9419C192.68 55.7297 192.357 55.5706 192.001 55.4646C191.644 55.3585 191.273 55.3055 190.887 55.3055C190.182 55.3055 189.544 55.4835 188.972 55.8396C188.404 56.1956 187.951 56.7203 187.614 57.4134C187.281 58.1066 187.114 58.957 187.114 59.9646C187.114 60.9722 187.281 61.8225 187.614 62.5157C187.951 63.2089 188.404 63.7335 188.972 64.0896C189.544 64.4456 190.182 64.6237 190.887 64.6237C191.273 64.6237 191.644 64.5706 192.001 64.4646C192.357 64.3585 192.68 64.2013 192.972 63.993C193.268 63.7809 193.518 63.5214 193.722 63.2146C193.93 62.904 194.076 62.5479 194.16 62.1464H195.569C195.463 62.7411 195.269 63.2733 194.989 63.743C194.709 64.2127 194.36 64.6123 193.944 64.9418C193.527 65.2676 193.059 65.5157 192.54 65.6862C192.025 65.8566 191.474 65.9418 190.887 65.9418C189.894 65.9418 189.012 65.6994 188.239 65.2146C187.466 64.7297 186.858 64.0403 186.415 63.1464C185.972 62.2525 185.751 61.1919 185.751 59.9646C185.751 58.7373 185.972 57.6767 186.415 56.7828C186.858 55.8888 187.466 55.1994 188.239 54.7146C189.012 54.2297 189.894 53.9873 190.887 53.9873C191.474 53.9873 192.025 54.0725 192.54 54.243C193.059 54.4134 193.527 54.6634 193.944 54.993C194.36 55.3187 194.709 55.7165 194.989 56.1862C195.269 56.6521 195.463 57.1843 195.569 57.7828Z" fill="#FCFCFD"/>
<path d="M202.323 65.9646C201.482 65.9646 200.757 65.779 200.147 65.4078C199.541 65.0328 199.073 64.51 198.743 63.8396C198.418 63.1653 198.255 62.3812 198.255 61.4873C198.255 60.5934 198.418 59.8055 198.743 59.1237C199.073 58.4381 199.531 57.904 200.118 57.5214C200.709 57.135 201.399 56.9419 202.187 56.9419C202.641 56.9419 203.09 57.0176 203.533 57.1691C203.976 57.3206 204.38 57.5669 204.743 57.9078C205.107 58.2449 205.397 58.6919 205.613 59.2487C205.829 59.8055 205.937 60.4911 205.937 61.3055V61.8737H199.209V60.7146H204.573C204.573 60.2222 204.474 59.7828 204.278 59.3964C204.084 59.01 203.808 58.7051 203.448 58.4816C203.092 58.2581 202.671 58.1464 202.187 58.1464C201.653 58.1464 201.19 58.279 200.8 58.5441C200.414 58.8055 200.117 59.1464 199.908 59.5668C199.7 59.9873 199.596 60.4381 199.596 60.9191V61.6919C199.596 62.3509 199.709 62.9097 199.937 63.368C200.168 63.8225 200.488 64.1691 200.897 64.4078C201.306 64.6426 201.781 64.76 202.323 64.76C202.675 64.76 202.993 64.7108 203.278 64.6123C203.565 64.51 203.814 64.3585 204.022 64.1578C204.23 63.9532 204.391 63.6994 204.505 63.3964L205.8 63.76C205.664 64.1994 205.435 64.5858 205.113 64.9191C204.791 65.2487 204.393 65.5062 203.92 65.6918C203.446 65.8737 202.914 65.9646 202.323 65.9646Z" fill="#FCFCFD"/>
<path d="M210.317 54.1464V65.7828H208.976V54.1464H210.317Z" fill="#FCFCFD"/>
<path d="M216.341 65.9873C215.788 65.9873 215.287 65.8831 214.836 65.6748C214.385 65.4627 214.027 65.1578 213.762 64.76C213.497 64.3585 213.364 63.8737 213.364 63.3055C213.364 62.8055 213.463 62.4002 213.66 62.0896C213.857 61.7752 214.12 61.529 214.449 61.3509C214.779 61.1729 215.143 61.0403 215.54 60.9532C215.942 60.8623 216.345 60.7903 216.751 60.7373C217.281 60.6691 217.711 60.618 218.04 60.5839C218.374 60.546 218.616 60.4835 218.768 60.3964C218.923 60.3093 219.001 60.1578 219.001 59.9418V59.8964C219.001 59.3358 218.847 58.9002 218.54 58.5896C218.237 58.279 217.777 58.1237 217.16 58.1237C216.519 58.1237 216.018 58.2638 215.654 58.5441C215.29 58.8244 215.035 59.1237 214.887 59.4418L213.614 58.9873C213.841 58.457 214.144 58.0441 214.523 57.7487C214.906 57.4494 215.323 57.2411 215.773 57.1237C216.228 57.0025 216.675 56.9419 217.114 56.9419C217.394 56.9419 217.716 56.9759 218.08 57.0441C218.448 57.1085 218.802 57.243 219.143 57.4475C219.487 57.6521 219.773 57.9608 220.001 58.3737C220.228 58.7865 220.341 59.3396 220.341 60.0328V65.7828H219.001V64.6009H218.932C218.841 64.7903 218.69 64.993 218.478 65.2089C218.266 65.4248 217.983 65.6085 217.631 65.76C217.279 65.9115 216.849 65.9873 216.341 65.9873ZM216.546 64.7828C217.076 64.7828 217.523 64.6786 217.887 64.4703C218.254 64.2619 218.531 63.993 218.716 63.6634C218.906 63.3339 219.001 62.9873 219.001 62.6237V61.3964C218.944 61.4646 218.819 61.5271 218.626 61.5839C218.436 61.6369 218.216 61.6843 217.966 61.7259C217.72 61.7638 217.48 61.7979 217.245 61.8282C217.014 61.8547 216.826 61.8775 216.682 61.8964C216.334 61.9419 216.008 62.0157 215.705 62.118C215.406 62.2165 215.163 62.3661 214.978 62.5669C214.796 62.7638 214.705 63.0328 214.705 63.3737C214.705 63.8396 214.877 64.1919 215.222 64.4305C215.571 64.6653 216.012 64.7828 216.546 64.7828Z" fill="#FCFCFD"/>
<path d="M227.584 57.0555V58.1918H223.062V57.0555H227.584ZM224.38 54.9646H225.721V63.2828C225.721 63.6615 225.776 63.9456 225.885 64.135C225.999 64.3206 226.143 64.4456 226.317 64.51C226.495 64.5706 226.683 64.6009 226.88 64.6009C227.028 64.6009 227.149 64.5934 227.243 64.5782C227.338 64.5593 227.414 64.5441 227.471 64.5328L227.743 65.7373C227.653 65.7714 227.526 65.8055 227.363 65.8396C227.2 65.8775 226.993 65.8964 226.743 65.8964C226.365 65.8964 225.993 65.815 225.63 65.6521C225.27 65.4892 224.971 65.2411 224.732 64.9078C224.497 64.5744 224.38 64.154 224.38 63.6464V54.9646Z" fill="#FCFCFD"/>
<path d="M234.053 65.9646C233.265 65.9646 232.574 65.7771 231.979 65.4021C231.388 65.0271 230.926 64.5025 230.593 63.8282C230.263 63.154 230.099 62.3661 230.099 61.4646C230.099 60.5555 230.263 59.7619 230.593 59.0839C230.926 58.4059 231.388 57.8794 231.979 57.5044C232.574 57.1294 233.265 56.9419 234.053 56.9419C234.841 56.9419 235.53 57.1294 236.121 57.5044C236.716 57.8794 237.178 58.4059 237.508 59.0839C237.841 59.7619 238.008 60.5555 238.008 61.4646C238.008 62.3661 237.841 63.154 237.508 63.8282C237.178 64.5025 236.716 65.0271 236.121 65.4021C235.53 65.7771 234.841 65.9646 234.053 65.9646ZM234.053 64.76C234.652 64.76 235.144 64.6066 235.53 64.2998C235.917 63.993 236.203 63.5896 236.388 63.0896C236.574 62.5896 236.667 62.0479 236.667 61.4646C236.667 60.8812 236.574 60.3377 236.388 59.8339C236.203 59.3301 235.917 58.9229 235.53 58.6123C235.144 58.3017 234.652 58.1464 234.053 58.1464C233.455 58.1464 232.962 58.3017 232.576 58.6123C232.189 58.9229 231.903 59.3301 231.718 59.8339C231.532 60.3377 231.439 60.8812 231.439 61.4646C231.439 62.0479 231.532 62.5896 231.718 63.0896C231.903 63.5896 232.189 63.993 232.576 64.2998C232.962 64.6066 233.455 64.76 234.053 64.76Z" fill="#FCFCFD"/>
<path d="M242.395 60.5328V65.7828H241.055V57.0555H242.35V58.4191H242.464C242.668 57.9759 242.979 57.6199 243.395 57.3509C243.812 57.0782 244.35 56.9419 245.009 56.9419C245.6 56.9419 246.117 57.0631 246.56 57.3055C247.003 57.5441 247.348 57.9078 247.594 58.3964C247.84 58.8812 247.964 59.4949 247.964 60.2373V65.7828H246.623V60.3282C246.623 59.6426 246.445 59.1085 246.089 58.7259C245.733 58.3396 245.244 58.1464 244.623 58.1464C244.195 58.1464 243.812 58.2392 243.475 58.4248C243.142 58.6104 242.878 58.8812 242.685 59.2373C242.492 59.5934 242.395 60.0252 242.395 60.5328Z" fill="#FCFCFD"/>
<path d="M255.073 65.9646C254.232 65.9646 253.507 65.779 252.897 65.4078C252.291 65.0328 251.823 64.51 251.493 63.8396C251.168 63.1653 251.005 62.3812 251.005 61.4873C251.005 60.5934 251.168 59.8055 251.493 59.1237C251.823 58.4381 252.281 57.904 252.868 57.5214C253.459 57.135 254.149 56.9419 254.937 56.9419C255.391 56.9419 255.84 57.0176 256.283 57.1691C256.726 57.3206 257.13 57.5669 257.493 57.9078C257.857 58.2449 258.147 58.6919 258.363 59.2487C258.579 59.8055 258.687 60.4911 258.687 61.3055V61.8737H251.959V60.7146H257.323C257.323 60.2222 257.224 59.7828 257.028 59.3964C256.834 59.01 256.558 58.7051 256.198 58.4816C255.842 58.2581 255.421 58.1464 254.937 58.1464C254.403 58.1464 253.94 58.279 253.55 58.5441C253.164 58.8055 252.867 59.1464 252.658 59.5668C252.45 59.9873 252.346 60.4381 252.346 60.9191V61.6919C252.346 62.3509 252.459 62.9097 252.687 63.368C252.918 63.8225 253.238 64.1691 253.647 64.4078C254.056 64.6426 254.531 64.76 255.073 64.76C255.425 64.76 255.743 64.7108 256.028 64.6123C256.315 64.51 256.564 64.3585 256.772 64.1578C256.98 63.9532 257.141 63.6994 257.255 63.3964L258.55 63.76C258.414 64.1994 258.185 64.5858 257.863 64.9191C257.541 65.2487 257.143 65.5062 256.67 65.6918C256.196 65.8737 255.664 65.9646 255.073 65.9646Z" fill="#FCFCFD"/>
</g>
<path d="M80 29.9967C80 21.8579 85.9615 16 94.1519 16C102.343 16 108.305 21.8579 108.305 29.9967C108.305 38.1356 102.343 43.9935 94.1519 43.9935C86.0132 44.0454 80 38.1875 80 29.9967ZM102.395 29.9967C102.395 24.9165 99.1281 21.0804 94.1519 21.0804C89.1755 21.0804 85.9615 24.9165 85.9615 29.9967C85.9615 35.0252 89.1755 38.9133 94.1519 38.9133C99.1281 38.9133 102.395 35.0771 102.395 29.9967Z" fill="white"/>
<path d="M110.525 39.7427L113.635 35.3362C115.553 37.3062 118.508 38.965 122.24 38.965C125.402 38.965 126.958 37.5136 126.958 35.9584C126.958 31.189 111.355 34.4551 111.355 24.2426C111.355 19.7326 115.242 16 121.618 16C125.921 16 129.498 17.2961 132.194 19.7843L128.979 23.9834C126.802 21.9616 123.847 21.0285 121.1 21.0285C118.611 21.0285 117.264 22.1172 117.264 23.7242C117.264 28.0269 132.815 25.1238 132.815 35.2326C132.815 40.2092 129.291 43.9417 121.981 43.9417C116.797 44.0453 113.065 42.2828 110.525 39.7427Z" fill="white"/>
<path d="M160.306 43.5261V24.5528L152.686 43.5261H150.146L142.525 24.5528V43.5261H136.771V16.4658H144.859L151.441 32.8472L158.025 16.4658H166.164V43.5261H160.306Z" fill="white"/>
<path d="M170.146 29.9967C170.146 21.8579 176.108 16 184.299 16C192.489 16 198.451 21.8579 198.451 29.9967C198.451 38.1356 192.489 43.9935 184.299 43.9935C176.108 44.0454 170.146 38.1875 170.146 29.9967ZM192.541 29.9967C192.541 24.9165 189.276 21.0804 184.299 21.0804C179.323 21.0804 176.108 24.9165 176.108 29.9967C176.108 35.0252 179.323 38.9133 184.299 38.9133C189.276 38.9133 192.541 35.0771 192.541 29.9967Z" fill="white"/>
<path d="M200.686 39.7427L203.797 35.3362C205.714 37.3062 208.669 38.965 212.402 38.965C215.563 38.965 217.118 37.5136 217.118 35.9584C217.118 31.189 201.515 34.4551 201.515 24.2426C201.515 19.7326 205.404 16 211.779 16C216.082 16 219.659 17.2961 222.354 19.7843L219.192 24.0352C217.015 22.0134 214.06 21.0804 211.314 21.0804C208.824 21.0804 207.476 22.169 207.476 23.776C207.476 28.0787 223.028 25.1757 223.028 35.2845C223.028 40.2611 219.504 43.9935 212.195 43.9935C206.959 44.0454 203.227 42.2828 200.686 39.7427Z" fill="white"/>
<path d="M226.865 43.5261V16.4658H232.672V43.5261H226.865Z" fill="white"/>
<path d="M236.193 39.7427L239.303 35.3362C241.222 37.3062 244.177 38.965 247.909 38.965C251.071 38.965 252.626 37.5136 252.626 35.9584C252.626 31.189 237.023 34.4551 237.023 24.2426C237.023 19.7326 240.91 16 247.287 16C251.59 16 255.166 17.2961 257.862 19.7843L254.648 23.9834C252.471 21.9616 249.516 21.0285 246.768 21.0285C244.28 21.0285 242.932 22.1172 242.932 23.7242C242.932 28.0269 258.484 25.1238 258.484 35.2326C258.484 40.2092 254.959 43.9417 247.649 43.9417C242.414 44.0453 238.681 42.2828 236.193 39.7427Z" fill="white"/>
<defs>
<radialGradient id="paint0_radial_217_41387" cx="0" cy="0" r="1" gradientUnits="userSpaceOnUse" gradientTransform="translate(63.7518 10.4477) scale(23.169 23.1695)">
<stop stop-color="#FFEAFF" stop-opacity="0.6"/>
<stop offset="0.6807" stop-color="#A087C9"/>
<stop offset="1" stop-color="#10002F"/>
</radialGradient>
<radialGradient id="paint1_radial_217_41387" cx="0" cy="0" r="1" gradientUnits="userSpaceOnUse" gradientTransform="translate(50.8609 20.3286) scale(56.6864 56.6875)">
<stop stop-color="#FFEAFF" stop-opacity="0.6"/>
<stop offset="0.6807" stop-color="#A087C9"/>
<stop offset="1" stop-color="#10002F"/>
</radialGradient>
<linearGradient id="paint2_linear_217_41387" x1="27.0329" y1="68.8711" x2="36.3018" y2="11.6883" gradientUnits="userSpaceOnUse">
<stop stop-color="#81FFFF"/>
<stop offset="0.6202" stop-color="white" stop-opacity="0"/>
</linearGradient>
<linearGradient id="paint3_linear_217_41387" x1="52.0951" y1="20.6271" x2="28.1325" y2="42.6129" gradientUnits="userSpaceOnUse">
<stop offset="0.2888" stop-color="white"/>
<stop offset="0.7796" stop-color="white" stop-opacity="0"/>
</linearGradient>
<linearGradient id="paint4_linear_217_41387" x1="4.11508" y1="53.7965" x2="59.1831" y2="53.7965" gradientUnits="userSpaceOnUse">
<stop stop-color="#0002E9"/>
<stop offset="0.9952" stop-color="#FF00C7"/>
</linearGradient>
<linearGradient id="paint5_linear_217_41387" x1="61.8121" y1="42.4647" x2="31.8383" y2="70.7911" gradientUnits="userSpaceOnUse">
<stop offset="0.2888" stop-color="white"/>
<stop offset="0.7796" stop-color="white" stop-opacity="0"/>
</linearGradient>
<linearGradient id="paint6_linear_217_41387" x1="4.12484" y1="53.7926" x2="33.586" y2="53.7926" gradientUnits="userSpaceOnUse">
<stop stop-color="#000292"/>
<stop offset="0.9952" stop-color="#7D00C7"/>
</linearGradient>
<linearGradient id="paint7_linear_217_41387" x1="4.15205" y1="42.595" x2="59.1462" y2="42.595" gradientUnits="userSpaceOnUse">
<stop stop-color="#000292"/>
<stop offset="0.9952" stop-color="#BE00C7"/>
</linearGradient>
<linearGradient id="paint8_linear_217_41387" x1="58.2526" y1="13.0967" x2="54.3" y2="19.5196" gradientUnits="userSpaceOnUse">
<stop offset="0.2888" stop-color="white"/>
<stop offset="0.7796" stop-color="white" stop-opacity="0"/>
</linearGradient>
<linearGradient id="paint9_linear_217_41387" x1="28.2916" y1="60.5147" x2="30.4848" y2="60.5147" gradientUnits="userSpaceOnUse">
<stop offset="0.2888" stop-color="white"/>
<stop offset="0.7796" stop-color="white" stop-opacity="0"/>
</linearGradient>
<linearGradient id="paint10_linear_217_41387" x1="35.8565" y1="59.7803" x2="38.0498" y2="59.7803" gradientUnits="userSpaceOnUse">
<stop offset="0.2888" stop-color="white"/>
<stop offset="0.7796" stop-color="white" stop-opacity="0"/>
</linearGradient>
<linearGradient id="paint11_linear_217_41387" x1="32.5048" y1="63.4937" x2="34.1515" y2="63.4937" gradientUnits="userSpaceOnUse">
<stop offset="0.2888" stop-color="white"/>
<stop offset="0.7796" stop-color="white" stop-opacity="0"/>
</linearGradient>
<linearGradient id="paint12_linear_217_41387" x1="39.1602" y1="62.7056" x2="40.8068" y2="62.7056" gradientUnits="userSpaceOnUse">
<stop offset="0.2888" stop-color="white"/>
<stop offset="0.7796" stop-color="white" stop-opacity="0"/>
</linearGradient>
<linearGradient id="paint13_linear_217_41387" x1="21.2047" y1="59.0812" x2="24.7865" y2="59.0812" gradientUnits="userSpaceOnUse">
<stop offset="0.2888" stop-color="white"/>
<stop offset="0.7796" stop-color="white" stop-opacity="0"/>
</linearGradient>
<linearGradient id="paint14_linear_217_41387" x1="42.4765" y1="53.2229" x2="46.0583" y2="53.2229" gradientUnits="userSpaceOnUse">
<stop offset="0.2888" stop-color="white"/>
<stop offset="0.7796" stop-color="white" stop-opacity="0"/>
</linearGradient>
</defs>
</svg>
