<svg width="257" height="65" viewBox="0 0 257 65" fill="none" xmlns="http://www.w3.org/2000/svg">
<path d="M58.1708 11.8052C57.523 9.30751 55.4404 6.80983 51.6918 4.02935C48.6836 1.81441 45.4904 0.541992 42.945 0.541992C42.436 0.541992 41.9732 0.589107 41.5104 0.683368C40.3535 0.919005 39.3353 1.76727 38.6874 3.03969C37.9006 4.54774 37.7156 6.57419 38.2247 7.79949C38.4097 8.1765 38.6412 8.64771 38.9188 9.07186C36.4661 10.5799 35.0776 11.0041 34.8926 11.0512C41.2791 13.219 46.6012 17.7432 49.9333 23.634L49.9795 23.0684C50.1183 21.5133 50.581 19.7224 51.229 17.8845C51.8769 18.073 52.5248 18.1673 53.1727 18.1673C54.8851 18.1673 56.366 17.4604 57.2916 16.188C58.2172 14.9155 58.5874 13.219 58.1708 11.8052Z" fill="#5E12A0"/>
<path d="M51.5084 16.5187C55.7198 17.6969 57.432 14.3981 56.8767 12.1831C56.2751 9.96819 54.3313 7.70607 50.9067 5.16123C47.4821 2.6164 44.0112 1.57961 41.7898 2.05089C39.5683 2.52214 38.9204 5.96239 39.4759 7.28193C39.7072 7.80032 40.2163 8.55428 40.9104 9.40257C40.0312 10.0152 39.1982 10.4865 38.5039 10.9106C42.7616 12.8429 46.4639 15.859 49.2407 19.6292C49.5646 18.3567 50.0274 17.2256 50.4439 16.236C50.7678 16.2832 51.1381 16.3773 51.5084 16.5187Z" fill="url(#paint0_radial_302_22316)"/>
<path d="M27.3972 62.7011C41.6849 62.7011 53.2673 50.9066 53.2673 36.3574C53.2673 21.8082 41.6849 10.0137 27.3972 10.0137C13.1097 10.0137 1.52734 21.8082 1.52734 36.3574C1.52734 50.9066 13.1097 62.7011 27.3972 62.7011Z" fill="url(#paint1_radial_302_22316)"/>
<path opacity="0.6" d="M54.7475 10.0139C51.2303 6.24374 48.2685 5.25408 44.705 4.45294C41.9282 3.79316 42.6688 2.19087 46.0471 2.52075C44.4273 1.95523 42.9001 1.81386 41.7894 2.04948C39.568 2.52075 38.9202 5.96099 39.4755 7.28054C39.7068 7.79893 40.2159 8.55298 40.91 9.40127C39.6606 10.2496 38.5962 10.8622 37.7168 11.3335C38.1334 11.522 38.6424 11.7575 39.2441 12.0875C40.8176 12.9357 42.5299 14.3495 42.5299 14.3495C39.9382 12.0875 40.4936 11.0507 44.0571 8.50582C45.1677 7.70468 47.2041 7.79892 49.1015 8.78863C50.9989 9.77825 53.2203 12.2759 53.2203 12.2759L51.0915 16.4231C51.2303 16.4702 51.3692 16.5174 51.508 16.5645C52.8501 16.9415 53.9145 16.8472 54.7475 16.5174C55.7194 15.9047 58.2648 13.8312 54.7475 10.0139Z" fill="#A98698"/>
<path d="M44.6588 6.71565C45.5844 7.09267 46.7876 7.75245 48.2685 8.74217C50.0272 9.92028 51.5544 11.2399 52.5262 12.2766C50.9064 14.4444 49.842 17.4134 49.1941 19.4869C49.5181 19.9582 49.8884 20.4295 50.2123 20.9008C50.5362 19.7226 51.0917 17.9788 51.832 16.2353C52.0172 16.2824 52.2485 16.2824 52.48 16.2824C53.0353 16.2824 53.6832 16.1881 54.1923 15.764C54.5626 15.4811 54.9791 14.9628 54.9327 14.0202C54.9327 13.1249 54.2385 11.9938 52.804 10.6272C51.7858 9.63746 50.3973 8.55352 49.009 7.56394C45.029 4.87772 42.2523 4.1237 41.0028 5.39611C40.1698 6.2444 40.2623 7.28119 40.5399 8.03521C39.059 9.02483 37.8095 9.73179 36.9766 10.2031C37.5319 10.3916 38.041 10.6272 38.5963 10.8627C40.0772 10.0616 42.206 8.69501 44.6588 6.71565ZM53.4055 13.4547C53.5444 13.6904 53.5906 13.9261 53.5906 14.0674C53.5906 14.4915 53.4518 14.6329 53.3593 14.7272C53.1741 14.8685 52.8038 14.9628 52.48 14.9628C52.7576 14.3974 53.0817 13.9261 53.4055 13.4547ZM41.9746 6.4329C42.1134 6.29153 42.4837 6.19727 43.0854 6.29153C42.6225 6.66854 42.1598 6.99842 41.697 7.3283C41.6507 6.99842 41.6969 6.66854 41.9746 6.4329Z" fill="#5E12A0"/>
<path d="M27.3972 8.45898C12.2639 8.45898 0 20.9476 0 36.3579C0 51.7684 12.2639 64.2569 27.3972 64.2569C42.5303 64.2569 54.7943 51.7684 54.7943 36.3579C54.7943 20.9476 42.4841 8.45898 27.3972 8.45898ZM27.3972 62.7016C13.0969 62.7016 1.52721 50.9201 1.52721 36.3579C1.52721 21.7959 13.0969 10.0142 27.3972 10.0142C41.6974 10.0142 53.2671 21.7959 53.2671 36.3579C53.2671 50.9201 41.6511 62.7016 27.3972 62.7016Z" fill="#5E12A0"/>
<path opacity="0.6" d="M27.3972 62.7011C41.6849 62.7011 53.2673 50.9066 53.2673 36.3574C53.2673 21.8082 41.6849 10.0137 27.3972 10.0137C13.1097 10.0137 1.52734 21.8082 1.52734 36.3574C1.52734 50.9066 13.1097 62.7011 27.3972 62.7011Z" fill="url(#paint2_linear_302_22316)"/>
<path opacity="0.6" d="M27.2128 59.498C13.0976 57.1888 3.51786 43.6635 5.83177 29.2898C6.84996 22.9278 9.99683 17.5083 14.4397 13.5967C7.96061 17.414 3.14763 24.0588 1.85183 32.1646C-0.415855 46.5382 9.16385 60.0636 23.2327 62.3728C31.1002 63.6922 38.6899 61.1945 44.2897 56.2933C39.3378 59.2153 33.3216 60.4876 27.2128 59.498Z" fill="#A98698"/>
<path opacity="0.6" d="M31.5143 10.3921C24.989 9.30818 18.6488 10.8163 13.4657 14.1622C13.373 14.2566 13.2806 14.3507 13.2806 14.3507C15.2704 13.1255 18.1861 12.0415 18.1861 12.0415C10.6889 16.4714 8.375 21.514 8.375 21.514C11.2906 15.7646 19.8521 11.7117 26.5625 11.4289C33.273 11.1462 37.6695 13.1726 43.0378 17.5554C48.4061 21.9853 51.6458 31.0336 51.3217 38.1969C51.0441 45.36 47.3419 51.1567 47.3419 51.1567C49.8872 47.8107 51.4145 45.36 52.3863 42.8623C52.5715 42.1084 52.7566 41.3544 52.8492 40.5531C55.1631 26.2267 45.6294 12.7013 31.5143 10.3921Z" fill="url(#paint3_linear_302_22316)"/>
<path d="M51.9699 36.123C51.9699 49.9311 40.9554 61.1473 27.3958 61.1473C13.8361 61.1473 2.77539 49.9311 2.77539 36.123H51.9699Z" fill="url(#paint4_linear_302_22316)"/>
<g opacity="0.6">
<path opacity="0.6" d="M50.028 36.123C50.028 49.6013 39.5691 60.6289 26.4258 61.1473C26.7498 61.1473 27.0737 61.1473 27.3976 61.1473C40.9574 61.1473 51.9718 49.9311 51.9718 36.123H50.028Z" fill="url(#paint5_linear_302_22316)"/>
</g>
<g opacity="0.7">
<path opacity="0.7" d="M6.24633 36.123H2.77539C2.77539 49.9311 13.7899 61.1473 27.3494 61.1473C27.9511 61.1473 28.5065 61.1473 29.0618 61.1002C16.3352 60.1577 6.24633 49.3185 6.24633 36.123Z" fill="url(#paint6_linear_302_22316)"/>
</g>
<path d="M51.9236 36.3579C51.9236 33.4832 47.0181 31.8338 40.4927 31.2684C35.7723 30.8912 31.0056 31.3625 25.5446 33.0591C20.8241 34.4729 16.5664 34.2372 13.4658 33.8602C6.57022 33.0591 2.77539 32.9648 2.77539 36.3579C2.77539 41.2591 12.5865 47.3856 27.3032 45.2649C34.7541 44.181 38.5953 41.9661 42.9918 40.458C47.7586 38.8556 51.9236 38.9028 51.9236 36.3579Z" fill="url(#paint7_linear_302_22316)"/>
<path d="M35.4502 24.4827C37.7505 24.4827 39.6153 22.5839 39.6153 20.2414C39.6153 17.899 37.7505 16 35.4502 16C33.1499 16 31.2852 17.899 31.2852 20.2414C31.2852 22.5839 33.1499 24.4827 35.4502 24.4827Z" fill="white"/>
<path d="M42.2508 27.6402C43.2221 27.6402 44.0093 26.8385 44.0093 25.8493C44.0093 24.8603 43.2221 24.0586 42.2508 24.0586C41.2796 24.0586 40.4922 24.8603 40.4922 25.8493C40.4922 26.8385 41.2796 27.6402 42.2508 27.6402Z" fill="white"/>
<g opacity="0.6">
<path opacity="0.6" d="M48.5455 16.8475C48.4992 16.8475 48.4529 16.8475 48.4529 16.8475C48.1752 16.8003 47.9901 16.5176 48.0364 16.1877C48.4529 14.0199 50.2114 11.9462 50.304 11.8521C50.4891 11.6164 50.8594 11.6164 51.0446 11.8049C51.2758 11.9934 51.2758 12.3704 51.0908 12.559C51.0446 12.606 49.4247 14.5383 49.0546 16.4233C49.0082 16.7061 48.7769 16.8475 48.5455 16.8475Z" fill="url(#paint8_linear_302_22316)"/>
</g>
<path opacity="0.2" d="M25.6865 56.0101C26.402 56.0101 26.9822 55.4193 26.9822 54.6907C26.9822 53.9619 26.402 53.3711 25.6865 53.3711C24.9708 53.3711 24.3906 53.9619 24.3906 54.6907C24.3906 55.4193 24.9708 56.0101 25.6865 56.0101Z" fill="white"/>
<g opacity="0.4">
<path opacity="0.6" d="M24.9419 55.5397C24.4329 55.0212 24.4329 54.1729 24.9419 53.6546C25.0345 53.5603 25.1271 53.5133 25.2195 53.4189C25.0345 53.4661 24.8957 53.5603 24.7568 53.7018C24.2477 54.2201 24.2477 55.0684 24.7568 55.5868C25.1733 56.011 25.8212 56.1051 26.3303 55.8225C25.8675 56.011 25.3121 55.9166 24.9419 55.5397Z" fill="url(#paint9_linear_302_22316)"/>
</g>
<path opacity="0.3" d="M26.1488 54.3135C26.3021 54.3135 26.4266 54.187 26.4266 54.0309C26.4266 53.8747 26.3021 53.748 26.1488 53.748C25.9954 53.748 25.8711 53.8747 25.8711 54.0309C25.8711 54.187 25.9954 54.3135 26.1488 54.3135Z" fill="white"/>
<path opacity="0.2" d="M32.4461 55.35C33.1618 55.35 33.7419 54.7592 33.7419 54.0305C33.7419 53.3017 33.1618 52.7109 32.4461 52.7109C31.7305 52.7109 31.1504 53.3017 31.1504 54.0305C31.1504 54.7592 31.7305 55.35 32.4461 55.35Z" fill="white"/>
<g opacity="0.4">
<path opacity="0.6" d="M31.7036 54.8805C31.1945 54.362 31.1945 53.5137 31.7036 52.9954C31.7962 52.9011 31.8886 52.8541 31.9813 52.7598C31.7962 52.8069 31.6574 52.9011 31.5185 53.0426C31.0094 53.5609 31.0094 54.4092 31.5185 54.9276C31.935 55.3518 32.583 55.4459 33.0919 55.1633C32.6292 55.3518 32.0739 55.2575 31.7036 54.8805Z" fill="url(#paint10_linear_302_22316)"/>
</g>
<path opacity="0.3" d="M32.9046 53.6525C33.058 53.6525 33.1823 53.5259 33.1823 53.3697C33.1823 53.2136 33.058 53.0869 32.9046 53.0869C32.7513 53.0869 32.627 53.2136 32.627 53.3697C32.627 53.5259 32.7513 53.6525 32.9046 53.6525Z" fill="white"/>
<path opacity="0.2" d="M29.1087 58.413C29.6454 58.413 30.0805 57.9699 30.0805 57.4234C30.0805 56.8768 29.6454 56.4336 29.1087 56.4336C28.5718 56.4336 28.1367 56.8768 28.1367 57.4234C28.1367 57.9699 28.5718 58.413 29.1087 58.413Z" fill="white"/>
<g opacity="0.4">
<path opacity="0.6" d="M28.5532 58.0377C28.183 57.6607 28.183 57.0009 28.5532 56.6239C28.5995 56.5767 28.6921 56.5296 28.7383 56.4824C28.5995 56.5296 28.5069 56.6239 28.4144 56.7181C28.0442 57.0951 28.0442 57.7548 28.4144 58.1318C28.7383 58.4618 29.201 58.509 29.6177 58.2733C29.2474 58.4146 28.8309 58.3205 28.5532 58.0377Z" fill="url(#paint11_linear_302_22316)"/>
</g>
<path opacity="0.3" d="M29.4333 57.0938C29.5354 57.0938 29.6183 57.0093 29.6183 56.9053C29.6183 56.8011 29.5354 56.7168 29.4333 56.7168C29.331 56.7168 29.248 56.8011 29.248 56.9053C29.248 57.0093 29.331 57.0938 29.4333 57.0938Z" fill="white"/>
<path opacity="0.2" d="M35.0773 57.7068C35.614 57.7068 36.0491 57.2637 36.0491 56.7172C36.0491 56.1706 35.614 55.7275 35.0773 55.7275C34.5405 55.7275 34.1055 56.1706 34.1055 56.7172C34.1055 57.2637 34.5405 57.7068 35.0773 57.7068Z" fill="white"/>
<g opacity="0.4">
<path opacity="0.6" d="M34.5259 57.3316C34.1556 56.9545 34.1556 56.2947 34.5259 55.9177C34.5721 55.8705 34.6647 55.8235 34.711 55.7764C34.5721 55.8235 34.4795 55.9177 34.3871 56.012C34.0168 56.389 34.0168 57.0488 34.3871 57.4258C34.711 57.7557 35.1737 57.8028 35.5903 57.5671C35.2201 57.7086 34.8036 57.6143 34.5259 57.3316Z" fill="url(#paint12_linear_302_22316)"/>
</g>
<path opacity="0.3" d="M35.4038 56.3869C35.5061 56.3869 35.589 56.3024 35.589 56.1983C35.589 56.0943 35.5061 56.0098 35.4038 56.0098C35.3017 56.0098 35.2188 56.0943 35.2188 56.1983C35.2188 56.3024 35.3017 56.3869 35.4038 56.3869Z" fill="white"/>
<path opacity="0.2" d="M20.1796 55.5379C21.3554 55.5379 22.3085 54.5672 22.3085 53.37C22.3085 52.1727 21.3554 51.2021 20.1796 51.2021C19.0039 51.2021 18.0508 52.1727 18.0508 53.37C18.0508 54.5672 19.0039 55.5379 20.1796 55.5379Z" fill="white"/>
<g opacity="0.4">
<path opacity="0.6" d="M18.9786 54.7379C18.1456 53.8896 18.1456 52.5228 18.9786 51.6745C19.1174 51.5332 19.2562 51.4389 19.4414 51.3447C19.1638 51.4389 18.9323 51.6275 18.7009 51.816C17.8679 52.6643 17.8679 54.0309 18.7009 54.8792C19.3952 55.5862 20.4596 55.7275 21.2926 55.209C20.5059 55.539 19.5803 55.3977 18.9786 54.7379Z" fill="url(#paint13_linear_302_22316)"/>
</g>
<path opacity="0.3" d="M20.9158 52.711C21.1715 52.711 21.3787 52.5 21.3787 52.2399C21.3787 51.9795 21.1715 51.7686 20.9158 51.7686C20.6604 51.7686 20.4531 51.9795 20.4531 52.2399C20.4531 52.5 20.6604 52.711 20.9158 52.711Z" fill="white"/>
<path opacity="0.2" d="M39.1991 50.2145C40.3748 50.2145 41.328 49.2439 41.328 48.0466C41.328 46.8495 40.3748 45.8789 39.1991 45.8789C38.0234 45.8789 37.0703 46.8495 37.0703 48.0466C37.0703 49.2439 38.0234 50.2145 39.1991 50.2145Z" fill="white"/>
<g opacity="0.4">
<path opacity="0.6" d="M37.9473 49.4117C37.1143 48.5634 37.1143 47.1968 37.9473 46.3485C38.0862 46.207 38.225 46.1129 38.4102 46.0186C38.1325 46.1129 37.9011 46.3014 37.6697 46.4899C36.8367 47.3381 36.8367 48.7049 37.6697 49.5532C38.3638 50.26 39.4282 50.4015 40.2614 49.883C39.4746 50.2128 38.5952 50.0715 37.9473 49.4117Z" fill="url(#paint14_linear_302_22316)"/>
</g>
<path opacity="0.3" d="M39.9375 47.385C40.1931 47.385 40.4002 47.174 40.4002 46.9137C40.4002 46.6534 40.1931 46.4424 39.9375 46.4424C39.6818 46.4424 39.4746 46.6534 39.4746 46.9137C39.4746 47.174 39.6818 47.385 39.9375 47.385Z" fill="white"/>
<path d="M68.7109 26.3137C68.7109 17.7185 74.9998 11.5322 83.6404 11.5322C92.281 11.5322 98.5701 17.7185 98.5701 26.3137C98.5701 34.9088 92.281 41.0951 83.6404 41.0951C75.0547 41.0951 68.7109 34.9088 68.7109 26.3137ZM92.3357 26.3137C92.3357 20.9486 88.8904 16.8974 83.6404 16.8974C78.3905 16.8974 74.9998 20.9486 74.9998 26.3137C74.9998 31.624 78.3905 35.7301 83.6404 35.7301C88.8904 35.6753 92.3357 31.624 92.3357 26.3137Z" fill="white"/>
<path d="M100.92 36.5482L104.201 31.8948C106.225 33.9753 109.342 35.7271 113.279 35.7271C116.615 35.7271 118.256 34.1942 118.256 32.5518C118.256 27.5152 101.795 30.9643 101.795 20.1792C101.795 15.4164 105.896 11.4746 112.623 11.4746C117.162 11.4746 120.935 12.8432 123.779 15.471L120.388 19.9055C118.092 17.7704 114.975 16.785 112.076 16.785C109.451 16.785 108.029 17.9347 108.029 19.6317C108.029 24.1756 124.435 21.11 124.435 31.7854C124.435 37.0409 120.717 40.9827 113.006 40.9827C107.537 41.0922 103.6 39.2308 100.92 36.5482Z" fill="white"/>
<path d="M153.422 40.5981V20.561L145.382 40.5981H142.703L134.664 20.561V40.5981H128.594V11.9658H137.125L144.07 29.2656L151.015 11.9658H159.601V40.5433H153.422V40.5981Z" fill="white"/>
<path d="M163.812 26.3107C163.812 17.7156 170.101 11.5293 178.742 11.5293C187.382 11.5293 193.671 17.7156 193.671 26.3107C193.671 34.9059 187.382 41.0922 178.742 41.0922C170.101 41.0922 163.812 34.9059 163.812 26.3107ZM187.437 26.3107C187.437 20.9455 183.992 16.8943 178.742 16.8943C173.492 16.8943 170.101 20.9455 170.101 26.3107C170.101 31.6211 173.492 35.727 178.742 35.727C183.992 35.6723 187.437 31.6211 187.437 26.3107Z" fill="white"/>
<path d="M196.021 36.5482L199.302 31.8948C201.326 33.9753 204.443 35.7271 208.38 35.7271C211.716 35.7271 213.357 34.1942 213.357 32.5518C213.357 27.5152 196.896 30.9643 196.896 20.1792C196.896 15.4164 200.998 11.4746 207.724 11.4746C212.263 11.4746 216.037 12.8432 218.881 15.471L215.491 19.9055C213.193 17.7704 210.076 16.785 207.178 16.785C204.553 16.785 203.13 17.9347 203.13 19.6317C203.13 24.1756 219.537 21.11 219.537 31.7854C219.537 37.0409 215.818 40.9827 208.107 40.9827C202.638 41.0922 198.701 39.2308 196.021 36.5482Z" fill="white"/>
<path d="M223.641 40.5981V11.9658H229.767V40.5433H223.641V40.5981Z" fill="white"/>
<path d="M233.482 36.5482L236.763 31.8948C238.787 33.9753 241.904 35.7271 245.841 35.7271C249.177 35.7271 250.818 34.1942 250.818 32.5518C250.818 27.5152 234.357 30.9643 234.357 20.1792C234.357 15.4164 238.458 11.4746 245.185 11.4746C249.724 11.4746 253.498 12.8432 256.342 15.471L252.95 19.9055C250.654 17.7704 247.537 16.785 244.639 16.785C242.014 16.785 240.591 17.9347 240.591 19.6317C240.591 24.1756 256.998 21.11 256.998 31.7854C256.998 37.0409 253.279 40.9827 245.568 40.9827C240.044 41.0922 236.108 39.2308 233.482 36.5482Z" fill="white"/>
<g opacity="0.5">
<path d="M68.7109 59.8698V47.5108H72.8869C73.8565 47.5108 74.649 47.6858 75.2646 48.0358C75.8841 48.3818 76.3428 48.8505 76.6405 49.4419C76.9382 50.0333 77.0871 50.693 77.0871 51.4212C77.0871 52.1494 76.9382 52.8112 76.6405 53.4066C76.3468 54.0021 75.8922 54.4768 75.2767 54.8308C74.6611 55.1808 73.8726 55.3558 72.9111 55.3558H69.9179V54.0282H72.8628C73.5266 54.0282 74.0597 53.9135 74.462 53.6842C74.8643 53.4549 75.156 53.1451 75.337 52.7549C75.5221 52.3606 75.6146 51.9161 75.6146 51.4212C75.6146 50.9264 75.5221 50.4838 75.337 50.0936C75.156 49.7034 74.8623 49.3976 74.4559 49.1763C74.0496 48.951 73.5105 48.8384 72.8386 48.8384H70.2075V59.8698H68.7109Z" fill="#FCFCFD"/>
<path d="M84.033 60.0629C83.1961 60.0629 82.4619 59.8637 81.8303 59.4654C81.2027 59.0672 80.7119 58.5099 80.3578 57.7938C80.0078 57.0777 79.8328 56.2409 79.8328 55.2834C79.8328 54.3179 80.0078 53.475 80.3578 52.7549C80.7119 52.0348 81.2027 51.4755 81.8303 51.0773C82.4619 50.679 83.1961 50.4798 84.033 50.4798C84.8698 50.4798 85.602 50.679 86.2296 51.0773C86.8612 51.4755 87.352 52.0348 87.702 52.7549C88.0561 53.475 88.2331 54.3179 88.2331 55.2834C88.2331 56.2409 88.0561 57.0777 87.702 57.7938C87.352 58.5099 86.8612 59.0672 86.2296 59.4654C85.602 59.8637 84.8698 60.0629 84.033 60.0629ZM84.033 58.7835C84.6686 58.7835 85.1916 58.6206 85.602 58.2947C86.0123 57.9688 86.3161 57.5404 86.5132 57.0093C86.7103 56.4783 86.8089 55.903 86.8089 55.2834C86.8089 54.6639 86.7103 54.0865 86.5132 53.5515C86.3161 53.0164 86.0123 52.5839 85.602 52.254C85.1916 51.9241 84.6686 51.7592 84.033 51.7592C83.3973 51.7592 82.8743 51.9241 82.4639 52.254C82.0536 52.5839 81.7498 53.0164 81.5527 53.5515C81.3556 54.0865 81.257 54.6639 81.257 55.2834C81.257 55.903 81.3556 56.4783 81.5527 57.0093C81.7498 57.5404 82.0536 57.9688 82.4639 58.2947C82.8743 58.6206 83.3973 58.7835 84.033 58.7835Z" fill="#FCFCFD"/>
<path d="M93.2539 59.8698L90.4297 50.6005H91.9263L93.9298 57.6973H94.0264L96.0057 50.6005H97.5265L99.4817 57.6731H99.5782L101.582 50.6005H103.078L100.254 59.8698H98.8541L96.8264 52.7489H96.6816L94.654 59.8698H93.2539Z" fill="#FCFCFD"/>
<path d="M109.594 60.0629C108.701 60.0629 107.931 59.8657 107.283 59.4715C106.639 59.0732 106.142 58.518 105.792 57.8059C105.446 57.0898 105.273 56.257 105.273 55.3076C105.273 54.3581 105.446 53.5213 105.792 52.7971C106.142 52.069 106.629 51.5017 107.253 51.0954C107.88 50.685 108.613 50.4798 109.449 50.4798C109.932 50.4798 110.409 50.5603 110.88 50.7212C111.35 50.8821 111.779 51.1436 112.165 51.5057C112.551 51.8638 112.859 52.3385 113.088 52.9299C113.318 53.5213 113.432 54.2495 113.432 55.1144V55.7179H106.287V54.4868H111.984C111.984 53.9638 111.879 53.4972 111.67 53.0868C111.465 52.6764 111.171 52.3526 110.789 52.1152C110.411 51.8779 109.964 51.7592 109.449 51.7592C108.882 51.7592 108.391 51.9 107.977 52.1816C107.567 52.4592 107.251 52.8213 107.03 53.2678C106.808 53.7144 106.698 54.1932 106.698 54.7041V55.5248C106.698 56.2248 106.818 56.8182 107.06 57.305C107.305 57.7878 107.645 58.1559 108.08 58.4094C108.514 58.6588 109.019 58.7835 109.594 58.7835C109.968 58.7835 110.306 58.7312 110.608 58.6266C110.914 58.518 111.177 58.3571 111.399 58.1438C111.62 57.9266 111.791 57.6571 111.912 57.3352L113.287 57.7214C113.143 58.1881 112.899 58.5985 112.557 58.9525C112.215 59.3025 111.793 59.5761 111.29 59.7732C110.787 59.9663 110.222 60.0629 109.594 60.0629Z" fill="#FCFCFD"/>
<path d="M116.661 59.8698V50.6005H118.037V52.0006H118.133C118.302 51.5419 118.608 51.1698 119.051 50.8841C119.493 50.5985 119.992 50.4557 120.547 50.4557C120.652 50.4557 120.783 50.4577 120.939 50.4617C121.096 50.4657 121.215 50.4718 121.295 50.4798V51.9281C121.247 51.9161 121.137 51.898 120.964 51.8738C120.795 51.8457 120.616 51.8316 120.427 51.8316C119.976 51.8316 119.574 51.9261 119.22 52.1152C118.87 52.3003 118.592 52.5578 118.387 52.8877C118.186 53.2135 118.085 53.5857 118.085 54.0041V59.8698H116.661Z" fill="#FCFCFD"/>
<path d="M127.65 60.0629C126.757 60.0629 125.986 59.8657 125.339 59.4715C124.695 59.0732 124.198 58.518 123.848 57.8059C123.502 57.0898 123.329 56.257 123.329 55.3076C123.329 54.3581 123.502 53.5213 123.848 52.7971C124.198 52.069 124.685 51.5017 125.309 51.0954C125.936 50.685 126.668 50.4798 127.505 50.4798C127.988 50.4798 128.465 50.5603 128.935 50.7212C129.406 50.8821 129.835 51.1436 130.221 51.5057C130.607 51.8638 130.915 52.3385 131.144 52.9299C131.373 53.5213 131.488 54.2495 131.488 55.1144V55.7179H124.343V54.4868H130.04C130.04 53.9638 129.935 53.4972 129.726 53.0868C129.521 52.6764 129.227 52.3526 128.845 52.1152C128.467 51.8779 128.02 51.7592 127.505 51.7592C126.938 51.7592 126.447 51.9 126.033 52.1816C125.622 52.4592 125.307 52.8213 125.085 53.2678C124.864 53.7144 124.753 54.1932 124.753 54.7041V55.5248C124.753 56.2248 124.874 56.8182 125.115 57.305C125.361 57.7878 125.701 58.1559 126.135 58.4094C126.57 58.6588 127.075 58.7835 127.65 58.7835C128.024 58.7835 128.362 58.7312 128.664 58.6266C128.97 58.518 129.233 58.3571 129.454 58.1438C129.676 57.9266 129.847 57.6571 129.967 57.3352L131.343 57.7214C131.198 58.1881 130.955 58.5985 130.613 58.9525C130.271 59.3025 129.849 59.5761 129.346 59.7732C128.843 59.9663 128.278 60.0629 127.65 60.0629Z" fill="#FCFCFD"/>
<path d="M138.217 60.0629C137.444 60.0629 136.762 59.8678 136.171 59.4775C135.58 59.0832 135.117 58.5281 134.783 57.8119C134.449 57.0918 134.282 56.2409 134.282 55.2593C134.282 54.2857 134.449 53.4408 134.783 52.7247C135.117 52.0086 135.582 51.4554 136.177 51.0652C136.772 50.6749 137.46 50.4798 138.241 50.4798C138.844 50.4798 139.321 50.5804 139.671 50.7816C140.025 50.9787 140.295 51.204 140.48 51.4574C140.669 51.7069 140.816 51.912 140.92 52.073H141.041V47.5108H142.465V59.8698H141.089V58.4456H140.92C140.816 58.6146 140.667 58.8278 140.474 59.0853C140.281 59.3387 140.005 59.566 139.647 59.7672C139.289 59.9643 138.812 60.0629 138.217 60.0629ZM138.41 58.7835C138.981 58.7835 139.464 58.6347 139.858 58.337C140.252 58.0352 140.552 57.6188 140.757 57.0878C140.962 56.5527 141.065 55.9352 141.065 55.2351C141.065 54.5432 140.964 53.9377 140.763 53.4187C140.562 52.8957 140.264 52.4894 139.87 52.1997C139.476 51.906 138.989 51.7592 138.41 51.7592C137.806 51.7592 137.303 51.9141 136.901 52.2238C136.503 52.5296 136.203 52.946 136.002 53.473C135.805 53.996 135.706 54.5834 135.706 55.2351C135.706 55.8949 135.807 56.4944 136.008 57.0335C136.213 57.5685 136.515 57.995 136.913 58.3128C137.316 58.6266 137.814 58.7835 138.41 58.7835Z" fill="#FCFCFD"/>
<path d="M152.368 59.8698V47.5108H153.792V52.073H153.913C154.017 51.912 154.162 51.7069 154.347 51.4574C154.536 51.204 154.806 50.9787 155.156 50.7816C155.51 50.5804 155.989 50.4798 156.592 50.4798C157.373 50.4798 158.061 50.6749 158.656 51.0652C159.252 51.4554 159.716 52.0086 160.05 52.7247C160.384 53.4408 160.551 54.2857 160.551 55.2593C160.551 56.2409 160.384 57.0918 160.05 57.8119C159.716 58.5281 159.254 59.0832 158.662 59.4775C158.071 59.8678 157.389 60.0629 156.616 60.0629C156.021 60.0629 155.544 59.9643 155.186 59.7672C154.828 59.566 154.553 59.3387 154.359 59.0853C154.166 58.8278 154.017 58.6146 153.913 58.4456H153.744V59.8698H152.368ZM153.768 55.2351C153.768 55.9352 153.871 56.5527 154.076 57.0878C154.281 57.6188 154.581 58.0352 154.975 58.337C155.369 58.6347 155.852 58.7835 156.423 58.7835C157.019 58.7835 157.516 58.6266 157.914 58.3128C158.316 57.995 158.618 57.5685 158.819 57.0335C159.024 56.4944 159.127 55.8949 159.127 55.2351C159.127 54.5834 159.026 53.996 158.825 53.473C158.628 52.946 158.328 52.5296 157.926 52.2238C157.528 51.9141 157.027 51.7592 156.423 51.7592C155.844 51.7592 155.357 51.906 154.963 52.1997C154.569 52.4894 154.271 52.8957 154.07 53.4187C153.869 53.9377 153.768 54.5432 153.768 55.2351Z" fill="#FCFCFD"/>
<path d="M164.377 63.3457C164.136 63.3457 163.92 63.3256 163.731 63.2854C163.542 63.2492 163.411 63.213 163.339 63.1768L163.701 61.9215C164.047 62.0101 164.353 62.0422 164.618 62.0181C164.884 61.994 165.119 61.8753 165.324 61.6621C165.534 61.4529 165.725 61.1129 165.898 60.6422L166.163 59.918L162.736 50.6005H164.28L166.839 57.9869H166.936L169.494 50.6005H171.039L167.105 61.2215C166.928 61.7003 166.708 62.0966 166.447 62.4104C166.185 62.7282 165.882 62.9635 165.536 63.1164C165.194 63.2693 164.807 63.3457 164.377 63.3457Z" fill="#FCFCFD"/>
<path d="M189.961 51.373H188.464C188.376 50.9425 188.221 50.5643 188 50.2384C187.782 49.9126 187.517 49.639 187.203 49.4177C186.893 49.1924 186.549 49.0235 186.171 48.9108C185.793 48.7982 185.399 48.7418 184.988 48.7418C184.24 48.7418 183.562 48.9309 182.955 49.3091C182.351 49.6873 181.87 50.2445 181.512 50.9807C181.158 51.7169 180.981 52.6201 180.981 53.6903C180.981 54.7604 181.158 55.6636 181.512 56.3998C181.87 57.1361 182.351 57.6933 182.955 58.0714C183.562 58.4496 184.24 58.6387 184.988 58.6387C185.399 58.6387 185.793 58.5824 186.171 58.4697C186.549 58.3571 186.893 58.1901 187.203 57.9688C187.517 57.7435 187.782 57.468 188 57.1421C188.221 56.8122 188.376 56.434 188.464 56.0076H189.961C189.848 56.6392 189.643 57.2045 189.345 57.7033C189.048 58.2022 188.678 58.6266 188.235 58.9766C187.792 59.3226 187.296 59.5861 186.744 59.7672C186.197 59.9482 185.612 60.0387 184.988 60.0387C183.934 60.0387 182.997 59.7813 182.176 59.2663C181.356 58.7513 180.71 58.0191 180.239 57.0697C179.768 56.1202 179.533 54.9938 179.533 53.6903C179.533 52.3868 179.768 51.2603 180.239 50.3109C180.71 49.3614 181.356 48.6292 182.176 48.1142C182.997 47.5993 183.934 47.3418 184.988 47.3418C185.612 47.3418 186.197 47.4323 186.744 47.6134C187.296 47.7944 187.792 48.0599 188.235 48.4099C188.678 48.7559 189.048 49.1783 189.345 49.6772C189.643 50.1721 189.848 50.7373 189.961 51.373Z" fill="#FCFCFD"/>
<path d="M197.135 60.0629C196.242 60.0629 195.471 59.8657 194.823 59.4715C194.18 59.0732 193.683 58.518 193.333 57.8059C192.987 57.0898 192.814 56.257 192.814 55.3076C192.814 54.3581 192.987 53.5213 193.333 52.7971C193.683 52.069 194.17 51.5017 194.793 51.0954C195.421 50.685 196.153 50.4798 196.99 50.4798C197.473 50.4798 197.949 50.5603 198.42 50.7212C198.891 50.8821 199.319 51.1436 199.705 51.5057C200.092 51.8638 200.399 52.3385 200.629 52.9299C200.858 53.5213 200.973 54.2495 200.973 55.1144V55.7179H193.828V54.4868H199.524C199.524 53.9638 199.42 53.4972 199.211 53.0868C199.005 52.6764 198.712 52.3526 198.33 52.1152C197.951 51.8779 197.505 51.7592 196.99 51.7592C196.423 51.7592 195.932 51.9 195.517 52.1816C195.107 52.4592 194.791 52.8213 194.57 53.2678C194.349 53.7144 194.238 54.1932 194.238 54.7041V55.5248C194.238 56.2248 194.359 56.8182 194.6 57.305C194.845 57.7878 195.185 58.1559 195.62 58.4094C196.054 58.6588 196.559 58.7835 197.135 58.7835C197.509 58.7835 197.847 58.7312 198.148 58.6266C198.454 58.518 198.718 58.3571 198.939 58.1438C199.16 57.9266 199.331 57.6571 199.452 57.3352L200.828 57.7214C200.683 58.1881 200.44 58.5985 200.098 58.9525C199.756 59.3025 199.333 59.5761 198.83 59.7732C198.327 59.9663 197.762 60.0629 197.135 60.0629Z" fill="#FCFCFD"/>
<path d="M205.625 47.5108V59.8698H204.201V47.5108H205.625Z" fill="#FCFCFD"/>
<path d="M212.024 60.087C211.436 60.087 210.903 59.9764 210.424 59.7551C209.946 59.5298 209.566 59.2059 209.284 58.7835C209.002 58.3571 208.861 57.8421 208.861 57.2386C208.861 56.7076 208.966 56.2771 209.175 55.9472C209.385 55.6133 209.664 55.3518 210.014 55.1627C210.364 54.9736 210.75 54.8328 211.173 54.7403C211.599 54.6437 212.028 54.5673 212.458 54.511C213.021 54.4386 213.478 54.3843 213.828 54.348C214.182 54.3078 214.44 54.2414 214.6 54.1489C214.765 54.0564 214.848 53.8954 214.848 53.6661V53.6178C214.848 53.0224 214.685 52.5598 214.359 52.2299C214.037 51.9 213.548 51.735 212.893 51.735C212.213 51.735 211.68 51.8839 211.293 52.1816C210.907 52.4793 210.636 52.7971 210.479 53.1351L209.127 52.6523C209.368 52.0891 209.69 51.6505 210.093 51.3367C210.499 51.0189 210.941 50.7976 211.42 50.6729C211.903 50.5442 212.378 50.4798 212.844 50.4798C213.142 50.4798 213.484 50.516 213.87 50.5884C214.261 50.6568 214.637 50.7997 214.999 51.0169C215.365 51.2342 215.669 51.562 215.91 52.0006C216.151 52.4391 216.272 53.0265 216.272 53.7627V59.8698H214.848V58.6146H214.775C214.679 58.8157 214.518 59.0309 214.293 59.2603C214.067 59.4896 213.768 59.6847 213.394 59.8456C213.019 60.0065 212.563 60.087 212.024 60.087ZM212.241 58.8077C212.804 58.8077 213.279 58.697 213.665 58.4758C214.055 58.2545 214.349 57.9688 214.546 57.6188C214.747 57.2688 214.848 56.9007 214.848 56.5145V55.211C214.788 55.2834 214.655 55.3498 214.45 55.4101C214.248 55.4665 214.015 55.5168 213.75 55.561C213.488 55.6012 213.233 55.6374 212.983 55.6696C212.738 55.6978 212.539 55.7219 212.386 55.7421C212.016 55.7903 211.67 55.8688 211.348 55.9774C211.03 56.082 210.772 56.2409 210.575 56.4541C210.382 56.6633 210.286 56.949 210.286 57.3111C210.286 57.8059 210.469 58.1801 210.835 58.4335C211.205 58.6829 211.674 58.8077 212.241 58.8077Z" fill="#FCFCFD"/>
<path d="M223.965 50.6005V51.8074H219.161V50.6005H223.965ZM220.561 48.3798H221.985V57.2145C221.985 57.6168 222.044 57.9186 222.16 58.1197C222.281 58.3168 222.434 58.4496 222.619 58.518C222.808 58.5824 223.007 58.6146 223.216 58.6146C223.373 58.6146 223.502 58.6065 223.603 58.5904C223.703 58.5703 223.784 58.5542 223.844 58.5421L224.134 59.8215C224.037 59.8577 223.902 59.8939 223.729 59.9301C223.556 59.9703 223.337 59.9905 223.072 59.9905C222.669 59.9905 222.275 59.904 221.889 59.731C221.507 59.558 221.189 59.2945 220.935 58.9404C220.686 58.5864 220.561 58.1398 220.561 57.6007V48.3798Z" fill="#FCFCFD"/>
<path d="M230.835 60.0629C229.998 60.0629 229.264 59.8637 228.633 59.4654C228.005 59.0672 227.514 58.5099 227.16 57.7938C226.81 57.0777 226.635 56.2409 226.635 55.2834C226.635 54.3179 226.81 53.475 227.16 52.7549C227.514 52.0348 228.005 51.4755 228.633 51.0773C229.264 50.679 229.998 50.4798 230.835 50.4798C231.672 50.4798 232.404 50.679 233.032 51.0773C233.663 51.4755 234.154 52.0348 234.504 52.7549C234.858 53.475 235.035 54.3179 235.035 55.2834C235.035 56.2409 234.858 57.0777 234.504 57.7938C234.154 58.5099 233.663 59.0672 233.032 59.4654C232.404 59.8637 231.672 60.0629 230.835 60.0629ZM230.835 58.7835C231.471 58.7835 231.994 58.6206 232.404 58.2947C232.815 57.9688 233.118 57.5404 233.315 57.0093C233.513 56.4783 233.611 55.903 233.611 55.2834C233.611 54.6639 233.513 54.0865 233.315 53.5515C233.118 53.0164 232.815 52.5839 232.404 52.254C231.994 51.9241 231.471 51.7592 230.835 51.7592C230.2 51.7592 229.677 51.9241 229.266 52.254C228.856 52.5839 228.552 53.0164 228.355 53.5515C228.158 54.0865 228.059 54.6639 228.059 55.2834C228.059 55.903 228.158 56.4783 228.355 57.0093C228.552 57.5404 228.856 57.9688 229.266 58.2947C229.677 58.6206 230.2 58.7835 230.835 58.7835Z" fill="#FCFCFD"/>
<path d="M239.696 54.2937V59.8698H238.271V50.6005H239.647V52.0488H239.768C239.985 51.5781 240.315 51.2 240.758 50.9143C241.2 50.6247 241.772 50.4798 242.472 50.4798C243.099 50.4798 243.648 50.6086 244.119 50.866C244.59 51.1195 244.956 51.5057 245.217 52.0247C245.479 52.5397 245.61 53.1914 245.61 53.9799V59.8698H244.185V54.0765C244.185 53.3483 243.996 52.781 243.618 52.3747C243.24 51.9644 242.721 51.7592 242.061 51.7592C241.607 51.7592 241.2 51.8577 240.842 52.0549C240.488 52.252 240.209 52.5397 240.003 52.9178C239.798 53.296 239.696 53.7546 239.696 54.2937Z" fill="#FCFCFD"/>
<path d="M253.16 60.0629C252.267 60.0629 251.497 59.8657 250.849 59.4715C250.205 59.0732 249.709 58.518 249.359 57.8059C249.013 57.0898 248.84 56.257 248.84 55.3076C248.84 54.3581 249.013 53.5213 249.359 52.7971C249.709 52.069 250.195 51.5017 250.819 51.0954C251.447 50.685 252.179 50.4798 253.016 50.4798C253.498 50.4798 253.975 50.5603 254.446 50.7212C254.917 50.8821 255.345 51.1436 255.731 51.5057C256.117 51.8638 256.425 52.3385 256.655 52.9299C256.884 53.5213 256.999 54.2495 256.999 55.1144V55.7179H249.853V54.4868H255.55C255.55 53.9638 255.446 53.4972 255.236 53.0868C255.031 52.6764 254.738 52.3526 254.355 52.1152C253.977 51.8779 253.531 51.7592 253.016 51.7592C252.448 51.7592 251.958 51.9 251.543 52.1816C251.133 52.4592 250.817 52.8213 250.596 53.2678C250.374 53.7144 250.264 54.1932 250.264 54.7041V55.5248C250.264 56.2248 250.385 56.8182 250.626 57.305C250.871 57.7878 251.211 58.1559 251.646 58.4094C252.08 58.6588 252.585 58.7835 253.16 58.7835C253.535 58.7835 253.873 58.7312 254.174 58.6266C254.48 58.518 254.744 58.3571 254.965 58.1438C255.186 57.9266 255.357 57.6571 255.478 57.3352L256.854 57.7214C256.709 58.1881 256.465 58.5985 256.123 58.9525C255.782 59.3025 255.359 59.5761 254.856 59.7732C254.353 59.9663 253.788 60.0629 253.16 60.0629Z" fill="#FCFCFD"/>
</g>
<defs>
<radialGradient id="paint0_radial_302_22316" cx="0" cy="0" r="1" gradientUnits="userSpaceOnUse" gradientTransform="translate(56.0326 9.21407) scale(20.6841 21.063)">
<stop stop-color="#FFEAFF" stop-opacity="0.6"/>
<stop offset="0.6807" stop-color="#A087C9"/>
<stop offset="1" stop-color="#10002F"/>
</radialGradient>
<radialGradient id="paint1_radial_302_22316" cx="0" cy="0" r="1" gradientUnits="userSpaceOnUse" gradientTransform="translate(44.5254 18.1954) scale(50.6065 51.5334)">
<stop stop-color="#FFEAFF" stop-opacity="0.6"/>
<stop offset="0.6807" stop-color="#A087C9"/>
<stop offset="1" stop-color="#10002F"/>
</radialGradient>
<linearGradient id="paint2_linear_302_22316" x1="23.2475" y1="62.3274" x2="31.8198" y2="10.3928" gradientUnits="userSpaceOnUse">
<stop stop-color="#81FFFF"/>
<stop offset="0.6202" stop-color="white" stop-opacity="0"/>
</linearGradient>
<linearGradient id="paint3_linear_302_22316" x1="45.6272" y1="18.468" x2="23.8808" y2="38.0621" gradientUnits="userSpaceOnUse">
<stop offset="0.2888" stop-color="white"/>
<stop offset="0.7796" stop-color="white" stop-opacity="0"/>
</linearGradient>
<linearGradient id="paint4_linear_302_22316" x1="2.79621" y1="48.6206" x2="51.958" y2="48.6206" gradientUnits="userSpaceOnUse">
<stop stop-color="#0002E9"/>
<stop offset="0.9952" stop-color="#FF00C7"/>
</linearGradient>
<linearGradient id="paint5_linear_302_22316" x1="54.2871" y1="38.319" x2="27.0707" y2="63.5772" gradientUnits="userSpaceOnUse">
<stop offset="0.2888" stop-color="white"/>
<stop offset="0.7796" stop-color="white" stop-opacity="0"/>
</linearGradient>
<linearGradient id="paint6_linear_302_22316" x1="2.79621" y1="48.6206" x2="29.0975" y2="48.6206" gradientUnits="userSpaceOnUse">
<stop stop-color="#000292"/>
<stop offset="0.9952" stop-color="#7D00C7"/>
</linearGradient>
<linearGradient id="paint7_linear_302_22316" x1="2.8292" y1="38.4368" x2="51.9249" y2="38.4368" gradientUnits="userSpaceOnUse">
<stop stop-color="#000292"/>
<stop offset="0.9952" stop-color="#BE00C7"/>
</linearGradient>
<linearGradient id="paint8_linear_302_22316" x1="51.1197" y1="11.6225" x2="47.4974" y2="17.4028" gradientUnits="userSpaceOnUse">
<stop offset="0.2888" stop-color="white"/>
<stop offset="0.7796" stop-color="white" stop-opacity="0"/>
</linearGradient>
<linearGradient id="paint9_linear_302_22316" x1="24.3738" y1="54.7318" x2="26.3317" y2="54.7318" gradientUnits="userSpaceOnUse">
<stop offset="0.2888" stop-color="white"/>
<stop offset="0.7796" stop-color="white" stop-opacity="0"/>
</linearGradient>
<linearGradient id="paint10_linear_302_22316" x1="31.1306" y1="54.0636" x2="33.0886" y2="54.0636" gradientUnits="userSpaceOnUse">
<stop offset="0.2888" stop-color="white"/>
<stop offset="0.7796" stop-color="white" stop-opacity="0"/>
</linearGradient>
<linearGradient id="paint11_linear_302_22316" x1="28.1307" y1="57.4363" x2="29.6006" y2="57.4363" gradientUnits="userSpaceOnUse">
<stop offset="0.2888" stop-color="white"/>
<stop offset="0.7796" stop-color="white" stop-opacity="0"/>
</linearGradient>
<linearGradient id="paint12_linear_302_22316" x1="34.0833" y1="56.7283" x2="35.5532" y2="56.7283" gradientUnits="userSpaceOnUse">
<stop offset="0.2888" stop-color="white"/>
<stop offset="0.7796" stop-color="white" stop-opacity="0"/>
</linearGradient>
<linearGradient id="paint13_linear_302_22316" x1="18.055" y1="53.4264" x2="21.2525" y2="53.4264" gradientUnits="userSpaceOnUse">
<stop offset="0.2888" stop-color="white"/>
<stop offset="0.7796" stop-color="white" stop-opacity="0"/>
</linearGradient>
<linearGradient id="paint14_linear_302_22316" x1="37.0414" y1="48.0987" x2="40.239" y2="48.0987" gradientUnits="userSpaceOnUse">
<stop offset="0.2888" stop-color="white"/>
<stop offset="0.7796" stop-color="white" stop-opacity="0"/>
</linearGradient>
</defs>
</svg>
