<svg width="24" height="24" viewBox="0 0 24 24" fill="none" xmlns="http://www.w3.org/2000/svg">
<circle cx="12" cy="12" r="12" fill="url(#paint0_linear_786_137793)"/>
<path fill-rule="evenodd" clip-rule="evenodd" d="M12 4C7.59817 4 4 7.59817 4 12C4 16.4018 7.59817 20 12 20C16.4018 20 20 16.4018 20 12C20 7.59817 16.4018 4 12 4ZM5.6 12C5.6 8.48183 8.48183 5.6 12 5.6C15.5182 5.6 18.4 8.48183 18.4 12C18.4 15.5182 15.5182 18.4 12 18.4C8.48183 18.4 5.6 15.5182 5.6 12ZM16.1652 10.3662C16.4779 10.054 16.4783 9.54751 16.1662 9.23481C15.854 8.92212 15.3475 8.92167 15.0348 9.23382L11.0645 13.1971L9.36569 11.4983C9.05327 11.1859 8.54673 11.1859 8.23431 11.4983C7.9219 11.8107 7.9219 12.3173 8.23431 12.6297L10.4983 14.8937C10.8105 15.2059 11.3167 15.2061 11.6292 14.8942L16.1652 10.3662Z" fill="#F7F2FE"/>
<circle cx="12" cy="12" r="12" fill="url(#paint1_linear_786_137793)"/>
<mask id="mask0_786_137793" style="mask-type:alpha" maskUnits="userSpaceOnUse" x="0" y="0" width="24" height="24">
<circle cx="12" cy="12" r="12" fill="url(#paint2_linear_786_137793)"/>
</mask>
<g mask="url(#mask0_786_137793)">
<path d="M14.5376 12.9611C10.2991 20.4075 -1.00002 12.5 -3.50002 10.5L-0.686714 51.0551L26.3665 56.5175L28.7298 6.92005C26.6769 5.86936 18.5 5.99994 14.5376 12.9611Z" fill="url(#paint3_linear_786_137793)" fill-opacity="0.8"/>
</g>
<defs>
<linearGradient id="paint0_linear_786_137793" x1="4.32" y1="21.6" x2="24" y2="5.28" gradientUnits="userSpaceOnUse">
<stop stop-color="#4501E0"/>
<stop offset="1" stop-color="#E50ECD"/>
</linearGradient>
<linearGradient id="paint1_linear_786_137793" x1="4.32" y1="21.6" x2="24" y2="5.28" gradientUnits="userSpaceOnUse">
<stop stop-color="#4501E0"/>
<stop offset="1" stop-color="#E50ECD"/>
</linearGradient>
<linearGradient id="paint2_linear_786_137793" x1="4.32" y1="21.6" x2="24" y2="5.28" gradientUnits="userSpaceOnUse">
<stop stop-color="#4501E0"/>
<stop offset="1" stop-color="#E50ECD"/>
</linearGradient>
<linearGradient id="paint3_linear_786_137793" x1="22.5" y1="5.99993" x2="9.49997" y2="24.4999" gradientUnits="userSpaceOnUse">
<stop stop-color="#290078"/>
<stop offset="1" stop-color="#5002DF"/>
</linearGradient>
</defs>
</svg>
