<svg width="935" height="145" viewBox="0 0 935 145" fill="none" xmlns="http://www.w3.org/2000/svg">
<path d="M267.899 46.379V128.093C267.899 129.531 266.732 130.698 265.292 130.698H252.175C250.925 130.698 249.855 129.81 249.617 128.586L248.062 120.5C240.817 126.836 231.375 130.55 220.733 130.55C195.361 130.55 176.495 111.412 176.495 85.913C176.495 60.4143 195.361 41.5225 220.733 41.5225C231.556 41.5225 241.146 45.3353 248.441 51.8271L250.316 45.623C250.645 44.5218 251.665 43.774 252.808 43.774H265.292C266.732 43.774 267.899 44.9409 267.899 46.379ZM245.554 85.9048C245.554 72.6665 235.841 62.8138 222.6 62.8138C209.359 62.8138 199.613 72.6994 199.613 85.9048C199.613 99.1102 209.351 108.996 222.6 108.996C235.849 108.996 245.554 99.1348 245.554 85.9048Z" fill="white"/>
<path d="M293.962 13.0082H311.554C312.993 13.0082 314.161 14.1751 314.161 15.6131V128.102C314.161 129.54 312.993 130.706 311.554 130.706H293.962C292.523 130.706 291.355 129.54 291.355 128.102V15.6049C291.355 14.1669 292.523 13 293.962 13V13.0082Z" fill="white"/>
<path d="M340.191 13.0082H357.783C359.222 13.0082 360.39 14.1751 360.39 15.6131V128.102C360.39 129.54 359.222 130.706 357.783 130.706H340.191C338.752 130.706 337.584 129.54 337.584 128.102V15.6049C337.584 14.1669 338.752 13 340.191 13V13.0082Z" fill="white"/>
<path d="M465.669 85.8879C465.669 87.3095 465.603 88.7229 465.488 90.1363C465.373 91.5497 464.255 92.5687 462.889 92.5687H404.694C402.951 92.5687 401.701 94.2532 402.194 95.9214C404.974 105.289 412.088 110.4 422.023 110.4C429.449 110.4 435.626 107.105 439.228 101.731C439.705 101.024 440.527 100.63 441.383 100.63H460.101C461.952 100.63 463.243 102.52 462.519 104.213C455.578 120.508 440.297 130.698 422.031 130.698C397.128 130.698 378.294 111.436 378.294 86.1837C378.294 60.9316 397.004 41.6699 422.031 41.6699C447.058 41.6699 465.686 61.6136 465.686 85.8879H465.669ZM405.648 77.0049H439.072C440.98 77.0049 442.246 75.0162 441.44 73.2988C437.715 65.3772 430.946 61.1206 422.015 61.1206C413.083 61.1206 406.545 65.6237 403.247 73.3892C402.515 75.0984 403.79 77.0049 405.656 77.0049H405.648Z" fill="white"/>
<path d="M513.403 130.698C493.352 130.698 479.609 119.867 478.112 103.383C477.973 101.871 479.198 100.564 480.72 100.564H497.966C499.2 100.564 500.195 101.485 500.417 102.701C501.502 108.773 506.898 111.814 514.258 111.814C520.591 111.814 526.249 108.946 526.249 103.317C526.249 97.6881 518.938 95.8145 510.023 94.3272C496.551 92.0838 479.412 88.4846 479.412 68.6231C479.412 52.6813 492.982 41.6699 513.345 41.6699C532.549 41.6699 545.527 51.7445 547.007 67.0125C547.155 68.5245 545.93 69.8228 544.409 69.8228H527.869C526.636 69.8228 525.542 68.96 525.328 67.7438C524.366 62.4436 519.867 59.8222 512.786 59.8222C505.705 59.8222 501.502 63.0681 501.502 67.8917C501.502 73.5125 508.699 74.8108 517.457 76.405C531.217 78.8702 548.776 81.7792 548.776 102.306C548.776 119.497 534.704 130.689 513.411 130.689L513.403 130.698Z" fill="white"/>
<path d="M608.484 13.0082H626.076C627.515 13.0082 628.683 14.1751 628.683 15.6131V128.102C628.683 129.54 627.515 130.706 626.076 130.706H608.484C607.045 130.706 605.877 129.54 605.877 128.102V15.6049C605.877 14.1669 607.045 13 608.484 13V13.0082Z" fill="white"/>
<path d="M737.967 46.527V127.666C737.967 129.104 736.799 130.271 735.36 130.271H722.218C720.976 130.271 719.915 129.4 719.668 128.192L718.13 120.656C710.885 126.992 701.443 130.706 690.801 130.706C665.429 130.706 646.562 111.568 646.562 86.0693C646.562 60.5706 665.429 41.6787 690.801 41.6787C701.624 41.6787 711.214 45.4916 718.509 51.9834L720.384 45.7792C720.713 44.6781 721.733 43.9303 722.876 43.9303H735.36C736.799 43.9303 737.967 45.0972 737.967 46.5352V46.527ZM715.622 86.0528C715.622 72.8145 705.909 62.9618 692.668 62.9618C679.427 62.9618 669.681 72.8474 669.681 86.0528C669.681 99.2582 679.419 109.144 692.668 109.144C705.917 109.144 715.622 99.2829 715.622 86.0528Z" fill="white"/>
<path d="M851.709 85.7563C851.709 111.263 833.081 130.27 807.372 130.27C797.125 130.27 788.029 126.802 780.972 120.845L778.793 128.783C778.48 129.917 777.452 130.697 776.284 130.697H764.038C762.599 130.697 761.431 129.53 761.431 128.092V15.8588C761.431 14.4208 762.599 13.2539 764.038 13.2539H781.63C783.069 13.2539 784.237 14.4208 784.237 15.8588V48.1862C790.751 43.757 798.646 41.2425 807.38 41.2425C833.089 41.2425 851.717 60.2247 851.717 85.7563H851.709ZM805.513 108.716C818.763 108.716 828.467 98.8548 828.467 85.748C828.467 72.6412 818.754 62.6571 805.513 62.6571C792.272 62.6571 782.526 72.5426 782.526 85.748C782.526 98.9534 792.264 108.716 805.513 108.716Z" fill="white"/>
<path d="M899.608 130.567C879.557 130.567 865.814 119.736 864.318 103.252C864.178 101.74 865.403 100.433 866.925 100.433H884.171C885.405 100.433 886.4 101.354 886.622 102.57C887.707 108.643 893.103 111.683 900.463 111.683C906.796 111.683 912.454 108.815 912.454 103.186C912.454 97.5573 905.143 95.6837 896.228 94.1963C882.756 91.953 865.617 88.3537 865.617 68.4922C865.617 52.5504 879.187 41.5391 899.55 41.5391C918.754 41.5391 931.732 51.6136 933.212 66.8816C933.36 68.3936 932.135 69.692 930.614 69.692H914.075C912.841 69.692 911.747 68.8291 911.533 67.613C910.571 62.3127 906.072 59.6914 898.991 59.6914C891.91 59.6914 887.707 62.9372 887.707 67.7609C887.707 73.3816 894.904 74.6799 903.663 76.2741C917.422 78.7393 934.981 81.6483 934.981 102.175C934.981 119.366 920.909 130.558 899.616 130.558L899.608 130.567Z" fill="white"/>
<path d="M76.2708 34.6908C65.5518 30.7708 54.8229 28.6008 44.8745 28.4208C26.0889 28.0908 11.7168 34.7708 4.53084 47.2508C-2.65517 59.7408 -1.254 75.5408 8.45411 91.7508C16.8211 105.711 30.7828 118.831 47.757 128.671C56.244 133.591 65.0614 137.451 73.7787 140.111L79.4134 116.191C72.918 114.081 66.2924 111.131 59.9571 107.451C46.6961 99.7608 35.5468 89.4308 29.3616 79.1208C24.5776 71.1308 23.1864 63.8008 25.6585 59.5108C28.1306 55.2208 35.1364 52.7608 44.4242 52.9208C52.3208 53.0608 61.3083 55.0808 70.3058 58.6408L76.2608 34.6908H76.2708Z" fill="#939497"/>
<path d="M135.671 81.0604C127.304 67.1004 113.342 53.9804 96.3677 44.1404C89.8022 40.3304 83.0365 37.1604 76.2709 34.6904L70.3159 58.6404C74.9798 60.4804 79.6437 62.7404 84.1675 65.3604C97.4286 73.0504 108.578 83.3804 114.763 93.6904C119.547 101.68 120.938 109.01 118.466 113.3C115.994 117.59 108.988 120.04 99.7005 119.88C93.4452 119.77 86.5094 118.48 79.4235 116.18L73.7888 140.1C82.5061 142.76 91.1433 144.23 99.2501 144.38C99.7105 144.38 100.171 144.39 100.631 144.39C118.786 144.39 132.588 137.73 139.594 125.54C146.77 113.05 145.379 97.2504 135.661 81.0404L135.671 81.0604Z" fill="url(#paint0_linear_253_10368)"/>
<path d="M82.0403 129.514C83.6694 122.942 82.4891 116.995 79.404 116.232C76.3189 115.468 72.4973 120.177 70.8682 126.75C69.2391 133.322 70.4194 139.269 73.5045 140.033C76.5896 140.796 80.4112 136.087 82.0403 129.514Z" fill="white"/>
<path d="M78.887 48.049C80.5241 41.4444 79.3502 35.4714 76.2651 34.708C73.18 33.9446 69.352 38.6798 67.7149 45.2845C66.0778 51.8891 67.2517 57.862 70.3368 58.6254C73.4219 59.3889 77.2499 54.6536 78.887 48.049Z" fill="white"/>
<path d="M111.48 10.5005C106.416 7.58047 101.162 5.21047 95.9171 3.48047L89.9822 27.2705C93.0848 28.4205 96.2274 29.8905 99.2699 31.6505C115.684 41.1205 120.648 53.3505 119.307 55.6805C118.926 56.3405 116.514 57.6505 111.42 57.5805C108.858 57.5305 106.076 57.1305 103.193 56.4205L97.1281 80.0705C101.862 81.2605 106.526 81.9105 110.97 82.0005C111.28 82.0005 111.58 82.0005 111.88 82.0005C124.871 82.0005 135.25 76.8905 140.444 67.8905C150.483 50.5105 138.022 25.8405 111.47 10.5105L111.48 10.5005Z" fill="#939497"/>
<path d="M95.9271 3.48079C89.3917 1.31079 82.8762 0.120794 76.7711 0.0107936C63.3299 -0.269206 52.611 4.91079 47.2965 14.1108C37.2581 31.4908 49.7185 56.1608 76.2707 71.4908C83.0464 75.4008 90.1723 78.3108 97.1382 80.0608L103.203 56.4108C98.3992 55.2208 93.325 53.1408 88.4809 50.3408C72.0672 40.8708 67.1031 28.6408 68.4442 26.3108C68.8245 25.6508 71.2265 24.3108 76.3308 24.4108C80.4842 24.4908 85.1982 25.4908 89.9922 27.2608L95.9271 3.47079V3.48079Z" fill="url(#paint1_linear_253_10368)"/>
<path d="M105.66 69.5585C107.287 63.0369 106.102 57.1261 103.013 56.3566C99.9237 55.587 96.1002 60.2499 94.4728 66.7716C92.8454 73.2932 94.0304 79.204 97.1197 79.9735C100.209 80.7431 104.033 76.0802 105.66 69.5585Z" fill="white"/>
<path d="M98.555 16.7515C100.196 10.1763 99.0215 4.22213 95.9323 3.45254C92.843 2.68294 89.0086 7.38935 87.3678 13.9646C85.7271 20.5398 86.9013 26.494 89.9905 27.2636C93.0798 28.0332 96.9142 23.3268 98.555 16.7515Z" fill="white"/>
<defs>
<linearGradient id="paint0_linear_253_10368" x1="70.3159" y1="89.5504" x2="144.128" y2="89.5504" gradientUnits="userSpaceOnUse">
<stop stop-color="#BBBDBF"/>
<stop offset="1" stop-color="#E5E6E7"/>
</linearGradient>
<linearGradient id="paint1_linear_253_10368" x1="43.8336" y1="40.0308" x2="103.203" y2="40.0308" gradientUnits="userSpaceOnUse">
<stop stop-color="#BBBDBF"/>
<stop offset="1" stop-color="#E5E6E7"/>
</linearGradient>
</defs>
</svg>
