<svg width="24" height="24" viewBox="0 0 24 24" fill="none" xmlns="http://www.w3.org/2000/svg">
<path fill-rule="evenodd" clip-rule="evenodd" d="M20.4878 3.52953L17.3133 6.70409C18.65 8.06842 19.475 9.94163 19.475 12.0087C19.475 16.1822 16.1119 19.5655 11.9634 19.5655C9.89253 19.5655 8.01737 18.7224 6.65857 17.3588L3.52953 20.4878C5.69953 22.6578 8.69736 24 12.0087 24C18.6313 24 24 18.6313 24 12.0087C24 8.69736 22.6578 5.69953 20.4878 3.52953Z" fill="url(#paint0_linear_154_6930)"/>
<path fill-rule="evenodd" clip-rule="evenodd" d="M3.51217 20.4705L6.68674 17.2959C5.34998 15.9316 4.52503 14.0584 4.52503 11.9913C4.52503 7.81782 7.88806 4.43453 12.0366 4.43453C14.1075 4.43453 15.9826 5.27762 17.3414 6.64122L20.4705 3.51218C18.3005 1.34218 15.3026 2.6756e-06 11.9913 2.09663e-06C5.3687 9.38693e-07 -9.38693e-07 5.3687 -2.09663e-06 11.9913C-2.6756e-06 15.3026 1.34217 18.3005 3.51217 20.4705Z" fill="url(#paint1_linear_154_6930)"/>
<path fill-rule="evenodd" clip-rule="evenodd" d="M17.0281 6.95426C15.7506 5.67683 13.9859 4.88672 12.0366 4.88672C8.13798 4.88672 4.97754 8.04716 4.97754 11.9458C4.97754 13.8951 5.76765 15.6598 7.04509 16.9373L10.1395 13.8428C9.66145 13.3534 9.36682 12.684 9.36682 11.9458C9.36682 10.4463 10.5824 9.23075 12.0818 9.23075C12.8201 9.23075 13.4895 9.52538 13.9789 10.0035L17.0281 6.95426Z" fill="url(#paint2_linear_154_6930)"/>
<path fill-rule="evenodd" clip-rule="evenodd" d="M7.14965 16.951C8.42709 18.2284 10.1918 19.0186 12.1412 19.0186C16.0398 19.0186 19.2002 15.8581 19.2002 11.9595C19.2002 10.0102 18.4101 8.24545 17.1327 6.96801L14.0382 10.0625C14.5163 10.5519 14.8109 11.2213 14.8109 11.9595C14.8109 13.459 13.5954 14.6745 12.0959 14.6745C11.3577 14.6745 10.6883 14.3799 10.1989 13.9018L7.14965 16.951Z" fill="url(#paint3_linear_154_6930)"/>
<path d="M20.4956 3.5894C20.8049 3.89871 20.3504 4.85469 19.4805 5.72464C18.6105 6.59458 17.6545 7.04906 17.3452 6.73975C17.0359 6.43044 17.4904 5.47446 18.3603 4.60451C19.2303 3.73457 20.1863 3.28009 20.4956 3.5894Z" fill="#1313C9"/>
<path d="M17.1022 6.97139C17.4038 7.27299 16.9607 8.20512 16.1124 9.05337C15.2642 9.90162 14.3321 10.3448 14.0305 10.0432C13.7289 9.74156 14.172 8.80943 15.0203 7.96118C15.8685 7.11294 16.8006 6.66979 17.1022 6.97139Z" fill="#1313C9"/>
<path d="M10.2243 13.9401C10.5259 14.2417 10.0828 15.1739 9.23452 16.0221C8.38627 16.8704 7.45414 17.3135 7.15254 17.0119C6.85094 16.7103 7.29409 15.7782 8.14233 14.9299C8.99058 14.0817 9.92271 13.6385 10.2243 13.9401Z" fill="#1313C9"/>
<path d="M6.75045 17.354C7.05977 17.6634 6.60529 18.6193 5.73534 19.4893C4.86539 20.3592 3.90942 20.8137 3.6001 20.5044C3.29079 20.1951 3.74527 19.2391 4.61521 18.3692C5.48516 17.4992 6.44114 17.0447 6.75045 17.354Z" fill="#1313C9"/>
<defs>
<linearGradient id="paint0_linear_154_6930" x1="3.52953" y1="20.8151" x2="20.4531" y2="3.52952" gradientUnits="userSpaceOnUse">
<stop stop-color="#DBF073"/>
<stop offset="1" stop-color="#A8C900"/>
</linearGradient>
<linearGradient id="paint1_linear_154_6930" x1="19.8196" y1="2.71502" x2="3.57477" y2="20.4531" gradientUnits="userSpaceOnUse">
<stop stop-color="#5C38F3"/>
<stop offset="1" stop-color="#7F71F2"/>
</linearGradient>
<linearGradient id="paint2_linear_154_6930" x1="17.0141" y1="6.19898" x2="6.96855" y2="16.154" gradientUnits="userSpaceOnUse">
<stop stop-color="#DAF071"/>
<stop offset="1" stop-color="#A8C900"/>
</linearGradient>
<linearGradient id="paint3_linear_154_6930" x1="7.14628" y1="17.2364" x2="16.8751" y2="6.96463" gradientUnits="userSpaceOnUse">
<stop stop-color="#5C38F3"/>
<stop offset="1" stop-color="#7F71F2"/>
</linearGradient>
</defs>
</svg>
