<svg width="110" height="110" viewBox="0 0 110 110" fill="none" xmlns="http://www.w3.org/2000/svg">
<path d="M16.0999 93.604C26.4814 103.961 40.2827 109.666 54.9619 109.666C69.6411 109.666 83.4425 103.961 93.824 93.604C104.206 83.2466 109.923 69.4773 109.923 54.8323C109.923 40.1872 104.206 26.418 93.824 16.0605L80.87 28.9845C87.5111 35.6101 91.6179 44.749 91.6179 54.8323C91.6179 64.6033 87.8012 73.7879 80.8776 80.6953C73.9541 87.6028 64.7481 91.4107 54.9543 91.4107C44.8476 91.4107 35.6797 87.3058 29.0462 80.6877L16.0999 93.604Z" fill="url(#paint0_linear_203_10425)"/>
<path d="M93.8232 16.0616C83.4417 5.70419 69.6403 0 54.9611 0C40.2819 0 26.4806 5.70419 16.099 16.0616C5.71748 26.419 0 40.1883 0 54.8333C0 69.4784 5.71748 83.2477 16.099 93.6051L29.0531 80.6812C22.4119 74.0555 18.3051 64.9166 18.3051 54.8333C18.3051 45.0623 22.1218 35.8778 29.0454 28.9703C35.969 22.0628 45.175 18.2549 54.9687 18.2549C65.0755 18.2549 74.2433 22.3598 80.8768 28.9779L93.8232 16.0616Z" fill="#5942F3"/>
<path d="M25.6876 90.2533C29.2649 86.6843 30.7704 82.3999 29.0504 80.6839C27.3303 78.9678 23.0359 80.4698 19.4587 84.0388C15.8814 87.6078 14.3758 91.8921 16.0959 93.6082C17.816 95.3243 22.1103 93.8222 25.6876 90.2533Z" fill="#1F00D9"/>
<path d="M90.4571 25.639C94.0344 22.07 95.54 17.7857 93.8199 16.0696C92.0998 14.3535 87.8055 15.8556 84.2282 19.4245C80.6509 22.9935 79.1454 27.2779 80.8654 28.9939C82.5855 30.71 86.8799 29.208 90.4571 25.639Z" fill="#1F00D9"/>
<path d="M35.5181 74.2282C46.2355 84.9207 63.678 84.9207 74.403 74.2282C85.1205 63.5357 85.1205 46.1337 74.403 35.4336L61.4414 48.388C65.0062 51.9445 65.0062 57.7325 61.4414 61.289C57.8765 64.8456 52.0751 64.8456 48.5103 61.289L35.5257 74.2206L35.5181 74.2282Z" fill="#5942F3"/>
<path d="M48.48 61.2758C44.9152 57.7192 44.9152 51.9313 48.48 48.3747C52.0448 44.8182 57.8463 44.8182 61.4111 48.3747L74.3957 35.4432C63.6783 24.7507 46.2358 24.7507 35.5107 35.4432C24.7933 46.1357 24.7933 63.5377 35.5107 74.2378L48.4724 61.2834L48.48 61.2758Z" fill="url(#paint1_linear_203_10425)"/>
<path d="M71.0304 45.0081C74.6077 41.4392 76.1132 37.1548 74.3931 35.4387C72.6731 33.7227 68.3787 35.2247 64.8014 38.7937C61.2242 42.3626 59.7186 46.647 61.4387 48.3631C63.1588 50.0792 67.4531 48.5771 71.0304 45.0081Z" fill="#1F00D9"/>
<path d="M45.1129 70.8753C48.6902 67.3064 50.1957 63.022 48.4757 61.3059C46.7556 59.5899 42.4612 61.0919 38.884 64.6609C35.3067 68.2298 33.8011 72.5142 35.5212 74.2303C37.2413 75.9463 41.5356 74.4443 45.1129 70.8753Z" fill="#1F00D9"/>
<defs>
<linearGradient id="paint0_linear_203_10425" x1="35.5315" y1="112.984" x2="113.072" y2="35.2624" gradientUnits="userSpaceOnUse">
<stop stop-color="#AAC700"/>
<stop offset="1" stop-color="#D7F067"/>
</linearGradient>
<linearGradient id="paint1_linear_203_10425" x1="27.4727" y1="50.827" x2="74.3957" y2="50.827" gradientUnits="userSpaceOnUse">
<stop stop-color="#AAC700"/>
<stop offset="1" stop-color="#D7F067"/>
</linearGradient>
</defs>
</svg>
