<svg width="911" height="144" viewBox="0 0 911 144" fill="none" xmlns="http://www.w3.org/2000/svg">
<path d="M177.348 85.5915C177.348 59.6831 197.115 40.1748 223.39 40.1748C244.582 40.1748 261.29 52.8998 266.573 72.3081C267.032 73.9915 265.74 75.6415 263.998 75.6415H245.798C244.832 75.6415 243.923 75.1165 243.473 74.2581C239.482 66.5998 232.048 62.1498 223.248 62.1498C210.573 62.1498 201.04 72.3248 201.04 85.7165C201.04 99.1081 210.732 109.541 223.248 109.541C232.19 109.541 239.365 104.833 243.448 96.4831C243.882 95.5915 244.815 95.0415 245.807 95.0415H264.315C266.048 95.0415 267.332 96.6831 266.898 98.3581C261.715 118.258 244.69 131.516 223.248 131.516C197.24 131.516 177.34 111.491 177.34 85.5831L177.348 85.5915Z" fill="white"/>
<path d="M368.615 85.5494C368.615 87.0243 368.548 88.491 368.423 89.966C368.306 91.341 367.148 92.3993 365.773 92.3993H306.081C304.306 92.3993 303.023 94.116 303.531 95.8243C306.381 105.449 313.681 110.699 323.865 110.699C331.481 110.699 337.815 107.324 341.506 101.799C341.99 101.074 342.84 100.666 343.715 100.666H362.923C364.806 100.666 366.123 102.591 365.39 104.324C358.273 121.049 342.606 131.516 323.873 131.516C298.348 131.516 279.031 111.749 279.031 85.841C279.031 59.9327 298.215 40.166 323.873 40.166C349.531 40.166 368.631 60.6327 368.631 85.5327L368.615 85.5494ZM307.065 76.441H341.365C343.306 76.441 344.606 74.416 343.781 72.6577C339.965 64.516 333.015 60.141 323.856 60.141C314.698 60.141 307.99 64.766 304.606 72.7493C303.865 74.4993 305.165 76.441 307.065 76.441Z" fill="white"/>
<path d="M389.498 12H407.557C409.023 12 410.215 13.1917 410.215 14.6583V129.233C410.215 130.7 409.023 131.892 407.557 131.892H389.498C388.032 131.892 386.84 130.7 386.84 129.233V14.6583C386.84 13.1917 388.032 12 389.498 12Z" fill="white"/>
<path d="M522.257 45.5165V129.341C522.257 130.808 521.065 132 519.598 132H506.123C504.848 132 503.757 131.1 503.515 129.85L501.923 121.583C494.498 128.083 484.815 131.891 473.907 131.891C447.898 131.891 428.557 112.258 428.557 86.0915C428.557 59.9248 447.898 40.5498 473.907 40.5498C485.007 40.5498 494.84 44.4581 502.307 51.1248L504.232 44.7498C504.573 43.6248 505.607 42.8581 506.773 42.8665H519.59C521.057 42.8665 522.248 44.0581 522.248 45.5248L522.257 45.5165ZM499.348 86.0915C499.348 72.5081 489.39 62.3998 475.815 62.3998C462.24 62.3998 452.248 72.5415 452.248 86.0915C452.248 99.6415 462.232 109.783 475.815 109.783C489.398 109.783 499.348 99.6665 499.348 86.0915Z" fill="white"/>
<path d="M599.198 113.734V129.234C599.198 130.701 598.006 131.892 596.539 131.892H582.589C563.564 131.892 551.881 120.209 551.881 101.017V66.8839C551.881 65.4172 550.689 64.2255 549.223 64.2255H538.898C537.431 64.2255 536.239 63.0339 536.239 61.5672V48.0922C536.239 46.6255 537.431 45.4339 538.898 45.4339H549.223C550.689 45.4339 551.881 44.2422 551.881 42.7755V25.5255C551.881 24.0589 553.073 22.8672 554.539 22.8672H572.206C573.673 22.8672 574.864 24.0589 574.864 25.5255V42.7755C574.864 44.2422 576.056 45.4339 577.523 45.4339H596.064C597.531 45.4339 598.723 46.6255 598.723 48.0922V61.5672C598.723 63.0339 597.531 64.2255 596.064 64.2255H577.914C576.448 64.2255 575.256 65.4172 575.256 66.8839V97.9255C575.256 106.284 580.056 111.084 588.573 111.084H596.539C598.006 111.084 599.198 112.276 599.198 113.742V113.734Z" fill="white"/>
<path d="M610.272 86.217C610.272 59.992 630.231 40.542 657.006 40.542C683.781 40.542 703.739 60.017 703.739 86.217C703.739 112.417 683.656 131.892 657.006 131.892C630.356 131.892 610.272 112.292 610.272 86.217ZM680.048 86.217C680.048 72.217 670.481 62.517 657.006 62.517C643.531 62.517 633.964 72.2087 633.964 86.217C633.964 100.225 643.531 109.909 657.006 109.909C670.481 109.909 680.048 100.217 680.048 86.217Z" fill="white"/>
<path d="M803.331 79.4917V129.233C803.331 130.7 802.139 131.892 800.673 131.892H782.606C781.139 131.892 779.948 130.7 779.948 129.233V83.275C779.948 70.2083 774.989 63.9 764.873 63.9C752.823 63.9 745.473 72.5333 745.473 86.4417V129.225C745.473 130.692 744.281 131.883 742.814 131.883H724.756C723.289 131.883 722.098 130.692 722.098 129.225V48.0833C722.098 46.6167 723.289 45.425 724.756 45.425H736.381C737.448 45.425 738.406 46.0583 738.823 47.0417L742.689 56.1167C749.231 48.325 759.564 43.375 771.331 43.375C791.039 43.375 803.323 57.5917 803.323 79.4833L803.331 79.4917Z" fill="white"/>
<path d="M910.248 85.9087C910.248 87.3837 910.182 88.8504 910.057 90.3254C909.94 91.7004 908.782 92.7587 907.407 92.7587H847.715C845.94 92.7587 844.657 94.4754 845.165 96.1837C848.015 105.809 855.315 111.059 865.498 111.059C873.115 111.059 879.448 107.684 883.14 102.159C883.623 101.434 884.473 101.025 885.348 101.025H904.557C906.44 101.025 907.757 102.95 907.023 104.684C899.907 121.409 884.24 131.875 865.507 131.875C839.982 131.875 820.665 112.109 820.665 86.2004C820.665 60.2921 839.848 40.5254 865.507 40.5254C891.165 40.5254 910.265 60.9921 910.265 85.8921L910.248 85.9087ZM848.698 76.8004H882.998C884.94 76.8004 886.24 74.7754 885.415 73.0171C881.598 64.8754 874.648 60.5004 865.49 60.5004C856.332 60.5004 849.623 65.1254 846.24 73.1087C845.498 74.8587 846.798 76.8004 848.698 76.8004Z" fill="white"/>
<path d="M21.3496 122.91C34.9496 136.51 53.0296 144 72.2596 144C91.4896 144 109.57 136.51 123.17 122.91C136.77 109.31 144.26 91.2298 144.26 71.9998C144.26 52.7698 136.77 34.6898 123.17 21.0898L106.2 38.0598C114.9 46.7598 120.28 58.7598 120.28 71.9998C120.28 84.8298 115.28 96.8899 106.21 105.96C97.1396 115.03 85.0796 120.03 72.2496 120.03C59.0096 120.03 46.9996 114.64 38.3096 105.95L21.3496 122.91Z" fill="url(#paint0_linear_202_10323)"/>
<path d="M123.17 21.09C109.57 7.49 91.4898 0 72.2598 0C53.0298 0 34.9498 7.49 21.3498 21.09C7.74977 34.69 0.259766 52.77 0.259766 72C0.259766 91.23 7.74977 109.31 21.3498 122.91L38.3198 105.94C29.6198 97.24 24.2398 85.24 24.2398 72C24.2398 59.17 29.2398 47.11 38.3098 38.04C47.3798 28.97 59.4398 23.97 72.2698 23.97C85.5098 23.97 97.5198 29.36 106.21 38.05L123.17 21.09Z" fill="#5942F3"/>
<path d="M33.9119 118.512C38.5982 113.825 40.5705 108.2 38.3172 105.946C36.0638 103.693 30.4382 105.665 25.7519 110.352C21.0656 115.038 19.0933 120.664 21.3466 122.917C23.5999 125.17 29.2256 123.198 33.9119 118.512Z" fill="#1F00D9"/>
<path d="M118.762 33.665C123.448 28.9787 125.421 23.353 123.167 21.0997C120.914 18.8464 115.288 20.8187 110.602 25.505C105.916 30.1912 103.943 35.8169 106.197 38.0702C108.45 40.3236 114.076 38.3513 118.762 33.665Z" fill="#1F00D9"/>
<path d="M46.79 97.4693C60.83 111.509 83.68 111.509 97.73 97.4693C111.77 83.4293 111.77 60.5793 97.73 46.5293L80.75 63.5393C85.42 68.2093 85.42 75.8093 80.75 80.4793C76.08 85.1493 68.48 85.1493 63.81 80.4793L46.8 97.4593L46.79 97.4693Z" fill="#5942F3"/>
<path d="M63.77 80.4598C59.1 75.7898 59.1 68.1898 63.77 63.5198C68.44 58.8498 76.04 58.8498 80.71 63.5198L97.72 46.5398C83.68 32.4998 60.83 32.4998 46.78 46.5398C32.74 60.5798 32.74 83.4298 46.78 97.4798L63.76 80.4698L63.77 80.4598Z" fill="url(#paint1_linear_202_10323)"/>
<path d="M93.3123 59.1025C97.9986 54.4162 99.9709 48.7905 97.7176 46.5372C95.4642 44.2838 89.8386 46.2562 85.1523 50.9425C80.466 55.6287 78.4937 61.2544 80.747 63.5077C83.0003 65.7611 88.626 63.7888 93.3123 59.1025Z" fill="#1F00D9"/>
<path d="M59.3592 93.0663C64.0455 88.38 66.0178 82.7544 63.7644 80.501C61.5111 78.2477 55.8854 80.22 51.1991 84.9063C46.5129 89.5926 44.5405 95.2183 46.7939 97.4716C49.0472 99.7249 54.6729 97.7526 59.3592 93.0663Z" fill="#1F00D9"/>
<defs>
<linearGradient id="paint0_linear_202_10323" x1="46.8055" y1="148.357" x2="148.622" y2="46.5402" gradientUnits="userSpaceOnUse">
<stop stop-color="#AAC700"/>
<stop offset="1" stop-color="#D7F067"/>
</linearGradient>
<linearGradient id="paint1_linear_202_10323" x1="36.25" y1="66.7398" x2="97.72" y2="66.7398" gradientUnits="userSpaceOnUse">
<stop stop-color="#AAC700"/>
<stop offset="1" stop-color="#D7F067"/>
</linearGradient>
</defs>
</svg>
