<svg width="320" height="320" viewBox="0 0 320 320" fill="none" xmlns="http://www.w3.org/2000/svg">
<rect width="320" height="320" rx="160" fill="white"/>
<path d="M198.546 194.136C197.849 193.439 196.758 193.469 196.061 194.136C177.818 211.075 149.303 210.681 131.546 192.924L114.939 209.53C141.849 236.439 185.182 236.863 212.606 210.833C213.333 210.136 213.333 208.954 212.606 208.227L198.546 194.166V194.136Z" fill="#020617"/>
<path d="M198.576 125.862C197.879 126.558 196.788 126.558 196.061 125.862C177.818 108.922 149.303 109.346 131.546 127.104L114.939 110.498C141.818 83.6191 185.152 83.1646 212.576 109.195C213.333 109.892 213.333 111.104 212.576 111.831L198.546 125.862H198.576Z" fill="#020617"/>
<path d="M131.544 192.885L163.15 161.279C163.878 160.552 163.878 159.4 163.15 158.703L131.544 127.097C113.393 145.249 113.393 174.703 131.544 192.885Z" fill="#020617"/>
<path d="M114.939 110.524L99.6364 95.221C98.9091 94.4937 97.7273 94.4937 97.0303 95.221C79.6667 113.282 71 136.645 71 160.009C71 183.372 79.6667 206.736 97.0303 224.797C97.7273 225.524 98.9091 225.524 99.6364 224.797L114.939 209.494C101.273 195.827 94.4242 177.918 94.4242 160.009C94.4242 142.1 101.273 124.191 114.939 110.524Z" fill="#020617"/>
</svg>
