<svg width="406" height="60" viewBox="0 0 406 60" fill="none" xmlns="http://www.w3.org/2000/svg">
<g clip-path="url(#clip0_2699_29838)">
<path d="M120.486 39.6798H113.047C112.778 39.6798 112.548 39.8462 112.445 40.0895C111.677 42.1126 110.409 43.7003 108.681 44.7758C106.927 45.877 104.865 46.4275 102.535 46.4275C99.9357 46.4275 97.6565 45.7873 95.7615 44.5069C93.8665 43.2265 92.3685 41.3443 91.3185 38.9115C90.2558 36.4403 89.718 33.4442 89.718 29.9743C89.718 26.5044 90.2558 23.5082 91.3185 21.037C92.3685 18.6042 93.8665 16.722 95.7615 15.4416C97.6565 14.174 99.9229 13.521 102.535 13.521C104.904 13.521 106.965 14.0716 108.681 15.1471C110.371 16.2099 111.6 17.7207 112.33 19.6286C112.42 19.8718 112.663 20.0383 112.932 20.0383H120.435C120.64 20.0383 120.819 19.9487 120.947 19.7822C121.075 19.6158 121.101 19.4109 121.05 19.2188C120.333 16.6324 119.091 14.3789 117.362 12.5351C115.646 10.6913 113.495 9.25724 110.973 8.28413C108.476 7.32382 105.646 6.82446 102.599 6.82446C98.1559 6.82446 94.2635 7.79757 91.024 9.70538C87.7718 11.626 85.2622 14.3661 83.5592 17.836C81.8691 21.2931 80.9984 25.3648 80.9984 29.9487C80.9984 34.5325 81.8563 38.6042 83.5592 42.0613C85.2622 45.5441 87.7718 48.2713 90.9984 50.1919C94.225 52.1126 98.1047 53.0729 102.548 53.0729C106.991 53.0729 111.152 51.9717 114.43 49.795C117.721 47.6055 119.974 44.4557 121.114 40.4352C121.165 40.2432 121.126 40.0383 121.011 39.8718C120.896 39.7182 120.704 39.6158 120.499 39.6158L120.486 39.6798Z" fill="white"/>
<path d="M197.041 44.7769H176.171V8.49006C176.171 8.13154 175.889 7.84985 175.531 7.84985H168.399C168.04 7.84985 167.758 8.13154 167.758 8.49006V51.5118C167.758 51.8703 168.04 52.152 168.399 52.152H197.041C197.4 52.152 197.682 51.8703 197.682 51.5118V45.4171C197.682 45.0586 197.4 44.7769 197.041 44.7769Z" fill="white"/>
<path d="M276.261 7.84985H240.551C240.192 7.84985 239.91 8.13154 239.91 8.49006V14.1495C239.91 14.508 240.192 14.7897 240.551 14.7897H254.225V51.5118C254.225 51.8703 254.507 52.152 254.866 52.152H261.997C262.356 52.152 262.638 51.8703 262.638 51.5118V14.7897H276.261C276.62 14.7897 276.901 14.508 276.901 14.1495V8.49006C276.901 8.13154 276.62 7.84985 276.261 7.84985Z" fill="white"/>
<path d="M310.589 9.75543C307.35 7.83482 303.573 6.87451 299.386 6.87451C295.199 6.87451 291.422 7.84762 288.182 9.75543C284.93 11.676 282.395 14.4289 280.653 17.9116C278.912 21.3816 278.041 25.4533 278.041 29.9987C278.041 34.5442 278.925 38.6159 280.653 42.0858C282.395 45.5813 284.93 48.3342 288.182 50.2548C291.422 52.1754 295.186 53.1357 299.386 53.1357C303.586 53.1357 307.35 52.1626 310.589 50.2548C313.842 48.3342 316.377 45.5941 318.118 42.0858C319.86 38.6159 320.73 34.5442 320.73 29.9987C320.73 25.4533 319.847 21.3944 318.118 17.9116C316.364 14.4161 313.842 11.6632 310.589 9.74263V9.75543ZM312.011 29.9987C312.011 33.379 311.486 36.3367 310.461 38.7823C309.45 41.1895 307.977 43.0461 306.082 44.3009C304.187 45.5557 301.934 46.1959 299.373 46.1959C296.812 46.1959 294.546 45.5557 292.664 44.3009C290.769 43.0461 289.283 41.1895 288.259 38.7695C287.209 36.3239 286.684 33.3662 286.684 29.9859C286.684 26.6056 287.222 23.6479 288.259 21.2023C289.283 18.7951 290.769 16.9385 292.664 15.6709C294.559 14.4161 296.812 13.7759 299.373 13.7759C301.934 13.7759 304.2 14.4161 306.082 15.6709C307.977 16.9257 309.45 18.7823 310.461 21.1895C311.486 23.6351 312.011 26.5928 312.011 29.9731V29.9987Z" fill="white"/>
<path d="M364.175 7.84985H357.171C356.812 7.84985 356.531 8.13154 356.531 8.49006V38.2468L336.185 8.13154C336.07 7.95229 335.865 7.84985 335.66 7.84985H328.349C327.99 7.84985 327.709 8.13154 327.709 8.49006V51.5118C327.709 51.8703 327.99 52.152 328.349 52.152H335.417C335.775 52.152 336.057 51.8703 336.057 51.5118V21.7423L356.339 51.8703C356.454 52.0496 356.659 52.152 356.876 52.152H364.187C364.546 52.152 364.828 51.8703 364.828 51.5118V8.49006C364.828 8.13154 364.546 7.84985 364.187 7.84985H364.175Z" fill="white"/>
<path d="M246.249 51.2942L230.333 8.27239C230.243 8.01631 230 7.84985 229.731 7.84985H218.566C218.297 7.84985 218.067 8.01631 217.964 8.25958L201.677 51.2814C201.601 51.4734 201.626 51.7039 201.754 51.8703C201.87 52.0496 202.074 52.152 202.279 52.152H209.411C209.68 52.152 209.923 51.9856 210.013 51.7295L214.776 38.8742H232.996L237.619 51.7295C237.708 51.9856 237.951 52.152 238.22 52.152H245.66C245.864 52.152 246.069 52.0496 246.185 51.8831C246.3 51.7167 246.338 51.4862 246.261 51.2942H246.249ZM223.547 15.1482H224.443L230.359 31.5758H217.465L223.547 15.1482Z" fill="white"/>
<path d="M53.8924 44.4184C53.5979 44.1239 53.137 44.1367 52.8425 44.4184C45.1344 51.5759 33.0858 51.4095 25.5826 43.9062L18.5659 50.9229C29.936 62.2929 48.2458 62.4722 59.8335 51.4735C60.1408 51.179 60.1408 50.6796 59.8335 50.3723L53.8924 44.4312V44.4184Z" fill="white"/>
<path d="M53.9052 15.5702C53.6107 15.8647 53.1498 15.8647 52.8425 15.5702C45.1344 8.41275 33.0858 8.59201 25.5826 16.0952L18.5659 9.07856C29.9232 -2.27867 48.233 -2.47073 59.8207 8.52799C60.1408 8.82248 60.1408 9.33464 59.8207 9.64194L53.8924 15.5702H53.9052Z" fill="white"/>
<path d="M25.5821 43.8902L38.9367 30.5356C39.244 30.2283 39.244 29.7417 38.9367 29.4472L25.5821 16.0925C17.9124 23.7622 17.9124 36.2078 25.5821 43.8902Z" fill="white"/>
<path d="M18.5659 9.08961L12.0999 2.62354C11.7926 2.31624 11.2932 2.31624 10.9987 2.62354C3.66197 10.2548 0 20.1267 0 29.9987C0 39.8707 3.66197 49.7426 10.9987 57.3739C11.2932 57.6812 11.7926 57.6812 12.0999 57.3739L18.5659 50.9078C12.7913 45.1331 9.89757 37.5659 9.89757 29.9987C9.89757 22.4315 12.7913 14.8643 18.5659 9.08961Z" fill="white"/>
<path d="M404.942 44.8537H379.705V33.2148H398.463C398.821 33.2148 399.103 32.9331 399.103 32.5746V26.5566C399.103 26.1981 398.821 25.9164 398.463 25.9164H379.705V15.1482H404.327C404.686 15.1482 404.967 14.8665 404.967 14.508V8.49006C404.967 8.13154 404.686 7.84985 404.327 7.84985H373.418C373.06 7.84985 372.778 8.13154 372.778 8.49006V51.5118C372.778 51.8703 373.06 52.152 373.418 52.152H404.942C405.3 52.152 405.582 51.8703 405.582 51.5118V45.4939C405.582 45.1354 405.3 44.8537 404.942 44.8537Z" fill="white"/>
<path d="M160.205 44.8537H134.968V33.2148H153.726C154.085 33.2148 154.366 32.9331 154.366 32.5746V26.5566C154.366 26.1981 154.085 25.9164 153.726 25.9164H134.968V15.1482H159.59C159.949 15.1482 160.231 14.8665 160.231 14.508V8.49006C160.231 8.13154 159.949 7.84985 159.59 7.84985H128.681C128.323 7.84985 128.041 8.13154 128.041 8.49006V51.5118C128.041 51.8703 128.323 52.152 128.681 52.152H160.205C160.563 52.152 160.845 51.8703 160.845 51.5118V45.4939C160.845 45.1354 160.563 44.8537 160.205 44.8537Z" fill="white"/>
</g>
<defs>
<clipPath id="clip0_2699_29838">
<rect width="405.634" height="60" fill="white"/>
</clipPath>
</defs>
</svg>
