<svg width="168" height="85" viewBox="0 0 168 85" fill="none" xmlns="http://www.w3.org/2000/svg">
<g clip-path="url(#clip0_203_80932)">
<path d="M53.8623 57.4423V51.7857H41.0002V45.8901L50.0485 29.5577H58.6481V47.2445H62.9853V51.7857H58.6481V57.4423H53.8623ZM45.5618 47.2445H53.8623V32.8242H53.1892L45.5618 46.6071V47.2445Z" fill="#7C7F83"/>
<path d="M75.9125 58C72.8216 58 70.3414 57.0971 68.4719 55.2912C66.6025 53.4588 65.6677 50.6969 65.6677 47.0055V39.9945C65.6677 36.4093 66.6025 33.6873 68.4719 31.8283C70.3414 29.9428 72.8216 29 75.9125 29C79.0283 29 81.5084 29.9428 83.353 31.8283C85.2225 33.6873 86.1572 36.4093 86.1572 39.9945V47.0055C86.1572 50.6969 85.2225 53.4588 83.353 55.2912C81.5084 57.0971 79.0283 58 75.9125 58ZM75.9125 53.4588C77.7819 53.4588 79.1529 52.9144 80.0253 51.8255C80.9227 50.7367 81.3713 49.1831 81.3713 47.1648V39.7555C81.3713 37.7106 80.8728 36.1703 79.8758 35.1346C78.9036 34.0723 77.5825 33.5412 75.9125 33.5412C74.1925 33.5412 72.8465 34.0856 71.8744 35.1745C70.9272 36.2633 70.4536 37.7903 70.4536 39.7555V47.1648C70.4536 49.2628 70.9023 50.8429 71.7996 51.9052C72.7219 52.9409 74.0928 53.4588 75.9125 53.4588Z" fill="#7C7F83"/>
<path d="M101.877 57.4423V51.7857H89.0152V45.8901L98.0634 29.5577H106.663V47.2445H111V51.7857H106.663V57.4423H101.877ZM93.5767 47.2445H101.877V32.8242H101.204L93.5767 46.6071V47.2445Z" fill="#7C7F83"/>
<path d="M0.00783157 47.6624L11.0885 47.6624C11.0885 62.1367 22.866 73.9167 37.3374 73.9167L37.3374 84.9996C16.7501 84.9996 0.00782304 68.246 -7.62939e-06 47.6624L0.00783157 47.6624Z" fill="#26282B"/>
<path d="M0.000158194 47.6631C0.000158129 49.1338 2.48238 50.3261 5.54438 50.3261C8.60637 50.3261 11.0886 49.1338 11.0886 47.6631C11.0886 46.1923 8.60637 45 5.54438 45C2.48238 45 0.000158258 46.1923 0.000158194 47.6631Z" fill="#7C7F83"/>
<path d="M34.6753 79.4538C34.6753 82.5165 35.8673 84.9992 37.3378 84.9992C38.8082 84.9992 40.0002 82.5165 40.0002 79.4538C40.0002 76.3912 38.8082 73.9084 37.3378 73.9084C35.8673 73.9084 34.6753 76.3912 34.6753 79.4538Z" fill="#7C7F83"/>
<path d="M115.194 85H161.806C166.572 85 169.543 79.7958 167.16 75.6512L143.854 35.1085C141.471 30.9638 135.529 30.9638 133.146 35.1085L109.84 75.6512C107.457 79.7958 110.428 85 115.194 85Z" fill="#3B3E41"/>
<rect x="141.266" y="70.3794" width="5.53125" height="23.7586" rx="2.76563" transform="rotate(-180 141.266 70.3794)" fill="#7C7F83"/>
<ellipse cx="138.5" cy="74.9482" rx="2.76562" ry="2.74138" fill="#7C7F83"/>
<path d="M50.6089 0L1.94678 0L1.94678 12L50.6089 12V0Z" fill="#26282B"/>
<path d="M2.33603 12C3.62604 12 4.67181 9.31376 4.67181 6.00004C4.67181 2.68632 3.62604 0 2.33603 0C1.04601 0 0.000244141 2.68632 0.000244141 6.00004C0.000244141 9.31376 1.04601 12 2.33603 12Z" fill="#7C7F83"/>
<path d="M50.9979 12C52.2879 12 53.3337 9.31376 53.3337 6.00004C53.3337 2.68632 52.2879 0 50.9979 0C49.7079 0 48.6621 2.68632 48.6621 6.00004C48.6621 9.31376 49.7079 12 50.9979 12Z" fill="#7C7F83"/>
</g>
<defs>
<clipPath id="clip0_203_80932">
<rect width="168" height="85" fill="white"/>
</clipPath>
</defs>
</svg>
