<svg width="113" height="82" viewBox="0 0 113 82" fill="none" xmlns="http://www.w3.org/2000/svg">
<g clip-path="url(#clip0_1596_351751)">
<rect width="76.3341" height="55.8221" rx="6" transform="matrix(0.961174 -0.275942 0.242614 0.970123 20.751 21.0637)" fill="#26282B"/>
<rect x="18.7368" y="15.1052" width="90.6316" height="66.8947" rx="6" fill="#7C7F83"/>
<rect x="27.3684" y="23.7368" width="73.3684" height="49.6316" rx="3" fill="#A1A6AA"/>
<path d="M71.6055 45.9211C71.6055 42.6074 74.2918 39.9211 77.6055 39.9211H111.605C112.158 39.9211 112.605 40.3689 112.605 40.9211V56.1843C112.605 56.7366 112.158 57.1843 111.605 57.1843H77.6055C74.2918 57.1843 71.6055 54.498 71.6055 51.1843V45.9211Z" fill="#3B3E41"/>
<circle cx="79.1577" cy="48.5525" r="3.23684" fill="#7C7F83"/>
<circle cx="21.9737" cy="21.5789" r="21.5789" fill="#3B3E41"/>
<rect x="24.5125" y="26.6562" width="5.0774" height="19.0402" rx="2.5387" transform="rotate(-180 24.5125 26.6562)" fill="#7C7F83"/>
<circle cx="21.9738" cy="33.0031" r="2.5387" fill="#7C7F83"/>
</g>
<defs>
<clipPath id="clip0_1596_351751">
<rect width="113" height="82" fill="white"/>
</clipPath>
</defs>
</svg>
