<svg width="124" height="85" viewBox="0 0 124 85" fill="none" xmlns="http://www.w3.org/2000/svg">
<g clip-path="url(#clip0_10475_177392)">
<path d="M0.00783104 47.6624L11.0885 47.6624C11.0885 62.1367 22.866 73.9167 37.3374 73.9167L37.3374 84.9996C16.7501 84.9996 0.00782249 68.246 -7.44431e-06 47.6624L0.00783104 47.6624Z" fill="#26282B"/>
<path d="M-8.59471e-05 47.6631C-8.60114e-05 49.1338 2.48214 50.3261 5.54413 50.3261C8.60613 50.3261 11.0884 49.1338 11.0884 47.6631C11.0884 46.1923 8.60613 45 5.54413 45C2.48214 45 -8.58828e-05 46.1923 -8.59471e-05 47.6631Z" fill="#7C7F83"/>
<path d="M34.675 79.4538C34.675 82.5165 35.8671 84.9992 37.3375 84.9992C38.808 84.9992 40 82.5165 40 79.4538C40 76.3912 38.808 73.9084 37.3375 73.9084C35.8671 73.9084 34.675 76.3912 34.675 79.4538Z" fill="#7C7F83"/>
<circle cx="58.5" cy="40.5" r="36.5" fill="#3B3E41"/>
<rect x="62.7939" y="49.0881" width="8.58824" height="32.2059" rx="4.29412" transform="rotate(-180 62.7939 49.0881)" fill="#7C7F83"/>
<circle cx="58.5002" cy="59.8234" r="4.29412" fill="#7C7F83"/>
<path d="M50.6089 0L1.94678 0L1.94678 12L50.6089 12V0Z" fill="#26282B"/>
<path d="M2.33603 12C3.62604 12 4.67181 9.31376 4.67181 6.00004C4.67181 2.68632 3.62604 0 2.33603 0C1.04601 0 0.000244141 2.68632 0.000244141 6.00004C0.000244141 9.31376 1.04601 12 2.33603 12Z" fill="#7C7F83"/>
<path d="M50.9979 12C52.2879 12 53.3337 9.31376 53.3337 6.00004C53.3337 2.68632 52.2879 0 50.9979 0C49.7079 0 48.6621 2.68632 48.6621 6.00004C48.6621 9.31376 49.7079 12 50.9979 12Z" fill="#7C7F83"/>
<path fill-rule="evenodd" clip-rule="evenodd" d="M106.276 69.7613L100.179 63.6635L103.664 60.1785L109.761 66.2763L106.276 69.7613Z" fill="#26282B"/>
<circle cx="94.4286" cy="54.4286" r="10.6786" fill="#A1A6AA" fill-opacity="0.7"/>
<path fill-rule="evenodd" clip-rule="evenodd" d="M121.607 81.607C120.003 83.2109 117.403 83.2109 115.799 81.607L105.107 70.9156L110.916 65.1072L121.607 75.7986C123.211 77.4026 123.211 80.0031 121.607 81.607V81.607Z" fill="#3B3E41"/>
<path d="M83.5146 65.4641C86.4617 68.4112 90.382 70.034 94.5505 70.0341C98.719 70.0342 102.639 68.4115 105.586 65.4645C108.533 62.5175 110.156 58.5973 110.156 54.4288C110.156 50.2603 108.533 46.3401 105.586 43.393L101.906 47.0724C103.793 48.9585 104.959 51.5595 104.959 54.4287C104.959 57.2077 103.878 59.8237 101.912 61.79C99.9453 63.7564 97.3319 64.8398 94.5504 64.8373C91.6811 64.8372 89.0776 63.6684 87.194 61.7848L83.5172 65.4616L83.5146 65.4641Z" fill="#3B3E41"/>
<path d="M105.586 43.3931C102.638 40.446 98.7182 38.8231 94.5497 38.8231C90.3812 38.823 86.4636 40.4432 83.5141 43.3927C80.5671 46.3397 78.9444 50.2598 78.9444 54.4283C78.9445 58.5968 80.5673 62.517 83.5144 65.4641L87.1938 61.7848C85.3076 59.8987 84.1413 57.2977 84.1413 54.4284C84.1412 51.6494 85.2222 49.0335 87.1885 47.0671C89.1549 45.1008 91.7683 44.0173 94.5498 44.0199C97.4191 44.0199 100.023 45.1888 101.906 47.0724L105.583 43.3956L105.586 43.3931Z" fill="#26282B"/>
<path d="M86.2355 64.5086C87.2508 63.4933 87.6787 62.2749 87.1911 61.7873C86.7035 61.2997 85.4851 61.7275 84.4698 62.7429C83.4544 63.7582 83.0266 64.9766 83.5142 65.4642C84.0018 65.9518 85.2202 65.524 86.2355 64.5086Z" fill="#3B3E41"/>
<path d="M104.63 46.1143C105.645 45.099 106.073 43.8806 105.586 43.393C105.098 42.9054 103.88 43.3333 102.864 44.3486C101.849 45.3639 101.421 46.5823 101.909 47.0699C102.396 47.5575 103.615 47.1297 104.63 46.1143Z" fill="#3B3E41"/>
</g>
<defs>
<clipPath id="clip0_10475_177392">
<rect width="124" height="85" fill="white"/>
</clipPath>
</defs>
</svg>
