<svg width="150" height="150" viewBox="0 0 150 150" fill="none" xmlns="http://www.w3.org/2000/svg">
<g clip-path="url(#clip0_4013_45954)">
<path d="M150 0H0V150H150V0Z" fill="url(#paint0_linear_4013_45954)"/>
<path fill-rule="evenodd" clip-rule="evenodd" d="M90.1109 49.5263L75.2955 41.1289C75.1836 41.0655 75.0465 41.0655 74.9346 41.1289L60.1193 49.5263L45.4394 58.158C45.3284 58.2232 45.2599 58.3419 45.2589 58.4706L45.1235 75.4997L45.2589 92.5288C45.2599 92.6574 45.3284 92.7761 45.4394 92.8413L60.1193 101.473L74.9346 109.87C75.0466 109.934 75.1836 109.934 75.2955 109.87L90.1108 101.473L104.791 92.8413C104.902 92.7761 104.97 92.6574 104.971 92.5288L105.107 75.4997L104.971 58.4706C104.97 58.3419 104.902 58.2232 104.791 58.158L90.1109 49.5263ZM111.105 75.4997L110.969 58.4229C110.952 56.1853 109.76 54.1215 107.831 52.9873L93.1101 44.3314L78.2533 35.9105C76.3066 34.8072 73.9235 34.8072 71.9768 35.9105L57.12 44.3314L42.399 52.9873C40.4701 54.1215 39.2785 56.1853 39.2607 58.4229L39.125 75.4997L39.2607 92.5764C39.2785 94.814 40.4701 96.8778 42.399 98.012L57.12 106.668L71.9768 115.089C73.9235 116.192 76.3066 116.192 78.2533 115.089L93.1101 106.668L107.831 98.012C109.76 96.8778 110.952 94.814 110.969 92.5764L111.105 75.4997Z" fill="#3B3E41"/>
<path d="M98.9084 65.0752C99.0188 65.0752 99.1084 65.1647 99.1084 65.2752V68.5198C99.1084 68.6302 99.0188 68.7198 98.9084 68.7198H94.3602C94.2498 68.7198 94.1602 68.8093 94.1602 68.9198V83.5503C94.1602 83.6608 94.0707 83.7503 93.9602 83.7503H89.8112C89.7007 83.7503 89.6112 83.6608 89.6112 83.5503V68.9198C89.6112 68.8093 89.5216 68.7198 89.4112 68.7198H84.8631C84.7526 68.7198 84.6631 68.6302 84.6631 68.5198V65.2752C84.6631 65.1647 84.7526 65.0752 84.8631 65.0752H98.9084Z" fill="#3B3E41"/>
<path d="M83.0834 65.0752C83.1939 65.0752 83.2834 65.1647 83.2834 65.2752V68.5198C83.2834 68.6302 83.1939 68.7198 83.0834 68.7198H75.8751C75.7646 68.7198 75.6751 68.8093 75.6751 68.9198V72.457C75.6751 72.5674 75.7646 72.657 75.8751 72.657H81.168C81.2785 72.657 81.368 72.7465 81.368 72.857V75.9951C81.368 76.1056 81.2785 76.1951 81.168 76.1951H75.8751C75.7646 76.1951 75.6751 76.2847 75.6751 76.3951V83.5503C75.6751 83.6608 75.5855 83.7503 75.4751 83.7503H71.326C71.2155 83.7503 71.126 83.6608 71.126 83.5503V65.2752C71.126 65.1647 71.2155 65.0752 71.326 65.0752H83.0834Z" fill="#3B3E41"/>
<path d="M67.8281 83.5503C67.8281 83.6608 67.7386 83.7503 67.6281 83.7503H63.3866C63.3194 83.7503 63.2568 83.7166 63.2197 83.6605L56.0375 72.7868C55.9282 72.6213 55.6707 72.6987 55.6707 72.897V83.5503C55.6707 83.6608 55.5811 83.7503 55.4707 83.7503H51.3216C51.2111 83.7503 51.1216 83.6608 51.1216 83.5503V65.2752C51.1216 65.1647 51.2111 65.0752 51.3216 65.0752H55.5628C55.6301 65.0752 55.6929 65.1091 55.7299 65.1653L62.9119 76.089C63.021 76.2549 63.279 76.1777 63.279 75.9791V65.2752C63.279 65.1647 63.3686 65.0752 63.479 65.0752H67.6281C67.7386 65.0752 67.8281 65.1647 67.8281 65.2752V83.5503Z" fill="#3B3E41"/>
</g>
<defs>
<linearGradient id="paint0_linear_4013_45954" x1="-48" y1="199" x2="176.5" y2="-27" gradientUnits="userSpaceOnUse">
<stop stop-color="#151617"/>
<stop offset="1" stop-color="#26282B"/>
</linearGradient>
<clipPath id="clip0_4013_45954">
<rect width="150" height="150" fill="white"/>
</clipPath>
</defs>
</svg>
