<svg xmlns="http://www.w3.org/2000/svg" viewBox="0 0 32 32">
  <circle fill="white" cx="16" cy="16" r="16"/>
  <path fill="black" d="M9.97 10.03a3.325 3.325 0 0 1 5.141.545c.837 1.288.621 5.217.621 5.217s-3.934.214-5.22-.624a3.29 3.29 0 0 1-.532-.437 3.325 3.325 0 0 1 0-4.698l-.01-.002Zm5.198 11.458c-.126.192-.272.37-.436.532a3.325 3.325 0 0 1-4.697 0 3.325 3.325 0 0 1 .544-5.139c1.288-.836 5.217-.622 5.217-.622s.211 3.943-.628 5.23Zm1.665-10.978a3.27 3.27 0 0 1 .436-.531 3.325 3.325 0 0 1 4.699 0 3.325 3.325 0 0 1-.544 5.139c-1.29.836-5.217.622-5.217.622s-.213-3.942.626-5.23Zm5.197 11.46a3.325 3.325 0 0 1-5.14-.545c-.835-1.29-.62-5.217-.62-5.217s3.933-.214 5.22.624a3.325 3.325 0 0 1 .539 5.135l.001.002Z" />
  <style>
    @media (prefers-color-scheme: light) {
      circle { fill: black }
      path { fill: white; transform: scale(0.9); transform-origin: center }
    }
  </style>
</svg>
