<svg width="660" height="216" viewBox="0 0 660 216" fill="none" xmlns="http://www.w3.org/2000/svg">
<g clip-path="url(#clip0_219_1799)">
<path d="M125.347 32.8257C125.037 31.9402 124.196 31.3647 123.266 31.3647H84.528C83.5982 31.3647 82.8013 31.9402 82.4472 32.7814L26.1328 181.581C25.8672 182.245 25.9557 183.042 26.3985 183.617C26.7969 184.237 27.5053 184.591 28.2136 184.591H52.8733C53.803 184.591 54.6442 184.016 54.9541 183.13L71.4234 138.681H134.556L150.538 183.13C150.848 184.016 151.689 184.591 152.619 184.591H178.341C179.049 184.591 179.758 184.237 180.156 183.661C180.555 183.086 180.687 182.289 180.422 181.625L125.347 32.8257ZM125.436 113.445H80.7205L101.75 56.6442H104.982L125.436 113.445Z" fill="white"/>
<path d="M351.623 159.356H225.889V33.6226C225.889 32.383 224.915 31.409 223.676 31.409H202.868C201.628 31.409 200.654 32.383 200.654 33.6226V182.377C200.654 183.617 201.628 184.591 202.868 184.591H351.623C352.862 184.591 353.836 183.617 353.836 182.377V161.569C353.836 160.33 352.862 159.356 351.623 159.356Z" fill="white"/>
<path d="M351.623 92.8589H292.209V33.6226C292.209 32.383 291.235 31.409 289.996 31.409H269.188C267.948 31.409 266.974 32.383 266.974 33.6226V115.925C266.974 117.164 267.948 118.138 269.188 118.138H351.623C352.862 118.138 353.836 117.164 353.836 115.925V95.1168C353.836 93.8772 352.862 92.9032 351.623 92.9032V92.8589Z" fill="white"/>
<path d="M490.815 159.356H403.554V119.112H468.413C469.652 119.112 470.626 118.138 470.626 116.899V96.0908C470.626 94.8511 469.652 93.8771 468.413 93.8771H403.554V56.6442H488.69C489.929 56.6442 490.903 55.6702 490.903 54.4305V33.6226C490.903 32.383 489.929 31.409 488.69 31.409H381.816C380.577 31.409 379.603 32.383 379.603 33.6226V182.377C379.603 183.617 380.577 184.591 381.816 184.591H490.815C492.054 184.591 493.028 183.617 493.028 182.377V161.569C493.028 160.33 492.054 159.356 490.815 159.356Z" fill="white"/>
<path d="M628.457 120.795C625.402 114.951 620.621 109.904 614.334 105.831C608.136 101.802 600.211 98.6586 590.781 96.4892L563.554 90.114C554.567 88.0775 548.059 85.3769 544.074 82.0564C540.311 78.9131 538.496 74.9729 538.496 69.9258C538.496 66.1627 539.647 63.0194 541.993 60.1859C544.428 57.3082 547.837 55.0061 552.132 53.4123C556.559 51.7299 561.695 50.8888 567.494 50.8888C575.773 50.8888 582.945 52.8367 588.789 56.6884C594.633 60.5401 598.352 65.5429 600.211 72.0066C600.477 72.9364 601.362 73.6004 602.336 73.6004H627.218C627.882 73.6004 628.501 73.3348 628.9 72.8035C629.298 72.3165 629.52 71.6525 629.387 71.0327C627.926 61.9126 624.473 53.9878 619.116 47.5683C613.803 41.1489 606.719 36.1904 598.131 32.8699C589.63 29.5938 579.669 27.9557 568.557 27.9557C556.869 27.9557 546.465 29.7266 537.655 33.2241C528.756 36.7659 521.717 41.8129 516.758 48.2767C511.711 54.829 509.188 62.5766 509.188 71.4311C509.188 82.145 512.597 91.2651 519.37 98.4372C526.011 105.521 536.194 110.745 549.564 113.932L576.747 120.529C586.797 122.964 593.925 126.152 597.954 129.959C601.85 133.678 603.753 138.282 603.753 144.082C603.753 148.288 602.602 151.83 600.167 154.929C597.732 158.028 594.058 160.507 589.143 162.278C584.096 164.093 577.942 165.023 570.859 165.023C564.926 165.023 559.348 164.049 554.301 162.189C549.298 160.33 545.048 157.718 541.684 154.397C538.363 151.121 536.017 147.314 534.733 143.019C534.467 142.09 533.582 141.426 532.608 141.426H506.885C506.221 141.426 505.602 141.735 505.159 142.222C504.76 142.754 504.583 143.418 504.672 144.038C506.443 153.158 510.294 161.127 516.138 167.723C521.938 174.276 529.641 179.323 538.894 182.776C548.103 186.185 558.817 187.911 570.815 187.911C582.812 187.911 594.013 186.008 603.31 182.245C612.74 178.437 620.09 172.903 625.181 165.864C630.317 158.78 632.929 150.28 632.929 140.673C632.929 133.279 631.379 126.55 628.324 120.75L628.457 120.795Z" fill="white"/>
</g>
<defs>
<clipPath id="clip0_219_1799">
<rect width="607.061" height="160" fill="white" transform="translate(26 28)"/>
</clipPath>
</defs>
</svg>
