<svg width="740" height="518" viewBox="0 0 740 518" fill="none" xmlns="http://www.w3.org/2000/svg">
<path d="M267.622 304.826V285.542H223.774V265.443L254.62 209.765H283.937V270.061H298.723V285.542H283.937V304.826H267.622ZM239.324 270.061H267.622V220.9H265.327L239.324 267.888V270.061Z" fill="#4C4C4C"/>
<path d="M342.793 306.727C332.256 306.727 323.801 303.649 317.428 297.493C311.054 291.246 307.868 281.83 307.868 269.246V245.345C307.868 233.122 311.054 223.843 317.428 217.505C323.801 211.077 332.256 207.863 342.793 207.863C353.415 207.863 361.87 211.077 368.159 217.505C374.532 223.843 377.719 233.122 377.719 245.345V269.246C377.719 281.83 374.532 291.246 368.159 297.493C361.87 303.649 353.415 306.727 342.793 306.727ZM342.793 291.246C349.166 291.246 353.84 289.39 356.814 285.678C359.873 281.966 361.403 276.67 361.403 269.789V244.53C361.403 237.559 359.703 232.308 356.304 228.777C352.99 225.155 348.487 223.345 342.793 223.345C336.93 223.345 332.341 225.201 329.027 228.913C325.798 232.625 324.183 237.83 324.183 244.53V269.789C324.183 276.941 325.713 282.328 328.772 285.95C331.916 289.48 336.59 291.246 342.793 291.246Z" fill="#4C4C4C"/>
<path d="M431.31 304.826V285.542H387.462V265.443L418.308 209.765H447.625V270.061H462.411V285.542H447.625V304.826H431.31ZM403.012 270.061H431.31V220.9H429.015L403.012 267.888V270.061Z" fill="#4C4C4C"/>
<path d="M84.0268 281.713L121.802 281.713C121.802 331.058 161.953 371.217 211.287 371.217L211.287 409C141.103 409 84.0268 351.885 84.0001 281.713L84.0268 281.713Z" fill="#232323"/>
<path d="M84.0009 281.715C84.0009 286.729 92.463 290.794 102.902 290.794C113.34 290.794 121.803 286.729 121.803 281.715C121.803 276.701 113.34 272.637 102.902 272.637C92.463 272.637 84.0009 276.701 84.0009 281.715Z" fill="#4C4C4C"/>
<path d="M202.212 390.094C202.212 400.535 206.276 408.999 211.289 408.999C216.302 408.999 220.366 400.535 220.366 390.094C220.366 379.653 216.302 371.189 211.289 371.189C206.276 371.189 202.212 379.653 202.212 390.094Z" fill="#4C4C4C"/>
<path d="M476.711 398.773H635.614C651.863 398.773 661.993 381.032 653.868 366.902L574.417 228.688C566.292 214.558 546.034 214.558 537.909 228.688L458.458 366.902C450.333 381.032 460.462 398.773 476.711 398.773Z" fill="#232323"/>
<path d="M565.592 339.501C565.592 344.708 561.371 348.929 556.163 348.929C550.956 348.929 546.735 344.708 546.735 339.501L546.735 277.362C546.735 272.155 550.956 267.934 556.163 267.934C561.371 267.934 565.592 272.155 565.592 277.362L565.592 339.501Z" fill="#4C4C4C"/>
<path d="M565.592 364.505C565.592 369.667 561.371 373.851 556.164 373.851C550.956 373.851 546.735 369.667 546.735 364.505C546.735 359.344 550.956 355.159 556.164 355.159C561.371 355.159 565.592 359.344 565.592 364.505Z" fill="#4C4C4C"/>
<path d="M256.532 109L90.6373 109V149.909H256.532V109Z" fill="#232323"/>
<path d="M91.964 149.909C96.3618 149.909 99.927 140.752 99.927 129.455C99.927 118.158 96.3618 109 91.964 109C87.5662 109 84.0011 118.158 84.0011 129.455C84.0011 140.752 87.5662 149.909 91.964 149.909Z" fill="#4C4C4C"/>
<path d="M257.858 149.909C262.256 149.909 265.821 140.752 265.821 129.455C265.821 118.158 262.256 109 257.858 109C253.46 109 249.895 118.158 249.895 129.455C249.895 140.752 253.46 149.909 257.858 149.909Z" fill="#4C4C4C"/>
</svg>
