<svg width="741" height="519" viewBox="0 0 741 519" fill="none" xmlns="http://www.w3.org/2000/svg">
<g clip-path="url(#clip0_501_15615)">
<path d="M151.028 277.221L190.274 277.221C190.274 328.307 231.989 369.883 283.245 369.883L283.245 408.999C210.327 408.999 151.028 349.869 151 277.221L151.028 277.221Z" fill="#191919"/>
<path d="M151.001 277.223C151.001 282.414 159.792 286.622 170.637 286.622C181.483 286.622 190.275 282.414 190.275 277.223C190.275 272.032 181.483 267.824 170.637 267.824C159.792 267.824 151.001 272.032 151.001 277.223Z" fill="#4C4C4C"/>
<path d="M273.816 389.426C273.816 400.235 278.038 408.998 283.246 408.998C288.454 408.998 292.676 400.235 292.676 389.426C292.676 378.617 288.454 369.854 283.246 369.854C278.038 369.854 273.816 378.617 273.816 389.426Z" fill="#4C4C4C"/>
<ellipse cx="358.2" cy="251.941" rx="129.279" ry="128.824" fill="#232323"/>
<rect x="373.409" y="282.252" width="30.4185" height="113.668" rx="8" transform="rotate(-180 373.409 282.252)" fill="#4C4C4C"/>
<ellipse cx="358.2" cy="320.142" rx="15.2093" ry="15.1557" fill="#4C4C4C"/>
<path d="M330.25 109L157.895 109V151.354H330.25V109Z" fill="#191919"/>
<path d="M159.274 151.353C163.843 151.353 167.547 141.872 167.547 130.177C167.547 118.481 163.843 109 159.274 109C154.705 109 151.001 118.481 151.001 130.177C151.001 141.872 154.705 151.353 159.274 151.353Z" fill="#4C4C4C"/>
<path d="M331.628 151.354C336.197 151.354 339.901 141.873 339.901 130.177C339.901 118.482 336.197 109 331.628 109C327.059 109 323.355 118.482 323.355 130.177C323.355 141.873 327.059 151.354 331.628 151.354Z" fill="#4C4C4C"/>
<path fill-rule="evenodd" clip-rule="evenodd" d="M527.418 355.217L505.821 333.695L518.164 321.395L539.762 342.917L527.418 355.217Z" fill="#232323"/>
<ellipse opacity="0.7" cx="485.455" cy="301.101" rx="37.8222" ry="37.6891" fill="#AFAFAF"/>
<path fill-rule="evenodd" clip-rule="evenodd" d="M577.098 401.628C573.969 404.747 568.895 404.747 565.765 401.628L523.278 359.29L543.85 338.79L586.337 381.128C589.467 384.246 589.467 389.303 586.337 392.422L577.098 401.628Z" fill="#191919"/>
<path d="M446.799 340.05C457.237 350.451 471.122 356.179 485.886 356.179C500.65 356.179 514.535 350.452 524.973 340.051C535.411 329.65 541.158 315.814 541.158 301.102C541.158 286.389 535.41 272.553 524.972 262.152L511.94 275.138C518.62 281.795 522.751 290.975 522.752 301.101C522.752 310.91 518.923 320.142 511.959 327.082C504.994 334.022 495.738 337.846 485.886 337.837C475.723 337.837 466.502 333.712 459.83 327.064L446.807 340.041L446.799 340.05Z" fill="#232323"/>
<path d="M524.972 262.152C514.533 251.75 500.648 246.023 485.884 246.023C471.12 246.022 457.244 251.741 446.797 262.151C436.359 272.552 430.612 286.388 430.612 301.1C430.612 315.812 436.36 329.648 446.798 340.05L459.83 327.064C453.15 320.407 449.019 311.227 449.019 301.1C449.018 291.292 452.847 282.059 459.812 275.119C466.776 268.179 476.033 264.355 485.884 264.364C496.047 264.365 505.268 268.49 511.94 275.138L524.963 262.161L524.972 262.152Z" fill="#414141"/>
<path d="M456.437 336.677C460.033 333.094 461.548 328.793 459.821 327.073C458.094 325.352 453.779 326.862 450.183 330.445C446.587 334.029 445.071 338.329 446.798 340.05C448.525 341.771 452.841 340.261 456.437 336.677Z" fill="#232323"/>
<path d="M521.587 271.756C525.183 268.173 526.699 263.873 524.972 262.152C523.244 260.431 518.929 261.941 515.333 265.524C511.737 269.108 510.222 273.408 511.949 275.129C513.676 276.85 517.991 275.34 521.587 271.756Z" fill="#232323"/>
</g>
<defs>
<clipPath id="clip0_501_15615">
<rect width="439.193" height="300" fill="white" transform="translate(151 109)"/>
</clipPath>
</defs>
</svg>
