<svg width="741" height="519" viewBox="0 0 741 519" fill="none" xmlns="http://www.w3.org/2000/svg">
<path d="M133.221 196.804C133.221 180.64 146.317 167.536 162.472 167.536H469.612C485.767 167.536 498.863 180.64 498.863 196.804V262.658C498.863 278.822 485.767 291.926 469.612 291.926H162.472C146.317 291.926 133.221 278.822 133.221 262.658V196.804Z" fill="#4C4C4C"/>
<path d="M184.411 213.267C184.411 208.216 188.503 204.121 193.552 204.121H438.532C443.58 204.121 447.673 208.216 447.673 213.267V213.267C447.673 218.318 443.58 222.413 438.532 222.413H193.552C188.503 222.413 184.411 218.318 184.411 213.267V213.267Z" fill="#252525"/>
<path d="M184.411 246.195C184.411 241.144 188.503 237.049 193.552 237.049H358.091C363.139 237.049 367.232 241.144 367.232 246.195V246.195C367.232 251.247 363.139 255.342 358.091 255.342H193.552C188.503 255.342 184.411 251.247 184.411 246.195V246.195Z" fill="#252525"/>
<path d="M217.318 171.195C217.318 205.545 189.489 233.39 155.159 233.39C120.83 233.39 93 205.545 93 171.195C93 136.846 120.83 109 155.159 109C189.489 109 217.318 136.846 217.318 171.195Z" fill="#232323"/>
<path d="M168.455 147.247C171.392 144.308 176.154 144.308 179.091 147.247C182.029 150.186 182.029 154.951 179.091 157.89L141.862 195.141C138.925 198.08 134.163 198.08 131.226 195.141C128.288 192.202 128.288 187.437 131.226 184.498L168.455 147.247Z" fill="#4C4C4C"/>
<path d="M179.094 184.498C182.032 187.437 182.032 192.202 179.094 195.141C176.157 198.08 171.395 198.08 168.458 195.141L131.229 157.89C128.291 154.951 128.291 150.186 131.229 147.247C134.166 144.308 138.928 144.308 141.866 147.247L179.094 184.498Z" fill="#4C4C4C"/>
<path fill-rule="evenodd" clip-rule="evenodd" d="M552.978 331.994L520.018 299.016L538.855 280.168L571.815 313.146L552.978 331.994Z" fill="#252525"/>
<path opacity="0.7" d="M546.657 249.071C546.657 280.967 520.816 306.823 488.938 306.823C457.061 306.823 431.219 280.967 431.219 249.071C431.219 217.175 457.061 191.318 488.938 191.318C520.816 191.318 546.657 217.175 546.657 249.071Z" fill="#AFAFAF"/>
<path fill-rule="evenodd" clip-rule="evenodd" d="M635.841 396.057C627.172 404.731 613.116 404.731 604.446 396.057L546.657 338.234L578.052 306.821L635.841 364.643C644.511 373.318 644.511 387.382 635.841 396.057Z" fill="#232323"/>
<path d="M429.944 308.752C445.874 324.691 467.063 333.468 489.595 333.468C512.126 333.469 533.315 324.693 549.244 308.754C565.173 292.816 573.944 271.615 573.943 249.071C573.943 226.526 565.171 205.325 549.242 189.386L529.354 209.285C539.549 219.486 545.853 233.552 545.854 249.07C545.854 264.1 540.011 278.248 529.383 288.882C518.755 299.516 504.629 305.376 489.594 305.362C474.085 305.362 460.013 299.041 449.832 288.854L429.958 308.739L429.944 308.752Z" fill="#4C4C4C"/>
<path d="M549.242 189.386C533.313 173.448 512.123 164.671 489.592 164.67C467.061 164.67 445.885 173.432 429.943 189.384C414.014 205.322 405.243 226.524 405.243 249.068C405.244 271.612 414.015 292.814 429.945 308.753L449.832 288.854C439.637 278.653 433.333 264.586 433.333 249.068C433.333 234.039 439.175 219.891 449.804 209.257C460.432 198.622 474.558 192.763 489.592 192.776C505.101 192.777 519.173 199.098 529.355 209.285L549.229 189.4L549.242 189.386Z" fill="#232323"/>
<path d="M444.654 303.585C450.142 298.094 452.454 291.505 449.819 288.868C447.183 286.231 440.598 288.545 435.11 294.036C429.622 299.527 427.309 306.116 429.945 308.753C432.58 311.39 439.166 309.077 444.654 303.585Z" fill="#252525"/>
<path d="M544.077 204.102C549.565 198.611 551.877 192.022 549.242 189.385C546.606 186.748 540.021 189.061 534.533 194.553C529.045 200.044 526.732 206.633 529.368 209.27C532.003 211.907 538.589 209.594 544.077 204.102Z" fill="#252525"/>
</svg>
