<svg width="740" height="518" viewBox="0 0 740 518" fill="none" xmlns="http://www.w3.org/2000/svg">
<path d="M647.964 224.278L613.745 224.278C613.745 179.589 577.373 143.218 532.682 143.218L532.682 109C596.26 109 647.964 160.726 647.988 224.278L647.964 224.278Z" fill="#252525"/>
<path d="M647.989 224.278C647.989 219.737 640.323 216.056 630.867 216.056C621.411 216.056 613.745 219.737 613.745 224.278C613.745 228.819 621.411 232.5 630.867 232.5C640.323 232.5 647.989 228.819 647.989 224.278Z" fill="#4C4C4C"/>
<path d="M540.904 126.121C540.904 116.666 537.223 109 532.682 109C528.141 109 524.46 116.666 524.46 126.121C524.46 135.577 528.141 143.243 532.682 143.243C537.223 143.243 540.904 135.577 540.904 126.121Z" fill="#4C4C4C"/>
<path d="M132.245 138.27C132.245 122.106 145.349 109.002 161.513 109.002H468.829C484.993 109.002 498.097 122.106 498.097 138.27V204.123C498.097 220.288 484.993 233.392 468.829 233.392H161.513C145.349 233.392 132.245 220.288 132.245 204.123V138.27Z" fill="#4C4C4C"/>
<path d="M183.464 154.734C183.464 149.683 187.559 145.588 192.61 145.588H437.731C442.782 145.588 446.877 149.683 446.877 154.734V154.734C446.877 159.786 442.782 163.88 437.731 163.88H192.61C187.559 163.88 183.464 159.786 183.464 154.734V154.734Z" fill="#252525"/>
<path d="M183.464 187.661C183.464 182.61 187.559 178.515 192.61 178.515H357.243C362.295 178.515 366.39 182.61 366.39 187.661V187.661C366.39 192.712 362.295 196.807 357.243 196.807H192.61C187.559 196.807 183.464 192.712 183.464 187.661V187.661Z" fill="#252525"/>
<path d="M92 244.367C92 228.202 105.104 215.098 121.268 215.098H318.828C334.993 215.098 348.096 228.202 348.096 244.367V295.586C348.096 311.75 334.993 324.854 318.828 324.854H121.268C105.104 324.854 92 311.75 92 295.586V244.367Z" fill="#232323"/>
<path d="M128.586 253.512C128.586 248.461 132.681 244.366 137.732 244.366H302.366C307.417 244.366 311.512 248.461 311.512 253.512C311.512 258.563 307.417 262.658 302.366 262.658H137.732C132.681 262.658 128.586 258.563 128.586 253.512Z" fill="#4C4C4C"/>
<path d="M128.586 286.439C128.586 281.387 132.681 277.292 137.732 277.292H251.146C256.198 277.292 260.293 281.387 260.293 286.439C260.293 291.49 256.198 295.585 251.146 295.585H137.732C132.681 295.585 128.586 291.49 128.586 286.439Z" fill="#4C4C4C"/>
<path fill-rule="evenodd" clip-rule="evenodd" d="M552.242 331.994L519.264 299.016L538.112 280.168L571.09 313.147L552.242 331.994Z" fill="#252525"/>
<path opacity="0.7" d="M545.919 249.071C545.919 280.967 520.062 306.823 488.166 306.823C456.27 306.823 430.414 280.967 430.414 249.071C430.414 217.175 456.27 191.319 488.166 191.319C520.062 191.319 545.919 217.175 545.919 249.071Z" fill="#AFAFAF"/>
<path fill-rule="evenodd" clip-rule="evenodd" d="M635.154 396.057C626.48 404.731 612.416 404.731 603.741 396.057L545.919 338.235L577.332 306.822L635.154 364.644C643.829 373.318 643.829 387.382 635.154 396.057Z" fill="#232323"/>
<path d="M429.139 308.752C445.078 324.691 466.279 333.467 488.824 333.468C511.368 333.468 532.569 324.692 548.507 308.754C564.445 292.816 573.221 271.615 573.221 249.071C573.22 226.526 564.444 205.325 548.505 189.386L528.606 209.285C538.807 219.486 545.115 233.552 545.115 249.07C545.115 264.1 539.269 278.247 528.635 288.882C518 299.516 503.866 305.376 488.823 305.362C473.305 305.362 459.225 299.041 449.038 288.853L429.153 308.739L429.139 308.752Z" fill="#4C4C4C"/>
<path d="M548.506 189.387C532.567 173.448 511.366 164.672 488.821 164.671C466.277 164.671 445.09 173.433 429.138 189.385C413.2 205.323 404.424 226.524 404.424 249.068C404.425 271.613 413.201 292.814 429.14 308.753L449.039 288.854C438.838 278.653 432.53 264.587 432.53 249.069C432.53 234.039 438.376 219.892 449.01 209.257C459.645 198.623 473.779 192.763 488.822 192.777C504.34 192.777 518.42 199.099 528.607 209.286L548.492 189.4L548.506 189.387Z" fill="#232323"/>
<path d="M443.857 303.585C449.348 298.094 451.662 291.505 449.025 288.868C446.388 286.23 439.799 288.544 434.308 294.035C428.816 299.527 426.503 306.116 429.14 308.753C431.777 311.39 438.366 309.076 443.857 303.585Z" fill="#252525"/>
<path d="M543.337 204.105C548.828 198.614 551.142 192.025 548.505 189.388C545.868 186.751 539.279 189.064 533.788 194.556C528.297 200.047 525.983 206.636 528.62 209.273C531.257 211.91 537.846 209.596 543.337 204.105Z" fill="#252525"/>
</svg>
