<svg width="160" height="36" viewBox="0 0 160 36" fill="none" xmlns="http://www.w3.org/2000/svg">
<path d="M46 31.655V25.6976H47.9239C48.3811 25.6976 48.7575 25.7742 49.0531 25.9273C49.3487 26.0805 49.5661 26.2876 49.7055 26.5486C49.8505 26.8096 49.923 27.1046 49.923 27.4337C49.923 27.7571 49.8533 28.0493 49.7139 28.3103C49.5745 28.5713 49.357 28.7812 49.0615 28.9401C48.7659 29.0933 48.3867 29.1699 47.9239 29.1699H46.7026V31.655H46ZM46.7026 28.5656H47.9071C48.3756 28.5656 48.7074 28.4664 48.9025 28.2678C49.1033 28.0635 49.2037 27.7855 49.2037 27.4337C49.2037 27.0763 49.1033 26.7983 48.9025 26.5997C48.7074 26.3954 48.3756 26.2933 47.9071 26.2933H46.7026V28.5656Z" fill="#C0C0C0"/>
<path d="M52.8979 31.7571C52.5076 31.7571 52.1563 31.6664 51.844 31.4848C51.5317 31.3032 51.2835 31.0479 51.0995 30.7188C50.9211 30.3841 50.8319 29.9926 50.8319 29.5444C50.8319 29.0961 50.9239 28.7075 51.1079 28.3784C51.2919 28.0437 51.5401 27.7855 51.8523 27.6039C52.1702 27.4224 52.5243 27.3316 52.9147 27.3316C53.305 27.3316 53.6563 27.4224 53.9686 27.6039C54.2809 27.7855 54.5262 28.0437 54.7047 28.3784C54.8887 28.7075 54.9807 29.0961 54.9807 29.5444C54.9807 29.9926 54.8887 30.3841 54.7047 30.7188C54.5207 31.0479 54.2697 31.3032 53.9519 31.4848C53.6396 31.6664 53.2883 31.7571 52.8979 31.7571ZM52.8979 31.1444C53.1377 31.1444 53.3608 31.0848 53.5671 30.9656C53.7734 30.8465 53.9407 30.6678 54.069 30.4295C54.1972 30.1912 54.2614 29.8961 54.2614 29.5444C54.2614 29.1926 54.1972 28.8976 54.069 28.6593C53.9463 28.421 53.7818 28.2422 53.5755 28.1231C53.3691 28.0039 53.1489 27.9444 52.9147 27.9444C52.6749 27.9444 52.4518 28.0039 52.2455 28.1231C52.0392 28.2422 51.8719 28.421 51.7436 28.6593C51.6153 28.8976 51.5512 29.1926 51.5512 29.5444C51.5512 29.8961 51.6153 30.1912 51.7436 30.4295C51.8719 30.6678 52.0364 30.8465 52.2371 30.9656C52.4434 31.0848 52.6637 31.1444 52.8979 31.1444Z" fill="#C0C0C0"/>
<path d="M57.0894 31.655L55.8765 27.4337H56.5791L57.4574 30.7444L58.4277 27.4337H59.2223L60.201 30.7444L61.0709 27.4337H61.7819L60.5691 31.655H59.8497L58.8292 28.1742L57.8087 31.655H57.0894Z" fill="#C0C0C0"/>
<path d="M64.7196 31.7571C64.3236 31.7571 63.9723 31.6664 63.6656 31.4848C63.3589 31.2976 63.1164 31.0394 62.9379 30.7103C62.765 30.3812 62.6786 29.9926 62.6786 29.5444C62.6786 29.1018 62.765 28.716 62.9379 28.3869C63.1108 28.0522 63.3506 27.794 63.6573 27.6125C63.9695 27.4252 64.3292 27.3316 64.7363 27.3316C65.1378 27.3316 65.4835 27.4252 65.7735 27.6125C66.0691 27.794 66.2949 28.0351 66.4511 28.3359C66.6072 28.6366 66.6853 28.96 66.6853 29.3061C66.6853 29.3685 66.6825 29.4309 66.6769 29.4933C66.6769 29.5557 66.6769 29.6266 66.6769 29.7061H63.3729C63.3896 30.0295 63.4621 30.299 63.5903 30.5146C63.7242 30.7245 63.8887 30.8834 64.0839 30.9912C64.2846 31.099 64.4965 31.1529 64.7196 31.1529C65.0096 31.1529 65.2521 31.0848 65.4473 30.9486C65.6425 30.8124 65.7847 30.6281 65.8739 30.3954H66.5682C66.4566 30.7869 66.2419 31.1132 65.9241 31.3742C65.6118 31.6295 65.2103 31.7571 64.7196 31.7571ZM64.7196 27.9359C64.385 27.9359 64.0867 28.0408 63.8246 28.2507C63.568 28.455 63.4203 28.7557 63.3812 29.1529H65.991C65.9743 28.7727 65.846 28.4749 65.6062 28.2593C65.3664 28.0437 65.0709 27.9359 64.7196 27.9359Z" fill="#C0C0C0"/>
<path d="M68.067 31.655V27.4337H68.7027L68.7612 28.2422C68.8895 27.9642 69.0847 27.7429 69.3468 27.5784C69.6088 27.4139 69.9323 27.3316 70.3171 27.3316V28.0805H70.1247C69.8793 28.0805 69.6535 28.1259 69.4471 28.2167C69.2408 28.3018 69.0763 28.4493 68.9536 28.6593C68.8309 28.8692 68.7696 29.1585 68.7696 29.5273V31.655H68.067Z" fill="#C0C0C0"/>
<path d="M73.2662 31.7571C72.8703 31.7571 72.519 31.6664 72.2123 31.4848C71.9056 31.2976 71.663 31.0394 71.4845 30.7103C71.3117 30.3812 71.2252 29.9926 71.2252 29.5444C71.2252 29.1018 71.3117 28.716 71.4845 28.3869C71.6574 28.0522 71.8972 27.794 72.2039 27.6125C72.5162 27.4252 72.8759 27.3316 73.2829 27.3316C73.6844 27.3316 74.0302 27.4252 74.3202 27.6125C74.6157 27.794 74.8415 28.0351 74.9977 28.3359C75.1538 28.6366 75.2319 28.96 75.2319 29.3061C75.2319 29.3685 75.2291 29.4309 75.2235 29.4933C75.2235 29.5557 75.2235 29.6266 75.2235 29.7061H71.9195C71.9362 30.0295 72.0087 30.299 72.137 30.5146C72.2708 30.7245 72.4353 30.8834 72.6305 30.9912C72.8312 31.099 73.0431 31.1529 73.2662 31.1529C73.5562 31.1529 73.7988 31.0848 73.9939 30.9486C74.1891 30.8124 74.3313 30.6281 74.4205 30.3954H75.1148C75.0033 30.7869 74.7886 31.1132 74.4707 31.3742C74.1584 31.6295 73.7569 31.7571 73.2662 31.7571ZM73.2662 27.9359C72.9316 27.9359 72.6333 28.0408 72.3712 28.2507C72.1147 28.455 71.9669 28.7557 71.9279 29.1529H74.5376C74.5209 28.7727 74.3926 28.4749 74.1529 28.2593C73.9131 28.0437 73.6175 27.9359 73.2662 27.9359Z" fill="#C0C0C0"/>
<path d="M78.4956 31.7571C78.083 31.7571 77.7205 31.6607 77.4082 31.4678C77.1015 31.2749 76.8617 31.011 76.6889 30.6763C76.5216 30.3415 76.4379 29.9614 76.4379 29.5359C76.4379 29.1103 76.5244 28.733 76.6972 28.4039C76.8701 28.0692 77.1099 27.8082 77.4166 27.621C77.7233 27.4281 78.0858 27.3316 78.504 27.3316C78.8442 27.3316 79.1453 27.4025 79.4074 27.5444C79.6695 27.6862 79.873 27.8848 80.018 28.1401V25.5273H80.7206V31.655H80.0849L80.018 30.9571C79.8842 31.1614 79.6918 31.3458 79.4408 31.5103C79.1899 31.6749 78.8748 31.7571 78.4956 31.7571ZM78.5709 31.1359C78.8497 31.1359 79.0951 31.0706 79.307 30.9401C79.5245 30.8039 79.6918 30.6167 79.8089 30.3784C79.9316 30.1401 79.9929 29.8621 79.9929 29.5444C79.9929 29.2266 79.9316 28.9486 79.8089 28.7103C79.6918 28.472 79.5245 28.2876 79.307 28.1571C79.0951 28.021 78.8497 27.9529 78.5709 27.9529C78.2977 27.9529 78.0523 28.021 77.8348 28.1571C77.6229 28.2876 77.4556 28.472 77.333 28.7103C77.2158 28.9486 77.1573 29.2266 77.1573 29.5444C77.1573 29.8621 77.2158 30.1401 77.333 30.3784C77.4556 30.6167 77.6229 30.8039 77.8348 30.9401C78.0523 31.0706 78.2977 31.1359 78.5709 31.1359Z" fill="#C0C0C0"/>
<path d="M87.1971 31.7571C86.857 31.7571 86.5531 31.6862 86.2854 31.5444C86.0233 31.4025 85.8226 31.2039 85.6831 30.9486L85.6162 31.655H84.9805V25.5273H85.6831V28.1316C85.817 27.9273 86.0066 27.7429 86.2519 27.5784C86.5029 27.4139 86.8207 27.3316 87.2055 27.3316C87.6182 27.3316 87.9778 27.4281 88.2846 27.621C88.5913 27.8139 88.8283 28.0777 88.9956 28.4125C89.1684 28.7472 89.2549 29.1273 89.2549 29.5529C89.2549 29.9784 89.1684 30.3585 88.9956 30.6933C88.8283 31.0224 88.5885 31.2834 88.2762 31.4763C87.9695 31.6635 87.6098 31.7571 87.1971 31.7571ZM87.1219 31.1359C87.4007 31.1359 87.6461 31.0706 87.858 30.9401C88.0699 30.8039 88.2372 30.6167 88.3598 30.3784C88.4825 30.1401 88.5439 29.8621 88.5439 29.5444C88.5439 29.2266 88.4825 28.9486 88.3598 28.7103C88.2372 28.472 88.0699 28.2876 87.858 28.1571C87.6461 28.021 87.4007 27.9529 87.1219 27.9529C86.843 27.9529 86.5977 28.021 86.3858 28.1571C86.1739 28.2876 86.0066 28.472 85.8839 28.7103C85.7612 28.9486 85.6999 29.2266 85.6999 29.5444C85.6999 29.8621 85.7612 30.1401 85.8839 30.3784C86.0066 30.6167 86.1739 30.8039 86.3858 30.9401C86.5977 31.0706 86.843 31.1359 87.1219 31.1359Z" fill="#C0C0C0"/>
<path d="M90.8001 33.5273L91.829 31.2465H91.5864L89.9386 27.4337H90.6997L92.0715 30.7188L93.527 27.4337H94.2547L91.5362 33.5273H90.8001Z" fill="#C0C0C0"/>
<path d="M100.721 31.7571C100.146 31.7571 99.65 31.6295 99.2317 31.3742C98.8191 31.1132 98.4984 30.7529 98.2698 30.2933C98.0412 29.8281 97.9268 29.289 97.9268 28.6763C97.9268 28.0692 98.0412 27.5359 98.2698 27.0763C98.4984 26.611 98.8191 26.2479 99.2317 25.9869C99.65 25.7259 100.146 25.5954 100.721 25.5954C101.39 25.5954 101.934 25.76 102.352 26.089C102.776 26.4125 103.046 26.8664 103.163 27.4507H102.385C102.296 27.082 102.112 26.7869 101.833 26.5656C101.56 26.3387 101.189 26.2252 100.721 26.2252C100.302 26.2252 99.9371 26.3245 99.6249 26.5231C99.3126 26.716 99.07 26.9968 98.8971 27.3656C98.7299 27.7288 98.6462 28.1656 98.6462 28.6763C98.6462 29.1869 98.7299 29.6266 98.8971 29.9954C99.07 30.3585 99.3126 30.6394 99.6249 30.838C99.9371 31.0309 100.302 31.1273 100.721 31.1273C101.189 31.1273 101.56 31.0195 101.833 30.8039C102.112 30.5827 102.296 30.2905 102.385 29.9273H103.163C103.046 30.5004 102.776 30.9486 102.352 31.272C101.934 31.5954 101.39 31.7571 100.721 31.7571Z" fill="#C0C0C0"/>
<path d="M106.447 31.7571C106.051 31.7571 105.7 31.6664 105.393 31.4848C105.086 31.2976 104.844 31.0394 104.665 30.7103C104.492 30.3812 104.406 29.9926 104.406 29.5444C104.406 29.1018 104.492 28.716 104.665 28.3869C104.838 28.0522 105.078 27.794 105.385 27.6125C105.697 27.4252 106.057 27.3316 106.464 27.3316C106.865 27.3316 107.211 27.4252 107.501 27.6125C107.796 27.794 108.022 28.0351 108.178 28.3359C108.334 28.6366 108.413 28.96 108.413 29.3061C108.413 29.3685 108.41 29.4309 108.404 29.4933C108.404 29.5557 108.404 29.6266 108.404 29.7061H105.1C105.117 30.0295 105.189 30.299 105.318 30.5146C105.451 30.7245 105.616 30.8834 105.811 30.9912C106.012 31.099 106.224 31.1529 106.447 31.1529C106.737 31.1529 106.979 31.0848 107.175 30.9486C107.37 30.8124 107.512 30.6281 107.601 30.3954H108.295C108.184 30.7869 107.969 31.1132 107.651 31.3742C107.339 31.6295 106.938 31.7571 106.447 31.7571ZM106.447 27.9359C106.112 27.9359 105.814 28.0408 105.552 28.2507C105.295 28.455 105.148 28.7557 105.109 29.1529H107.718C107.702 28.7727 107.573 28.4749 107.334 28.2593C107.094 28.0437 106.798 27.9359 106.447 27.9359Z" fill="#C0C0C0"/>
<path d="M109.794 31.655V25.5273H110.497V31.655H109.794Z" fill="#C0C0C0"/>
<path d="M113.479 31.7571C113.133 31.7571 112.846 31.6976 112.618 31.5784C112.389 31.4593 112.219 31.3004 112.107 31.1018C111.996 30.9032 111.94 30.6876 111.94 30.455C111.94 30.0238 112.102 29.6919 112.425 29.4593C112.749 29.2266 113.189 29.1103 113.747 29.1103H114.868V29.0593C114.868 28.6905 114.773 28.4125 114.583 28.2252C114.394 28.0323 114.14 27.9359 113.822 27.9359C113.549 27.9359 113.312 28.0068 113.111 28.1486C112.916 28.2848 112.793 28.4862 112.743 28.7529H112.024C112.052 28.4465 112.152 28.1883 112.325 27.9784C112.503 27.7685 112.723 27.6096 112.986 27.5018C113.248 27.3883 113.526 27.3316 113.822 27.3316C114.402 27.3316 114.837 27.4905 115.127 27.8082C115.422 28.1203 115.57 28.5373 115.57 29.0593V31.655H114.943L114.901 30.8976C114.784 31.1359 114.611 31.3401 114.382 31.5103C114.159 31.6749 113.858 31.7571 113.479 31.7571ZM113.588 31.1529C113.856 31.1529 114.084 31.082 114.274 30.9401C114.469 30.7983 114.617 30.6139 114.717 30.3869C114.817 30.16 114.868 29.9217 114.868 29.672V29.6635H113.805C113.393 29.6635 113.1 29.7373 112.927 29.8848C112.76 30.0266 112.676 30.2054 112.676 30.421C112.676 30.6422 112.754 30.821 112.91 30.9571C113.072 31.0876 113.298 31.1529 113.588 31.1529Z" fill="#C0C0C0"/>
<path d="M118.6 31.655C118.221 31.655 117.922 31.5614 117.705 31.3742C117.487 31.1869 117.379 30.8493 117.379 30.3614V28.038H116.659V27.4337H117.379L117.471 26.421H118.081V27.4337H119.302V28.038H118.081V30.3614C118.081 30.6281 118.134 30.8096 118.24 30.9061C118.346 30.9968 118.533 31.0422 118.801 31.0422H119.236V31.655H118.6Z" fill="#C0C0C0"/>
<path d="M122.422 31.7571C122.031 31.7571 121.68 31.6664 121.368 31.4848C121.055 31.3032 120.807 31.0479 120.623 30.7188C120.445 30.3841 120.356 29.9926 120.356 29.5444C120.356 29.0961 120.448 28.7075 120.632 28.3784C120.816 28.0437 121.064 27.7855 121.376 27.6039C121.694 27.4224 122.048 27.3316 122.438 27.3316C122.829 27.3316 123.18 27.4224 123.492 27.6039C123.805 27.7855 124.05 28.0437 124.228 28.3784C124.412 28.7075 124.504 29.0961 124.504 29.5444C124.504 29.9926 124.412 30.3841 124.228 30.7188C124.044 31.0479 123.793 31.3032 123.476 31.4848C123.163 31.6664 122.812 31.7571 122.422 31.7571ZM122.422 31.1444C122.661 31.1444 122.884 31.0848 123.091 30.9656C123.297 30.8465 123.464 30.6678 123.593 30.4295C123.721 30.1912 123.785 29.8961 123.785 29.5444C123.785 29.1926 123.721 28.8976 123.593 28.6593C123.47 28.421 123.305 28.2422 123.099 28.1231C122.893 28.0039 122.673 27.9444 122.438 27.9444C122.199 27.9444 121.975 28.0039 121.769 28.1231C121.563 28.2422 121.396 28.421 121.267 28.6593C121.139 28.8976 121.075 29.1926 121.075 29.5444C121.075 29.8961 121.139 30.1912 121.267 30.4295C121.396 30.6678 121.56 30.8465 121.761 30.9656C121.967 31.0848 122.187 31.1444 122.422 31.1444Z" fill="#C0C0C0"/>
<path d="M125.932 31.655V27.4337H126.567L126.609 28.1912C126.743 27.9245 126.936 27.7146 127.186 27.5614C127.437 27.4082 127.722 27.3316 128.04 27.3316C128.53 27.3316 128.921 27.4848 129.211 27.7912C129.506 28.0919 129.654 28.5571 129.654 29.1869V31.655H128.951V29.2635C128.951 28.3841 128.595 27.9444 127.881 27.9444C127.524 27.9444 127.226 28.0777 126.986 28.3444C126.752 28.6054 126.634 28.9798 126.634 29.4678V31.655H125.932Z" fill="#C0C0C0"/>
<path d="M133.034 31.7571C132.638 31.7571 132.287 31.6664 131.98 31.4848C131.674 31.2976 131.431 31.0394 131.253 30.7103C131.08 30.3812 130.993 29.9926 130.993 29.5444C130.993 29.1018 131.08 28.716 131.253 28.3869C131.425 28.0522 131.665 27.794 131.972 27.6125C132.284 27.4252 132.644 27.3316 133.051 27.3316C133.453 27.3316 133.798 27.4252 134.088 27.6125C134.384 27.794 134.61 28.0351 134.766 28.3359C134.922 28.6366 135 28.96 135 29.3061C135 29.3685 134.997 29.4309 134.992 29.4933C134.992 29.5557 134.992 29.6266 134.992 29.7061H131.688C131.704 30.0295 131.777 30.299 131.905 30.5146C132.039 30.7245 132.203 30.8834 132.399 30.9912C132.599 31.099 132.811 31.1529 133.034 31.1529C133.324 31.1529 133.567 31.0848 133.762 30.9486C133.957 30.8124 134.099 30.6281 134.189 30.3954H134.883C134.771 30.7869 134.557 31.1132 134.239 31.3742C133.927 31.6295 133.525 31.7571 133.034 31.7571ZM133.034 27.9359C132.7 27.9359 132.401 28.0408 132.139 28.2507C131.883 28.455 131.735 28.7557 131.696 29.1529H134.306C134.289 28.7727 134.161 28.4749 133.921 28.2593C133.681 28.0437 133.386 27.9359 133.034 27.9359Z" fill="#C0C0C0"/>
<path d="M45.5845 20.9531V5.37891H51.3988L57.7181 16.7704L58.9026 15.9916C58.2007 14.894 57.7033 13.9077 57.4107 13.0325C57.1181 12.1426 56.9719 11.1043 56.9719 9.91768V5.37891H60.9872V20.9531H56.2479L48.8099 7.5148L47.625 8.24901C48.9417 10.4591 49.5998 12.6765 49.5998 14.9014V20.9531H45.5845Z" fill="white"/>
<path d="M64.1401 20.9531V5.37891H76.0322V8.69399H68.1993V11.4529H74.2549V14.5455H68.1993V17.6381H76.0322V20.9531H64.1401Z" fill="white"/>
<path d="M78.4062 14.6122V5.37891H82.5531V14.056C82.5531 16.5775 83.5552 17.8383 85.5592 17.8383C87.563 17.8383 88.5651 16.5775 88.5651 14.056V5.37891H92.7119V14.6122C92.7119 16.7629 92.0755 18.4242 90.8029 19.596C89.5451 20.7529 87.7971 21.3314 85.5592 21.3314C83.2919 21.3314 81.5294 20.7529 80.2713 19.596C79.0279 18.4242 78.4062 16.7629 78.4062 14.6122Z" fill="white"/>
<path d="M99.3432 20.9531V8.58274H94.3843V5.37891H108.492V8.58274H103.512V20.9531H99.3432Z" fill="white"/>
<path d="M110.315 20.9531V5.37891H118.411C120.093 5.37891 121.41 5.74231 122.36 6.46909C123.326 7.1959 123.809 8.17486 123.809 9.40596C123.809 10.4146 123.545 11.1859 123.019 11.7198C122.536 12.2093 121.958 12.5431 121.285 12.721C120.613 12.899 119.764 13.0103 118.74 13.0548V14.3675C120.276 14.3971 121.395 14.627 122.097 15.0572C122.814 15.4873 123.289 16.3254 123.523 17.5713L124.204 20.9531H119.815L119.223 17.3488C119.121 16.5775 118.879 16.0287 118.499 15.7024C118.119 15.3761 117.541 15.2129 116.765 15.2129H114.396V20.9531H110.315ZM114.396 12.1871H117.446C118.089 12.1871 118.601 12.0313 118.982 11.7198C119.362 11.4084 119.552 10.9708 119.552 10.4072C119.552 9.84351 119.362 9.41336 118.982 9.11673C118.616 8.80523 118.104 8.64948 117.446 8.64948H114.396V12.1871Z" fill="white"/>
<path d="M125.359 13.2329C125.359 10.83 126.105 8.8573 127.597 7.31473C129.089 5.77214 131.151 5.00082 133.784 5.00082C136.417 4.97116 138.487 5.74247 139.993 7.31473C141.515 8.88696 142.261 10.8597 142.232 13.2329C142.232 15.621 141.493 17.5715 140.015 19.0844C138.538 20.5825 136.461 21.3315 133.784 21.3315C131.122 21.3315 129.052 20.5825 127.575 19.0844C126.098 17.5715 125.359 15.621 125.359 13.2329ZM137.843 13.2107C137.843 11.7423 137.485 10.5705 136.768 9.69535C136.051 8.80539 135.064 8.36041 133.806 8.36041C132.548 8.36041 131.554 8.80539 130.822 9.69535C130.105 10.5853 129.747 11.7571 129.747 13.2107C129.747 14.6494 130.105 15.8064 130.822 16.6815C131.539 17.5418 132.534 17.9719 133.806 17.9719C135.064 17.9719 136.051 17.5418 136.768 16.6815C137.485 15.8064 137.843 14.6494 137.843 13.2107Z" fill="white"/>
<path d="M144.598 20.9531V5.37891H150.412L156.731 16.7704L157.916 15.9916C157.214 14.894 156.716 13.9077 156.424 13.0325C156.131 12.1426 155.985 11.1043 155.985 9.91768V5.37891H160V20.9531H155.261L147.823 7.5148L146.638 8.24901C147.955 10.4591 148.613 12.6765 148.613 14.9014V20.9531H144.598Z" fill="white"/>
<path d="M35.723 0H2.73584L12.127 11.2272C13.6883 9.84045 15.7334 9.00002 17.9721 9.00002C22.8738 9.00002 26.8476 13.0295 26.8476 18C26.8476 20.2421 26.0391 22.2926 24.7017 23.8682L35.723 33.4845V0Z" fill="white"/>
<path d="M31.3779 35.9999L22.6498 25.6499C21.2916 26.5056 19.6887 26.9999 17.9721 26.9999C13.0703 26.9999 9.09665 22.9704 9.09665 17.9998C9.09665 16.2749 9.57521 14.6632 10.405 13.294L0.221191 4.30127V35.9999H31.3779Z" fill="white"/>
</svg>
