<svg width="768" height="173" viewBox="0 0 768 173" fill="none" xmlns="http://www.w3.org/2000/svg">
<path d="M223.402 151.759V116.049H235.135C237.924 116.049 240.219 116.509 242.022 117.427C243.824 118.345 245.151 119.586 246.001 121.151C246.885 122.715 247.327 124.484 247.327 126.456C247.327 128.395 246.902 130.146 246.052 131.711C245.202 133.275 243.875 134.533 242.073 135.486C240.271 136.404 237.958 136.863 235.135 136.863H227.687V151.759H223.402ZM227.687 133.241H235.033C237.89 133.241 239.913 132.646 241.104 131.455C242.328 130.231 242.94 128.565 242.94 126.456C242.94 124.314 242.328 122.647 241.104 121.457C239.913 120.233 237.89 119.62 235.033 119.62H227.687V133.241Z" fill="#C0C0C0"/>
<path d="M265.47 152.371C263.09 152.371 260.947 151.827 259.043 150.739C257.138 149.65 255.625 148.12 254.502 146.147C253.414 144.141 252.87 141.794 252.87 139.107C252.87 136.421 253.431 134.091 254.553 132.119C255.676 130.112 257.189 128.565 259.094 127.476C261.032 126.388 263.192 125.844 265.572 125.844C267.953 125.844 270.095 126.388 272 127.476C273.904 128.565 275.401 130.112 276.489 132.119C277.611 134.091 278.173 136.421 278.173 139.107C278.173 141.794 277.611 144.141 276.489 146.147C275.367 148.12 273.836 149.65 271.898 150.739C269.993 151.827 267.851 152.371 265.47 152.371ZM265.47 148.698C266.933 148.698 268.293 148.341 269.551 147.627C270.81 146.913 271.83 145.841 272.612 144.413C273.394 142.985 273.785 141.216 273.785 139.107C273.785 136.999 273.394 135.23 272.612 133.802C271.864 132.374 270.861 131.302 269.602 130.588C268.344 129.874 267.001 129.517 265.572 129.517C264.11 129.517 262.75 129.874 261.491 130.588C260.233 131.302 259.213 132.374 258.43 133.802C257.648 135.23 257.257 136.999 257.257 139.107C257.257 141.216 257.648 142.985 258.43 144.413C259.213 145.841 260.216 146.913 261.44 147.627C262.699 148.341 264.042 148.698 265.47 148.698Z" fill="#C0C0C0"/>
<path d="M291.032 151.759L283.636 126.456H287.921L293.277 146.3L299.195 126.456H304.041L310.009 146.3L315.315 126.456H319.651L312.254 151.759H307.867L301.643 130.894L295.42 151.759H291.032Z" fill="#C0C0C0"/>
<path d="M337.567 152.371C335.152 152.371 333.01 151.827 331.139 150.739C329.269 149.616 327.789 148.069 326.701 146.096C325.647 144.124 325.119 141.794 325.119 139.107C325.119 136.455 325.647 134.142 326.701 132.17C327.755 130.163 329.218 128.616 331.088 127.527C332.993 126.405 335.186 125.844 337.669 125.844C340.117 125.844 342.226 126.405 343.994 127.527C345.797 128.616 347.174 130.061 348.126 131.864C349.079 133.666 349.555 135.605 349.555 137.679C349.555 138.053 349.538 138.427 349.504 138.801C349.504 139.176 349.504 139.601 349.504 140.077H329.354C329.456 142.015 329.898 143.631 330.68 144.923C331.496 146.181 332.499 147.134 333.69 147.78C334.914 148.426 336.206 148.749 337.567 148.749C339.335 148.749 340.815 148.341 342.005 147.525C343.195 146.708 344.062 145.603 344.607 144.209H348.841C348.16 146.555 346.851 148.511 344.913 150.075C343.008 151.606 340.559 152.371 337.567 152.371ZM337.567 129.466C335.526 129.466 333.707 130.095 332.108 131.353C330.544 132.578 329.643 134.38 329.405 136.761H345.321C345.219 134.482 344.436 132.697 342.974 131.404C341.512 130.112 339.709 129.466 337.567 129.466Z" fill="#C0C0C0"/>
<path d="M357.981 151.759V126.456H361.858L362.215 131.302C362.998 129.636 364.188 128.31 365.786 127.323C367.385 126.337 369.357 125.844 371.704 125.844V130.333H370.531C369.034 130.333 367.657 130.605 366.399 131.149C365.14 131.66 364.137 132.544 363.389 133.802C362.641 135.06 362.266 136.795 362.266 139.005V151.759H357.981Z" fill="#C0C0C0"/>
<path d="M389.69 152.371C387.275 152.371 385.133 151.827 383.262 150.739C381.392 149.616 379.912 148.069 378.824 146.096C377.77 144.124 377.243 141.794 377.243 139.107C377.243 136.455 377.77 134.142 378.824 132.17C379.878 130.163 381.341 128.616 383.211 127.527C385.116 126.405 387.309 125.844 389.792 125.844C392.24 125.844 394.349 126.405 396.117 127.527C397.92 128.616 399.297 130.061 400.25 131.864C401.202 133.666 401.678 135.605 401.678 137.679C401.678 138.053 401.661 138.427 401.627 138.801C401.627 139.176 401.627 139.601 401.627 140.077H381.477C381.579 142.015 382.021 143.631 382.803 144.923C383.619 146.181 384.622 147.134 385.813 147.78C387.037 148.426 388.329 148.749 389.69 148.749C391.458 148.749 392.938 148.341 394.128 147.525C395.318 146.708 396.185 145.603 396.73 144.209H400.964C400.284 146.555 398.974 148.511 397.036 150.075C395.131 151.606 392.683 152.371 389.69 152.371ZM389.69 129.466C387.649 129.466 385.83 130.095 384.231 131.353C382.667 132.578 381.766 134.38 381.528 136.761H397.444C397.342 134.482 396.56 132.697 395.097 131.404C393.635 130.112 391.832 129.466 389.69 129.466Z" fill="#C0C0C0"/>
<path d="M421.582 152.371C419.066 152.371 416.855 151.793 414.951 150.637C413.08 149.48 411.618 147.899 410.564 145.892C409.543 143.886 409.033 141.607 409.033 139.056C409.033 136.506 409.56 134.244 410.615 132.272C411.669 130.265 413.131 128.701 415.002 127.578C416.872 126.422 419.083 125.844 421.633 125.844C423.708 125.844 425.544 126.269 427.143 127.119C428.741 127.97 429.983 129.16 430.867 130.69V115.029H435.152V151.759H431.275L430.867 147.576C430.051 148.8 428.877 149.905 427.347 150.892C425.817 151.878 423.895 152.371 421.582 152.371ZM422.042 148.647C423.742 148.647 425.238 148.256 426.531 147.474C427.857 146.657 428.877 145.535 429.592 144.107C430.34 142.678 430.714 141.012 430.714 139.107C430.714 137.203 430.34 135.537 429.592 134.108C428.877 132.68 427.857 131.575 426.531 130.792C425.238 129.976 423.742 129.568 422.042 129.568C420.375 129.568 418.879 129.976 417.552 130.792C416.26 131.575 415.24 132.68 414.492 134.108C413.777 135.537 413.42 137.203 413.42 139.107C413.42 141.012 413.777 142.678 414.492 144.107C415.24 145.535 416.26 146.657 417.552 147.474C418.879 148.256 420.375 148.647 422.042 148.647Z" fill="#C0C0C0"/>
<path d="M474.65 152.371C472.576 152.371 470.722 151.946 469.09 151.096C467.491 150.245 466.267 149.055 465.417 147.525L465.009 151.759H461.132V115.029H465.417V130.639C466.233 129.415 467.389 128.31 468.886 127.323C470.416 126.337 472.354 125.844 474.701 125.844C477.218 125.844 479.411 126.422 481.282 127.578C483.152 128.735 484.598 130.316 485.618 132.323C486.672 134.329 487.199 136.608 487.199 139.159C487.199 141.709 486.672 143.988 485.618 145.994C484.598 147.967 483.135 149.531 481.231 150.688C479.36 151.81 477.167 152.371 474.65 152.371ZM474.191 148.647C475.891 148.647 477.388 148.256 478.68 147.474C479.972 146.657 480.993 145.535 481.741 144.107C482.489 142.678 482.863 141.012 482.863 139.107C482.863 137.203 482.489 135.537 481.741 134.108C480.993 132.68 479.972 131.575 478.68 130.792C477.388 129.976 475.891 129.568 474.191 129.568C472.49 129.568 470.994 129.976 469.702 130.792C468.409 131.575 467.389 132.68 466.641 134.108C465.893 135.537 465.519 137.203 465.519 139.107C465.519 141.012 465.893 142.678 466.641 144.107C467.389 145.535 468.409 146.657 469.702 147.474C470.994 148.256 472.49 148.647 474.191 148.647Z" fill="#C0C0C0"/>
<path d="M496.623 162.982L502.898 149.31H501.419L491.369 126.456H496.011L504.377 146.147L513.254 126.456H517.692L501.113 162.982H496.623Z" fill="#C0C0C0"/>
<path d="M557.125 152.371C553.623 152.371 550.596 151.606 548.045 150.075C545.528 148.511 543.573 146.351 542.179 143.597C540.784 140.808 540.087 137.577 540.087 133.904C540.087 130.265 540.784 127.068 542.179 124.314C543.573 121.525 545.528 119.348 548.045 117.784C550.596 116.22 553.623 115.437 557.125 115.437C561.207 115.437 564.522 116.424 567.073 118.396C569.658 120.335 571.307 123.055 572.021 126.558H567.277C566.733 124.348 565.611 122.579 563.91 121.253C562.244 119.892 559.982 119.212 557.125 119.212C554.575 119.212 552.347 119.807 550.443 120.998C548.538 122.154 547.059 123.838 546.005 126.048C544.984 128.225 544.474 130.843 544.474 133.904C544.474 136.965 544.984 139.601 546.005 141.811C547.059 143.988 548.538 145.671 550.443 146.862C552.347 148.018 554.575 148.596 557.125 148.596C559.982 148.596 562.244 147.95 563.91 146.657C565.611 145.331 566.733 143.58 567.277 141.403H572.021C571.307 144.838 569.658 147.525 567.073 149.463C564.522 151.402 561.207 152.371 557.125 152.371Z" fill="#C0C0C0"/>
<path d="M592.048 152.371C589.633 152.371 587.491 151.827 585.62 150.739C583.75 149.616 582.27 148.069 581.182 146.096C580.128 144.124 579.601 141.794 579.601 139.107C579.601 136.455 580.128 134.142 581.182 132.17C582.236 130.163 583.699 128.616 585.569 127.527C587.474 126.405 589.667 125.844 592.15 125.844C594.598 125.844 596.707 126.405 598.475 127.527C600.278 128.616 601.655 130.061 602.608 131.864C603.56 133.666 604.036 135.605 604.036 137.679C604.036 138.053 604.019 138.427 603.985 138.801C603.985 139.176 603.985 139.601 603.985 140.077H583.835C583.937 142.015 584.379 143.631 585.161 144.923C585.977 146.181 586.98 147.134 588.171 147.78C589.395 148.426 590.687 148.749 592.048 148.749C593.816 148.749 595.296 148.341 596.486 147.525C597.676 146.708 598.543 145.603 599.088 144.209H603.322C602.642 146.555 601.332 148.511 599.394 150.075C597.489 151.606 595.041 152.371 592.048 152.371ZM592.048 129.466C590.007 129.466 588.188 130.095 586.589 131.353C585.025 132.578 584.124 134.38 583.886 136.761H599.802C599.7 134.482 598.918 132.697 597.455 131.404C595.993 130.112 594.19 129.466 592.048 129.466Z" fill="#C0C0C0"/>
<path d="M612.462 151.759V115.029H616.748V151.759H612.462Z" fill="#C0C0C0"/>
<path d="M634.935 152.371C632.827 152.371 631.075 152.014 629.681 151.3C628.286 150.585 627.249 149.633 626.569 148.443C625.889 147.253 625.549 145.96 625.549 144.566C625.549 141.981 626.535 139.992 628.507 138.597C630.48 137.203 633.167 136.506 636.568 136.506H643.403V136.2C643.403 133.989 642.825 132.323 641.669 131.2C640.513 130.044 638.965 129.466 637.027 129.466C635.36 129.466 633.915 129.891 632.691 130.741C631.5 131.558 630.752 132.765 630.446 134.363H626.059C626.229 132.527 626.841 130.979 627.895 129.721C628.984 128.463 630.327 127.51 631.925 126.864C633.524 126.184 635.224 125.844 637.027 125.844C640.564 125.844 643.216 126.796 644.985 128.701C646.787 130.571 647.688 133.071 647.688 136.2V151.759H643.862L643.607 147.219C642.893 148.647 641.839 149.871 640.445 150.892C639.084 151.878 637.248 152.371 634.935 152.371ZM635.598 148.749C637.231 148.749 638.625 148.324 639.781 147.474C640.972 146.623 641.873 145.518 642.485 144.158C643.097 142.797 643.403 141.369 643.403 139.873V139.822H636.925C634.408 139.822 632.622 140.264 631.568 141.148C630.548 141.998 630.038 143.07 630.038 144.362C630.038 145.688 630.514 146.759 631.466 147.576C632.452 148.358 633.83 148.749 635.598 148.749Z" fill="#C0C0C0"/>
<path d="M666.165 151.759C663.852 151.759 662.033 151.198 660.707 150.075C659.38 148.953 658.717 146.93 658.717 144.005V130.078H654.33V126.456H658.717L659.278 120.386H663.002V126.456H670.45V130.078H663.002V144.005C663.002 145.603 663.325 146.691 663.971 147.27C664.618 147.814 665.757 148.086 667.389 148.086H670.042V151.759H666.165Z" fill="#C0C0C0"/>
<path d="M689.473 152.371C687.092 152.371 684.949 151.827 683.045 150.739C681.14 149.65 679.627 148.12 678.505 146.147C677.416 144.141 676.872 141.794 676.872 139.107C676.872 136.421 677.433 134.091 678.556 132.119C679.678 130.112 681.191 128.565 683.096 127.476C685.034 126.388 687.194 125.844 689.575 125.844C691.955 125.844 694.098 126.388 696.002 127.476C697.907 128.565 699.403 130.112 700.491 132.119C701.614 134.091 702.175 136.421 702.175 139.107C702.175 141.794 701.614 144.141 700.491 146.147C699.369 148.12 697.839 149.65 695.9 150.739C693.996 151.827 691.853 152.371 689.473 152.371ZM689.473 148.698C690.935 148.698 692.295 148.341 693.554 147.627C694.812 146.913 695.832 145.841 696.614 144.413C697.397 142.985 697.788 141.216 697.788 139.107C697.788 136.999 697.397 135.23 696.614 133.802C695.866 132.374 694.863 131.302 693.605 130.588C692.346 129.874 691.003 129.517 689.575 129.517C688.112 129.517 686.752 129.874 685.494 130.588C684.235 131.302 683.215 132.374 682.433 133.802C681.651 135.23 681.259 136.999 681.259 139.107C681.259 141.216 681.651 142.985 682.433 144.413C683.215 145.841 684.218 146.913 685.442 147.627C686.701 148.341 688.044 148.698 689.473 148.698Z" fill="#C0C0C0"/>
<path d="M710.88 151.759V126.456H714.757L715.012 130.996C715.828 129.398 717.002 128.14 718.532 127.221C720.062 126.303 721.797 125.844 723.735 125.844C726.728 125.844 729.109 126.762 730.877 128.599C732.68 130.401 733.581 133.19 733.581 136.965V151.759H729.296V137.424C729.296 132.153 727.119 129.517 722.766 129.517C720.589 129.517 718.77 130.316 717.308 131.915C715.879 133.479 715.165 135.724 715.165 138.648V151.759H710.88Z" fill="#C0C0C0"/>
<path d="M754.196 152.371C751.781 152.371 749.639 151.827 747.768 150.739C745.898 149.616 744.418 148.069 743.33 146.096C742.276 144.124 741.749 141.794 741.749 139.107C741.749 136.455 742.276 134.142 743.33 132.17C744.384 130.163 745.847 128.616 747.717 127.527C749.622 126.405 751.815 125.844 754.298 125.844C756.747 125.844 758.855 126.405 760.624 127.527C762.426 128.616 763.803 130.061 764.756 131.864C765.708 133.666 766.184 135.605 766.184 137.679C766.184 138.053 766.167 138.427 766.133 138.801C766.133 139.176 766.133 139.601 766.133 140.077H745.983C746.085 142.015 746.527 143.631 747.309 144.923C748.125 146.181 749.129 147.134 750.319 147.78C751.543 148.426 752.836 148.749 754.196 148.749C755.964 148.749 757.444 148.341 758.634 147.525C759.824 146.708 760.692 145.603 761.236 144.209H765.47C764.79 146.555 763.48 148.511 761.542 150.075C759.637 151.606 757.189 152.371 754.196 152.371ZM754.196 129.466C752.155 129.466 750.336 130.095 748.738 131.353C747.173 132.578 746.272 134.38 746.034 136.761H761.95C761.848 134.482 761.066 132.697 759.603 131.404C758.141 130.112 756.339 129.466 754.196 129.466Z" fill="#C0C0C0"/>
<path d="M217.996 91.0786V16.2358H245.937L276.305 70.9781L281.997 67.2359C278.624 61.9612 276.234 57.2212 274.828 53.0157C273.422 48.739 272.719 43.7495 272.719 38.0471V16.2358H292.015V91.0786H269.24L233.496 26.4999L227.802 30.0282C234.129 40.6488 237.292 51.305 237.292 61.9968V91.0786H217.996Z" fill="white"/>
<path d="M307.166 91.0786V16.2358H364.314V32.1666H326.672V45.4246H355.773V60.2862H326.672V75.1478H364.314V91.0786H307.166Z" fill="white"/>
<path d="M375.723 60.6069V16.2358H395.651V57.9339C395.651 70.0513 400.466 76.1101 410.097 76.1101C419.726 76.1101 424.541 70.0513 424.541 57.9339V16.2358H444.469V60.6069C444.469 70.9423 441.411 78.9255 435.295 84.5566C429.251 90.1164 420.851 92.8962 410.097 92.8962C399.201 92.8962 390.731 90.1164 384.685 84.5566C378.71 78.9255 375.723 70.9423 375.723 60.6069Z" fill="white"/>
<path d="M476.336 91.0786V31.632H452.506V16.2358H520.303V31.632H496.369V91.0786H476.336Z" fill="white"/>
<path d="M529.062 91.0786V16.2358H567.968C576.051 16.2358 582.378 17.9821 586.947 21.4747C591.586 24.9674 593.906 29.6719 593.906 35.588C593.906 40.4349 592.641 44.1415 590.11 46.7075C587.791 49.0597 585.014 50.6635 581.781 51.5188C578.547 52.3741 574.47 52.9087 569.55 53.1226V59.4309C576.931 59.5733 582.307 60.6782 585.682 62.7453C589.126 64.8124 591.41 68.8397 592.535 74.8271L595.804 91.0786H574.716L571.869 73.7579C571.378 70.0513 570.217 67.4141 568.39 65.8458C566.562 64.2778 563.785 63.4937 560.06 63.4937H548.672V91.0786H529.062ZM548.672 48.9528H563.329C566.422 48.9528 568.882 48.2044 570.71 46.7075C572.537 45.2107 573.451 43.1079 573.451 40.3994C573.451 37.6907 572.537 35.6236 570.71 34.1981C568.953 32.7012 566.491 31.9527 563.329 31.9527H548.672V48.9528Z" fill="white"/>
<path d="M601.357 53.9793C601.357 42.4321 604.942 32.952 612.112 25.5391C619.282 18.1261 629.193 14.4195 641.846 14.4195C654.499 14.2769 664.445 17.9835 671.684 25.5391C678.996 33.0946 682.58 42.5747 682.44 53.9793C682.44 65.4552 678.89 74.8284 671.79 82.0989C664.69 89.298 654.709 92.8976 641.846 92.8976C629.052 92.8976 619.106 89.298 612.007 82.0989C604.907 74.8284 601.357 65.4552 601.357 53.9793ZM661.352 53.8724C661.352 46.8158 659.63 41.1847 656.186 36.9793C652.74 32.7025 647.996 30.5642 641.952 30.5642C635.906 30.5642 631.126 32.7025 627.611 36.9793C624.167 41.256 622.445 46.8871 622.445 53.8724C622.445 60.7864 624.167 66.3462 627.611 70.5517C631.055 74.6858 635.836 76.7529 641.952 76.7529C647.996 76.7529 652.74 74.6858 656.186 70.5517C659.63 66.3462 661.352 60.7864 661.352 53.8724Z" fill="white"/>
<path d="M693.808 91.0786V16.2358H721.749L752.115 70.9781L757.809 67.2359C754.435 61.9612 752.046 57.2212 750.64 53.0157C749.234 48.739 748.531 43.7495 748.531 38.0471V16.2358H767.825V91.0786H745.052L709.308 26.4999L703.614 30.0282C709.94 40.6488 713.103 51.305 713.103 61.9968V91.0786H693.808Z" fill="white"/>
<path d="M170.606 0H12.0842L57.2138 53.9528C64.717 47.2888 74.5448 43.2501 85.3029 43.2501C108.858 43.2501 127.954 62.6138 127.954 86.5002C127.954 97.2744 124.069 107.128 117.642 114.7L170.606 160.912V0Z" fill="white"/>
<path d="M149.725 173L107.782 123.263C101.255 127.375 93.5523 129.75 85.303 129.75C61.7471 129.75 42.6515 110.386 42.6515 86.4998C42.6515 78.2105 44.9513 70.4656 48.9389 63.8858L0 20.6706V173H149.725Z" fill="white"/>
</svg>
