<svg width="150" height="150" viewBox="0 0 150 150" fill="none" xmlns="http://www.w3.org/2000/svg">
<rect width="150" height="150" fill="#26282B"/>
<path fill-rule="evenodd" clip-rule="evenodd" d="M90.1109 49.5263L75.2955 41.1289C75.1836 41.0655 75.0465 41.0655 74.9346 41.1289L60.1193 49.5263L45.4394 58.158C45.3284 58.2232 45.2599 58.3419 45.2589 58.4706L45.1235 75.4997L45.2589 92.5288C45.2599 92.6574 45.3284 92.7761 45.4394 92.8413L60.1193 101.473L74.9346 109.87C75.0466 109.934 75.1836 109.934 75.2955 109.87L90.1108 101.473L104.791 92.8413C104.902 92.7761 104.97 92.6574 104.971 92.5288L105.107 75.4997L104.971 58.4706C104.97 58.3419 104.902 58.2232 104.791 58.158L90.1109 49.5263ZM111.105 75.4997L110.969 58.4229C110.952 56.1853 109.76 54.1215 107.831 52.9873L93.1101 44.3314L78.2533 35.9105C76.3066 34.8072 73.9235 34.8072 71.9768 35.9105L57.12 44.3314L42.399 52.9873C40.4701 54.1215 39.2785 56.1853 39.2607 58.4229L39.125 75.4997L39.2607 92.5764C39.2785 94.814 40.4701 96.8778 42.399 98.012L57.12 106.668L71.9768 115.089C73.9235 116.192 76.3066 116.192 78.2533 115.089L93.1101 106.668L107.831 98.012C109.76 96.8778 110.952 94.814 110.969 92.5764L111.105 75.4997Z" fill="#3B3E41"/>
<path d="M98.9085 65.0752C99.0189 65.0752 99.1085 65.1647 99.1085 65.2752V68.5198C99.1085 68.6302 99.0189 68.7198 98.9085 68.7198H94.3603C94.2499 68.7198 94.1603 68.8093 94.1603 68.9198V83.5503C94.1603 83.6608 94.0708 83.7503 93.9603 83.7503H89.8113C89.7008 83.7503 89.6113 83.6608 89.6113 83.5503V68.9198C89.6113 68.8093 89.5217 68.7198 89.4113 68.7198H84.8632C84.7527 68.7198 84.6632 68.6302 84.6632 68.5198V65.2752C84.6632 65.1647 84.7527 65.0752 84.8632 65.0752H98.9085Z" fill="#3B3E41"/>
<path d="M83.0833 65.0752C83.1938 65.0752 83.2833 65.1647 83.2833 65.2752V68.5198C83.2833 68.6302 83.1938 68.7198 83.0833 68.7198H75.875C75.7645 68.7198 75.675 68.8093 75.675 68.9198V72.457C75.675 72.5674 75.7645 72.657 75.875 72.657H81.1679C81.2784 72.657 81.3679 72.7465 81.3679 72.857V75.9951C81.3679 76.1056 81.2784 76.1951 81.1679 76.1951H75.875C75.7645 76.1951 75.675 76.2847 75.675 76.3951V83.5503C75.675 83.6608 75.5854 83.7503 75.475 83.7503H71.3259C71.2154 83.7503 71.1259 83.6608 71.1259 83.5503V65.2752C71.1259 65.1647 71.2154 65.0752 71.3259 65.0752H83.0833Z" fill="#3B3E41"/>
<path d="M67.8282 83.5503C67.8282 83.6608 67.7387 83.7503 67.6282 83.7503H63.3867C63.3195 83.7503 63.2569 83.7166 63.2198 83.6605L56.0376 72.7868C55.9283 72.6213 55.6708 72.6987 55.6708 72.897V83.5503C55.6708 83.6608 55.5812 83.7503 55.4708 83.7503H51.3217C51.2112 83.7503 51.1217 83.6608 51.1217 83.5503V65.2752C51.1217 65.1647 51.2112 65.0752 51.3217 65.0752H55.5629C55.6302 65.0752 55.693 65.1091 55.73 65.1653L62.912 76.089C63.0211 76.2549 63.2791 76.1777 63.2791 75.9791V65.2752C63.2791 65.1647 63.3687 65.0752 63.4791 65.0752H67.6282C67.7387 65.0752 67.8282 65.1647 67.8282 65.2752V83.5503Z" fill="#3B3E41"/>
</svg>
