<svg width="240" height="168" viewBox="0 0 240 168" fill="none" xmlns="http://www.w3.org/2000/svg">
<path d="M89.862 99.4423V93.7857H77V87.8901L86.0483 71.5577H94.6479V89.2445H98.9851V93.7857H94.6479V99.4423H89.862ZM81.5615 89.2445H89.862V74.8242H89.189L81.5615 88.6071V89.2445Z" fill="#717188"/>
<path d="M111.912 100C108.821 100 106.341 99.0971 104.472 97.2912C102.602 95.4588 101.667 92.6969 101.667 89.0055V81.9945C101.667 78.4093 102.602 75.6873 104.472 73.8283C106.341 71.9428 108.821 71 111.912 71C115.028 71 117.508 71.9428 119.353 73.8283C121.222 75.6873 122.157 78.4093 122.157 81.9945V89.0055C122.157 92.6969 121.222 95.4588 119.353 97.2912C117.508 99.0971 115.028 100 111.912 100ZM111.912 95.4588C113.782 95.4588 115.153 94.9144 116.025 93.8255C116.922 92.7367 117.371 91.1831 117.371 89.1648V81.7555C117.371 79.7106 116.873 78.1703 115.876 77.1346C114.903 76.0723 113.582 75.5412 111.912 75.5412C110.192 75.5412 108.846 76.0856 107.874 77.1745C106.927 78.2633 106.453 79.7903 106.453 81.7555V89.1648C106.453 91.2628 106.902 92.8429 107.799 93.9052C108.722 94.9409 110.093 95.4588 111.912 95.4588Z" fill="#717188"/>
<path d="M137.877 99.4423V93.7857H125.015V87.8901L134.063 71.5577H142.663V89.2445H147V93.7857H142.663V99.4423H137.877ZM129.576 89.2445H137.877V74.8242H137.204L129.576 88.6071V89.2445Z" fill="#717188"/>
<path d="M36.0078 92.6624L47.0885 92.6624C47.0885 107.137 58.866 118.917 73.3374 118.917L73.3374 130C52.7501 130 36.0078 113.246 36 92.6624L36.0078 92.6624Z" fill="#272735"/>
<path d="M35.9999 92.6631C35.9999 94.1338 38.4821 95.3261 41.5441 95.3261C44.6061 95.3261 47.0884 94.1338 47.0884 92.6631C47.0884 91.1923 44.6061 90 41.5441 90C38.4821 90 35.9999 91.1923 35.9999 92.6631Z" fill="#717188"/>
<path d="M70.675 124.454C70.675 127.517 71.8671 129.999 73.3375 129.999C74.808 129.999 76 127.517 76 124.454C76 121.391 74.808 118.909 73.3375 118.909C71.8671 118.909 70.675 121.391 70.675 124.454Z" fill="#717188"/>
<path d="M36.0078 89.6624L47.0885 89.6624C47.0885 104.137 58.866 115.917 73.3374 115.917L73.3374 127C52.7501 127 36.0078 110.246 36 89.6624L36.0078 89.6624Z" fill="#272735"/>
<path d="M35.9999 89.6631C35.9999 91.1338 38.4821 92.3261 41.5441 92.3261C44.6061 92.3261 47.0884 91.1338 47.0884 89.6631C47.0884 88.1923 44.6061 87 41.5441 87C38.4821 87 35.9999 88.1923 35.9999 89.6631Z" fill="#717188"/>
<path d="M70.675 121.454C70.675 124.517 71.8671 126.999 73.3375 126.999C74.808 126.999 76 124.517 76 121.454C76 118.391 74.808 115.909 73.3375 115.909C71.8671 115.909 70.675 118.391 70.675 121.454Z" fill="#717188"/>
<path d="M151.194 127H197.806C202.572 127 205.543 121.796 203.16 117.651L179.854 77.1085C177.471 72.9638 171.529 72.9638 169.146 77.1085L145.84 117.651C143.457 121.796 146.428 127 151.194 127Z" fill="#3B3B50"/>
<rect x="177.266" y="112.379" width="5.53125" height="23.7586" rx="2.76563" transform="rotate(-180 177.266 112.379)" fill="#717188"/>
<ellipse cx="174.5" cy="116.948" rx="2.76562" ry="2.74138" fill="#717188"/>
<path d="M86.6084 42.0001H37.9463V54.0002H86.6084V42.0001Z" fill="#272735"/>
<path d="M38.3358 54C39.6258 54 40.6716 51.3138 40.6716 48C40.6716 44.6863 39.6258 42 38.3358 42C37.0458 42 36 44.6863 36 48C36 51.3138 37.0458 54 38.3358 54Z" fill="#717188"/>
<path d="M86.9979 54.0002C88.2879 54.0002 89.3337 51.3139 89.3337 48.0002C89.3337 44.6864 88.2879 42.0001 86.9979 42.0001C85.7079 42.0001 84.6621 44.6864 84.6621 48.0002C84.6621 51.3139 85.7079 54.0002 86.9979 54.0002Z" fill="#717188"/>
</svg>
