<svg width="168" height="88" viewBox="0 0 168 88" fill="none" xmlns="http://www.w3.org/2000/svg">
<path d="M53.862 57.4423V51.7857H41V45.8901L50.0483 29.5577H58.6479V47.2445H62.9851V51.7857H58.6479V57.4423H53.862ZM45.5615 47.2445H53.862V32.8242H53.189L45.5615 46.6071V47.2445Z" fill="#717188"/>
<path d="M75.9122 58C72.8214 58 70.3412 57.0971 68.4717 55.2912C66.6022 53.4588 65.6675 50.6969 65.6675 47.0055V39.9945C65.6675 36.4093 66.6022 33.6873 68.4717 31.8283C70.3412 29.9428 72.8214 29 75.9122 29C79.028 29 81.5082 29.9428 83.3527 31.8283C85.2222 33.6873 86.157 36.4093 86.157 39.9945V47.0055C86.157 50.6969 85.2222 53.4588 83.3527 55.2912C81.5082 57.0971 79.028 58 75.9122 58ZM75.9122 53.4588C77.7817 53.4588 79.1527 52.9144 80.0251 51.8255C80.9224 50.7367 81.3711 49.1831 81.3711 47.1648V39.7555C81.3711 37.7106 80.8726 36.1703 79.8755 35.1346C78.9034 34.0723 77.5823 33.5412 75.9122 33.5412C74.1923 33.5412 72.8463 34.0856 71.8741 35.1745C70.9269 36.2633 70.4533 37.7903 70.4533 39.7555V47.1648C70.4533 49.2628 70.902 50.8429 71.7994 51.9052C72.7216 52.9409 74.0926 53.4588 75.9122 53.4588Z" fill="#717188"/>
<path d="M101.877 57.4423V51.7857H89.0149V45.8901L98.0632 29.5577H106.663V47.2445H111V51.7857H106.663V57.4423H101.877ZM93.5765 47.2445H101.877V32.8242H101.204L93.5765 46.6071V47.2445Z" fill="#717188"/>
<path d="M0.00783104 50.6625L11.0885 50.6625C11.0885 65.1368 22.866 76.9168 37.3374 76.9168L37.3374 87.9997C16.7501 87.9997 0.00782249 71.2461 -7.44431e-06 50.6625L0.00783104 50.6625Z" fill="#272735"/>
<path d="M-8.59471e-05 50.6631C-8.60114e-05 52.1338 2.48214 53.3261 5.54413 53.3261C8.60613 53.3261 11.0884 52.1338 11.0884 50.6631C11.0884 49.1923 8.60613 48 5.54413 48C2.48214 48 -8.58828e-05 49.1923 -8.59471e-05 50.6631Z" fill="#717188"/>
<path d="M34.675 82.454C34.675 85.5166 35.8671 87.9993 37.3375 87.9993C38.808 87.9993 40 85.5166 40 82.454C40 79.3913 38.808 76.9086 37.3375 76.9086C35.8671 76.9086 34.675 79.3913 34.675 82.454Z" fill="#717188"/>
<path d="M0.00783104 47.6625L11.0885 47.6625C11.0885 62.1368 22.866 73.9168 37.3374 73.9168L37.3374 84.9997C16.7501 84.9997 0.00782249 68.2461 -7.44431e-06 47.6625L0.00783104 47.6625Z" fill="#272735"/>
<path d="M-8.59471e-05 47.6631C-8.60114e-05 49.1338 2.48214 50.3261 5.54413 50.3261C8.60613 50.3261 11.0884 49.1338 11.0884 47.6631C11.0884 46.1923 8.60613 45 5.54413 45C2.48214 45 -8.58828e-05 46.1923 -8.59471e-05 47.6631Z" fill="#717188"/>
<path d="M34.675 79.454C34.675 82.5166 35.8671 84.9993 37.3375 84.9993C38.808 84.9993 40 82.5166 40 79.454C40 76.3913 38.808 73.9086 37.3375 73.9086C35.8671 73.9086 34.675 76.3913 34.675 79.454Z" fill="#717188"/>
<path d="M115.194 85H161.806C166.572 85 169.543 79.7958 167.16 75.6512L143.854 35.1085C141.471 30.9638 135.529 30.9638 133.146 35.1085L109.84 75.6512C107.457 79.7958 110.428 85 115.194 85Z" fill="#3B3B50"/>
<rect x="141.266" y="70.3793" width="5.53125" height="23.7586" rx="2.76563" transform="rotate(-180 141.266 70.3793)" fill="#717188"/>
<ellipse cx="138.5" cy="74.9483" rx="2.76562" ry="2.74138" fill="#717188"/>
<path d="M50.6084 0.00012207L1.94629 0.00012207L1.94629 12.0002L50.6084 12.0002V0.00012207Z" fill="#272735"/>
<path d="M2.33578 12C3.6258 12 4.67156 9.31376 4.67156 6.00004C4.67156 2.68632 3.6258 0 2.33578 0C1.04577 0 0 2.68632 0 6.00004C0 9.31376 1.04577 12 2.33578 12Z" fill="#717188"/>
<path d="M50.9979 12.0002C52.2879 12.0002 53.3337 9.31388 53.3337 6.00016C53.3337 2.68644 52.2879 0.00012207 50.9979 0.00012207C49.7079 0.00012207 48.6621 2.68644 48.6621 6.00016C48.6621 9.31388 49.7079 12.0002 50.9979 12.0002Z" fill="#717188"/>
</svg>
