<svg width="763" height="763" viewBox="0 0 763 763" fill="none" xmlns="http://www.w3.org/2000/svg">
<g opacity="0.3">
<path d="M652.02 381.035C652.021 311.513 623.844 246.133 572.671 196.984C521.498 147.834 453.427 120.771 381.043 120.772C308.66 120.773 240.587 147.838 189.412 196.99C138.238 246.141 110.058 311.522 110.057 381.044L200.384 381.042C200.385 336.619 217.981 292.111 253.215 258.27C287.361 225.474 332.742 207.403 381.042 207.444C429.298 207.443 474.722 225.471 508.866 258.266C544.1 292.106 561.737 336.571 561.693 381.036L652.02 381.035Z" fill="url(#paint0_linear_6306_619294)"/>
<path d="M110.057 381.043C110.056 450.565 138.233 515.945 189.406 565.094C240.579 614.244 308.65 641.307 381.034 641.306C453.418 641.305 521.49 614.239 572.665 565.088C623.84 515.937 652.019 450.556 652.02 381.034L561.693 381.036C561.692 425.459 544.096 469.967 508.862 503.808C474.717 536.603 429.335 554.675 381.036 554.634C332.78 554.634 287.355 536.606 253.211 503.812C217.978 469.972 200.34 425.507 200.384 381.042L110.057 381.043Z" fill="url(#paint1_linear_6306_619294)"/>
<path d="M606.884 360.184C581.95 360.185 561.737 369.508 561.737 381.008C561.737 392.509 581.949 401.831 606.883 401.831C631.817 401.83 652.03 392.507 652.031 381.007C652.031 369.506 631.818 360.184 606.884 360.184Z" fill="#1313D1"/>
<path d="M155.2 360.183C130.266 360.184 110.053 369.507 110.053 381.007C110.053 392.507 130.266 401.83 155.2 401.829C180.134 401.829 200.347 392.506 200.347 381.006C200.347 369.505 180.134 360.183 155.2 360.183Z" fill="#1313D1"/>
</g>
<defs>
<linearGradient id="paint0_linear_6306_619294" x1="289.048" y1="102.438" x2="371.926" y2="443.21" gradientUnits="userSpaceOnUse">
<stop stop-color="#524BEB"/>
<stop offset="1" stop-color="#DDBAFF"/>
</linearGradient>
<linearGradient id="paint1_linear_6306_619294" x1="627.098" y1="393.397" x2="138.396" y2="395.51" gradientUnits="userSpaceOnUse">
<stop stop-color="#524BEB"/>
<stop offset="1" stop-color="#9793F3"/>
</linearGradient>
</defs>
</svg>
