<svg width="551" height="551" viewBox="0 0 551 551" fill="none" xmlns="http://www.w3.org/2000/svg">
<g opacity="0.3">
<path d="M470.971 275.231C470.972 225.014 450.618 177.788 413.655 142.286C376.691 106.784 327.522 87.2359 275.237 87.2368C222.952 87.2376 173.782 106.788 136.817 142.291C99.8524 177.794 79.4977 225.02 79.4969 275.238L144.742 275.237C144.743 243.148 157.453 210.999 182.904 186.555C207.568 162.866 240.348 149.813 275.236 149.842C310.092 149.842 342.904 162.864 367.567 186.552C393.017 210.995 405.757 243.114 405.725 275.232L470.971 275.231Z" fill="url(#paint0_linear_6306_619299)"/>
<path d="M79.4972 275.237C79.4964 325.455 99.8494 372.68 136.813 408.182C173.776 443.684 222.946 463.233 275.231 463.232C327.515 463.231 376.686 443.681 413.651 408.178C450.615 372.675 470.97 325.448 470.971 275.231L405.725 275.232C405.725 307.32 393.015 339.469 367.564 363.914C342.9 387.602 310.12 400.656 275.232 400.626C240.376 400.627 207.564 387.605 182.901 363.917C157.451 339.473 144.711 307.355 144.743 275.236L79.4972 275.237Z" fill="url(#paint1_linear_6306_619299)"/>
<path d="M438.368 260.171C420.358 260.171 405.757 266.905 405.757 275.212C405.757 283.519 420.357 290.253 438.368 290.253C456.378 290.252 470.979 283.518 470.979 275.211C470.979 266.904 456.379 260.17 438.368 260.171Z" fill="#1313D1"/>
<path d="M112.106 260.17C94.0951 260.17 79.4946 266.904 79.4944 275.211C79.4943 283.518 94.0945 290.252 112.105 290.252C130.115 290.251 144.716 283.517 144.716 275.21C144.716 266.903 130.116 260.169 112.106 260.17Z" fill="#1313D1"/>
</g>
<defs>
<linearGradient id="paint0_linear_6306_619299" x1="208.786" y1="73.9934" x2="268.651" y2="320.142" gradientUnits="userSpaceOnUse">
<stop stop-color="#524BEB"/>
<stop offset="1" stop-color="#DDBAFF"/>
</linearGradient>
<linearGradient id="paint1_linear_6306_619299" x1="452.969" y1="284.161" x2="99.9669" y2="285.687" gradientUnits="userSpaceOnUse">
<stop stop-color="#524BEB"/>
<stop offset="1" stop-color="#9793F3"/>
</linearGradient>
</defs>
</svg>
