<svg width="240" height="168" viewBox="0 0 240 168" fill="none" xmlns="http://www.w3.org/2000/svg">
<rect x="55" y="59" width="100" height="34" rx="8" fill="#717188"/>
<rect x="69" y="69" width="72" height="5" rx="2.5" fill="#272735"/>
<rect x="69" y="78" width="50" height="5" rx="2.5" fill="#272735"/>
<circle cx="61" cy="60" r="17" fill="#3B3B50"/>
<rect x="66.0908" y="52" width="4.11406" height="18.5133" rx="2.05703" transform="rotate(45 66.0908 52)" fill="#717188"/>
<rect x="69.0005" y="65.0908" width="4.11406" height="18.5133" rx="2.05703" transform="rotate(135 69.0005 65.0908)" fill="#717188"/>
<path fill-rule="evenodd" clip-rule="evenodd" d="M169.8 103.952L160.786 94.9375L165.938 89.7858L174.952 98.7999L169.8 103.952Z" fill="#272735"/>
<circle cx="152.286" cy="81.2857" r="15.7857" fill="#B8B8C4" fill-opacity="0.7"/>
<path fill-rule="evenodd" clip-rule="evenodd" d="M192.463 121.462C190.092 123.833 186.248 123.833 183.877 121.462L168.072 105.658L176.658 97.0714L192.463 112.876C194.834 115.247 194.834 119.091 192.463 121.462Z" fill="#3B3B50"/>
<path d="M136.152 97.5991C140.508 101.956 146.304 104.355 152.466 104.355C158.628 104.355 164.423 101.956 168.779 97.5997C173.136 93.2432 175.534 87.4482 175.534 81.2861C175.534 75.124 173.135 69.3289 168.779 64.9723L163.34 70.4113C166.128 73.1995 167.852 77.0444 167.852 81.286C167.852 85.3941 166.254 89.2611 163.347 92.1679C160.441 95.0746 156.577 96.6763 152.466 96.6725C148.224 96.6724 144.375 94.9446 141.591 92.1601L136.156 97.5954L136.152 97.5991Z" fill="#717188"/>
<path d="M168.779 64.9723C164.422 60.6157 158.627 58.2168 152.465 58.2167C146.303 58.2166 140.511 60.6116 136.151 64.9717C131.795 69.3282 129.396 75.1232 129.396 81.2853C129.396 87.4474 131.795 93.2426 136.152 97.5991L141.591 92.1601C138.803 89.3719 137.079 85.527 137.078 81.2854C137.078 77.1774 138.676 73.3103 141.583 70.4036C144.49 67.4968 148.353 65.8952 152.465 65.8989C156.707 65.899 160.555 67.6268 163.34 70.4113L168.775 64.976L168.779 64.9723Z" fill="#3B3B50"/>
<path d="M140.175 96.1865C141.676 94.6856 142.308 92.8845 141.587 92.1637C140.866 91.4429 139.065 92.0754 137.564 93.5763C136.063 95.0772 135.431 96.8783 136.152 97.5991C136.873 98.3199 138.674 97.6874 140.175 96.1865Z" fill="#272735"/>
<path d="M167.366 68.995C168.867 67.4941 169.499 65.693 168.779 64.9722C168.058 64.2514 166.257 64.8838 164.756 66.3848C163.255 67.8857 162.622 69.6867 163.343 70.4075C164.064 71.1283 165.865 70.4959 167.366 68.995Z" fill="#272735"/>
</svg>
