<svg width="152" height="82" viewBox="0 0 152 82" fill="none" xmlns="http://www.w3.org/2000/svg">
<rect x="11" y="16" width="100" height="34" rx="8" fill="#717188"/>
<rect x="25" y="26" width="72" height="5" rx="2.5" fill="#272735"/>
<rect x="25" y="35" width="50" height="5" rx="2.5" fill="#272735"/>
<circle cx="17" cy="17" r="17" fill="#3B3B50"/>
<rect x="22.0908" y="9" width="4.11406" height="18.5133" rx="2.05703" transform="rotate(45 22.0908 9)" fill="#717188"/>
<rect x="25.0005" y="22.0908" width="4.11406" height="18.5133" rx="2.05703" transform="rotate(135 25.0005 22.0908)" fill="#717188"/>
<path fill-rule="evenodd" clip-rule="evenodd" d="M125.8 60.9517L116.786 51.9375L121.938 46.7858L130.952 55.7999L125.8 60.9517Z" fill="#272735"/>
<circle cx="108.286" cy="38.2857" r="15.7857" fill="#B8B8C4" fill-opacity="0.7"/>
<path fill-rule="evenodd" clip-rule="evenodd" d="M148.463 78.4625C146.092 80.8335 142.248 80.8335 139.877 78.4625L124.072 62.6577L132.658 54.0714L148.463 69.8762C150.834 72.2472 150.834 76.0914 148.463 78.4625V78.4625Z" fill="#3B3B50"/>
<path d="M92.1519 54.5991C96.5084 58.9557 102.304 61.3546 108.466 61.3547C114.628 61.3549 120.423 58.9561 124.779 54.5997C129.136 50.2432 131.534 44.4482 131.534 38.2861C131.534 32.124 129.135 26.3289 124.779 21.9723L119.34 27.4113C122.128 30.1995 123.852 34.0444 123.852 38.286C123.852 42.3941 122.254 46.2611 119.347 49.1679C116.441 52.0746 112.577 53.6763 108.466 53.6725C104.224 53.6724 100.375 51.9446 97.5909 49.1601L92.1556 54.5954L92.1519 54.5991Z" fill="#717188"/>
<path d="M124.779 21.9723C120.422 17.6157 114.627 15.2168 108.465 15.2167C102.303 15.2166 96.5114 17.6116 92.1513 21.9717C87.7949 26.3282 85.3961 32.1232 85.3962 38.2853C85.3963 44.4474 87.7953 50.2425 92.1519 54.5991L97.5909 49.1601C94.8027 46.3719 93.0786 42.527 93.0785 38.2854C93.0784 34.1774 94.6764 30.3103 97.5831 27.4036C100.49 24.4968 104.353 22.8952 108.465 22.8989C112.707 22.899 116.555 24.6268 119.34 27.4113L124.775 21.976L124.779 21.9723Z" fill="#3B3B50"/>
<path d="M96.1746 53.1865C97.6755 51.6856 98.3079 49.8845 97.5871 49.1637C96.8663 48.4429 95.0653 49.0754 93.5643 50.5763C92.0634 52.0772 91.431 53.8783 92.1518 54.5991C92.8726 55.3199 94.6737 54.6874 96.1746 53.1865Z" fill="#272735"/>
<path d="M123.366 25.995C124.867 24.4941 125.499 22.693 124.779 21.9722C124.058 21.2514 122.257 21.8838 120.756 23.3848C119.255 24.8857 118.622 26.6867 119.343 27.4075C120.064 28.1283 121.865 27.4959 123.366 25.995Z" fill="#272735"/>
</svg>
