<svg width="1091" height="896" viewBox="0 0 1091 896" fill="none" xmlns="http://www.w3.org/2000/svg">
<g filter="url(#filter0_d_358_11618)">
<path d="M312.108 465.031C275.266 451.59 238.402 444.142 204.204 443.525C139.619 442.401 90.2394 465.295 65.5604 508.131C40.8814 550.967 45.685 605.172 79.0678 660.788C107.845 708.692 155.815 753.665 214.163 787.422C243.337 804.301 273.635 817.522 303.603 826.666L322.971 744.609C300.65 737.381 277.888 727.245 256.096 714.619C210.506 688.244 172.187 652.834 150.923 617.446C134.463 590.056 129.704 564.893 138.187 550.173C146.671 535.454 170.777 527.015 202.683 527.588C229.83 528.094 260.701 535.013 291.638 547.221L312.108 465.053V465.031Z" fill="#524BEB"/>
<path d="M516.26 624.079C487.482 576.175 439.512 531.202 381.164 497.444C358.601 484.378 335.354 473.515 312.107 465.031L291.637 547.199C307.656 553.523 323.697 561.257 339.232 570.248C384.822 596.623 423.141 632.033 444.382 667.421C460.842 694.81 465.602 719.974 457.118 734.693C448.635 749.413 424.529 757.83 392.622 757.279C371.116 756.882 347.297 752.476 322.948 744.587L303.58 826.645C333.547 835.789 363.206 840.813 391.102 841.342C392.688 841.364 394.275 841.386 395.839 841.386C458.242 841.386 505.683 818.536 529.767 776.736C554.446 733.9 549.642 679.695 516.26 624.079Z" fill="url(#paint0_linear_358_11618)"/>
<path d="M331.955 790.342C337.564 767.797 333.513 747.383 322.908 744.745C312.303 742.106 299.16 758.244 293.551 780.788C287.943 803.332 291.993 823.747 302.598 826.385C313.203 829.024 326.347 812.886 331.955 790.342Z" fill="#1313D1"/>
<path d="M321.089 510.918C326.724 488.267 322.695 467.767 312.09 465.128C301.485 462.49 288.32 478.713 282.685 501.364C277.05 524.015 281.079 544.516 291.684 547.154C302.289 549.792 315.454 533.569 321.089 510.918Z" fill="#1313D1"/>
</g>
<g filter="url(#filter1_d_358_11618)">
<path d="M559.78 266.498C522.938 253.056 486.073 245.609 451.875 244.992C387.291 243.868 337.911 266.762 313.232 309.598C288.553 352.433 293.357 406.639 326.74 462.255C355.517 510.159 403.487 555.132 461.835 588.889C491.009 605.768 521.307 618.989 551.274 628.133L570.643 546.075C548.322 538.848 525.56 528.712 503.767 516.086C458.177 489.71 419.859 454.3 398.595 418.913C382.135 391.523 377.376 366.359 385.859 351.64C394.342 336.921 418.449 328.482 450.355 329.055C477.502 329.561 508.373 336.48 539.31 348.688L559.78 266.52V266.498Z" fill="#524BEB"/>
<path d="M763.932 425.545C735.154 377.642 687.184 332.669 628.836 298.911C606.272 285.845 583.026 274.981 559.779 266.498L539.309 348.666C555.328 354.99 571.369 362.724 586.904 371.714C632.494 398.09 670.812 433.5 692.054 468.888C708.514 496.277 713.273 521.441 704.79 536.16C696.307 550.879 672.201 559.297 640.294 558.746C618.788 558.349 594.969 553.942 570.62 546.054L551.251 628.112C581.219 637.256 610.878 642.28 638.774 642.809C640.36 642.831 641.947 642.853 643.511 642.853C705.914 642.853 753.355 620.003 777.439 578.203C802.118 535.367 797.314 481.161 763.932 425.545Z" fill="url(#paint1_linear_358_11618)"/>
<path d="M579.649 591.794C585.257 569.25 581.207 548.835 570.602 546.197C559.997 543.559 546.853 559.696 541.245 582.24C535.636 604.785 539.687 625.199 550.292 627.837C560.897 630.476 574.04 614.339 579.649 591.794Z" fill="#1313D1"/>
<path d="M568.783 312.37C574.417 289.719 570.388 269.219 559.783 266.581C549.178 263.942 536.013 280.166 530.379 302.816C524.744 325.467 528.773 345.968 539.378 348.606C549.983 351.244 563.148 335.021 568.783 312.37Z" fill="#1313D1"/>
</g>
<g filter="url(#filter2_d_358_11618)">
<path d="M807.452 67.5455C770.61 54.1042 733.745 46.6565 699.547 46.0395C634.963 44.9157 585.583 67.8099 560.904 110.646C536.225 153.481 541.029 207.687 574.412 263.303C603.189 311.207 651.159 356.18 709.507 389.937C738.681 406.816 768.979 420.037 798.946 429.181L818.315 347.123C795.994 339.896 773.232 329.76 751.439 317.134C705.849 290.758 667.531 255.348 646.267 219.96C629.807 192.571 625.048 167.407 633.531 152.688C642.014 137.969 666.12 129.529 698.027 130.102C725.174 130.609 756.045 137.528 786.981 149.735L807.452 67.5675V67.5455Z" fill="#524BEB"/>
<path d="M1011.6 226.594C982.826 178.69 934.856 133.717 876.508 99.9596C853.944 86.893 830.698 76.0298 807.451 67.5464L786.98 149.714C803 156.038 819.041 163.772 834.576 172.763C880.166 199.138 918.484 234.548 939.726 269.936C956.186 297.326 960.945 322.489 952.462 337.209C943.979 351.928 919.872 360.345 887.966 359.794C866.46 359.398 842.64 354.991 818.292 347.102L798.923 429.16C828.891 438.304 858.55 443.328 886.446 443.857C888.032 443.879 889.619 443.901 891.183 443.901C953.586 443.901 1001.03 421.051 1025.11 379.251C1049.79 336.415 1044.99 282.21 1011.6 226.594Z" fill="url(#paint2_linear_358_11618)"/>
<path d="M827.334 392.835C832.943 370.291 828.892 349.876 818.287 347.238C807.682 344.6 794.539 360.737 788.93 383.281C783.322 405.826 787.372 426.24 797.977 428.878C808.582 431.517 821.726 415.38 827.334 392.835Z" fill="#1313D1"/>
<path d="M816.445 113.412C822.08 90.761 818.051 70.2603 807.446 67.622C796.841 64.9838 783.676 81.2071 778.041 103.858C772.406 126.509 776.435 147.009 787.04 149.648C797.645 152.286 810.81 136.062 816.445 113.412Z" fill="#1313D1"/>
</g>
<defs>
<filter id="filter0_d_358_11618" x="0" y="397.485" width="595.328" height="497.9" filterUnits="userSpaceOnUse" color-interpolation-filters="sRGB">
<feFlood flood-opacity="0" result="BackgroundImageFix"/>
<feColorMatrix in="SourceAlpha" type="matrix" values="0 0 0 0 0 0 0 0 0 0 0 0 0 0 0 0 0 0 127 0" result="hardAlpha"/>
<feOffset dy="4"/>
<feGaussianBlur stdDeviation="25"/>
<feComposite in2="hardAlpha" operator="out"/>
<feColorMatrix type="matrix" values="0 0 0 0 0 0 0 0 0 0 0 0 0 0 0 0 0 0 0.03 0"/>
<feBlend mode="normal" in2="BackgroundImageFix" result="effect1_dropShadow_358_11618"/>
<feBlend mode="normal" in="SourceGraphic" in2="effect1_dropShadow_358_11618" result="shape"/>
</filter>
<filter id="filter1_d_358_11618" x="247.672" y="198.952" width="595.328" height="497.9" filterUnits="userSpaceOnUse" color-interpolation-filters="sRGB">
<feFlood flood-opacity="0" result="BackgroundImageFix"/>
<feColorMatrix in="SourceAlpha" type="matrix" values="0 0 0 0 0 0 0 0 0 0 0 0 0 0 0 0 0 0 127 0" result="hardAlpha"/>
<feOffset dy="4"/>
<feGaussianBlur stdDeviation="25"/>
<feComposite in2="hardAlpha" operator="out"/>
<feColorMatrix type="matrix" values="0 0 0 0 0 0 0 0 0 0 0 0 0 0 0 0 0 0 0.03 0"/>
<feBlend mode="normal" in2="BackgroundImageFix" result="effect1_dropShadow_358_11618"/>
<feBlend mode="normal" in="SourceGraphic" in2="effect1_dropShadow_358_11618" result="shape"/>
</filter>
<filter id="filter2_d_358_11618" x="495.344" y="0" width="595.328" height="497.901" filterUnits="userSpaceOnUse" color-interpolation-filters="sRGB">
<feFlood flood-opacity="0" result="BackgroundImageFix"/>
<feColorMatrix in="SourceAlpha" type="matrix" values="0 0 0 0 0 0 0 0 0 0 0 0 0 0 0 0 0 0 127 0" result="hardAlpha"/>
<feOffset dy="4"/>
<feGaussianBlur stdDeviation="25"/>
<feComposite in2="hardAlpha" operator="out"/>
<feColorMatrix type="matrix" values="0 0 0 0 0 0 0 0 0 0 0 0 0 0 0 0 0 0 0.03 0"/>
<feBlend mode="normal" in2="BackgroundImageFix" result="effect1_dropShadow_358_11618"/>
<feBlend mode="normal" in="SourceGraphic" in2="effect1_dropShadow_358_11618" result="shape"/>
</filter>
<linearGradient id="paint0_linear_358_11618" x1="205.863" y1="947.116" x2="707.014" y2="188.163" gradientUnits="userSpaceOnUse">
<stop offset="0.09" stop-color="#95A931"/>
<stop offset="0.1" stop-color="#97AB33"/>
<stop offset="0.31" stop-color="#C2D754"/>
<stop offset="0.41" stop-color="#D3E961"/>
<stop offset="0.49" stop-color="#D7EB6D"/>
<stop offset="0.6" stop-color="#DBEE77"/>
<stop offset="0.73" stop-color="#DDEF7B"/>
</linearGradient>
<linearGradient id="paint1_linear_358_11618" x1="453.535" y1="748.583" x2="954.686" y2="-10.3702" gradientUnits="userSpaceOnUse">
<stop offset="0.09" stop-color="#95A931"/>
<stop offset="0.1" stop-color="#97AB33"/>
<stop offset="0.31" stop-color="#C2D754"/>
<stop offset="0.41" stop-color="#D3E961"/>
<stop offset="0.49" stop-color="#D7EB6D"/>
<stop offset="0.6" stop-color="#DBEE77"/>
<stop offset="0.73" stop-color="#DDEF7B"/>
</linearGradient>
<linearGradient id="paint2_linear_358_11618" x1="701.207" y1="549.632" x2="1202.36" y2="-209.322" gradientUnits="userSpaceOnUse">
<stop offset="0.09" stop-color="#95A931"/>
<stop offset="0.1" stop-color="#97AB33"/>
<stop offset="0.31" stop-color="#C2D754"/>
<stop offset="0.41" stop-color="#D3E961"/>
<stop offset="0.49" stop-color="#D7EB6D"/>
<stop offset="0.6" stop-color="#DBEE77"/>
<stop offset="0.73" stop-color="#DDEF7B"/>
</linearGradient>
</defs>
</svg>
