<svg width="24" height="24" viewBox="0 0 24 24" fill="none" xmlns="http://www.w3.org/2000/svg">
<g clip-path="url(#clip0_8745_38446)">
<path d="M12 24C18.6274 24 24 18.6274 24 12C24 5.37258 18.6274 0 12 0C5.37258 0 0 5.37258 0 12C0 18.6274 5.37258 24 12 24Z" fill="#5ABAEC"/>
<path d="M17.7837 12.0419L14.867 13.2082C14.6458 13.2981 14.5 13.5119 14.5 13.75C14.5 15.288 15.1295 17.8514 17.7764 18.9544C17.9198 19.0152 18.0826 19.0152 18.226 18.9544C20.8705 17.8514 21.5 15.288 21.5 13.75C21.5 13.5119 21.3542 13.2981 21.133 13.2082L18.2163 12.0419C18.0778 11.986 17.9222 11.986 17.7837 12.0419ZM20.3188 14.1388C20.224 15.3706 19.6576 16.9742 18 17.776V13.2106L20.3188 14.1388Z" fill="#F8FAFC"/>
<path fill-rule="evenodd" clip-rule="evenodd" d="M12 9.25C12.9665 9.25 13.75 8.4665 13.75 7.5C13.75 6.5335 12.9665 5.75 12 5.75C11.0335 5.75 10.25 6.5335 10.25 7.5C10.25 8.4665 11.0335 9.25 12 9.25ZM12 11C13.933 11 15.5 9.433 15.5 7.5C15.5 5.567 13.933 4 12 4C10.067 4 8.5 5.567 8.5 7.5C8.5 9.433 10.067 11 12 11Z" fill="#F8FAFC"/>
<path fill-rule="evenodd" clip-rule="evenodd" d="M9.36266 12.2591C10.2029 12.0046 11.0986 11.875 12 11.875C12.9014 11.875 13.7971 12.0046 14.6373 12.2591C15.4773 12.5135 16.2521 12.8897 16.9139 13.3736C17.5757 13.8575 16.1167 14.4436 16.4921 15.1062C16.7089 15.489 16.8675 15.8922 16.9629 16.3079C17.1938 17.3152 16.3043 18 15.4975 18H6.5025C5.69574 18 4.80621 17.3152 5.03714 16.3079C5.13245 15.8922 5.29109 15.489 5.50791 15.1062C5.88331 14.4436 6.42426 13.8575 7.08613 13.3736C7.74789 12.8897 8.5227 12.5135 9.36266 12.2591ZM12 13.4062C11.2512 13.4062 10.513 13.5142 9.82865 13.7214C9.14406 13.9287 8.53363 14.2293 8.02856 14.5986C7.52359 14.9678 7.13896 15.3945 6.88287 15.8465C6.76706 16.0509 6.67826 16.2592 6.61572 16.4687H15.3843C15.3217 16.2592 15.2329 16.0509 15.1171 15.8465C14.861 15.3945 16.4764 14.9678 15.9714 14.5986C15.4664 14.2293 14.8559 13.9287 14.1714 13.7214C13.487 13.5142 12.7488 13.4062 12 13.4062Z" fill="#F8FAFC"/>
</g>
<defs>
<clipPath id="clip0_8745_38446">
<rect width="24" height="24" fill="white"/>
</clipPath>
</defs>
</svg>
