<svg width="2143" height="439" viewBox="0 0 2143 439" fill="none" xmlns="http://www.w3.org/2000/svg">
<path d="M522 310.544H568.08C568.08 323.173 572.688 333.243 581.904 340.752C591.12 347.92 603.579 351.504 619.28 351.504C636.347 351.504 649.488 348.261 658.704 341.776C667.92 334.949 672.528 325.904 672.528 314.64C672.528 306.448 669.968 299.621 664.848 294.16C660.069 288.699 651.195 284.261 638.224 280.848L594.192 270.608C572.005 265.147 555.451 256.784 544.528 245.52C533.947 234.256 528.656 219.408 528.656 200.976C528.656 185.616 532.581 172.304 540.432 161.04C548.624 149.776 559.717 141.072 573.712 134.928C588.048 128.784 604.432 125.712 622.864 125.712C641.296 125.712 657.168 128.955 670.48 135.44C684.133 141.925 694.715 150.971 702.224 162.576C710.075 174.181 714.171 188.005 714.512 204.048H668.432C668.091 191.077 663.824 181.008 655.632 173.84C647.44 166.672 636.005 163.088 621.328 163.088C606.309 163.088 594.704 166.331 586.512 172.816C578.32 179.301 574.224 188.176 574.224 199.44C574.224 216.165 586.512 227.6 611.088 233.744L655.12 244.496C676.283 249.275 692.155 257.125 702.736 268.048C713.317 278.629 718.608 293.136 718.608 311.568C718.608 327.269 714.341 341.093 705.808 353.04C697.275 364.645 685.499 373.691 670.48 380.176C655.803 386.32 638.395 389.392 618.256 389.392C588.901 389.392 565.52 382.224 548.112 367.888C530.704 353.552 522 334.437 522 310.544Z" fill="white"/>
<path d="M880.012 389.392C855.777 389.392 834.273 383.931 815.5 373.008C796.727 361.744 782.049 346.384 771.468 326.928C760.887 307.131 755.596 284.261 755.596 258.32C755.596 232.037 760.716 208.997 770.956 189.2C781.537 169.403 795.873 153.872 813.964 142.608C832.396 131.344 853.729 125.712 877.964 125.712C901.857 125.712 922.508 130.832 939.916 141.072C957.665 151.312 971.319 165.648 980.876 184.08C990.775 202.512 995.724 224.187 995.724 249.104V267.024L781.196 267.536L782.22 235.28H947.596C947.596 214.459 941.281 197.733 928.652 185.104C916.023 172.475 899.127 166.16 877.964 166.16C861.921 166.16 848.097 169.744 836.492 176.912C825.228 183.739 816.524 193.979 810.38 207.632C804.577 220.944 801.676 236.987 801.676 255.76C801.676 285.797 808.503 309.008 822.156 325.392C835.809 341.435 855.436 349.456 881.036 349.456C899.809 349.456 915.169 345.701 927.116 338.192C939.063 330.683 947.084 319.76 951.18 305.424H996.236C990.092 332.048 976.951 352.699 956.812 367.376C936.673 382.053 911.073 389.392 880.012 389.392Z" fill="white"/>
<path d="M1049.48 383.248V132.88H1097.61V383.248H1049.48ZM1073.03 73.488C1064.5 73.488 1056.99 70.416 1050.5 64.272C1044.36 57.7867 1041.29 50.2773 1041.29 41.744C1041.29 32.8693 1044.36 25.36 1050.5 19.216C1056.99 13.072 1064.5 10 1073.03 10C1081.91 10 1089.42 13.072 1095.56 19.216C1101.7 25.36 1104.78 32.8693 1104.78 41.744C1104.78 50.2773 1101.7 57.7867 1095.56 64.272C1089.42 70.416 1081.91 73.488 1073.03 73.488Z" fill="white"/>
<path d="M1176.78 316.688H1199.82C1199.82 332.389 1205.28 344.848 1216.2 354.064C1227.46 363.28 1242.48 367.888 1261.26 367.888C1282.08 367.888 1298.46 363.621 1310.41 355.088C1322.35 346.213 1328.33 334.267 1328.33 319.248C1328.33 307.301 1325.08 297.915 1318.6 291.088C1312.11 284.261 1300.85 278.8 1284.81 274.704L1243.34 263.952C1222.51 258.491 1206.98 250.128 1196.74 238.864C1186.5 227.6 1181.38 214.459 1181.38 199.44C1181.38 185.787 1184.8 173.84 1191.62 163.6C1198.79 153.36 1208.69 145.509 1221.32 140.048C1234.29 134.245 1249.14 131.344 1265.86 131.344C1282.93 131.344 1297.61 134.245 1309.9 140.048C1322.18 145.851 1331.74 154.043 1338.57 164.624C1345.74 175.205 1349.49 188.005 1349.83 203.024H1326.79C1326.11 186.981 1320.31 174.693 1309.38 166.16C1298.8 157.285 1284.3 152.848 1265.86 152.848C1246.07 152.848 1230.88 156.944 1220.3 165.136C1210.06 172.987 1204.94 184.421 1204.94 199.44C1204.94 220.944 1219.61 235.451 1248.97 242.96L1289.93 253.712C1311.43 259.173 1327.13 267.195 1337.03 277.776C1346.93 288.357 1351.88 302.181 1351.88 319.248C1351.88 333.243 1348.12 345.531 1340.62 356.112C1333.11 366.693 1322.7 374.885 1309.38 380.688C1296.07 386.491 1280.37 389.392 1262.28 389.392C1236.34 389.392 1215.52 382.907 1199.82 369.936C1184.46 356.624 1176.78 338.875 1176.78 316.688Z" fill="#92A4B5"/>
<path d="M1396.36 261.392C1396.36 235.451 1401.14 212.752 1410.7 193.296C1420.59 173.84 1434.25 158.651 1451.66 147.728C1469.06 136.805 1489.54 131.344 1513.1 131.344C1539.38 131.344 1561.74 138.512 1580.17 152.848C1598.94 167.184 1611.06 185.957 1616.52 209.168H1592.46C1587.34 191.077 1577.27 177.083 1562.25 167.184C1547.57 157.285 1531.19 152.336 1513.1 152.336C1495 152.336 1478.79 156.773 1464.46 165.648C1450.46 174.523 1439.37 187.152 1431.18 203.536C1423.32 219.579 1419.4 238.693 1419.4 260.88C1419.4 282.043 1423.15 300.645 1430.66 316.688C1438.17 332.731 1448.75 345.36 1462.41 354.576C1476.06 363.451 1491.93 367.888 1510.02 367.888C1529.82 367.888 1547.23 362.768 1562.25 352.528C1577.61 342.288 1588.02 328.805 1593.48 312.08H1617.54C1613.11 327.44 1605.77 340.923 1595.53 352.528C1585.29 364.133 1572.83 373.179 1558.15 379.664C1543.47 386.149 1527.43 389.392 1510.02 389.392C1487.5 389.392 1467.7 384.101 1450.63 373.52C1433.56 362.597 1420.25 347.579 1410.7 328.464C1401.14 309.349 1396.36 286.992 1396.36 261.392Z" fill="#92A4B5"/>
<path d="M1743.92 389.392C1717.64 389.392 1697.16 382.736 1682.48 369.424C1668.15 356.112 1660.98 339.045 1660.98 318.224C1660.98 295.696 1669.17 277.605 1685.56 263.952C1701.94 250.299 1724.47 242.277 1753.14 239.888L1837.62 233.232V224.016C1837.62 205.584 1834.38 191.248 1827.89 181.008C1821.41 170.427 1812.7 163.088 1801.78 158.992C1790.86 154.896 1778.91 152.848 1765.94 152.848C1743.07 152.848 1725.15 157.968 1712.18 168.208C1699.55 178.107 1693.24 192.101 1693.24 210.192H1669.68C1669.68 194.149 1673.61 180.325 1681.46 168.72C1689.65 156.773 1701.09 147.557 1715.76 141.072C1730.44 134.587 1747.34 131.344 1766.45 131.344C1784.2 131.344 1800.07 134.416 1814.07 140.56C1828.4 146.363 1839.84 155.92 1848.37 169.232C1856.9 182.203 1861.17 199.269 1861.17 220.432V383.248H1842.23L1837.62 337.168C1829.09 353.893 1816.63 366.864 1800.24 376.08C1783.86 384.955 1765.09 389.392 1743.92 389.392ZM1747 368.4C1776.01 368.4 1798.37 358.843 1814.07 339.728C1829.77 320.613 1837.62 296.037 1837.62 266V252.688L1755.19 259.344C1730.27 261.392 1712.18 267.877 1700.92 278.8C1689.99 289.723 1684.53 302.693 1684.53 317.712C1684.53 334.437 1690.33 347.067 1701.94 355.6C1713.54 364.133 1728.56 368.4 1747 368.4Z" fill="#92A4B5"/>
<path d="M1959.34 383.248H1935.79V137.488H1954.74L1959.86 185.104C1968.05 168.037 1979.99 154.896 1995.7 145.68C2011.4 136.123 2028.46 131.344 2046.9 131.344C2081.71 131.344 2106.29 140.731 2120.62 159.504C2135.3 178.277 2142.64 203.024 2142.64 233.744V383.248H2119.09V238.352C2119.09 205.925 2112.43 183.568 2099.12 171.28C2086.15 158.992 2068.57 152.848 2046.38 152.848C2018.39 152.848 1996.89 162.405 1981.87 181.52C1966.85 200.293 1959.34 225.211 1959.34 256.272V383.248Z" fill="#92A4B5"/>
<path fill-rule="evenodd" clip-rule="evenodd" d="M217.445 439C282.206 439 340.39 410.71 380.41 365.764C361.794 349.514 333.738 348.527 313.918 364.589L310.132 367.657C273.843 397.065 220.966 392.722 189.917 357.784C172.982 338.728 143.981 336.783 124.673 353.406L81.0176 390.994C118.408 421.036 165.837 439 217.445 439ZM288.306 332.711C322.871 304.699 371.454 305.704 404.697 332.758C424.568 299.692 436 260.937 436 219.5C436 173.456 421.885 130.724 397.762 95.4299C382.211 92.1037 365.355 95.9884 352.56 107.376L348.919 110.617C314.02 141.676 261 139.789 228.378 106.326C210.586 88.0762 181.526 87.4766 163.003 104.978L112.201 152.979L84.2538 123.145L135.056 75.1444C169.754 42.3596 224.192 43.4823 257.521 77.6698C274.935 95.5332 303.239 96.5409 321.869 79.9602L325.51 76.7192C336.819 66.6546 349.904 59.8695 363.602 56.301C324.882 21.3005 273.64 0 217.445 0C106.497 0 14.8586 83.0272 0.767531 190.59C34.4666 174.349 76.0343 180.599 103.511 208.858C120.857 226.698 148.788 228.581 168.352 213.23L196.757 190.943C232.454 162.934 282.918 164.289 317.073 194.176L372.373 242.564L345.581 273.448L290.281 225.06C270.86 208.066 242.165 207.295 221.866 223.222L193.462 245.508C157.516 273.712 106.2 270.252 74.331 237.476C55.799 218.416 25.4897 217.751 6.14669 235.98L0 241.772C4.60001 287.618 23.2469 329.3 51.5525 362.411L98.1269 322.309C134.295 291.168 188.623 294.812 220.346 330.509C236.921 349.16 265.148 351.479 284.52 335.779L288.306 332.711Z" fill="white"/>
</svg>
