<svg width="740" height="518" viewBox="0 0 740 518" fill="none" xmlns="http://www.w3.org/2000/svg">
<path d="M277.074 306.613V289.172H237.416V270.994L265.315 220.636H291.83V275.17H305.203V289.172H291.83V306.613H277.074ZM251.481 275.17H277.074V230.707H274.999L251.481 273.205V275.17Z" fill="#1D343F"/>
<path d="M345.062 308.333C335.532 308.333 327.885 305.549 322.12 299.981C316.356 294.331 313.474 285.815 313.474 274.433V252.816C313.474 241.761 316.356 233.368 322.12 227.637C327.885 221.823 335.532 218.916 345.062 218.916C354.669 218.916 362.316 221.823 368.004 227.637C373.768 233.368 376.65 241.761 376.65 252.816V274.433C376.65 285.815 373.768 294.331 368.004 299.981C362.316 305.549 354.669 308.333 345.062 308.333ZM345.062 294.331C350.826 294.331 355.053 292.652 357.743 289.295C360.51 285.938 361.894 281.147 361.894 274.924V252.079C361.894 245.774 360.356 241.025 357.282 237.831C354.285 234.556 350.211 232.918 345.062 232.918C339.759 232.918 335.609 234.597 332.611 237.954C329.691 241.311 328.23 246.019 328.23 252.079V274.924C328.23 281.393 329.614 286.265 332.381 289.54C335.224 292.734 339.452 294.331 345.062 294.331Z" fill="#1D343F"/>
<path d="M425.12 306.613V289.172H385.462V270.994L413.361 220.636H439.876V275.17H453.249V289.172H439.876V306.613H425.12ZM399.527 275.17H425.12V230.707H423.045L399.527 273.205V275.17Z" fill="#1D343F"/>
<path d="M111.024 285.709L145.189 285.709C145.189 330.338 181.503 366.66 226.123 366.66L226.123 400.832C162.646 400.832 111.024 349.175 110.999 285.709L111.024 285.709Z" fill="#0C1C23"/>
<path d="M111 285.711C111 290.246 118.654 293.922 128.095 293.922C137.536 293.922 145.189 290.246 145.189 285.711C145.189 281.176 137.536 277.5 128.095 277.5C118.654 277.5 111 281.176 111 285.711Z" fill="#3E5163"/>
<path d="M217.915 383.733C217.915 393.176 221.591 400.831 226.125 400.831C230.659 400.831 234.334 393.176 234.334 383.733C234.334 374.29 230.659 366.635 226.125 366.635C221.591 366.635 217.915 374.29 217.915 383.733Z" fill="#3E5163"/>
<path d="M466.183 391.583H609.901C624.598 391.583 633.759 375.536 626.411 362.757L554.552 237.751C547.204 224.971 528.881 224.971 521.533 237.751L449.674 362.757C442.326 375.536 451.487 391.583 466.183 391.583Z" fill="#0C1C23"/>
<path d="M546.57 337.975C546.57 342.684 542.752 346.502 538.043 346.502V346.502C533.333 346.502 529.516 342.684 529.516 337.975L529.516 281.774C529.516 277.064 533.333 273.246 538.043 273.246V273.246C542.752 273.246 546.57 277.064 546.57 281.774L546.57 337.975Z" fill="#3E5163"/>
<path d="M546.57 360.589C546.57 365.258 542.752 369.042 538.043 369.042C533.333 369.042 529.516 365.258 529.516 360.589C529.516 355.921 533.333 352.137 538.043 352.137C542.752 352.137 546.57 355.921 546.57 360.589Z" fill="#3E5163"/>
<path d="M267.044 129.5H117.002V166.5H267.044V129.5Z" fill="#0C1C23"/>
<path d="M118.202 166.5C122.18 166.5 125.404 158.217 125.404 148C125.404 137.783 122.18 129.5 118.202 129.5C114.224 129.5 111 137.783 111 148C111 158.217 114.224 166.5 118.202 166.5Z" fill="#3E5163"/>
<path d="M268.243 166.5C272.221 166.5 275.445 158.217 275.445 148C275.445 137.783 272.221 129.5 268.243 129.5C264.265 129.5 261.041 137.783 261.041 148C261.041 158.217 264.265 166.5 268.243 166.5Z" fill="#3E5163"/>
</svg>
