<svg width="741" height="519" viewBox="0 0 741 519" fill="none" xmlns="http://www.w3.org/2000/svg">
<path d="M272.696 220.4C270.213 210.469 276.173 200.128 286.007 197.303L460.351 147.222C470.185 144.397 480.169 150.158 482.651 160.089L512.418 279.182C514.9 289.113 508.94 299.454 499.106 302.279L324.762 352.36C314.928 355.185 304.944 349.424 302.462 339.493L272.696 220.4Z" fill="#0C1C23"/>
<path d="M262.438 203.893C262.438 193.656 270.731 185.357 280.963 185.357H503.263C513.494 185.357 521.788 193.656 521.788 203.893V358.357C521.788 368.594 513.494 376.893 503.263 376.893H280.963C270.731 376.893 262.438 368.594 262.438 358.357V203.893Z" fill="#1D343F"/>
<path d="M287.137 219.34C287.137 214.222 291.284 210.072 296.399 210.072H487.824C492.94 210.072 497.087 214.222 497.087 219.34V342.912C497.087 348.03 492.94 352.179 487.824 352.179H296.399C291.284 352.179 287.137 348.03 287.137 342.912V219.34Z" fill="#3E5163"/>
<path d="M413.725 274.946C413.725 264.709 422.019 256.41 432.25 256.41H527.962C529.667 256.41 531.05 257.793 531.05 259.499V302.749C531.05 304.456 529.667 305.839 527.962 305.839H432.25C422.019 305.839 413.725 297.54 413.725 287.303V274.946Z" fill="#0C1C23"/>
<path d="M444.599 281.125C444.599 286.244 440.452 290.393 435.337 290.393C430.221 290.393 426.074 286.244 426.074 281.125C426.074 276.007 430.221 271.857 435.337 271.857C440.452 271.857 444.599 276.007 444.599 281.125Z" fill="#3E5163"/>
<path d="M333.449 203.893C333.449 238.016 305.803 265.679 271.699 265.679C237.596 265.679 209.949 238.016 209.949 203.893C209.949 169.77 237.596 142.107 271.699 142.107C305.803 142.107 333.449 169.77 333.449 203.893Z" fill="#0C1C23"/>
<path d="M278.965 211.163C278.965 215.177 275.712 218.432 271.7 218.432V218.432C267.688 218.432 264.435 215.177 264.435 211.163L264.435 171.184C264.435 167.169 267.688 163.915 271.7 163.915V163.915C275.712 163.915 278.965 167.169 278.965 171.184L278.965 211.163Z" fill="#3E5163"/>
<path d="M278.963 236.603C278.963 240.617 275.71 243.872 271.698 243.872C267.686 243.872 264.434 240.617 264.434 236.603C264.434 232.588 267.686 229.334 271.698 229.334C275.71 229.334 278.963 232.588 278.963 236.603Z" fill="#3E5163"/>
</svg>
