<svg width="234" height="234" viewBox="0 0 234 234" fill="none" xmlns="http://www.w3.org/2000/svg">
<circle cx="117" cy="117" r="117" fill="#6C80B2"/>
<path d="M46.2327 153H39V81H46.3331L87.6197 143.547H85.9119V81H93.0442V153H85.9119L44.525 90.4525H46.2327V153Z" fill="white"/>
<path d="M108.861 153H102.03L130.057 81H137.088L108.861 153Z" fill="white"/>
<path d="M139.473 153H132.14L158.56 81H167.5L194.221 153H186.687L179.655 133.894H146.505L139.473 153ZM162.076 91.1564L148.715 127.559H177.345L163.884 91.1564C163.75 90.6201 163.582 90.0838 163.381 89.5475C163.181 89.0112 163.047 88.5754 162.98 88.2402C162.913 88.5754 162.779 89.0447 162.578 89.648C162.444 90.1844 162.276 90.6871 162.076 91.1564Z" fill="white"/>
</svg>
