<svg width="740" height="518" viewBox="0 0 740 518" fill="none" xmlns="http://www.w3.org/2000/svg">
<path d="M604.222 229.736L575.382 229.736C575.382 192.073 544.729 161.421 507.064 161.421L507.064 132.582C560.647 132.582 604.222 176.176 604.242 229.736L604.222 229.736Z" fill="#0C1C23"/>
<path d="M604.243 229.737C604.243 225.91 597.782 222.807 589.813 222.807C581.843 222.807 575.383 225.91 575.383 229.737C575.383 233.564 581.843 236.666 589.813 236.666C597.782 236.666 604.243 233.564 604.243 229.737Z" fill="#3E5163"/>
<path d="M513.994 147.012C513.994 139.043 510.892 132.583 507.064 132.583C503.237 132.583 500.135 139.043 500.135 147.012C500.135 154.981 503.237 161.441 507.064 161.441C510.892 161.441 513.994 154.981 513.994 147.012Z" fill="#3E5163"/>
<path d="M169.584 157.251C169.584 143.628 180.628 132.584 194.251 132.584H453.251C466.874 132.584 477.917 143.628 477.917 157.251V212.751C477.917 226.374 466.874 237.417 453.251 237.417H194.251C180.628 237.417 169.584 226.374 169.584 212.751V157.251Z" fill="#3E5163"/>
<path d="M212.75 171.126C212.75 166.869 216.201 163.418 220.458 163.418H427.042C431.299 163.418 434.75 166.869 434.75 171.126V171.126C434.75 175.383 431.299 178.835 427.042 178.835H220.458C216.201 178.835 212.75 175.383 212.75 171.126V171.126Z" fill="#0C1C23"/>
<path d="M212.75 198.876C212.75 194.619 216.201 191.168 220.458 191.168H359.208C363.466 191.168 366.917 194.619 366.917 198.876V198.876C366.917 203.133 363.466 206.585 359.208 206.585H220.458C216.201 206.585 212.75 203.133 212.75 198.876V198.876Z" fill="#0C1C23"/>
<path d="M135.666 246.667C135.666 233.044 146.71 222 160.333 222H326.833C340.456 222 351.499 233.044 351.499 246.667V289.833C351.499 303.456 340.456 314.5 326.833 314.5H160.333C146.71 314.5 135.666 303.456 135.666 289.833V246.667Z" fill="#132730"/>
<path d="M166.5 254.374C166.5 250.117 169.951 246.666 174.208 246.666H312.958C317.216 246.666 320.667 250.117 320.667 254.374V254.374C320.667 258.632 317.216 262.083 312.958 262.083H174.208C169.951 262.083 166.5 258.632 166.5 254.374V254.374Z" fill="#3E5163"/>
<path d="M166.5 282.124C166.5 277.867 169.951 274.416 174.208 274.416H269.792C274.049 274.416 277.5 277.867 277.5 282.124V282.124C277.5 286.382 274.049 289.833 269.792 289.833H174.208C169.951 289.833 166.5 286.382 166.5 282.124V282.124Z" fill="#3E5163"/>
<path fill-rule="evenodd" clip-rule="evenodd" d="M523.55 320.518L495.756 292.724L511.641 276.84L539.434 304.633L523.55 320.518Z" fill="#0C1C23"/>
<path opacity="0.7" d="M518.22 250.632C518.22 277.513 496.429 299.304 469.548 299.304C442.666 299.304 420.875 277.513 420.875 250.632C420.875 223.75 442.666 201.959 469.548 201.959C496.429 201.959 518.22 223.75 518.22 250.632Z" fill="#777E90"/>
<path fill-rule="evenodd" clip-rule="evenodd" d="M593.426 374.508C586.116 381.819 574.263 381.819 566.952 374.508L518.221 325.777L544.695 299.303L593.426 348.034C600.737 355.345 600.737 367.198 593.426 374.508Z" fill="#132730"/>
<path d="M419.801 300.93C433.234 314.362 451.102 321.759 470.102 321.76C489.102 321.76 506.97 314.364 520.402 300.931C533.834 287.499 541.23 269.631 541.23 250.631C541.23 231.631 533.833 213.763 520.4 200.33L503.63 217.101C512.227 225.698 517.543 237.553 517.543 250.631C517.543 263.297 512.616 275.221 503.654 284.183C494.691 293.146 482.779 298.084 470.101 298.073C457.023 298.072 445.157 292.745 436.571 284.159L419.812 300.918L419.801 300.93Z" fill="#3E5163"/>
<path d="M520.401 200.331C506.968 186.898 489.1 179.501 470.1 179.501C451.1 179.501 433.243 186.885 419.8 200.329C406.367 213.762 398.971 231.63 398.972 250.629C398.972 269.629 406.369 287.498 419.801 300.93L436.572 284.16C427.975 275.563 422.659 263.708 422.659 250.63C422.658 237.963 427.585 226.04 436.548 217.077C445.51 208.115 457.422 203.176 470.1 203.188C483.178 203.188 495.045 208.516 503.63 217.101L520.389 200.342L520.401 200.331Z" fill="#132730"/>
<path d="M432.205 296.575C436.833 291.947 438.783 286.394 436.56 284.171C434.338 281.949 428.785 283.899 424.157 288.527C419.529 293.155 417.579 298.708 419.801 300.93C422.024 303.153 427.577 301.203 432.205 296.575Z" fill="#0C1C23"/>
<path d="M516.045 212.735C520.673 208.107 522.623 202.554 520.4 200.332C518.178 198.109 512.625 200.059 507.997 204.687C503.369 209.315 501.419 214.868 503.641 217.091C505.864 219.313 511.417 217.363 516.045 212.735Z" fill="#0C1C23"/>
</svg>
