<svg width="741" height="519" viewBox="0 0 741 519" fill="none" xmlns="http://www.w3.org/2000/svg">
<path d="M169.812 206.982C169.812 193.333 180.871 182.268 194.513 182.268H453.863C467.504 182.268 478.563 193.333 478.563 206.982V262.589C478.563 276.238 467.504 287.303 453.863 287.303H194.512C180.871 287.303 169.812 276.238 169.812 262.589V206.982Z" fill="#3E5163"/>
<path d="M213.037 220.883C213.037 216.618 216.493 213.16 220.756 213.16H427.618C431.881 213.16 435.337 216.618 435.337 220.883V220.883C435.337 225.149 431.881 228.607 427.618 228.607H220.756C216.493 228.607 213.037 225.149 213.037 220.883V220.883Z" fill="#0C1C23"/>
<path d="M213.037 248.688C213.037 244.423 216.493 240.965 220.756 240.965H359.693C363.956 240.965 367.412 244.423 367.412 248.688V248.688C367.412 252.953 363.956 256.411 359.693 256.411H220.756C216.493 256.411 213.037 252.953 213.037 248.688V248.688Z" fill="#0C1C23"/>
<path d="M240.825 185.358C240.825 214.363 217.325 237.876 188.337 237.876C159.349 237.876 135.85 214.363 135.85 185.358C135.85 156.353 159.349 132.84 188.337 132.84C217.325 132.84 240.825 156.353 240.825 185.358Z" fill="#132730"/>
<path d="M199.564 165.136C202.044 162.654 206.065 162.654 208.546 165.136V165.136C211.026 167.618 211.026 171.641 208.546 174.123L177.109 205.578C174.629 208.059 170.608 208.059 168.128 205.578V205.578C165.647 203.096 165.647 199.072 168.128 196.591L199.564 165.136Z" fill="#3E5163"/>
<path d="M208.548 196.59C211.028 199.072 211.028 203.096 208.548 205.577V205.577C206.068 208.059 202.047 208.059 199.566 205.577L168.13 174.123C165.65 171.641 165.65 167.618 168.13 165.136V165.136C170.61 162.654 174.632 162.654 177.112 165.136L208.548 196.59Z" fill="#3E5163"/>
<path fill-rule="evenodd" clip-rule="evenodd" d="M524.257 321.138L496.426 293.29L512.332 277.375L540.163 305.222L524.257 321.138Z" fill="#0C1C23"/>
<path opacity="0.7" d="M518.92 251.116C518.92 278.049 497.099 299.883 470.182 299.883C443.264 299.883 421.443 278.049 421.443 251.116C421.443 224.183 443.264 202.35 470.182 202.35C497.099 202.35 518.92 224.183 518.92 251.116Z" fill="#777E90"/>
<path fill-rule="evenodd" clip-rule="evenodd" d="M594.227 375.232C586.907 382.557 575.038 382.557 567.717 375.232L518.92 326.406L545.43 299.881L594.227 348.706C601.548 356.031 601.548 367.907 594.227 375.232Z" fill="#132730"/>
<path d="M420.367 301.512C433.818 314.97 451.71 322.381 470.736 322.382C489.762 322.382 507.654 314.972 521.104 301.513C534.555 288.055 541.961 270.153 541.961 251.116C541.96 232.08 534.553 214.177 521.103 200.718L504.309 217.521C512.918 226.134 518.241 238.012 518.242 251.116C518.242 263.807 513.308 275.753 504.333 284.733C495.359 293.713 483.431 298.661 470.736 298.649C457.64 298.649 445.757 293.311 437.16 284.709L420.379 301.5L420.367 301.512Z" fill="#3E5163"/>
<path d="M521.103 200.718C507.652 187.26 489.759 179.848 470.734 179.848C451.708 179.848 433.828 187.247 420.366 200.716C406.915 214.175 399.509 232.077 399.509 251.114C399.51 270.15 406.916 288.053 420.367 301.512L437.16 284.709C428.552 276.095 423.229 264.218 423.228 251.114C423.228 238.423 428.162 226.477 437.136 217.497C446.111 208.517 458.039 203.569 470.734 203.581C483.83 203.581 495.713 208.919 504.31 217.521L521.091 200.73L521.103 200.718Z" fill="#132730"/>
<path d="M432.788 297.149C437.422 292.512 439.374 286.948 437.149 284.721C434.924 282.494 429.363 284.448 424.729 289.085C420.095 293.722 418.142 299.286 420.367 301.512C422.593 303.739 428.154 301.785 432.788 297.149Z" fill="#0C1C23"/>
<path d="M516.741 213.145C521.375 208.508 523.328 202.944 521.102 200.717C518.877 198.49 513.316 200.444 508.682 205.081C504.048 209.718 502.095 215.282 504.321 217.508C506.546 219.735 512.107 217.781 516.741 213.145Z" fill="#0C1C23"/>
</svg>
