<svg width="180" height="180" viewBox="0 0 180 180" fill="none" xmlns="http://www.w3.org/2000/svg">
<path d="M140.891 120.722C140.264 120.095 139.282 120.122 138.655 120.722C122.236 135.968 96.5728 135.613 80.591 119.631L65.6455 134.577C89.8637 158.795 128.864 159.177 153.546 135.75C154.2 135.122 154.2 134.059 153.546 133.404L140.891 120.75V120.722Z" fill="#020617"/>
<path d="M140.918 59.2754C140.291 59.9026 139.309 59.9026 138.655 59.2754C122.236 44.0299 96.5728 44.4117 80.591 60.3936L65.6455 45.4481C89.8364 21.2572 128.836 20.8481 153.518 44.2754C154.2 44.9027 154.2 45.9936 153.518 46.6481L140.891 59.2754H140.918Z" fill="#020617"/>
<path d="M80.5899 119.597L109.035 91.1513C109.69 90.4968 109.69 89.4604 109.035 88.8331L80.5899 60.3877C64.2535 76.7241 64.2535 103.233 80.5899 119.597Z" fill="#020617"/>
<path d="M65.6455 45.4716L51.8727 31.6989C51.2182 31.0444 50.1546 31.0444 49.5273 31.6989C33.9 47.9535 26.1 68.9807 26.1 90.008C26.1 111.035 33.9 132.063 49.5273 148.317C50.1546 148.972 51.2182 148.972 51.8727 148.317L65.6455 134.544C53.3455 122.244 47.1818 106.126 47.1818 90.008C47.1818 73.8898 53.3455 57.7716 65.6455 45.4716Z" fill="#020617"/>
</svg>
