<svg width="170" height="120" viewBox="0 0 170 120" fill="none" xmlns="http://www.w3.org/2000/svg">
<path fill-rule="evenodd" clip-rule="evenodd" d="M94.9401 29.3845C88.5278 27.2412 81.604 27.1684 75.148 29.1764C68.6921 31.1843 63.0309 35.1714 58.9655 40.5736C54.9 45.9757 52.6361 52.5194 52.4939 59.2789C52.3518 66.0384 54.3386 72.6715 58.1734 78.2398C62.0081 83.8081 67.4966 88.0296 73.8625 90.3073C80.2283 92.5849 87.1491 92.8032 93.6458 90.9314L94.6383 94.3763C87.4191 96.4562 79.7286 96.2136 72.6548 93.6827C65.581 91.1517 59.4821 86.4607 55.2209 80.2731C50.9596 74.0856 48.7518 66.7148 48.9098 59.2035C49.0677 51.6923 51.5835 44.4208 56.1011 38.4179C60.6186 32.415 66.9094 27.9845 74.0833 25.7532C81.2572 23.5219 88.9511 23.6028 96.0766 25.9844C103.202 28.366 109.398 32.9278 113.789 39.0244C118.179 45.121 120.541 52.4437 120.541 59.9567H116.956C116.956 53.1957 114.83 46.6058 110.879 41.1194C106.928 35.633 101.352 31.5277 94.9401 29.3845Z" fill="#334155"/>
<path fill-rule="evenodd" clip-rule="evenodd" d="M98.2746 17.7271C88.844 14.7208 78.6789 14.9545 69.3964 18.3909C60.1138 21.8272 52.2469 28.2689 47.0471 36.6912C41.8473 45.1136 39.6131 55.0329 40.7001 64.8712C41.787 74.7095 46.1326 83.9019 53.0456 90.986C59.9586 98.0701 69.042 102.639 78.8508 103.966C88.6596 105.293 98.6305 103.302 107.177 98.31C115.724 93.3176 122.357 85.6106 126.019 76.4148C129.681 67.219 130.163 57.0627 127.388 47.5614L130.845 46.552C133.845 56.8244 133.323 67.8049 129.364 77.747C125.404 87.689 118.234 96.0216 108.994 101.419C99.753 106.817 88.9729 108.969 78.368 107.534C67.7632 106.1 57.9427 101.16 50.4687 93.5007C42.9946 85.8417 38.2964 75.9033 37.1212 65.2666C35.9461 54.6298 38.3615 43.9056 43.9833 34.7997C49.6052 25.6939 58.1105 18.7294 68.1463 15.0142C78.1822 11.2989 89.1722 11.0463 99.3682 14.2965L98.2746 17.7271Z" fill="#1E2535"/>
<path fill-rule="evenodd" clip-rule="evenodd" d="M36.1515 31.7807C29.8647 42.6697 27.3997 55.3483 29.1485 67.7996C30.8974 80.251 36.7596 91.76 45.8028 100.496C54.846 109.232 66.5507 114.693 79.055 116.01C91.5594 117.328 104.145 114.426 114.811 107.767C125.476 101.107 133.608 91.073 137.913 79.2595C142.219 67.4461 142.45 54.5322 138.571 42.572C134.692 30.6118 126.924 20.2923 116.505 13.255C106.085 6.21773 93.6113 2.8668 81.0677 3.7353L80.819 0.143261C94.1639 -0.78071 107.435 2.78429 118.52 10.2712C129.605 17.7581 137.869 28.7368 141.996 41.4611C146.123 54.1854 145.877 67.9243 141.296 80.4925C136.716 93.0606 128.064 103.736 116.717 110.821C105.371 117.906 91.981 120.993 78.6778 119.591C65.3745 118.189 52.9221 112.38 43.3012 103.086C33.6803 93.7915 27.4435 81.5473 25.5829 68.3004C23.7223 55.0536 26.3449 41.565 33.0333 29.9803L36.1515 31.7807Z" fill="#1E2535"/>
<path d="M121.053 59.553C121.053 79.7114 104.712 96.053 84.5532 96.053C64.3948 96.053 48.0532 79.7114 48.0532 59.553C48.0532 39.3946 64.3948 23.053 84.5532 23.053C104.712 23.053 121.053 39.3946 121.053 59.553Z" fill="#334155"/>
<path fill-rule="evenodd" clip-rule="evenodd" d="M75.0622 71.8331C72.9721 68.7059 72.0826 64.493 72.0826 60.0223C72.0826 55.5515 72.9721 51.3283 75.0613 48.1906C77.1863 44.999 80.5129 43 85.1392 43C89.7654 43 93.092 44.999 95.2171 48.1906C97.3062 51.3283 98.1958 55.5515 98.1958 60.0223C98.1958 64.493 97.3063 68.7059 95.2161 71.8331C93.0898 75.0143 89.7629 77 85.1392 77C80.5154 77 77.1885 75.0143 75.0622 71.8331ZM90.3827 68.2362C91.4744 66.1555 91.9242 63.236 91.9242 60.0223C91.9242 56.8087 91.4745 53.877 90.3818 51.7843C89.8421 50.7507 89.1603 49.9498 88.3237 49.4056C87.4936 48.8655 86.4564 48.5421 85.1392 48.5421C83.8219 48.5421 82.7848 48.8655 81.9546 49.4056C81.118 49.9498 80.4362 50.7507 79.8965 51.7843C78.8038 53.877 78.3542 56.8087 78.3542 60.0223C78.3542 63.236 78.8039 66.1555 79.8956 68.2362C80.4347 69.2636 81.1158 70.0591 81.9521 70.5998C82.7824 71.1365 83.8204 71.4579 85.1392 71.4579C86.4579 71.4579 87.496 71.1365 88.3262 70.5998C89.1625 70.0591 89.8437 69.2636 90.3827 68.2362ZM116.606 69.1618V76.3765H122.696V69.1618H127V63.6197H122.696V43.6235H117.106L101.521 64.2824V69.1618H116.606ZM116.606 63.6197H108.699L116.606 53.1688V63.6197ZM58.0851 76.3765H64.1755V69.1618H68.479V63.6197H64.1755V43.6235H58.585L43 64.2824V69.1618H58.0851V76.3765ZM58.0851 63.6197H50.1777L58.0851 53.1688V63.6197Z" fill="#8A99AE"/>
</svg>
