<svg width="170" height="120" viewBox="0 0 170 120" fill="none" xmlns="http://www.w3.org/2000/svg">
<path d="M39.7174 43.9399C38.9135 40.7252 40.8437 37.3779 44.0288 36.4635L116.868 15.5521C117.93 15.2473 119.008 15.8689 119.276 16.9405L132.199 68.6174C133.003 71.8322 131.073 75.1794 127.888 76.0938L58.8933 95.9014C55.7083 96.8158 52.4746 94.951 51.6706 91.7363L39.7174 43.9399Z" fill="#1E2535"/>
<rect x="36.0503" y="31.5789" width="99.4741" height="73.4213" rx="4" fill="#707E94"/>
<rect x="45.5234" y="41.053" width="80.5266" height="54.4739" rx="2" fill="#8A99AE"/>
<path d="M94.0781 60.8162C94.0781 59.7116 94.9736 58.8162 96.0781 58.8162H138.078C138.631 58.8162 139.078 59.2639 139.078 59.8162V76.7636C139.078 77.3159 138.631 77.7636 138.078 77.7636H96.0781C94.9736 77.7636 94.0781 76.8682 94.0781 75.7636V60.8162Z" fill="#334155"/>
<ellipse cx="102.367" cy="68.2897" rx="3.55264" ry="3.55264" fill="#707E94"/>
<ellipse cx="36.6381" cy="37.9589" rx="22.0409" ry="22.0409" fill="#334155"/>
<path d="M38.9135 44.2016H34.9153L34.0039 32.4098V23.0679H39.8249V32.4098L38.9135 44.2016ZM39.1018 52.5866H34.727V48.2118H39.1018V52.5866Z" fill="#8A99AE"/>
</svg>
