<svg width="170" height="120" viewBox="0 0 170 120" fill="none" xmlns="http://www.w3.org/2000/svg">
<path fill-rule="evenodd" clip-rule="evenodd" d="M94.9401 29.3845C88.5278 27.2412 81.604 27.1684 75.148 29.1764C68.6921 31.1843 63.0309 35.1714 58.9655 40.5736C54.9 45.9757 52.6361 52.5194 52.4939 59.2789C52.3518 66.0384 54.3386 72.6715 58.1734 78.2398C62.0081 83.8081 67.4966 88.0296 73.8625 90.3073C80.2283 92.5849 87.1491 92.8032 93.6458 90.9314L94.6383 94.3763C87.4191 96.4562 79.7286 96.2136 72.6548 93.6827C65.581 91.1517 59.4821 86.4607 55.2209 80.2731C50.9596 74.0856 48.7518 66.7148 48.9098 59.2035C49.0677 51.6923 51.5835 44.4208 56.1011 38.4179C60.6186 32.415 66.9094 27.9845 74.0833 25.7532C81.2572 23.5219 88.9511 23.6028 96.0766 25.9844C103.202 28.366 109.398 32.9278 113.789 39.0244C118.179 45.121 120.541 52.4437 120.541 59.9567H116.956C116.956 53.1957 114.83 46.6058 110.879 41.1194C106.928 35.633 101.352 31.5277 94.9401 29.3845Z" fill="#334155"/>
<path fill-rule="evenodd" clip-rule="evenodd" d="M98.2746 17.727C88.8439 14.7208 78.6789 14.9545 69.3963 18.3908C60.1138 21.8272 52.2469 28.2689 47.0471 36.6912C41.8472 45.1136 39.6131 55.0329 40.7 64.8712C41.787 74.7095 46.1326 83.9019 53.0456 90.986C59.9586 98.0701 69.0419 102.639 78.8507 103.966C88.6596 105.293 98.6305 103.302 107.177 98.31C115.724 93.3176 122.356 85.6105 126.019 76.4148C129.681 67.219 130.163 57.0627 127.388 47.5614L130.845 46.552C133.844 56.8244 133.323 67.8049 129.364 77.747C125.404 87.689 118.234 96.0215 108.993 101.419C99.7529 106.817 88.9728 108.969 78.368 107.534C67.7631 106.1 57.9426 101.16 50.4686 93.5007C42.9946 85.8417 38.2963 75.9033 37.1212 65.2666C35.946 54.6298 38.3615 43.9056 43.9833 34.7997C49.6051 25.6939 58.1104 18.7294 68.1463 15.0142C78.1822 11.2989 89.1722 11.0463 99.3681 14.2965L98.2746 17.727Z" fill="#1E2535"/>
<path fill-rule="evenodd" clip-rule="evenodd" d="M36.1515 31.7807C29.8647 42.6697 27.3997 55.3483 29.1485 67.7996C30.8974 80.251 36.7596 91.76 45.8028 100.496C54.846 109.232 66.5507 114.693 79.055 116.01C91.5594 117.328 104.145 114.426 114.811 107.767C125.476 101.107 133.608 91.073 137.913 79.2595C142.219 67.4461 142.45 54.5322 138.571 42.572C134.692 30.6118 126.924 20.2923 116.505 13.255C106.085 6.21772 93.6113 2.8668 81.0677 3.7353L80.819 0.143261C94.1639 -0.78071 107.435 2.78428 118.52 10.2712C129.605 17.7581 137.869 28.7368 141.996 41.4611C146.123 54.1854 145.877 67.9243 141.296 80.4925C136.716 93.0606 128.064 103.736 116.717 110.821C105.371 117.906 91.981 120.993 78.6778 119.591C65.3745 118.189 52.9221 112.38 43.3012 103.086C33.6803 93.7915 27.4435 81.5473 25.5829 68.3004C23.7223 55.0536 26.3449 41.565 33.0333 29.9803L36.1515 31.7807Z" fill="#1E2535"/>
<circle cx="84.5" cy="59.5" r="36.5" fill="#334155"/>
<path fill-rule="evenodd" clip-rule="evenodd" d="M141.8 60.9517L132.786 51.9375L137.938 46.7858L146.952 55.7999L141.8 60.9517Z" fill="#1E2535"/>
<circle cx="124.286" cy="38.2857" r="15.7857" fill="#8A99AE" fill-opacity="0.7"/>
<path fill-rule="evenodd" clip-rule="evenodd" d="M161.584 81.3414C160.803 82.1224 159.537 82.1224 158.756 81.3414L140.072 62.6577L148.658 54.0714L167.342 72.7551C168.123 73.5361 168.123 74.8025 167.342 75.5835L161.584 81.3414Z" fill="#334155"/>
<path d="M108.152 54.5991C112.508 58.9557 118.304 61.3546 124.466 61.3547C130.628 61.3549 136.423 58.9561 140.779 54.5997C145.136 50.2432 147.534 44.4482 147.534 38.2861C147.534 32.124 145.135 26.3289 140.779 21.9723L135.34 27.4113C138.128 30.1995 139.852 34.0444 139.852 38.286C139.852 42.3941 138.254 46.2611 135.347 49.1679C132.441 52.0746 128.577 53.6763 124.466 53.6725C120.224 53.6724 116.375 51.9446 113.591 49.1601L108.156 54.5954L108.152 54.5991Z" fill="#334155"/>
<path d="M140.779 21.9723C136.422 17.6157 130.627 15.2168 124.465 15.2167C118.303 15.2166 112.511 17.6116 108.151 21.9717C103.795 26.3282 101.396 32.1232 101.396 38.2853C101.396 44.4474 103.795 50.2425 108.152 54.5991L113.591 49.1601C110.803 46.3719 109.079 42.527 109.078 38.2854C109.078 34.1774 110.676 30.3103 113.583 27.4036C116.49 24.4968 120.353 22.8952 124.465 22.8989C128.707 22.899 132.555 24.6268 135.34 27.4113L140.775 21.976L140.779 21.9723Z" fill="#1E2535"/>
<path d="M112.175 53.1865C113.676 51.6856 114.308 49.8845 113.587 49.1637C112.866 48.4429 111.065 49.0754 109.564 50.5763C108.063 52.0772 107.431 53.8783 108.152 54.5991C108.873 55.3199 110.674 54.6874 112.175 53.1865Z" fill="#334155"/>
<path d="M139.366 25.995C140.867 24.4941 141.499 22.693 140.779 21.9722C140.058 21.2514 138.257 21.8838 136.756 23.3848C135.255 24.8857 134.622 26.6867 135.343 27.4075C136.064 28.1283 137.865 27.4959 139.366 25.995Z" fill="#334155"/>
<path d="M87.5908 71.6476H81.4092L80 49.7622V36H89V49.7622L87.5908 71.6476ZM87.882 84H81.118V77.5552H87.882V84Z" fill="#8A99AE"/>
</svg>
