<svg width="170" height="120" viewBox="0 0 170 120" fill="none" xmlns="http://www.w3.org/2000/svg">
<g clip-path="url(#clip0_23_831)">
<rect x="20" y="35" width="100" height="34" rx="3" fill="#707E94"/>
<rect x="34" y="45" width="72" height="5" rx="1" fill="#1E2535"/>
<rect x="34" y="54" width="50" height="5" rx="1" fill="#1E2535"/>
<circle cx="26" cy="36" r="17" fill="#334155"/>
<rect x="31.0908" y="28" width="4.11406" height="18.5133" rx="1" transform="rotate(45 31.0908 28)" fill="#707E94"/>
<rect x="34.0005" y="41.0908" width="4.11406" height="18.5133" rx="1" transform="rotate(135 34.0005 41.0908)" fill="#707E94"/>
<path fill-rule="evenodd" clip-rule="evenodd" d="M135.8 80.9516L126.786 71.9374L131.938 66.7856L140.952 75.7998L135.8 80.9516Z" fill="#1E2535"/>
<circle cx="118.286" cy="58.2857" r="15.7857" fill="#8A99AE" fill-opacity="0.7"/>
<path fill-rule="evenodd" clip-rule="evenodd" d="M155.584 101.342C154.803 102.123 153.537 102.123 152.756 101.342L134.072 82.6578L142.658 74.0715L161.342 92.7552C162.123 93.5363 162.123 94.8026 161.342 95.5836L155.584 101.342Z" fill="#334155"/>
<path d="M102.152 74.5991C106.508 78.9557 112.304 81.3546 118.466 81.3547C124.628 81.3549 130.423 78.9561 134.779 74.5997C139.136 70.2432 141.534 64.4482 141.534 58.2861C141.534 52.124 139.135 46.3289 134.779 41.9723L129.34 47.4113C132.128 50.1995 133.852 54.0444 133.852 58.286C133.852 62.3941 132.254 66.2611 129.347 69.1679C126.441 72.0746 122.577 73.6763 118.466 73.6725C114.224 73.6724 110.375 71.9446 107.591 69.1601L102.156 74.5954L102.152 74.5991Z" fill="#707E94"/>
<path d="M134.779 41.9723C130.422 37.6157 124.627 35.2168 118.465 35.2167C112.303 35.2166 106.511 37.6116 102.151 41.9717C97.7949 46.3282 95.3961 52.1232 95.3962 58.2853C95.3963 64.4474 97.7953 70.2425 102.152 74.5991L107.591 69.1601C104.803 66.3719 103.079 62.527 103.078 58.2854C103.078 54.1774 104.676 50.3103 107.583 47.4036C110.49 44.4968 114.353 42.8952 118.465 42.8989C122.707 42.899 126.555 44.6268 129.34 47.4113L134.775 41.976L134.779 41.9723Z" fill="#334155"/>
<path d="M106.175 73.1865C107.676 71.6856 108.308 69.8845 107.587 69.1637C106.866 68.4429 105.065 69.0754 103.564 70.5763C102.063 72.0772 101.431 73.8783 102.152 74.5991C102.873 75.3199 104.674 74.6874 106.175 73.1865Z" fill="#1E2535"/>
<path d="M133.366 45.9951C134.867 44.4942 135.499 42.6931 134.779 41.9723C134.058 41.2515 132.257 41.8839 130.756 43.3849C129.255 44.8858 128.622 46.6869 129.343 47.4077C130.064 48.1285 131.865 47.496 133.366 45.9951Z" fill="#1E2535"/>
</g>
<defs>
<clipPath id="clip0_23_831">
<rect width="152" height="82" fill="white" transform="translate(9 19)"/>
</clipPath>
</defs>
</svg>
