<svg width="170" height="120" viewBox="0 0 170 120" fill="none" xmlns="http://www.w3.org/2000/svg">
<g clip-path="url(#clip0_23_808)">
<rect x="20" y="19" width="100" height="34" rx="3" fill="#707E94"/>
<rect x="34" y="29" width="72" height="5" rx="1" fill="#1E2535"/>
<rect x="34" y="38" width="50" height="5" rx="1" fill="#1E2535"/>
<rect x="9" y="48" width="70" height="30" rx="2" fill="#334155"/>
<rect x="19" y="56" width="50" height="5" rx="1" fill="#707E94"/>
<rect x="19" y="65" width="36" height="5" rx="1" fill="#707E94"/>
<path fill-rule="evenodd" clip-rule="evenodd" d="M134.8 79.9517L125.786 70.9375L130.938 65.7858L139.952 74.7999L134.8 79.9517Z" fill="#1E2535"/>
<circle cx="117.286" cy="57.2857" r="15.7857" fill="#8A99AE" fill-opacity="0.7"/>
<path fill-rule="evenodd" clip-rule="evenodd" d="M154.584 100.341C153.803 101.122 152.537 101.122 151.756 100.341L133.072 81.6577L141.658 73.0714L160.342 91.7551C161.123 92.5361 161.123 93.8025 160.342 94.5835L154.584 100.341Z" fill="#334155"/>
<path d="M101.152 73.5991C105.508 77.9557 111.304 80.3546 117.466 80.3547C123.628 80.3549 129.423 77.9561 133.779 73.5997C138.136 69.2432 140.534 63.4482 140.534 57.2861C140.534 51.124 138.135 45.3289 133.779 40.9723L128.34 46.4113C131.128 49.1995 132.852 53.0444 132.852 57.286C132.852 61.3941 131.254 65.2611 128.347 68.1679C125.441 71.0746 121.577 72.6763 117.466 72.6725C113.224 72.6724 109.375 70.9446 106.591 68.1601L101.156 73.5954L101.152 73.5991Z" fill="#707E94"/>
<path d="M133.779 40.9723C129.422 36.6157 123.627 34.2168 117.465 34.2167C111.303 34.2166 105.511 36.6116 101.151 40.9717C96.7949 45.3282 94.3961 51.1232 94.3962 57.2853C94.3963 63.4474 96.7953 69.2425 101.152 73.5991L106.591 68.1601C103.803 65.3719 102.079 61.527 102.078 57.2854C102.078 53.1774 103.676 49.3103 106.583 46.4036C109.49 43.4968 113.353 41.8952 117.465 41.8989C121.707 41.899 125.555 43.6268 128.34 46.4113L133.775 40.976L133.779 40.9723Z" fill="#334155"/>
<path d="M105.175 72.1865C106.676 70.6856 107.308 68.8845 106.587 68.1637C105.866 67.4429 104.065 68.0754 102.564 69.5763C101.063 71.0772 100.431 72.8783 101.152 73.5991C101.873 74.3199 103.674 73.6874 105.175 72.1865Z" fill="#1E2535"/>
<path d="M132.366 44.995C133.867 43.4941 134.499 41.693 133.779 40.9722C133.058 40.2514 131.257 40.8838 129.756 42.3848C128.255 43.8857 127.622 45.6867 128.343 46.4075C129.064 47.1283 130.865 46.4959 132.366 44.995Z" fill="#1E2535"/>
</g>
<defs>
<clipPath id="clip0_23_808">
<rect width="152" height="82" fill="white" transform="translate(9 19)"/>
</clipPath>
</defs>
</svg>
